<svg width="695" height="554" viewBox="0 0 695 554" fill="none" xmlns="http://www.w3.org/2000/svg">
<g clip-path="url(#clip0)">
<path d="M506.137 395.729C499.416 392.136 491.5 391.668 484.039 392.947C480.031 393.633 475.853 394.875 473.126 397.995C470.398 401.116 469.88 406.606 473.013 409.286C474.876 410.883 477.476 411.123 479.893 411.096C485.735 411.025 492.217 409.959 496.882 413.601C499.546 415.678 501.318 419.133 504.502 420.153C507.615 421.153 511.13 419.25 512.78 416.337C514.432 413.425 514.487 409.785 513.717 406.503C513.717 406.503 512.906 399.348 506.137 395.729Z" fill="#FCC10F"/>
<path d="M521.533 364.93C517.424 371.011 509.437 368.998 505.733 365.286C502.03 361.574 500.464 356.195 499.04 351.064C495.784 339.341 492.501 327.042 494.921 315.104C495.644 311.536 496.933 307.976 499.353 305.328C501.774 302.681 505.496 301.105 508.899 302.036C512.925 303.139 515.431 307.227 517.239 311.115C522.557 322.543 525.371 335.212 525.412 347.899C525.432 353.824 524.759 360.037 521.533 364.93Z" fill="#FCC10F"/>
<path d="M532.819 373.656C528.356 368.17 527.51 360.166 529.496 353.291C531.481 346.417 535.967 340.57 541.137 335.796C547.197 330.198 554.322 325.841 561.981 323.052C564.996 321.954 568.175 321.087 571.355 321.401C574.536 321.716 577.74 323.401 579.224 326.333C581.417 330.669 579.313 335.926 577.039 340.216C573.031 347.774 568.449 355.004 563.347 361.818C559.243 367.302 554.543 372.708 548.289 375.186C542.035 377.664 535.538 377.372 532.223 372.877" fill="#FCC10F"/>
<path d="M521.812 456.672C521.735 456.678 521.61 455.692 521.439 453.908C521.251 451.896 521.013 449.371 520.731 446.366C520.392 443.193 519.945 439.416 519.094 435.304C518.247 431.202 516.919 426.758 515.213 422.248C513.449 417.766 511.297 413.69 508.779 410.433C506.282 407.161 503.375 404.792 500.644 403.426C497.921 402.031 495.481 401.468 493.794 401.215C492.092 401.035 491.138 400.895 491.137 400.816C491.137 400.738 492.092 400.726 493.841 400.774C495.572 400.893 498.114 401.35 500.983 402.7C503.861 404.025 506.944 406.428 509.565 409.768C512.207 413.094 514.439 417.258 516.236 421.821C517.969 426.408 519.277 430.901 520.088 435.09C520.896 439.275 521.266 443.093 521.508 446.292C521.739 449.495 521.826 452.089 521.868 453.882C521.907 455.674 521.888 456.668 521.812 456.672Z" fill="#253138"/>
<path d="M521.31 450.867C521.273 450.866 521.248 450.426 521.238 449.586C521.241 448.624 521.244 447.409 521.248 445.919C521.256 442.738 521.255 438.133 521.09 432.446C520.819 421.071 519.874 408.83 518.048 391.573C516.319 375.346 513.999 356.464 511.551 344.186C511.026 341.392 510.497 338.877 509.998 336.679C509.524 334.472 509.119 332.571 508.728 331.032C508.392 329.584 508.118 328.405 507.901 327.468C507.724 326.649 507.648 326.215 507.684 326.204C507.721 326.195 507.868 326.606 508.114 327.406C508.385 328.328 508.724 329.491 509.142 330.919C509.598 332.444 510.065 334.333 510.598 336.529C511.153 338.72 511.737 341.226 512.313 344.015C514.735 355.141 517.299 370.69 519.143 387.988C520.972 405.282 521.795 421.029 521.869 432.431C521.934 438.132 521.817 442.745 521.677 445.929C521.589 447.418 521.518 448.632 521.46 449.595C521.398 450.432 521.348 450.87 521.31 450.867Z" fill="#253138"/>
<path d="M521.236 420.498C521.159 420.495 521.174 419.137 521.262 416.668C521.398 414.207 521.724 410.65 522.394 406.29C523.104 401.943 524.095 396.779 525.652 391.169C526.326 388.605 527.912 382.46 531.753 373.278C536.815 360.836 543.691 350.666 549.674 344.364C551.077 342.693 552.64 341.486 553.889 340.304C554.537 339.739 555.108 339.173 555.691 338.725C556.277 338.306 556.821 337.917 557.327 337.556C559.296 336.162 560.398 335.425 560.439 335.491C560.616 335.741 556.029 338.537 550.237 344.922C544.469 351.293 537.784 361.394 532.764 373.73C529.964 380.422 528.012 386.392 526.628 391.459C525.028 397.016 523.964 402.124 523.162 406.429C522.397 410.743 521.956 414.265 521.69 416.704C521.47 419.147 521.312 420.501 521.236 420.498Z" fill="#253138"/>
<path d="M549.567 474.071L546.63 515.762H494.939L492.002 474.071H549.567Z" fill="#253138"/>
<path d="M554.558 474.069H485.834V457.638H554.558V474.069Z" fill="#253138"/>
<path d="M554.558 514.165V518.721H551.328H486.971V514.165H554.558Z" fill="#455A63"/>
<path d="M548.164 526.737L551.33 518.721H489.432L493.126 526.737H548.164Z" fill="#455A63"/>
<path d="M492.962 487.695C492.95 487.705 493.032 487.834 493.203 488.077C493.409 488.359 493.662 488.709 493.975 489.139C494.71 490.112 495.718 491.449 496.987 493.132L497.12 493.309L497.25 493.124C499.143 490.411 501.672 486.788 504.648 482.522H504.222C506.422 485.751 508.873 489.347 511.505 493.208L511.733 493.544L511.989 493.228C514.677 489.915 517.596 486.315 520.627 482.579L520.13 482.572C520.279 482.768 520.442 482.979 520.604 483.191C523.284 486.671 525.875 490.04 528.328 493.224L528.585 493.558L528.823 493.211C531.445 489.367 533.895 485.775 536.111 482.527L535.687 482.548C539.278 486.788 542.324 490.385 544.661 493.143L544.82 493.331L544.942 493.119C546.124 491.059 547.068 489.419 547.752 488.228C548.045 487.697 548.283 487.268 548.473 486.925C548.631 486.627 548.707 486.47 548.692 486.461C548.68 486.451 548.577 486.592 548.392 486.874C548.183 487.203 547.919 487.616 547.594 488.126C546.877 489.295 545.886 490.908 544.645 492.93L544.924 492.906C542.624 490.112 539.628 486.474 536.094 482.182L535.872 481.911L535.67 482.204C533.436 485.436 530.964 489.011 528.318 492.838L528.814 492.824C526.367 489.634 523.781 486.262 521.108 482.777C520.945 482.564 520.782 482.353 520.632 482.158L520.387 481.839L520.134 482.152C517.112 485.894 514.2 489.5 511.52 492.821L512.004 492.84C509.346 488.998 506.87 485.421 504.648 482.209L504.433 481.898L504.222 482.209C501.308 486.52 498.833 490.184 496.98 492.925L497.243 492.917C495.923 491.278 494.875 489.975 494.111 489.026C493.771 488.618 493.495 488.286 493.273 488.02C493.079 487.795 492.973 487.685 492.962 487.695Z" fill="#DFDFDF"/>
<path d="M491.283 473.794C491.283 473.979 504.235 474.129 520.208 474.129C536.186 474.129 549.135 473.979 549.135 473.794C549.135 473.61 536.186 473.461 520.208 473.461C504.235 473.461 491.283 473.61 491.283 473.794Z" fill="#455A63"/>
<path d="M488.671 519.171C488.671 519.356 502.748 519.504 520.108 519.504C537.473 519.504 551.547 519.356 551.547 519.171C551.547 518.986 537.473 518.836 520.108 518.836C502.748 518.836 488.671 518.986 488.671 519.171Z" fill="#253138"/>
<path d="M-4.33091 527.494H154.629V370.983C154.629 359.866 145.933 350.856 135.205 350.856H15.0957C4.3672 350.856 -4.33091 359.866 -4.33091 370.983V527.494Z" fill="#455A63"/>
<path d="M9.03467 351.757C8.84973 351.757 8.70203 391.081 8.70203 439.577C8.70203 488.09 8.84973 527.405 9.03467 527.405C9.22089 527.405 9.36987 488.09 9.36987 439.577C9.36987 391.081 9.22089 351.757 9.03467 351.757Z" fill="#253138"/>
<path d="M79.8943 159.095C65.3299 180.606 56.8424 206.478 55.7341 232.728C54.9854 250.427 57.2854 269.288 49.1781 284.886C37.5493 307.261 12.3861 306.502 4.68194 330.63C1.33138 341.123 7.50725 364.219 9.1729 375.137C11.0646 387.546 3.74059 397.966 5.63355 410.376C7.36855 421.75 15.5838 429.87 25.4531 435.166C34.2321 439.878 42.3498 440.003 51.4845 436.085C68.8898 428.619 83.3759 420.738 95.7765 406.046C113.187 385.419 118.446 356.86 121.42 329.631C127.977 269.601 126.649 208.651 117.48 148.99" fill="#253138"/>
<path d="M42.6719 438.623C42.6719 438.623 42.4831 438.562 42.1107 438.477C41.7382 438.385 41.177 438.297 40.4643 438.072C39.0336 437.678 36.9326 436.972 34.4528 435.581C31.987 434.199 29.0667 432.164 26.5085 428.982C25.2448 427.395 24.0877 425.496 23.4032 423.275C22.7495 421.053 22.4542 418.555 22.3155 415.963C22.0689 410.747 22.8369 405.04 23.9798 399.008C25.0997 392.969 26.6202 386.525 26.9849 379.548C27.1609 376.073 27.0145 372.46 26.2594 368.88C25.5428 365.292 24.2919 361.785 22.9935 358.262C21.6862 354.741 20.3108 351.181 19.3155 347.451C18.3729 343.73 17.7937 339.779 18.4242 335.877C18.9726 331.971 20.5175 328.317 22.5916 325.12C24.663 321.908 27.2341 319.138 29.8745 316.571C35.1796 311.441 40.9227 307.203 45.8285 302.444C55.7274 292.998 62.3938 282.249 66.6074 272.721C68.7059 267.94 70.3176 263.475 71.3899 259.452C72.0076 257.464 72.3569 255.551 72.7987 253.825C73.1288 252.074 73.4318 250.473 73.7041 249.029C74.1125 246.123 74.4091 243.866 74.49 242.321C74.5453 241.576 74.5915 240.994 74.6223 240.57C74.648 240.175 74.6454 239.971 74.6454 239.971C74.6454 239.971 74.6018 240.171 74.553 240.563C74.5055 240.988 74.4412 241.565 74.3578 242.307C74.2332 243.845 73.8942 246.092 73.446 248.982C73.157 250.418 72.8372 252.01 72.4879 253.75C72.0282 255.467 71.6622 257.368 71.0303 259.342C69.9297 263.338 68.2936 267.771 66.1772 272.515C61.9315 281.968 55.2651 292.622 45.4124 301.975C40.5349 306.685 34.7802 310.911 29.4276 316.074C26.7628 318.659 24.1558 321.46 22.0419 324.736C19.9229 327.992 18.3266 331.752 17.7629 335.776C17.1143 339.799 17.7128 343.857 18.6734 347.632C19.6866 351.416 21.0749 354.994 22.3823 358.507C23.6819 362.021 24.9276 365.493 25.6339 369.016C26.3826 372.53 26.5355 376.081 26.3698 379.518C26.0269 386.413 24.5372 392.843 23.4366 398.899C22.3129 404.951 21.5629 410.71 21.8442 415.987C21.9995 418.621 22.3091 421.117 22.9987 423.411C23.7217 425.694 24.9212 427.625 26.2208 429.229C28.8522 432.442 31.8239 434.461 34.3308 435.821C36.853 437.185 38.981 437.855 40.4322 438.208C41.8859 438.566 42.6719 438.623 42.6719 438.623Z" fill="#455A63"/>
<path d="M281.774 486.17L220.146 455.842C220.146 455.842 196.146 335.091 191.608 326.021C187.069 316.954 168.099 309.117 168.099 309.117L171.277 472.631L176.906 510.348L263.822 518.88L281.774 486.17Z" fill="#FFF578"/>
<path d="M334.376 514.777C334.717 514.764 336.431 515.876 334.994 518.68C333.557 521.482 323.123 530.756 320.051 527.525C316.98 524.295 321.67 520.354 321.67 520.354L334.376 514.777Z" fill="#FFBD9D"/>
<path d="M321.227 520.479C321.227 520.479 308.626 522.125 303.773 524.037C298.503 526.111 292.086 524.697 287.767 521.664C283.448 518.632 280.929 515.892 280.929 515.892L264.852 515.628C264.852 515.628 257.134 507.34 261.716 494.988C262.516 492.834 263.378 491.128 265.4 488.486C267.309 486.347 270.325 484.612 275.536 483.679L294.636 487.953C294.636 487.953 324.229 485.763 329.488 488.34C329.488 488.34 336.1 492.402 338.146 494.106C338.916 494.748 341.26 502.549 336.448 506.605C336.448 506.605 340.637 510.059 338.368 513.155L337.28 514.529C337.28 514.529 340.098 518.308 338.652 519.953C337.206 521.598 324.545 529.288 320.015 527.454C315.486 525.622 319.234 521.274 321.227 520.479Z" fill="#FFBD9D"/>
<path d="M333.28 499.864C333.264 499.828 332.712 500.052 331.714 500.446C330.715 500.838 329.268 501.396 327.451 501.996C326.543 502.295 325.541 502.601 324.457 502.897C323.38 503.203 322.199 503.442 320.976 503.853C319.768 504.271 318.462 504.861 317.506 506.022C316.599 507.143 315.982 508.817 316.578 510.402C316.869 511.18 317.477 511.772 318.143 512.142C318.818 512.503 319.542 512.674 320.246 512.75C321.666 512.889 323 512.702 324.262 512.531C326.785 512.13 328.985 511.43 330.792 510.768C332.602 510.105 334.029 509.478 335.014 509.043C335.996 508.603 336.53 508.338 336.517 508.305C336.503 508.267 335.942 508.467 334.938 508.845C333.931 509.219 332.485 509.79 330.673 510.402C328.863 511.014 326.675 511.667 324.193 512.033C322.955 512.191 321.628 512.36 320.301 512.219C319.64 512.146 318.977 511.98 318.387 511.663C317.81 511.338 317.304 510.839 317.066 510.197C316.563 508.897 317.078 507.381 317.9 506.366C318.738 505.328 319.965 504.741 321.128 504.33C322.307 503.919 323.488 503.661 324.573 503.332C325.658 503.015 326.661 502.686 327.568 502.362C329.381 501.712 330.815 501.095 331.793 500.64C332.77 500.183 333.294 499.896 333.28 499.864Z" fill="#EB996D"/>
<path d="M332.147 490.426C332.132 490.39 331.582 490.612 330.591 491.01C329.597 491.406 328.161 491.979 326.358 492.601C324.556 493.225 322.387 493.899 319.946 494.505C318.742 494.825 317.353 495.079 316.209 496.072C315.65 496.561 315.226 497.283 315.114 498.076C314.994 498.863 315.128 499.675 315.439 500.404C316.072 501.895 317.405 502.849 318.737 503.313C320.084 503.792 321.487 503.824 322.754 503.643C325.305 503.247 327.403 502.299 329.214 501.706C330.946 501.076 332.381 500.556 333.472 500.159C334.474 499.784 335.024 499.558 335.012 499.523C335.001 499.489 334.431 499.644 333.408 499.958C332.304 500.312 330.853 500.777 329.098 501.338C327.273 501.888 325.143 502.795 322.693 503.145C321.47 503.306 320.158 503.261 318.904 502.809C317.669 502.372 316.47 501.489 315.92 500.183C315.339 498.897 315.53 497.316 316.548 496.475C317.527 495.605 318.859 495.317 320.061 494.994C322.513 494.355 324.684 493.638 326.48 492.965C328.276 492.291 329.698 491.663 330.67 491.207C331.64 490.745 332.161 490.458 332.147 490.426Z" fill="#EB996D"/>
<path d="M326.073 493.122C326.226 493.12 326.309 491.92 326.644 490.498C326.969 489.072 327.421 487.964 327.286 487.891C327.168 487.819 326.477 488.867 326.133 490.371C325.78 491.872 325.935 493.131 326.073 493.122Z" fill="#EB996D"/>
<path d="M281.602 493.514L292.836 489.029C292.836 489.029 324.032 473.943 324.558 474.758C325.086 475.577 326.776 475.488 326.408 479.428C326.038 483.369 307.858 491.315 307.284 492.68C306.709 494.045 307.667 500.949 300.953 505.893C294.239 510.837 289.393 510.946 289.393 510.946" fill="#FFBD9D"/>
<path d="M289.394 510.945C289.394 510.954 289.485 510.961 289.661 510.954C289.837 510.945 290.098 510.925 290.438 510.874C291.117 510.776 292.114 510.567 293.354 510.149C294.598 509.735 296.08 509.102 297.709 508.185C299.322 507.249 301.156 506.136 302.882 504.468C304.611 502.821 306.026 500.444 306.713 497.665C307.074 496.281 307.201 494.781 307.376 493.317C307.399 493.131 307.439 492.965 307.486 492.817C307.525 492.716 307.639 492.623 307.78 492.507C308.059 492.289 308.376 492.09 308.693 491.895C309.33 491.505 309.997 491.132 310.671 490.757C313.377 489.263 316.257 487.752 319.162 486.023C320.615 485.159 322.075 484.241 323.493 483.194C324.197 482.66 324.893 482.1 325.527 481.434C325.845 481.107 326.137 480.734 326.384 480.311C326.491 480.086 326.602 479.862 326.642 479.587C326.697 479.324 326.684 479.111 326.708 478.87C326.744 477.941 326.715 476.943 326.227 476.058C325.988 475.617 325.589 475.285 325.237 475.03C325.058 474.898 324.9 474.777 324.805 474.644C324.772 474.611 324.832 474.656 324.697 474.532C324.554 474.439 324.527 474.471 324.478 474.46C324.367 474.452 324.334 474.472 324.257 474.478C324.137 474.502 324.024 474.53 323.917 474.56C322.227 475.1 320.679 475.804 319.128 476.466C316.044 477.812 313.101 479.172 310.299 480.478C304.698 483.091 299.679 485.505 295.473 487.547C294.42 488.048 293.425 488.571 292.472 488.989C291.501 489.384 290.584 489.758 289.725 490.108C288.021 490.806 286.548 491.412 285.327 491.912C284.153 492.404 283.227 492.793 282.555 493.074C282.264 493.203 282.029 493.305 281.839 493.39C281.679 493.464 281.599 493.506 281.602 493.514C281.605 493.524 281.691 493.498 281.858 493.442C282.053 493.372 282.295 493.285 282.594 493.176C283.274 492.918 284.213 492.563 285.404 492.11C286.634 491.633 288.12 491.056 289.837 490.39C290.702 490.05 291.626 489.689 292.604 489.307C293.582 488.891 294.567 488.388 295.629 487.897C299.873 485.911 304.907 483.551 310.495 480.935C313.301 479.646 316.25 478.294 319.328 476.958C320.867 476.306 322.444 475.595 324.054 475.084C324.154 475.054 324.253 475.031 324.344 475.013C324.376 475.01 324.448 474.994 324.447 475.002C324.453 474.985 324.444 475.042 324.464 474.958C324.497 474.858 324.456 474.873 324.483 474.825C324.491 474.81 324.503 474.797 324.52 474.786C324.166 475.035 324.43 474.868 324.356 474.929L324.387 474.97C324.552 475.198 324.756 475.339 324.93 475.47C325.283 475.73 325.582 475.983 325.776 476.338C326.17 477.042 326.224 477.961 326.183 478.845C326.156 479.321 326.136 479.689 325.924 480.047C325.714 480.404 325.454 480.746 325.151 481.055C324.554 481.682 323.875 482.231 323.186 482.753C321.795 483.784 320.346 484.697 318.905 485.561C316.019 487.288 313.15 488.805 310.442 490.314C309.766 490.695 309.099 491.071 308.451 491.473C308.126 491.677 307.806 491.876 307.496 492.121C307.355 492.239 307.157 492.386 307.055 492.637C306.984 492.849 306.94 493.051 306.918 493.24C306.744 494.768 306.635 496.194 306.29 497.553C305.639 500.261 304.293 502.565 302.623 504.191C300.965 505.828 299.149 506.969 297.568 507.919C295.967 508.851 294.51 509.506 293.29 509.948C292.069 510.392 291.089 510.633 290.421 510.766C290.086 510.834 289.829 510.871 289.656 510.898C289.482 510.923 289.394 510.935 289.394 510.945Z" fill="#EB996D"/>
<path d="M323.798 512.463C323.789 512.433 323.351 512.52 322.604 512.823C321.859 513.125 320.803 513.662 319.664 514.585C319.102 515.055 318.503 515.591 317.962 516.294C317.446 516.982 316.92 517.912 317.056 519.015C317.191 520.126 318.108 521.002 319.135 521.343C320.197 521.713 321.348 521.538 322.405 521.237C326.585 519.918 330.223 518.326 332.746 516.934C334.008 516.239 334.994 515.614 335.655 515.152C336.319 514.691 336.666 514.407 336.647 514.377C336.625 514.343 336.241 514.568 335.549 514.971C334.858 515.374 333.851 515.945 332.578 516.59C330.039 517.881 326.391 519.41 322.266 520.71C321.251 521.004 320.2 521.148 319.298 520.836C318.395 520.54 317.649 519.811 317.536 518.943C317.406 518.07 317.834 517.226 318.31 516.569C318.797 515.904 319.369 515.355 319.897 514.883C322.073 513.024 323.849 512.568 323.798 512.463Z" fill="#EB996D"/>
<path d="M177.348 510.387C187.442 475.112 196.344 429.677 206.438 394.402C210.127 426.97 205.51 469.963 199.724 502.202C199.046 505.978 198.734 509.683 195.906 512.167L177.348 510.387Z" fill="black"/>
<path d="M193.878 486.172C194.013 486.205 194.44 483.87 195.809 480.347C196.479 478.582 197.46 476.559 198.704 474.413C199.99 472.293 201.562 470.065 203.448 467.936C205.359 465.829 207.387 464.037 209.333 462.552C211.305 461.106 213.18 459.943 214.829 459.121C218.118 457.444 220.335 456.832 220.291 456.695C220.28 456.648 219.725 456.787 218.729 457.078C218.227 457.214 217.62 457.404 216.938 457.692C216.253 457.97 215.455 458.244 214.626 458.678C212.929 459.456 211 460.591 208.976 462.031C206.977 463.512 204.902 465.32 202.958 467.464C201.039 469.63 199.453 471.91 198.178 474.083C196.941 476.281 195.991 478.358 195.368 480.169C195.011 481.057 194.807 481.904 194.59 482.632C194.364 483.359 194.226 483.999 194.131 484.528C193.925 485.58 193.833 486.162 193.878 486.172Z" fill="#253138"/>
<path d="M174.63 307.473C174.63 307.473 206.915 382.191 206.915 395.909C206.915 409.628 182.725 504.938 182.725 504.938C182.954 508.721 183.897 527.719 183.897 527.719L48.2941 528.199L46.2303 497.997L56.8137 469.215L46.2393 387.852C46.2393 387.852 39.1233 340.611 38.4902 327.4C37.6991 310.868 91.7409 291.706 90.2692 289.419L99.5992 276.475L153.067 321.457L163.631 289.842L176.287 302.238L174.63 307.473Z" fill="#FFF578"/>
<path d="M85.8311 327.349C100.506 353.08 127.368 399.971 127.368 399.971L175.501 456.836C175.501 456.836 178.649 485.734 172.352 494.591C166.055 503.446 155.259 509.506 155.259 509.506C155.259 509.506 142.55 509.506 126.413 495.522C110.274 481.54 65.7392 423.742 65.7392 423.742L50.4453 404.634C50.4453 404.634 32.2156 358.214 35.6176 334.59C36.9313 325.483 40.6723 321.694 45.668 317.517C58.2149 307.026 77.6287 312.966 85.8311 327.349Z" fill="#FFF578"/>
<path d="M44.7926 388.501C44.7823 388.506 44.8581 388.685 45.0147 389.028C45.1894 389.398 45.4257 389.9 45.7288 390.542C46.3683 391.868 47.3456 393.805 48.6838 396.255C51.3409 401.166 55.4684 408.104 60.8712 416.468C63.5745 420.646 66.5989 425.179 69.916 429.996C73.1998 434.841 77.0217 439.777 80.1321 445.58C83.3221 451.327 86.0627 457.717 89.4698 464.056C92.8768 470.391 96.8991 476.684 101.703 482.564C106.518 488.43 111.963 493.544 117.917 497.416C123.85 501.317 130.323 503.842 136.691 504.949C143.06 506.089 149.334 505.718 154.878 504.15C157.661 503.393 160.231 502.232 162.57 500.917C164.918 499.615 167.055 498.125 168.909 496.472C170.781 494.848 172.39 493.081 173.686 491.235C175.034 489.427 176.022 487.518 176.848 485.703C178.429 482.021 179.094 478.592 179.437 475.799C179.71 472.992 179.723 470.799 179.655 469.318C179.614 468.603 179.583 468.045 179.56 467.636C179.536 467.256 179.516 467.062 179.505 467.063C179.495 467.063 179.491 467.26 179.493 467.64C179.501 468.049 179.509 468.607 179.52 469.322C179.547 470.799 179.488 472.982 179.177 475.767C178.798 478.535 178.102 481.923 176.509 485.542C175.677 487.327 174.689 489.199 173.348 490.971C172.059 492.778 170.46 494.507 168.603 496.097C166.769 497.714 164.653 499.172 162.326 500.447C160.006 501.733 157.479 502.861 154.732 503.595C149.268 505.115 143.078 505.461 136.792 504.318C130.506 503.207 124.127 500.707 118.266 496.841C112.383 493.005 106.992 487.938 102.212 482.117C97.4436 476.28 93.4393 470.023 90.0438 463.726C86.6457 457.427 83.8911 451.038 80.6664 445.261C77.5148 439.424 73.657 434.473 70.3655 429.662C67.0329 424.864 63.9867 420.352 61.2616 416.194C55.8139 407.874 51.6311 400.984 48.9098 396.12C47.5395 393.695 46.525 391.781 45.8482 390.477C45.5207 389.849 45.2639 389.358 45.0764 388.995C44.8992 388.663 44.8029 388.496 44.7926 388.501Z" fill="#253138"/>
<path d="M177.911 454.269C177.853 454.369 178.595 454.803 179.48 455.825C180.36 456.823 181.341 458.511 181.528 460.571C181.708 462.631 181.042 464.478 180.353 465.627C179.665 466.798 179.011 467.367 179.087 467.453C179.124 467.516 179.908 467.074 180.746 465.899C181.58 464.755 182.391 462.772 182.195 460.506C181.988 458.244 180.84 456.45 179.818 455.481C178.784 454.487 177.938 454.201 177.911 454.269Z" fill="#253138"/>
<path d="M169.059 469.366C169.05 469.343 168.79 469.405 168.306 469.545C168.062 469.61 167.767 469.717 167.41 469.801C167.037 469.873 166.621 469.948 166.164 470.036C164.29 470.353 161.478 470.318 158.226 469.274C154.995 468.201 151.377 466.137 148.007 463.048C144.633 459.959 141.599 455.839 138.43 451.532C135.272 447.211 132.082 443.148 128.562 440.102C126.815 438.582 125.101 437.235 123.674 435.789C122.247 434.355 121.103 432.8 120.463 431.204C119.257 427.926 120.068 424.851 121.203 423.354C122.39 421.804 123.584 421.651 123.524 421.556C123.517 421.536 123.262 421.601 122.776 421.778C122.319 422.006 121.629 422.392 121 423.184C119.744 424.713 118.808 427.895 120.02 431.383C120.674 433.092 121.839 434.707 123.285 436.197C124.728 437.696 126.446 439.072 128.162 440.589C131.605 443.613 134.74 447.633 137.899 451.953C141.067 456.257 144.137 460.402 147.602 463.528C151.054 466.646 154.766 468.706 158.087 469.739C161.429 470.748 164.316 470.707 166.208 470.302C166.667 470.191 167.085 470.092 167.46 470.002C167.816 469.894 168.108 469.766 168.347 469.68C168.822 469.496 169.066 469.388 169.059 469.366Z" fill="#253138"/>
<path d="M79.2994 319.447C79.2814 319.462 79.4676 319.738 79.8387 320.25C80.2536 320.809 80.8006 321.546 81.4826 322.466C82.9466 324.358 84.9628 327.18 87.4183 330.692C92.283 337.747 98.5295 347.851 104.547 359.527C110.601 371.188 115.615 382.004 119.451 389.724C121.358 393.592 122.926 396.709 124.056 398.835C124.598 399.85 125.032 400.664 125.364 401.282C125.668 401.839 125.839 402.125 125.859 402.113C125.88 402.102 125.75 401.793 125.483 401.217C125.181 400.584 124.783 399.751 124.286 398.71C123.211 396.468 121.711 393.341 119.873 389.505C116.148 381.732 111.201 370.881 105.134 359.199C99.1048 347.5 92.7748 337.401 87.8023 330.405C85.2916 326.922 83.2137 324.14 81.6855 322.297C80.9624 321.411 80.3833 320.7 79.9428 320.16C79.5382 319.678 79.3173 319.431 79.2994 319.447Z" fill="#253138"/>
<path d="M179.506 467.063C173.245 470.58 166.372 470.206 159.383 468.785C152.395 467.363 145.924 463.351 141.41 457.642C142.625 463.964 145.238 470.144 149.69 474.647C154.142 479.151 160.586 481.771 166.704 480.609C172.825 479.449 179 473.488 179.506 467.063Z" fill="black"/>
<path d="M120.297 428.664C116.361 434.914 114.955 442.82 116.483 450.113C111.18 441.701 109.936 431.05 111.363 421.11C112.79 411.171 116.685 401.8 121.027 392.814C121.027 392.814 125.816 401.189 125.859 402.114C126.092 406.951 124.373 416.058 123.471 420.809C121.06 423.163 119.92 426.833 120.551 430.203" fill="black"/>
<path d="M158.285 501.875C145.522 512.182 126.584 512.668 112.62 504.198C99.1719 496.041 90.8937 481.356 83.2076 467.309C71.3105 445.566 56.7948 418.679 48.2957 395.286C48.2957 395.286 72.1208 428.968 79.301 443.485C84.7192 454.439 88.8762 461.657 95.5478 471.84C108.956 492.299 133.235 504.553 157.047 502.879" fill="black"/>
<path d="M183.896 527.717C183.911 527.716 183.919 527.575 183.918 527.301C183.913 526.975 183.905 526.577 183.896 526.086C183.858 524.956 183.804 523.413 183.736 521.477C183.556 517.429 183.306 511.752 183.004 504.924L182.992 505.019C185.3 497.038 187.997 487.356 190.788 476.897C194.489 463.034 197.612 450.418 199.712 441.248C200.761 436.661 201.579 432.942 202.091 430.362C202.334 429.121 202.529 428.131 202.676 427.388C202.803 426.707 202.857 426.346 202.834 426.341C202.812 426.337 202.712 426.685 202.545 427.357C202.367 428.093 202.132 429.073 201.837 430.302C201.21 432.929 200.331 436.611 199.252 441.131C197.034 450.266 193.843 462.854 190.143 476.712C187.354 487.167 184.698 496.859 182.462 504.855L182.446 504.906L182.45 504.951C182.85 511.776 183.181 517.447 183.419 521.494C183.55 523.426 183.655 524.968 183.731 526.097C183.772 526.584 183.806 526.982 183.833 527.305C183.862 527.579 183.881 527.717 183.896 527.717Z" fill="#253138"/>
<path d="M48.2367 316.717C48.2752 316.824 49.6237 316.329 51.8505 315.756C54.0774 315.182 57.2071 314.601 60.7015 314.488C64.1985 314.384 67.3577 314.769 69.6115 315.206C71.8679 315.638 73.2433 316.049 73.2754 315.941C73.2896 315.896 72.9595 315.747 72.3482 315.52C71.7408 315.283 70.8392 315.007 69.7091 314.726C67.4514 314.161 64.2408 313.691 60.6809 313.796C57.1249 313.911 53.9477 314.58 51.7272 315.284C50.6164 315.634 49.7302 315.965 49.1369 316.239C48.5398 316.506 48.2187 316.673 48.2367 316.717Z" fill="#253138"/>
<path d="M91.1899 292.183C91.1693 292.197 91.2875 292.435 91.5328 292.875C91.8192 293.377 92.18 294.008 92.6244 294.782C93.5888 296.43 95.0195 298.792 96.8302 301.682C100.465 307.45 105.661 315.308 111.808 323.675C116.754 330.417 121.545 336.468 125.47 341.209L125.745 341.542L125.919 341.148C127.783 336.91 129.326 333.402 130.446 330.857C130.946 329.682 131.349 328.73 131.661 327.997C131.931 327.336 132.062 326.978 132.037 326.967C132.012 326.955 131.832 327.288 131.515 327.925C131.171 328.642 130.722 329.572 130.17 330.722C128.998 333.241 127.383 336.716 125.431 340.911L125.881 340.847C122.024 336.058 117.278 329.988 112.341 323.256C106.203 314.902 100.955 307.103 97.2232 301.41C95.4124 298.609 93.9291 296.315 92.844 294.639C92.3572 293.892 91.9617 293.284 91.6458 292.801C91.3658 292.384 91.2091 292.17 91.1899 292.183Z" fill="#253138"/>
<path d="M59.9714 506.748C60.1564 506.727 59.5669 499.82 58.6577 491.323C57.7485 482.824 56.8623 475.951 56.6787 475.972C56.4951 475.994 57.0832 482.898 57.9925 491.4C58.9017 499.898 59.7878 506.771 59.9714 506.748Z" fill="#253138"/>
<path d="M152.921 504.938C152.737 504.918 152.053 510.109 151.393 516.53C150.731 522.955 150.343 528.178 150.527 528.198C150.711 528.219 151.396 523.029 152.056 516.605C152.719 510.182 153.104 504.959 152.921 504.938Z" fill="#253138"/>
<path d="M84.3311 352.956C84.4994 351.856 85.9685 351.252 86.82 351.93L86.9073 352.005C87.7087 352.747 87.4056 354.356 86.391 354.73C85.3791 355.103 84.1616 354.055 84.3311 352.956Z" fill="white"/>
<path d="M97.7206 319.138C97.8901 318.039 99.3593 317.435 100.211 318.114L100.297 318.189C101.099 318.932 100.795 320.539 99.7818 320.913C98.7686 321.287 97.5524 320.238 97.7206 319.138Z" fill="white"/>
<path d="M128.452 346.369C128.62 345.269 130.089 344.665 130.941 345.343L131.028 345.418C131.829 346.16 131.525 347.769 130.512 348.143C129.499 348.516 128.282 347.468 128.452 346.369Z" fill="white"/>
<path d="M161.673 332.696C161.841 331.595 163.31 330.991 164.162 331.67L164.249 331.744C165.05 332.487 164.746 334.096 163.733 334.468C162.719 334.842 161.503 333.795 161.673 332.696Z" fill="white"/>
<path d="M167.551 319.216C167.719 318.116 169.188 317.51 170.04 318.19L170.127 318.265C170.928 319.007 170.624 320.616 169.611 320.988C168.599 321.362 167.381 320.315 167.551 319.216Z" fill="white"/>
<path d="M164.998 303.638C165.166 302.539 166.638 301.935 167.488 302.614L167.575 302.689C168.377 303.431 168.072 305.04 167.058 305.413C166.046 305.787 164.83 304.738 164.998 303.638Z" fill="white"/>
<path d="M183.395 325.063C183.564 323.962 185.033 323.358 185.884 324.037L185.972 324.111C186.773 324.854 186.469 326.463 185.455 326.837C184.442 327.209 183.226 326.162 183.395 325.063Z" fill="white"/>
<path d="M140.777 331.24C140.947 330.141 142.417 329.537 143.267 330.217L143.355 330.291C144.156 331.034 143.852 332.643 142.838 333.015C141.825 333.389 140.609 332.341 140.777 331.24Z" fill="white"/>
<path d="M176.859 359.007C177.027 357.906 178.497 357.302 179.348 357.981L179.435 358.055C180.237 358.798 179.934 360.407 178.919 360.78C177.907 361.153 176.69 360.106 176.859 359.007Z" fill="white"/>
<path d="M209.887 438.873C210.056 437.774 211.527 437.17 212.377 437.85L212.464 437.925C213.266 438.667 212.961 440.276 211.947 440.648C210.935 441.022 209.719 439.974 209.887 438.873Z" fill="white"/>
<path d="M198.104 392.812C198.272 391.712 199.741 391.108 200.593 391.786L200.68 391.861C201.482 392.603 201.179 394.212 200.164 394.585C199.152 394.959 197.935 393.911 198.104 392.812Z" fill="white"/>
<path d="M111.239 311.927C111.409 310.828 112.878 310.222 113.73 310.902L113.816 310.977C114.618 311.719 114.314 313.328 113.301 313.7C112.287 314.074 111.071 313.027 111.239 311.927Z" fill="white"/>
<path d="M69.7843 403.646C69.9538 402.547 71.423 401.943 72.2745 402.623L72.3605 402.698C73.1632 403.44 72.8588 405.049 71.8455 405.421C70.8323 405.795 69.6161 404.747 69.7843 403.646Z" fill="white"/>
<path d="M53.6307 324.716C53.8002 323.615 55.2693 323.011 56.1207 323.69L56.2067 323.766C57.0094 324.508 56.705 326.116 55.6918 326.489C54.6786 326.862 53.4624 325.815 53.6307 324.716Z" fill="white"/>
<path d="M59.9729 376.406C60.1424 375.306 61.6115 374.702 62.463 375.38L62.549 375.456C63.3516 376.199 63.0473 377.806 62.034 378.18C61.0208 378.553 59.8046 377.507 59.9729 376.406Z" fill="white"/>
<path d="M96.1973 413.73C96.3655 412.631 97.8347 412.026 98.6862 412.706L98.7735 412.78C99.5749 413.523 99.2718 415.13 98.2572 415.504C97.2453 415.877 96.0278 414.831 96.1973 413.73Z" fill="white"/>
<path d="M94.672 382.661C94.8415 381.56 96.3107 380.956 97.1622 381.635L97.2482 381.709C98.0509 382.452 97.7465 384.061 96.7332 384.435C95.72 384.807 94.5038 383.76 94.672 382.661Z" fill="white"/>
<path d="M72.8178 324.984C72.9861 323.885 74.4552 323.281 75.3067 323.961L75.394 324.036C76.1954 324.778 75.891 326.387 74.8777 326.759C73.8645 327.133 72.6483 326.085 72.8178 324.984Z" fill="white"/>
<path d="M102.238 294.883C102.406 293.783 103.876 293.177 104.727 293.857L104.814 293.932C105.616 294.674 105.311 296.283 104.298 296.656C103.285 297.03 102.069 295.982 102.238 294.883Z" fill="white"/>
<path d="M103.306 343.408C103.474 342.309 104.943 341.705 105.794 342.385L105.882 342.46C106.683 343.202 106.379 344.81 105.366 345.184C104.354 345.557 103.136 344.509 103.306 343.408Z" fill="white"/>
<path d="M140.864 491.445C141.033 490.346 142.504 489.742 143.355 490.422L143.442 490.496C144.243 491.239 143.939 492.847 142.924 493.22C141.912 493.594 140.696 492.545 140.864 491.445Z" fill="white"/>
<path d="M183.948 467.102C184.116 466.003 185.587 465.397 186.438 466.077L186.525 466.152C187.326 466.894 187.022 468.502 186.007 468.876C184.995 469.248 183.779 468.202 183.948 467.102Z" fill="white"/>
<path d="M218.784 479.034C218.953 477.934 220.422 477.329 221.274 478.008L221.36 478.083C222.162 478.825 221.858 480.434 220.845 480.806C219.832 481.18 218.615 480.133 218.784 479.034Z" fill="white"/>
<path d="M222.512 499.591C222.681 498.492 224.152 497.887 225.002 498.566L225.089 498.641C225.891 499.384 225.586 500.991 224.572 501.365C223.56 501.738 222.343 500.692 222.512 499.591Z" fill="white"/>
<path d="M189.852 506.479C190.021 505.378 191.49 504.774 192.342 505.453L192.428 505.529C193.231 506.271 192.926 507.878 191.913 508.252C190.9 508.625 189.683 507.579 189.852 506.479Z" fill="white"/>
<path d="M200.774 460.441C200.942 459.34 202.411 458.736 203.263 459.415L203.35 459.49C204.151 460.233 203.847 461.84 202.834 462.214C201.821 462.587 200.604 461.541 200.774 460.441Z" fill="white"/>
<path d="M160.701 472.14C160.87 471.039 162.339 470.434 163.191 471.114L163.277 471.188C164.079 471.931 163.775 473.54 162.762 473.912C161.749 474.286 160.532 473.239 160.701 472.14Z" fill="white"/>
<path d="M65.444 460.363C65.6136 459.263 67.084 458.657 67.9342 459.337L68.0215 459.412C68.8229 460.154 68.5185 461.763 67.504 462.136C66.492 462.51 65.2758 461.462 65.444 460.363Z" fill="white"/>
<path d="M124.384 518.882C124.552 517.782 126.021 517.177 126.873 517.856L126.96 517.931C127.762 518.673 127.457 520.282 126.444 520.654C125.431 521.028 124.215 519.981 124.384 518.882Z" fill="white"/>
<path d="M99.2464 486.306C99.4146 485.207 100.884 484.603 101.735 485.283L101.823 485.357C102.624 486.1 102.321 487.707 101.306 488.081C100.294 488.455 99.0769 487.407 99.2464 486.306Z" fill="white"/>
<path d="M84.3142 512.798C84.4837 511.699 85.9529 511.093 86.8043 511.773L86.8903 511.848C87.693 512.59 87.3886 514.199 86.3754 514.572C85.3621 514.946 84.146 513.898 84.3142 512.798Z" fill="white"/>
<path d="M125.859 374.062C126.029 372.963 127.499 372.357 128.349 373.037L128.437 373.112C129.238 373.854 128.934 375.462 127.919 375.836C126.907 376.208 125.691 375.162 125.859 374.062Z" fill="white"/>
<path d="M92.0531 441.694C92.2214 440.594 93.6918 439.99 94.5433 440.668L94.6306 440.743C95.432 441.485 95.1276 443.094 94.1131 443.468C93.1011 443.841 91.8849 442.793 92.0531 441.694Z" fill="white"/>
<path d="M103.018 467.311C103.187 466.212 104.656 465.606 105.507 466.286L105.594 466.361C106.396 467.103 106.091 468.712 105.078 469.085C104.065 469.459 102.849 468.411 103.018 467.311Z" fill="white"/>
<path d="M66.9697 487.888C67.1379 486.788 68.6071 486.183 69.4585 486.862L69.5459 486.938C70.3472 487.68 70.0428 489.288 69.0296 489.662C68.0163 490.034 66.8002 488.989 66.9697 487.888Z" fill="white"/>
<path d="M165.609 517.594C165.778 516.493 167.247 515.889 168.098 516.568L168.185 516.642C168.987 517.385 168.682 518.994 167.669 519.368C166.657 519.74 165.44 518.693 165.609 517.594Z" fill="white"/>
<path d="M247.804 509.82C247.972 508.721 249.441 508.116 250.293 508.796L250.38 508.872C251.181 509.614 250.877 511.223 249.864 511.595C248.85 511.969 247.634 510.921 247.804 509.82Z" fill="white"/>
<path d="M175.42 495.834C175.589 494.735 177.058 494.129 177.909 494.809L177.997 494.884C178.798 495.626 178.494 497.233 177.48 497.607C176.468 497.98 175.251 496.934 175.42 495.834Z" fill="white"/>
<path d="M244.755 480.614C244.924 479.514 246.393 478.91 247.244 479.59L247.331 479.665C248.133 480.407 247.828 482.016 246.815 482.389C245.802 482.762 244.586 481.714 244.755 480.614Z" fill="white"/>
<path d="M128.908 432.317C129.076 431.217 130.548 430.612 131.398 431.291L131.485 431.366C132.287 432.108 131.982 433.717 130.968 434.091C129.956 434.463 128.74 433.416 128.908 432.317Z" fill="white"/>
<path d="M153.153 359.007C153.323 357.906 154.792 357.302 155.643 357.981L155.729 358.055C156.532 358.798 156.228 360.407 155.214 360.78C154.201 361.153 152.985 360.106 153.153 359.007Z" fill="white"/>
<path d="M159.209 422.58C159.378 421.481 160.847 420.876 161.698 421.556L161.785 421.63C162.587 422.373 162.284 423.98 161.269 424.354C160.257 424.727 159.04 423.681 159.209 422.58Z" fill="white"/>
<path d="M169.074 401.844C169.243 400.743 170.714 400.139 171.564 400.818L171.651 400.894C172.453 401.636 172.148 403.243 171.134 403.617C170.122 403.99 168.906 402.944 169.074 401.844Z" fill="white"/>
<path d="M125.454 467.026C125.622 465.925 127.091 465.321 127.942 466L128.03 466.074C128.831 466.817 128.527 468.426 127.513 468.798C126.5 469.172 125.284 468.125 125.454 467.026Z" fill="white"/>
<path d="M156.2 454.234C156.37 453.135 157.84 452.531 158.691 453.211L158.778 453.286C159.579 454.028 159.275 455.637 158.26 456.01C157.248 456.384 156.032 455.335 156.2 454.234Z" fill="white"/>
<path d="M143.04 384.035C143.208 382.936 144.677 382.331 145.529 383.011L145.616 383.085C146.417 383.828 146.114 385.436 145.1 385.809C144.088 386.183 142.87 385.136 143.04 384.035Z" fill="white"/>
<path d="M189.852 433.743C190.021 432.643 191.49 432.039 192.342 432.717L192.428 432.792C193.231 433.534 192.926 435.143 191.913 435.516C190.9 435.89 189.683 434.842 189.852 433.743Z" fill="white"/>
<path d="M117.596 410.929C117.765 409.829 119.236 409.225 120.087 409.903L120.174 409.978C120.975 410.72 120.671 412.329 119.656 412.703C118.644 413.076 117.428 412.028 117.596 410.929Z" fill="white"/>
<path d="M50.5815 351.374C50.751 350.275 52.2201 349.671 53.0716 350.351L53.1576 350.426C53.9603 351.168 53.6559 352.776 52.6427 353.15C51.6294 353.523 50.4132 352.475 50.5815 351.374Z" fill="white"/>
<path d="M77.7904 306.279C77.96 305.18 79.4304 304.575 80.2806 305.255L80.3679 305.329C81.1693 306.072 80.8649 307.68 79.8504 308.053C78.8384 308.427 77.6222 307.38 77.7904 306.279Z" fill="white"/>
<path d="M130.528 311.927C130.697 310.828 132.166 310.222 133.018 310.902L133.104 310.977C133.907 311.719 133.602 313.328 132.589 313.7C131.576 314.074 130.36 313.027 130.528 311.927Z" fill="white"/>
<path d="M184.318 150.055C194.433 156.725 198.471 170.699 196.542 178.957C195.569 183.121 193.746 187.31 194.542 191.512C195.229 195.144 197.749 198.047 199.635 201.19C205.924 211.673 204.811 226.342 197.017 235.677C189.222 245.01 175.372 248.26 164.456 243.318" fill="#253138"/>
<path d="M190.302 204.597C214.908 148.521 156.381 120.351 124.444 129.696C94.4305 138.48 81.6293 153.957 76.6901 174.757C71.7497 195.565 71.986 218.102 79.8558 237.92C83.738 247.692 90.7268 257.621 100.857 258.841" fill="#253138"/>
<path d="M161.475 341.538C161.899 314.746 162.199 277.944 162.208 278.096C162.208 278.096 184.435 274.273 189.04 244.226C191.33 229.284 190.605 204.784 189.387 184.758C188.291 166.733 176.764 144.616 159.431 146.516L105.304 160.691C100.037 161.268 96.073 165.924 96.1783 171.41L99.7048 287.414" fill="#FFBD9D"/>
<path d="M179.71 203.105C179.801 205.128 178.225 206.875 176.188 207.013C174.157 207.152 172.431 205.628 172.34 203.605C172.247 201.584 173.824 199.836 175.856 199.697C177.891 199.559 179.617 201.084 179.71 203.105Z" fill="#253138"/>
<path d="M141.286 203.105C141.377 205.128 139.801 206.875 137.764 207.013C135.733 207.152 134.007 205.628 133.915 203.605C133.823 201.584 135.399 199.836 137.432 199.697C139.467 199.559 141.193 201.084 141.286 203.105Z" fill="#253138"/>
<path d="M183.711 196.106C183.267 196.625 180.381 194.562 176.382 194.713C172.386 194.802 169.518 197.035 169.069 196.542C168.848 196.325 169.29 195.4 170.535 194.392C171.762 193.389 173.879 192.381 176.371 192.305C178.864 192.234 180.989 193.112 182.224 194.043C183.485 194.979 183.932 195.873 183.711 196.106Z" fill="#253138"/>
<path d="M145.733 197.096C145.268 197.596 142.458 195.423 138.459 195.416C134.462 195.348 131.515 197.468 131.082 196.958C130.87 196.732 131.339 195.829 132.627 194.871C133.89 193.915 136.041 192.992 138.533 193.013C141.026 193.038 143.121 193.999 144.321 194.978C145.545 195.962 145.959 196.872 145.733 197.096Z" fill="#253138"/>
<path d="M159.443 229.028C159.424 228.792 161.913 228.348 165.944 227.813C166.965 227.704 167.934 227.495 168.106 226.772C168.347 226.006 167.918 224.864 167.422 223.632C166.462 221.07 165.456 218.385 164.399 215.571C160.204 204.091 157.167 194.651 157.613 194.481C158.06 194.309 161.826 203.474 166.023 214.953C167.032 217.785 167.999 220.485 168.917 223.066C169.305 224.269 169.969 225.634 169.448 227.222C169.173 228.012 168.423 228.587 167.768 228.769C167.114 228.977 166.536 228.988 166.032 229.02C161.976 229.246 159.459 229.263 159.443 229.028Z" fill="#253138"/>
<path d="M162.208 278.097C162.208 278.097 142.701 279.399 123.373 267.363C123.373 267.363 133.185 288.268 162.208 285.456V278.097Z" fill="#EB996D"/>
<path d="M146.722 191.2C146.327 192.327 142.331 191.793 137.638 192.38C132.93 192.87 129.144 194.294 128.521 193.282C128.242 192.798 128.904 191.737 130.433 190.646C131.951 189.556 134.373 188.521 137.191 188.195C140.008 187.876 142.591 188.34 144.3 189.06C146.024 189.78 146.892 190.665 146.722 191.2Z" fill="#253138"/>
<path d="M182.788 185.685C182.083 186.627 179.325 185.652 176.011 185.606C172.697 185.439 169.889 186.238 169.242 185.252C168.958 184.773 169.401 183.83 170.627 182.939C171.837 182.05 173.858 181.325 176.137 181.395C178.415 181.47 180.387 182.324 181.541 183.289C182.712 184.256 183.097 185.226 182.788 185.685Z" fill="#253138"/>
<path d="M101.15 210.965C100.727 210.752 85.6291 203.834 85.4506 221.823C85.2747 239.811 102.742 236.286 102.778 235.771C102.812 235.255 101.15 210.965 101.15 210.965Z" fill="#FFF578"/>
<path d="M97.541 228.899C97.4652 228.84 97.2366 229.116 96.7229 229.353C96.2234 229.583 95.3642 229.737 94.4627 229.376C92.6352 228.659 91.1198 225.627 91.0684 222.384C91.0401 220.746 91.3856 219.19 91.9584 217.905C92.5016 216.594 93.3325 215.684 94.2572 215.524C95.178 215.314 95.8265 215.893 96.0333 216.401C96.2619 216.907 96.1476 217.265 96.2388 217.297C96.2863 217.342 96.6138 217 96.4828 216.255C96.4147 215.897 96.2157 215.471 95.8098 215.121C95.3976 214.765 94.7863 214.58 94.1429 214.645C92.8034 214.727 91.5847 215.99 90.9554 217.401C90.2516 218.816 89.8265 220.565 89.8586 222.404C89.9331 226.03 91.69 229.44 94.1943 230.219C95.4117 230.561 96.434 230.191 96.9644 229.772C97.5063 229.334 97.6014 228.932 97.541 228.899Z" fill="#EB996D"/>
<path d="M165.211 137.643C174.869 142.814 178.845 163.29 174.849 173.767C170.852 184.243 160.083 189.361 149.462 191.77C138.843 194.182 128.429 194.468 117.956 191.45C117.228 198.748 113.005 206.239 106.17 208.164C97.1231 210.714 88.0037 202.13 85.9901 192.642C83.9764 183.153 86.9943 173.381 89.975 164.17" fill="#253138"/>
<path d="M88.6102 202.918C88.5691 202.973 89.0443 203.44 89.9484 204.228C90.8563 205.012 92.1868 206.131 93.9526 207.358C95.7197 208.57 97.9504 209.919 100.704 210.743C103.419 211.558 106.746 211.853 109.917 210.603C113.08 209.357 115.415 206.875 116.89 204.357C118.385 201.809 119.055 199.192 119.388 197.013C119.714 194.82 119.71 193.029 119.662 191.802C119.605 190.574 119.5 189.902 119.434 189.906C119.244 189.902 119.451 192.639 118.691 196.884C118.28 198.985 117.559 201.475 116.104 203.852C114.669 206.21 112.457 208.494 109.56 209.631C106.665 210.778 103.557 210.549 100.95 209.82C98.3203 209.088 96.1191 207.852 94.334 206.739C90.7883 204.44 88.7129 202.77 88.6102 202.918Z" fill="#253138"/>
<path d="M158.261 240.582C157.678 242.112 157.081 243.666 156.103 244.962C155.127 246.26 153.697 247.287 152.112 247.364C150.422 247.448 148.792 246.412 147.85 244.956C146.906 243.5 146.586 241.685 146.663 239.934C146.731 238.35 147.43 236.459 148.95 236.273C149.582 236.196 150.205 236.449 150.794 236.698C153.455 237.815 156.115 238.933 158.776 240.052" fill="#EB996D"/>
<path d="M155.073 247.388C155.033 247.129 153.28 247.866 150.816 246.843C149.623 246.345 148.315 245.36 147.598 243.811C146.877 242.282 146.735 240.211 147.492 238.401C147.667 237.947 147.93 237.533 148.188 237.163C148.504 236.82 148.446 236.836 148.789 236.888C149.115 236.98 149.642 237.235 150.07 237.408C150.514 237.597 150.952 237.781 151.381 237.962C153.09 238.679 154.636 239.304 155.944 239.81C158.558 240.823 160.214 241.355 160.29 241.167C160.368 240.98 158.853 240.107 156.339 238.849C155.083 238.221 153.577 237.495 151.896 236.711C151.473 236.515 151.043 236.314 150.605 236.111C150.138 235.912 149.783 235.696 149.146 235.489C148.834 235.398 148.392 235.347 147.961 235.524C147.54 235.701 147.278 235.998 147.081 236.245C146.724 236.738 146.41 237.243 146.184 237.814C145.245 240.075 145.471 242.578 146.428 244.433C147.404 246.328 149.067 247.392 150.479 247.827C151.916 248.286 153.153 248.176 153.939 247.967C154.733 247.75 155.104 247.471 155.073 247.388Z" fill="#253138"/>
<path d="M81.6826 198.651C83.4612 198.522 97.7997 200.446 96.6695 228.064C95.6152 253.859 78.1496 248.179 72.5761 238.467C67.2979 229.267 64.2478 199.919 81.6826 198.651Z" fill="#455A63"/>
<path d="M72.8166 201.914C72.8359 201.914 72.8577 201.665 72.8834 201.187C72.904 200.65 72.9335 199.954 72.9682 199.086C73.0195 197.178 73.0915 194.521 73.1801 191.218C73.3111 184.434 73.4934 175.013 73.704 164.131L73.3817 164.461C75.7473 164.464 78.2322 164.468 80.775 164.472L80.4424 164.118C80.3885 166.174 80.3333 168.343 80.2755 170.543C80.0263 180.907 79.7977 190.561 79.6038 198.639L79.5961 198.876L79.8196 198.929C83.1457 199.737 85.7745 201.741 87.4325 204.008C89.1213 206.28 89.9612 208.691 90.4748 210.672C90.986 212.667 91.1593 214.289 91.2569 215.388C91.3045 215.939 91.3301 216.364 91.3443 216.65C91.361 216.936 91.37 217.081 91.3854 217.082C91.3995 217.082 91.4213 216.937 91.4329 216.65C91.447 216.362 91.4483 215.934 91.4277 215.377C91.3828 214.266 91.2621 212.624 90.7908 210.59C90.3156 208.568 89.5065 206.093 87.7972 203.724C86.1226 201.358 83.3923 199.227 79.9493 198.364L80.165 198.654C80.3885 190.575 80.6556 180.927 80.9433 170.563C80.9985 168.363 81.0537 166.191 81.1064 164.135L81.1153 163.784H80.775C78.2322 163.788 75.7473 163.79 73.3817 163.793H73.0645L73.0606 164.123C72.9463 175.005 72.8449 184.426 72.773 191.211C72.7627 194.515 72.755 197.173 72.7486 199.081C72.7576 199.95 72.7665 200.647 72.773 201.186C72.7832 201.665 72.7961 201.914 72.8166 201.914Z" fill="#455A63"/>
<path d="M81.6855 164.127C81.6855 164.127 89.1828 145.944 107.052 136.971C115.707 132.625 122.184 130.383 128.458 128.747C128.458 128.747 118.033 126.182 101.163 133.96C93.4991 137.492 85.777 142.094 80.6697 148.991C77.427 153.371 73.3765 161.931 73.3829 164.127H81.6855Z" fill="#455A63"/>
<path d="M127.944 384.305C127.95 384.297 127.842 384.174 127.624 383.942C127.411 383.704 127.069 383.374 126.654 382.907C125.81 381.986 124.602 380.582 123.188 378.645C121.768 376.711 120.177 374.219 118.503 371.196C116.829 368.175 115.09 364.618 113.198 360.641C109.41 352.686 105.025 343.043 100.491 331.996C98.2187 326.475 95.9071 320.605 93.6058 314.424C93.0356 312.878 92.4602 311.313 91.8785 309.735C91.3019 308.154 90.7098 306.528 89.816 305.018C88.935 303.506 87.6585 302.17 86.0853 301.345C85.3058 300.93 84.4299 300.613 83.4732 300.657C82.9967 300.697 82.51 300.861 82.1106 301.17C81.6971 301.477 81.4505 301.928 81.2438 302.367L81.2014 302.455L81.2232 302.559C81.3516 303.167 81.5353 303.788 81.9128 304.333C82.2827 304.881 82.8837 305.283 83.5156 305.422C84.7972 305.691 86.0185 305.269 87.0986 304.74C89.4192 303.738 90.7946 300.889 90.2706 298.293C90.0305 296.986 89.2432 295.795 88.1863 295.043C87.132 294.286 85.8362 293.888 84.5365 293.965C83.2664 294.049 81.8743 294.587 81.1667 295.892C80.8033 296.528 80.8431 297.469 81.3003 298.061C81.7279 298.664 82.3148 299.025 82.9274 299.292C85.099 300.185 87.7073 299.399 89.0814 297.485C89.7698 296.528 90.0574 295.286 89.9162 294.129C89.7967 292.965 89.3126 291.866 88.5819 290.994C87.8499 290.12 86.8302 289.484 85.6911 289.337C84.5712 289.222 83.3769 289.545 82.5665 290.449C82.1607 290.894 81.9347 291.525 81.9514 292.148C81.9565 292.784 82.2673 293.387 82.6937 293.789C83.5515 294.598 84.7317 294.888 85.8336 294.665C86.9804 294.414 87.8011 293.522 88.3327 292.582C88.8644 291.62 89.1264 290.558 89.2741 289.513C89.5296 287.436 89.5027 285.248 88.5909 283.307C88.1041 282.367 87.4261 281.492 86.4025 281.065C85.4021 280.652 84.3002 280.76 83.3525 281.165C82.4342 281.581 81.5186 282.443 81.4711 283.629C81.3902 284.781 82.171 285.81 83.1008 286.228C84.0203 286.683 85.1491 286.703 86.0558 286.184C86.9547 285.682 87.5673 284.789 87.8807 283.847C88.221 282.914 88.1979 281.835 88.0553 280.936C87.9397 280.003 87.7741 279.07 87.462 278.173C87.1628 277.286 86.6414 276.403 85.9055 275.823C85.1876 275.231 84.3722 274.799 83.486 274.578C83.0571 274.483 82.5601 274.391 82.0708 274.56C81.6072 274.72 81.2206 275.005 80.8957 275.336C80.5747 275.673 80.3127 276.067 80.1406 276.515C79.966 276.952 79.9017 277.504 80.0969 277.987C80.4758 278.996 81.561 279.324 82.3932 279.304C83.2741 279.316 84.1192 278.952 84.8049 278.465C86.1829 277.453 87.0703 275.89 87.3837 274.276C87.7291 272.667 87.5519 270.958 86.8443 269.537C86.4744 268.84 86.0237 268.185 85.4021 267.708C84.7908 267.229 84.0819 266.929 83.3486 266.791C82.6205 266.671 81.8332 266.719 81.1641 267.11C80.5079 267.495 80.0237 268.215 79.9852 268.997C79.9351 270.578 81.1166 271.819 82.406 272.189C83.7865 272.567 85.1106 271.793 85.8978 270.831C86.7146 269.847 87.1371 268.619 87.2154 267.425C87.3246 265.002 86.4038 262.965 85.9582 261.054C85.4342 259.141 84.9565 257.394 84.5263 255.817C83.6645 252.696 82.9903 250.263 82.5254 248.577C82.2955 247.774 82.117 247.149 81.9886 246.698C81.864 246.276 81.7844 246.066 81.7844 246.066C81.7844 246.066 81.8204 246.291 81.9231 246.719C82.0361 247.174 82.1928 247.802 82.3957 248.614C82.8336 250.308 83.4655 252.755 84.2758 255.89C84.6894 257.471 85.1491 259.223 85.65 261.141C86.0879 263.07 86.9714 265.121 86.8417 267.398C86.7621 268.511 86.3537 269.661 85.5947 270.558C84.8743 271.441 83.6581 272.099 82.5164 271.763C81.403 271.453 80.3641 270.292 80.4347 269.032C80.463 268.417 80.8585 267.835 81.3902 267.527C81.9334 267.21 82.6166 267.162 83.2703 267.275C83.924 267.402 84.5699 267.677 85.1093 268.108C85.6513 268.525 86.0725 269.138 86.4038 269.773C87.0459 271.074 87.2077 272.666 86.879 274.164C86.5823 275.666 85.7489 277.101 84.5019 278.007C83.8675 278.449 83.1598 278.748 82.3906 278.739C81.6509 278.752 80.8469 278.454 80.6132 277.777C80.3512 277.134 80.7686 276.302 81.2951 275.75C81.57 275.469 81.8974 275.239 82.2416 275.122C82.5691 275.002 82.9582 275.066 83.355 275.155C84.9231 275.574 86.4154 276.68 86.9098 278.381C87.1962 279.211 87.3541 280.105 87.4646 281.013C87.6033 281.942 87.6097 282.792 87.3118 283.642C87.0344 284.469 86.5027 285.222 85.7643 285.628C85.0502 286.04 84.1217 286.029 83.3627 285.65C82.5948 285.295 82.031 284.514 82.0926 283.662C82.1158 282.817 82.8118 282.123 83.6029 281.762C84.4081 281.419 85.3662 281.334 86.1688 281.674C86.9612 281.991 87.6071 282.781 88.0219 283.605C88.8387 285.336 88.8862 287.435 88.6332 289.416C88.492 290.409 88.2415 291.395 87.7689 292.245C87.3028 293.077 86.572 293.822 85.6988 294.001C84.8204 294.186 83.8007 293.924 83.147 293.294C82.4535 292.688 82.4471 291.578 83.0597 290.906C83.6594 290.22 84.6906 289.912 85.6179 290.021C86.5515 290.14 87.4453 290.681 88.081 291.448C89.3755 292.954 89.7505 295.425 88.5433 297.075C87.3837 298.723 85.0258 299.431 83.1804 298.652C82.659 298.429 82.1466 298.096 81.8448 297.657C81.5302 297.224 81.5096 296.689 81.7575 296.214C82.2737 295.232 83.4578 294.72 84.5763 294.657C86.852 294.494 89.224 296.116 89.6195 298.43C90.0741 300.713 88.8837 303.242 86.8135 304.125C85.8079 304.629 84.6727 304.982 83.6633 304.76C82.623 304.564 82.0567 303.52 81.8628 302.435L81.8435 302.627C82.1414 301.874 82.7527 301.371 83.5169 301.327C84.2797 301.289 85.0746 301.554 85.7925 301.94C87.2514 302.707 88.4342 303.931 89.2754 305.365C90.1294 306.798 90.715 308.387 91.2929 309.965C91.8785 311.544 92.4577 313.108 93.0304 314.656C95.3485 320.837 97.6806 326.708 99.973 332.226C104.547 343.269 108.981 352.898 112.824 360.831C114.743 364.799 116.513 368.351 118.222 371.366C119.929 374.383 121.555 376.868 123.008 378.789C125.917 382.638 127.944 384.305 127.944 384.305Z" fill="white"/>
<path d="M66.1208 185.701C66.2364 185.727 66.0682 183.817 67.2908 180.781C68.4774 177.801 71.3939 173.755 76.5103 171.213C79.0479 169.972 82.0902 169.186 85.3946 168.962C88.7028 168.737 92.2626 169.065 95.9343 169.796C103.295 171.198 111.025 174.492 119.682 175.842C124.019 176.432 128.315 176.404 132.397 175.829C136.484 175.234 140.308 174.034 143.828 172.617C150.829 169.623 156.474 165.446 160.473 161.226C164.494 157.019 167.092 152.991 168.537 150.05C168.947 149.341 169.247 148.677 169.482 148.089C169.724 147.521 169.929 147.031 170.105 146.617C170.255 146.248 170.377 145.949 170.476 145.707C170.555 145.501 170.592 145.393 170.58 145.389C170.57 145.384 170.513 145.483 170.413 145.68C170.299 145.914 170.158 146.203 169.983 146.56C169.793 146.966 169.567 147.443 169.305 148C169.051 148.574 168.733 149.225 168.308 149.921C166.803 152.805 164.165 156.755 160.141 160.878C156.139 165.013 150.527 169.1 143.6 172.025C140.116 173.409 136.337 174.581 132.308 175.157C128.279 175.713 124.047 175.736 119.776 175.157C111.236 173.829 103.495 170.556 96.0486 169.168C92.3384 168.448 88.7246 168.135 85.3573 168.388C81.9926 168.644 78.8951 169.47 76.3035 170.773C71.0998 173.43 68.1833 177.612 67.0506 180.678C66.4355 182.22 66.2762 183.516 66.1568 184.373C66.1401 184.775 66.126 185.1 66.1131 185.365C66.108 185.587 66.1093 185.701 66.1208 185.701Z" fill="#455A63"/>
<path d="M85.5009 157.025C85.4983 157.049 85.8168 157.106 86.423 157.194C87.0278 157.279 87.9217 157.417 89.0633 157.623C91.3544 158.018 94.6305 158.772 98.6643 159.813C102.693 160.848 107.525 162.103 113.026 162.695C118.513 163.298 124.63 163.247 130.934 162.292C137.244 161.346 143.117 159.603 148.236 157.471C153.355 155.334 157.742 152.864 161.222 150.485C162.947 149.273 164.495 148.152 165.794 147.092C167.07 145.995 168.214 145.112 169.06 144.279C169.869 143.491 170.518 142.858 171.013 142.376C171.455 141.936 171.677 141.696 171.661 141.679C171.645 141.661 171.392 141.866 170.922 142.274C170.407 142.73 169.732 143.329 168.89 144.075C168.023 144.874 166.86 145.723 165.57 146.783C164.255 147.809 162.695 148.895 160.966 150.073C154.012 154.682 143.394 159.76 130.839 161.607C124.59 162.553 118.531 162.623 113.087 162.061C107.637 161.508 102.823 160.312 98.7747 159.337C94.7255 158.356 91.4148 157.669 89.1044 157.357C87.9499 157.19 87.0484 157.096 86.4371 157.056C85.8245 157.012 85.5022 157.001 85.5009 157.025Z" fill="#455A63"/>
<path d="M83.5909 246.182C83.5999 246.204 83.772 246.151 84.0944 246.03C84.4116 245.897 84.8752 245.683 85.4261 245.315C86.528 244.602 87.9959 243.267 89.1838 241.162C90.3884 239.066 91.1859 236.232 91.489 233.063C91.7857 229.89 91.787 226.395 91.5019 222.742C91.2039 219.089 90.6093 215.64 89.8516 212.565C89.1055 209.498 88.2116 206.742 86.9852 204.665C85.7767 202.577 84.3152 201.236 83.2044 200.534C82.6496 200.177 82.186 199.96 81.8649 199.833C81.5439 199.712 81.3692 199.668 81.3615 199.689C81.3358 199.748 82.0177 199.997 83.0605 200.758C84.0995 201.51 85.4582 202.859 86.5768 204.912C87.7133 206.956 88.5455 209.664 89.2531 212.719C89.971 215.772 90.5412 219.185 90.8353 222.799C91.1166 226.409 91.1346 229.882 90.8764 233C90.6119 236.114 89.8811 238.868 88.7728 240.919C87.6761 242.985 86.3097 244.329 85.2797 245.092C84.2472 245.869 83.564 246.118 83.5909 246.182Z" fill="#253138"/>
<path d="M139.838 250.004L153.009 252.683C154.995 253.086 156.92 251.746 157.309 249.689L157.405 249.187C157.793 247.13 156.501 245.135 154.516 244.732L141.345 242.054C139.359 241.65 137.434 242.99 137.044 245.046L136.949 245.549C136.56 247.606 137.853 249.601 139.838 250.004Z" fill="#455A63"/>
<path d="M138.83 244.101L77.8983 224.296C76.3907 223.806 74.7841 224.67 74.3025 226.228C73.8016 227.845 74.7057 229.567 76.2892 230.01L138.596 247.452L138.83 244.101Z" fill="#455A63"/>
<path d="M93.7925 235.396C93.8053 235.35 93.0874 235.09 91.7762 234.66C90.3495 234.211 88.4706 233.619 86.204 232.901C83.8666 232.154 80.9964 231.366 77.9605 230.333C77.2285 230.04 76.5144 229.644 75.9635 229.061C75.4344 228.494 75.0915 227.674 75.1056 226.865C75.1069 226.054 75.6065 225.325 76.3667 225.057C77.1283 224.794 78.0401 224.911 78.9134 225.138C85.9959 227.499 92.4017 229.635 97.1803 231.227C99.4457 231.954 101.321 232.553 102.745 233.009C104.062 233.415 104.798 233.619 104.814 233.572C104.828 233.527 104.12 233.237 102.827 232.752C101.421 232.244 99.5677 231.572 97.3293 230.763C92.6636 229.121 86.2682 226.851 79.0777 224.466C78.1467 224.231 77.1373 224.07 76.1458 224.408C75.1441 224.739 74.4327 225.808 74.4519 226.849C74.4455 227.881 74.8578 228.83 75.5089 229.525C76.1587 230.203 76.9613 230.627 77.7396 230.931C80.8898 231.963 83.6971 232.678 86.073 233.374C88.3653 234.003 90.2647 234.525 91.7043 234.92C93.0374 235.27 93.7796 235.442 93.7925 235.396Z" fill="#253138"/>
<path d="M193.425 187.036C191.34 194.623 198.783 201.129 201.403 208.538C203.937 215.701 201.779 223.726 198.66 230.636C195.541 237.547 191.435 244.103 189.839 251.549C185.901 269.912 201.925 289.694 198.873 308.237C197.761 314.99 195.137 322.04 192.862 328.472C190.583 334.904 190.744 340.787 192.862 347.277C196.324 357.898 202.203 362.906 206.344 373.262C208.461 378.558 208.296 384.489 208.189 390.221C208.082 395.951 208.121 401.929 210.582 407.061C213.042 412.195 218.679 416.164 224.021 414.676C218.431 421.488 208.106 423.524 200.489 419.318C193.461 415.436 189.532 407.552 186.17 400.074C169.882 363.864 161.268 360.807 161.715 320.861C161.743 318.288 162.207 278.281 162.207 278.281C162.207 278.281 168.306 276.595 171.822 274.083C190.013 261.074 190.675 237.888 190.531 219.921" fill="#253138"/>
<path d="M157.026 308.237V323.312C157.026 323.312 168.219 382.455 171.575 415.311C174.932 448.167 175.503 456.836 175.503 456.836C175.503 456.836 167.472 469.814 150.685 447.781C133.896 425.749 130.912 422.268 124.198 421.882C124.198 421.882 132.405 329.498 132.033 326.018C131.659 322.54 129.047 319.448 129.047 319.448L157.026 308.237Z" fill="#FFBD9D"/>
<path d="M135.015 274.22C135.015 274.22 153.296 299.347 154.788 302.825C156.281 306.303 157.028 308.235 157.028 308.235L129.048 319.446L101.813 288.523L91.7398 261.078L94.7257 228.607C94.7257 228.607 100.695 228.221 101.813 233.633C102.933 239.043 102.561 244.069 102.561 244.069L110.919 237.111L124.385 232.86C124.385 232.86 127.554 238.272 122.333 240.977C117.11 243.684 115.618 243.684 115.618 243.684L110.919 252.186L112.972 261.715L122.493 252.462C124.404 250.606 127.318 250.418 129.436 252.013L135.59 256.648L141.357 253.98L152.549 264.17L157.028 268.422C157.028 268.422 154.042 274.22 148.074 271.514L142.105 268.809L135.015 274.22Z" fill="#FFBD9D"/>
<path d="M157.027 313.325C157.027 313.325 157.05 313.052 157.033 312.52C157.015 311.988 156.973 311.195 156.851 310.161C156.725 309.128 156.53 307.851 156.149 306.371C155.736 304.914 155.266 303.182 154.187 301.504C150.007 294.845 143.416 285.583 135.205 274.076L135.156 274.417C137.37 272.732 139.768 270.909 142.253 269.019L142.004 269.049C143.209 269.598 144.441 270.158 145.693 270.729C146.952 271.272 148.182 271.967 149.624 272.317C151.043 272.652 152.64 272.544 153.992 271.803C155.362 271.102 156.467 269.948 157.274 268.559L157.384 268.371L157.215 268.209C152.402 263.529 147.056 258.795 141.561 253.743L141.395 253.592L141.203 253.709C139.665 254.65 137.96 255.693 136.236 256.748L136.562 256.757C134.653 255.455 132.715 254.133 130.75 252.792C129.746 252.124 128.825 251.443 127.732 250.773C126.562 250.155 125.057 250.286 123.991 251.113C120.297 254.346 116.517 257.657 112.668 261.025L113.201 261.211C112.586 258.346 111.915 255.244 111.242 252.113L111.206 252.358C112.694 249.67 114.294 246.775 115.907 243.855L115.616 244.03C116.501 243.93 117.175 243.653 117.936 243.381C118.673 243.101 119.404 242.781 120.133 242.443C120.863 242.108 121.586 241.745 122.311 241.375C122.673 241.189 123.038 240.944 123.401 240.728C123.723 240.435 124.099 240.212 124.367 239.851C125.226 238.91 125.726 237.582 125.663 236.298C125.636 235.008 125.265 233.799 124.67 232.68L124.544 232.447L124.288 232.529C119.739 233.966 115.248 235.386 110.822 236.784L110.761 236.803L110.712 236.844C107.89 239.195 105.105 241.516 102.357 243.805L102.887 244.096C103.063 240.591 102.827 237.145 102.176 233.805C101.894 232.099 100.916 230.417 99.4544 229.524C98.0109 228.6 96.3555 228.251 94.7078 228.281L94.4394 228.286L94.4125 228.578C93.3645 240.12 92.3757 250.994 91.4613 261.05L91.4536 261.119L91.4793 261.182C95.2113 271.299 98.5965 280.474 101.599 288.608L101.616 288.651L101.644 288.684C110.599 298.784 117.805 306.913 122.79 312.535C125.273 315.313 127.2 317.471 128.527 318.954C129.174 319.67 129.671 320.218 130.026 320.608C130.366 320.978 130.551 321.155 130.551 321.155C130.551 321.155 130.399 320.947 130.074 320.561C129.731 320.161 129.25 319.598 128.623 318.863C127.318 317.36 125.42 315.175 122.976 312.358C118.028 306.701 110.875 298.524 101.986 288.362L102.031 288.438C99.0563 280.291 95.7031 271.106 92.0045 260.974L92.0225 261.106C92.9561 251.053 93.9668 240.18 95.0392 228.639L94.7464 228.934C96.2361 228.905 97.8298 229.246 99.1128 230.083C100.427 230.899 101.274 232.341 101.545 233.939C102.181 237.205 102.409 240.634 102.235 244.044L102.196 244.808L102.765 244.334C105.517 242.047 108.304 239.727 111.127 237.38L111.016 237.44C115.441 236.044 119.933 234.626 124.481 233.191L124.099 233.04C124.621 234.019 124.978 235.179 124.995 236.31C125.048 237.451 124.623 238.557 123.879 239.38C123.652 239.696 123.303 239.894 123.023 240.157C122.684 240.354 122.372 240.57 122.013 240.753C121.295 241.121 120.579 241.481 119.86 241.811C118.447 242.451 116.929 243.129 115.616 243.338L115.406 243.371L115.327 243.512C113.714 246.431 112.116 249.328 110.631 252.016L110.567 252.132L110.595 252.262C111.271 255.393 111.942 258.495 112.56 261.359L112.677 261.908L113.092 261.545C116.925 258.181 120.693 254.876 124.372 251.648C125.248 250.968 126.487 250.857 127.451 251.365C128.409 251.952 129.427 252.691 130.403 253.339C132.371 254.676 134.312 255.996 136.223 257.295L136.385 257.405L136.551 257.302C138.272 256.244 139.978 255.196 141.514 254.252L141.159 254.218C146.66 259.255 152.019 263.978 156.839 268.636L156.781 268.286C156.056 269.541 154.996 270.663 153.747 271.296C152.506 271.98 151.063 272.083 149.737 271.775C148.418 271.466 147.164 270.779 145.901 270.237C144.647 269.67 143.414 269.114 142.206 268.57L142.07 268.508L141.956 268.599C139.477 270.499 137.086 272.331 134.879 274.025L134.686 274.17L134.83 274.366C143.086 285.831 149.739 295.056 153.97 301.646C155.041 303.272 155.532 304.987 155.961 306.426C156.359 307.887 156.572 309.154 156.717 310.179C156.86 311.205 156.928 311.994 156.966 312.523C157.005 313.054 157.027 313.325 157.027 313.325Z" fill="#EB996D"/>
<path d="M122.402 280.039C122.536 280.016 122.041 277.988 121.837 274.695C121.771 273.062 121.861 271.057 122.719 269.109C123.572 267.157 125.256 265.459 127.175 263.923C131.047 260.827 134.783 258.333 137.53 256.616C138.816 255.833 139.91 255.165 140.81 254.616C141.586 254.147 142.012 253.874 141.99 253.83C141.97 253.789 141.505 253.979 140.688 254.377C139.873 254.773 138.707 255.384 137.295 256.192C134.47 257.809 130.671 260.252 126.763 263.377C124.818 264.934 123.045 266.729 122.158 268.845C121.269 270.956 121.238 273.058 121.364 274.725C121.5 276.409 121.792 277.735 121.996 278.644C122.211 279.554 122.358 280.048 122.402 280.039Z" fill="#EB996D"/>
<path d="M102.823 267.978C102.924 267.951 102.653 266.636 102.348 264.5C102.041 262.365 101.749 259.393 101.772 256.104C101.803 252.813 102.143 249.849 102.485 247.718C102.825 245.588 103.117 244.28 103.017 244.252C102.94 244.228 102.484 245.495 102.021 247.626C101.556 249.754 101.135 252.759 101.103 256.1C101.08 259.44 101.452 262.45 101.883 264.586C102.312 266.725 102.744 267.999 102.823 267.978Z" fill="#EB996D"/>
<path d="M-17.5506 527.874C-17.5506 528.066 113.004 528.221 274.013 528.221C435.079 528.221 565.605 528.066 565.605 527.874C565.605 527.683 435.079 527.527 274.013 527.527C113.004 527.527 -17.5506 527.683 -17.5506 527.874Z" fill="#253138"/>
<path d="M147.46 528.198C147.46 528.198 138.751 512.788 119.992 512.127C101.234 511.466 91.8557 528.198 91.8557 528.198H147.46Z" fill="#455A63"/>
<path d="M111.514 527.719C111.651 527.719 111.686 526.58 112.065 524.816C112.436 523.057 113.257 520.69 114.741 518.416C116.235 516.148 118.057 514.484 119.499 513.478C120.94 512.464 121.95 512.013 121.9 511.881C121.871 511.795 120.771 512.05 119.192 512.97C117.618 513.88 115.63 515.559 114.063 517.938C112.505 520.324 111.731 522.858 111.495 524.709C111.251 526.569 111.427 527.724 111.514 527.719Z" fill="#253138"/>
<path d="M159.073 527.495L159.075 527.372C159.141 523.3 162.343 520.033 166.275 520.033H325.964C329.941 520.033 333.166 523.373 333.166 527.495H159.073Z" fill="#30657C"/>
<path d="M464.77 237.661C464.77 241.142 462.254 448.944 462.254 448.944L313.301 486.078H300.982L308.822 195.97H320.022L464.77 237.661Z" fill="#253138"/>
<path d="M433.269 440.245L479.434 527.917H437.24C444.786 527.136 370.423 527.917 370.423 527.917L437.24 509.559L416.347 460.388L418.13 440.245H433.269Z" fill="#253138"/>
<path d="M432.239 456.426L437.241 293.03L391.884 288.523L386.291 462.99L402.493 463.842L432.239 456.426Z" fill="#253138"/>
<path d="M379.952 469.461C379.952 469.461 379.97 469.206 379.979 468.703C379.985 468.18 379.996 467.436 380.007 466.462C380.019 464.468 380.037 461.556 380.06 457.781C380.082 450.186 380.113 439.147 380.152 425.28C380.182 397.507 380.223 358.423 380.272 313.099L379.952 313.43C396.738 313.436 414.796 313.44 433.471 313.445L433.137 313.099V320.639C433.157 364.835 433.174 405.973 433.191 440.244V440.32L433.225 440.382C447.116 466.773 458.64 488.665 466.701 503.979C470.738 511.607 473.907 517.594 476.076 521.692C477.157 523.716 477.987 525.27 478.557 526.339C479.123 527.387 479.434 527.917 479.434 527.917C479.434 527.917 479.176 527.358 478.635 526.296C478.08 525.219 477.272 523.651 476.223 521.607C474.085 517.493 470.964 511.479 466.986 503.819C458.975 488.478 447.522 466.546 433.718 440.105L433.751 440.244C433.767 405.973 433.785 364.835 433.805 320.639V313.099V312.752H433.471C414.796 312.757 396.738 312.762 379.952 312.766H379.631V313.099C379.68 358.423 379.721 397.507 379.75 425.28C379.79 439.147 379.822 450.186 379.844 457.781C379.867 461.556 379.884 464.468 379.897 466.462C379.908 467.436 379.917 468.18 379.924 468.703C379.933 469.206 379.952 469.461 379.952 469.461Z" fill="#455A63"/>
<path d="M416.347 460.388C416.178 460.467 422.603 475.855 430.693 494.755C438.788 513.663 445.484 528.922 445.653 528.844C445.821 528.767 439.4 513.381 431.306 494.473C423.215 475.574 416.515 460.31 416.347 460.388Z" fill="#455A63"/>
<path d="M313.302 486.078C313.302 486.078 313.326 485.826 313.339 485.331C313.349 484.81 313.365 484.081 313.383 483.138C313.406 481.182 313.437 478.345 313.479 474.705C313.532 467.381 313.692 456.785 313.941 443.693C314.423 417.509 315.562 381.35 316.962 341.415C318.362 301.469 319.427 265.296 319.787 239.105C319.976 226.011 320.063 215.412 320.036 208.088C320.023 204.449 320.014 201.612 320.008 199.655C319.998 198.712 319.989 197.983 319.984 197.463C319.973 196.968 319.953 196.715 319.953 196.715C319.953 196.715 319.928 196.968 319.914 197.463C319.905 197.983 319.891 198.712 319.873 199.655C319.851 201.611 319.818 204.448 319.776 208.087C319.723 215.41 319.564 226.004 319.314 239.097C318.834 265.28 317.694 301.444 316.294 341.391C314.894 381.325 313.828 417.493 313.469 443.686C313.28 456.78 313.193 467.379 313.22 474.703C313.231 478.345 313.24 481.182 313.246 483.138C313.257 484.081 313.266 484.81 313.272 485.331C313.281 485.826 313.302 486.078 313.302 486.078Z" fill="#455A63"/>
<path d="M388.076 311.892C387.891 311.892 387.742 346.646 387.742 389.507C387.742 432.382 387.891 467.128 388.076 467.128C388.261 467.128 388.41 432.382 388.41 389.507C388.41 346.646 388.261 311.892 388.076 311.892Z" fill="#455A63"/>
<path d="M468.336 514.231C468.356 514.246 468.576 513.926 468.978 513.306C469.188 512.979 469.432 512.596 469.714 512.153C470.019 511.704 470.332 511.163 470.639 510.528C472.03 508.078 473.609 504.247 474.711 499.284C475.809 494.319 476.18 488.189 475.507 481.494C474.769 474.813 473.038 467.552 469.942 460.465C468.381 456.916 466.366 453.698 464.119 450.867C463.577 450.14 463.02 449.44 462.417 448.789C461.828 448.129 461.26 447.457 460.667 446.828C459.429 445.617 458.269 444.374 456.995 443.324C454.551 441.099 451.966 439.328 449.533 437.721C448.268 437.001 447.076 436.248 445.871 435.638C444.65 435.065 443.522 434.41 442.364 433.979C437.814 432.063 433.9 431.13 431.165 430.888C429.809 430.652 428.733 430.739 428.017 430.69C427.295 430.675 426.917 430.679 426.917 430.703C426.917 430.727 427.296 430.768 428.013 430.828C428.727 430.924 429.791 430.88 431.132 431.155C433.837 431.479 437.698 432.475 442.18 434.432C443.322 434.871 444.432 435.535 445.635 436.113C446.822 436.73 447.997 437.488 449.245 438.212C451.641 439.825 454.187 441.596 456.593 443.81C457.848 444.855 458.992 446.089 460.211 447.29C460.794 447.916 461.351 448.582 461.933 449.235C462.526 449.88 463.076 450.574 463.609 451.292C465.822 454.092 467.801 457.266 469.333 460.755C472.392 467.755 474.132 474.958 474.894 481.565C475.595 488.19 475.275 494.254 474.249 499.179C473.215 504.105 471.72 507.929 470.409 510.399C470.121 511.042 469.829 511.59 469.543 512.046C469.284 512.5 469.058 512.894 468.865 513.231C468.501 513.872 468.317 514.218 468.336 514.231Z" fill="#455A63"/>
<g filter="url(#filter0_d)">
<path fill-rule="evenodd" clip-rule="evenodd" d="M270.022 170.607C269.329 172.749 267.902 174.404 266.158 175.598C265.328 176.168 264.265 176.737 263.316 177.032C262.872 177.173 262.404 176.891 262.276 176.403C262.247 176.291 262.236 176.172 262.247 176.055C262.335 175.112 262.335 174.158 262.221 173.217C262.159 172.693 262.06 172.173 261.925 171.665C258.119 171.104 254.63 169.078 252.052 165.953C249.346 162.671 247.861 158.442 247.861 154.017C247.861 149.279 249.563 144.774 252.62 141.423C255.676 138.073 259.786 136.208 264.109 136.208C268.432 136.208 272.542 138.073 275.599 141.423C278.656 144.774 280.359 149.278 280.359 154.017C280.359 157.683 279.342 161.232 277.42 164.233C275.58 167.104 273.002 169.328 270.022 170.607Z" fill="#24366F"/>
<path fill-rule="evenodd" clip-rule="evenodd" d="M256.859 156.744C257.734 156.744 258.446 155.962 258.446 155.003C258.446 154.045 257.734 153.262 256.859 153.262C255.983 153.262 255.271 154.045 255.271 155.003C255.269 155.962 255.983 156.744 256.859 156.744Z" fill="white"/>
<path fill-rule="evenodd" clip-rule="evenodd" d="M263.292 156.744C264.168 156.744 264.881 155.962 264.881 155.003C264.881 154.045 264.167 153.262 263.292 153.262C262.418 153.262 261.704 154.045 261.704 155.003C261.704 155.962 262.418 156.744 263.292 156.744Z" fill="white"/>
<path fill-rule="evenodd" clip-rule="evenodd" d="M269.727 156.744C270.601 156.744 271.315 155.962 271.315 155.003C271.315 154.045 270.601 153.262 269.727 153.262C268.852 153.262 268.138 154.045 268.138 155.003C268.138 155.962 268.852 156.744 269.727 156.744Z" fill="white"/>
<path fill-rule="evenodd" clip-rule="evenodd" d="M240.894 213H277.948C280.64 213 282.842 216.06 282.842 219.801V247.847V249.922V267.774C282.842 268.088 282.713 268.355 282.505 268.475C282.297 268.595 282.069 268.533 281.91 268.311L273.571 256.723H240.894C238.203 256.723 236 253.663 236 249.922V219.801C236 216.06 238.203 213 240.894 213Z" fill="#FCC10F"/>
<path fill-rule="evenodd" clip-rule="evenodd" d="M249.191 238.606C250.756 238.606 252.033 236.924 252.033 234.861C252.033 232.797 250.756 231.115 249.191 231.115C247.624 231.115 246.347 232.799 246.347 234.861C246.347 236.924 247.623 238.606 249.191 238.606Z" fill="white"/>
<path fill-rule="evenodd" clip-rule="evenodd" d="M260.707 238.606C262.274 238.606 263.551 236.924 263.551 234.861C263.551 232.797 262.275 231.115 260.707 231.115C259.141 231.115 257.864 232.799 257.864 234.861C257.864 236.924 259.141 238.606 260.707 238.606Z" fill="white"/>
<path fill-rule="evenodd" clip-rule="evenodd" d="M272.225 238.606C273.791 238.606 275.068 236.924 275.068 234.861C275.068 232.797 273.79 231.115 272.225 231.115C270.66 231.115 269.382 232.799 269.382 234.861C269.382 236.924 270.659 238.606 272.225 238.606Z" fill="white"/>
<path fill-rule="evenodd" clip-rule="evenodd" d="M549.415 217.966H510.326C507.486 217.966 505.163 221.026 505.163 224.767V252.812V254.887V272.74C505.163 273.053 505.299 273.321 505.519 273.441C505.739 273.561 505.979 273.498 506.147 273.277L514.943 261.687H549.414C552.253 261.687 554.577 258.627 554.577 254.886V224.765C554.577 221.025 552.254 217.966 549.415 217.966Z" fill="#24366F"/>
<path fill-rule="evenodd" clip-rule="evenodd" d="M541.387 243.57C542.954 243.57 544.23 241.888 544.23 239.825C544.23 237.761 542.954 236.08 541.387 236.08C539.822 236.08 538.544 237.761 538.544 239.825C538.544 241.888 539.822 243.57 541.387 243.57Z" fill="white"/>
<path fill-rule="evenodd" clip-rule="evenodd" d="M529.87 243.57C531.435 243.57 532.712 241.888 532.712 239.825C532.712 237.761 531.435 236.08 529.87 236.08C528.303 236.08 527.027 237.761 527.027 239.825C527.028 241.888 528.304 243.57 529.87 243.57Z" fill="white"/>
<path fill-rule="evenodd" clip-rule="evenodd" d="M518.353 243.57C519.918 243.57 521.195 241.888 521.195 239.825C521.195 237.761 519.918 236.08 518.353 236.08C516.787 236.08 515.509 237.761 515.509 239.825C515.509 241.888 516.787 243.57 518.353 243.57Z" fill="white"/>
<path fill-rule="evenodd" clip-rule="evenodd" d="M478.624 167.317H506.534C507.167 167.317 507.751 167.565 508.206 167.979C508.331 168.036 508.445 168.129 508.532 168.255C508.582 168.327 508.62 168.406 508.647 168.486C508.975 168.967 509.17 169.564 509.17 170.208V188.185C509.17 188.979 508.874 189.7 508.397 190.224V190.226C507.919 190.75 507.259 191.074 506.534 191.074H478.624C477.899 191.074 477.238 190.75 476.761 190.226C476.284 189.703 475.987 188.98 475.987 188.184V170.206C475.987 169.559 476.183 168.961 476.511 168.478C476.539 168.399 476.577 168.323 476.625 168.253C476.713 168.127 476.825 168.035 476.95 167.978C477.407 167.565 477.991 167.317 478.624 167.317Z" fill="#24366F"/>
<path fill-rule="evenodd" clip-rule="evenodd" d="M491.589 179.192L505.249 167.756H477.93L491.589 179.192ZM476.6 186.843L487.347 177.844L476.6 168.846L476.599 168.89V186.843H476.6ZM495.832 177.844L506.58 186.843V168.89L506.578 168.846L495.832 177.844ZM505.905 187.93L494.844 178.67L492.084 180.98L492.083 180.981L492.074 180.988C492.053 181.008 492.03 181.024 492.007 181.04L492.004 181.042L491.99 181.051L491.986 181.054L491.972 181.062L491.969 181.063L491.954 181.073L491.953 181.074L491.938 181.083L491.935 181.084L491.919 181.092L491.918 181.094L491.901 181.101L491.9 181.102L491.883 181.11H491.882C491.852 181.123 491.822 181.134 491.79 181.144L491.789 181.145C491.757 181.153 491.727 181.16 491.695 181.164L491.693 181.166L491.675 181.167L491.674 181.168L491.656 181.17H491.655L491.618 181.173H491.617L491.599 181.174H491.598H491.58H491.579L491.561 181.173H491.559L491.522 181.17H491.52L491.503 181.168L491.501 181.167L491.483 181.166L491.482 181.164C491.449 181.162 491.418 181.155 491.387 181.145L491.386 181.144C491.354 181.135 491.325 181.124 491.295 181.11H491.297L491.281 181.102L491.279 181.101L491.263 181.094L491.262 181.092L491.245 181.084L491.244 181.083L491.229 181.074L491.226 181.073L491.212 181.065L491.21 181.063L491.196 181.055L491.192 181.052L491.18 181.044L491.175 181.041C491.152 181.026 491.13 181.008 491.108 180.99L491.099 180.983L491.096 180.981L488.336 178.671L477.277 187.931C477.39 187.978 477.511 188.003 477.638 188.003H505.547C505.671 188.003 505.792 187.978 505.905 187.93ZM477.636 166H505.545C506.179 166 506.762 166.248 507.218 166.662C507.342 166.72 507.455 166.812 507.542 166.938C507.592 167.01 507.631 167.087 507.659 167.169C507.987 167.65 508.182 168.246 508.182 168.89V186.868C508.182 187.661 507.886 188.383 507.407 188.906V188.909C506.93 189.431 506.271 189.757 505.545 189.757H477.636C476.909 189.757 476.251 189.431 475.773 188.909C475.296 188.386 475 187.663 475 186.866V168.89C475 168.244 475.196 167.645 475.524 167.163C475.552 167.084 475.59 167.008 475.638 166.938C475.725 166.812 475.838 166.719 475.963 166.662C476.418 166.249 477.002 166 477.636 166Z" fill="white"/>
<path fill-rule="evenodd" clip-rule="evenodd" d="M389.59 171.192L403.25 159.756H375.933L389.59 171.192ZM374.601 178.843L385.347 169.845L374.601 160.848L374.6 160.89V178.843H374.601ZM393.834 169.845L404.58 178.843V160.89L404.578 160.848L393.834 169.845ZM403.906 179.931L392.845 170.671L390.086 172.982L390.083 172.983L390.074 172.99C390.053 173.008 390.03 173.026 390.007 173.041L390.002 173.044L389.988 173.052L389.986 173.055L389.972 173.063L389.969 173.065L389.954 173.073L389.952 173.074L389.937 173.084H389.934L389.919 173.092L389.916 173.094L389.9 173.102H389.899L389.881 173.11C389.851 173.124 389.82 173.134 389.789 173.144H389.787C389.756 173.152 389.724 173.159 389.694 173.163H389.693L389.675 173.164L389.674 173.166L389.656 173.167H389.653L389.617 173.17H389.616H389.598H389.597H389.58H389.578H389.56H389.557L389.521 173.167H389.52L389.502 173.166L389.501 173.164L389.483 173.163H389.482C389.45 173.159 389.42 173.152 389.388 173.144H389.387C389.355 173.134 389.325 173.124 389.295 173.11L389.277 173.102H389.276L389.259 173.094L389.258 173.092L389.242 173.084H389.24L389.225 173.074L389.223 173.073L389.207 173.065L389.205 173.063L389.191 173.055L389.187 173.052L389.175 173.044L389.169 173.041C389.147 173.026 389.124 173.008 389.103 172.99L389.094 172.983L389.091 172.982L386.331 170.671L375.272 179.931C375.384 179.979 375.506 180.003 375.633 180.003H403.543C403.671 180.003 403.792 179.979 403.906 179.931ZM375.636 158H403.546C404.179 158 404.762 158.249 405.218 158.662C405.343 158.719 405.455 158.812 405.544 158.938C405.593 159.01 405.632 159.087 405.659 159.169C405.987 159.651 406.182 160.246 406.182 160.889V178.868C406.182 179.661 405.885 180.384 405.409 180.907V180.909C404.931 181.433 404.271 181.758 403.546 181.758H375.636C374.911 181.758 374.25 181.433 373.773 180.909C373.296 180.386 373 179.663 373 178.868V160.889C373 160.242 373.196 159.644 373.524 159.162C373.551 159.083 373.589 159.008 373.638 158.938C373.727 158.812 373.838 158.719 373.964 158.662C374.419 158.249 375.003 158 375.636 158Z" fill="#24366F"/>
<g opacity="0.72">
<path fill-rule="evenodd" clip-rule="evenodd" d="M366.222 285.587C366.222 285.009 365.795 284.543 365.269 284.543C364.743 284.543 364.317 285.011 364.317 285.587V288.042H362.077C361.551 288.042 361.125 288.511 361.125 289.087C361.125 289.664 361.551 290.13 362.077 290.13H364.317V292.586C364.317 293.163 364.743 293.629 365.269 293.629C365.796 293.629 366.222 293.163 366.222 292.586V290.13H368.463C368.989 290.13 369.416 289.663 369.416 289.087C369.416 288.509 368.988 288.042 368.463 288.042H366.222V285.587Z" fill="#24366F"/>
<path fill-rule="evenodd" clip-rule="evenodd" d="M260.496 300.959C260.496 300.381 260.07 299.916 259.544 299.916C259.017 299.916 258.592 300.381 258.592 300.959V303.414H256.352C255.825 303.414 255.4 303.88 255.4 304.458C255.4 305.035 255.826 305.503 256.352 305.503H258.592V307.958C258.592 308.536 259.019 309.003 259.544 309.003C260.071 309.003 260.496 308.534 260.496 307.958V305.503H262.736C263.263 305.503 263.688 305.034 263.688 304.458C263.688 303.88 263.262 303.414 262.736 303.414H260.496V300.959Z" fill="#24366F"/>
<path fill-rule="evenodd" clip-rule="evenodd" d="M367.3 95.2118C367.3 94.6343 366.874 94.167 366.348 94.167C365.821 94.167 365.396 94.6343 365.396 95.2118V97.6673H363.156C362.629 97.6673 362.204 98.1361 362.204 98.7121C362.204 99.2896 362.63 99.7554 363.156 99.7554H365.396V102.212C365.396 102.79 365.823 103.256 366.348 103.256C366.875 103.256 367.3 102.788 367.3 102.212V99.7554H369.541C370.067 99.7554 370.494 99.2881 370.494 98.7121C370.494 98.1361 370.067 97.6673 369.541 97.6673H367.3V95.2118Z" fill="#24366F"/>
<path fill-rule="evenodd" clip-rule="evenodd" d="M219.499 191.801C219.499 191.224 219.073 190.756 218.546 190.756C218.021 190.756 217.594 191.224 217.594 191.801V194.257H215.354C214.828 194.257 214.401 194.724 214.401 195.301C214.401 195.878 214.828 196.346 215.354 196.346H217.594V198.802C217.594 199.379 218.022 199.847 218.546 199.847C219.073 199.847 219.499 199.379 219.499 198.802V196.346H221.741C222.267 196.346 222.694 195.878 222.694 195.301C222.694 194.724 222.267 194.257 221.741 194.257H219.499V191.801Z" fill="#24366F"/>
<path fill-rule="evenodd" clip-rule="evenodd" d="M204.396 88.9283C204.396 88.3508 203.97 87.8835 203.444 87.8835C202.918 87.8835 202.493 88.3508 202.493 88.9283V91.3839H200.252C199.725 91.3839 199.3 91.8511 199.3 92.4287C199.3 93.0062 199.727 93.4735 200.252 93.4735H202.493V95.929C202.493 96.505 202.919 96.9723 203.444 96.9723C203.971 96.9723 204.396 96.505 204.396 95.929V93.4735H206.637C207.162 93.4735 207.589 93.0062 207.589 92.4287C207.589 91.8511 207.162 91.3839 206.637 91.3839H204.396V88.9283Z" fill="#24366F"/>
<path fill-rule="evenodd" clip-rule="evenodd" d="M153.69 289.945C153.69 289.368 153.264 288.902 152.738 288.902C152.212 288.902 151.787 289.368 151.787 289.945V292.401H149.546C149.019 292.401 148.594 292.868 148.594 293.444C148.594 294.02 149.021 294.489 149.546 294.489H151.787V296.944C151.787 297.52 152.213 297.988 152.738 297.988C153.265 297.988 153.69 297.519 153.69 296.944V294.489H155.931C156.458 294.489 156.884 294.02 156.884 293.444C156.884 292.868 156.456 292.401 155.931 292.401H153.69V289.945Z" fill="#24366F"/>
<path fill-rule="evenodd" clip-rule="evenodd" d="M390.992 247.7C390.992 247.123 390.564 246.656 390.04 246.656C389.513 246.656 389.087 247.123 389.087 247.7V250.156H386.847C386.32 250.156 385.893 250.623 385.893 251.201C385.893 251.778 386.32 252.244 386.847 252.244H389.087V254.699C389.087 255.277 389.513 255.744 390.04 255.744C390.566 255.744 390.992 255.277 390.992 254.699V252.244H393.232C393.758 252.244 394.184 251.777 394.184 251.201C394.184 250.625 393.757 250.156 393.232 250.156H390.992V247.7Z" fill="#FCC10F"/>
<path fill-rule="evenodd" clip-rule="evenodd" d="M321.947 170.842C321.947 170.264 321.519 169.797 320.995 169.797C320.468 169.797 320.043 170.264 320.043 170.842V173.297H317.802C317.275 173.297 316.849 173.765 316.849 174.342C316.849 174.918 317.275 175.386 317.802 175.386H320.043V177.843C320.043 178.42 320.469 178.886 320.995 178.886C321.52 178.886 321.947 178.419 321.947 177.843V175.386H324.187C324.712 175.386 325.139 174.918 325.139 174.342C325.139 173.765 324.711 173.297 324.187 173.297H321.947V170.842Z" fill="#FCC10F"/>
<path fill-rule="evenodd" clip-rule="evenodd" d="M447.092 187.396C447.092 186.818 446.664 186.351 446.14 186.351C445.613 186.351 445.186 186.818 445.186 187.396V189.851H442.946C442.419 189.851 441.993 190.318 441.993 190.896C441.993 191.472 442.419 191.939 442.946 191.939H445.186V194.395C445.186 194.971 445.613 195.438 446.14 195.438C446.665 195.438 447.092 194.971 447.092 194.395V191.939H449.332C449.858 191.939 450.284 191.472 450.284 190.896C450.284 190.318 449.858 189.851 449.332 189.851H447.092V187.396Z" fill="#FCC10F"/>
<path fill-rule="evenodd" clip-rule="evenodd" d="M508.585 400.237C508.585 399.66 508.159 399.192 507.633 399.192C507.106 399.192 506.681 399.661 506.681 400.237V402.693H504.441C503.914 402.693 503.489 403.16 503.489 403.736C503.489 404.312 503.914 404.779 504.441 404.779H506.681V407.235C506.681 407.812 507.106 408.278 507.633 408.278C508.16 408.278 508.585 407.811 508.585 407.235V404.779H510.827C511.352 404.779 511.779 404.312 511.779 403.736C511.779 403.16 511.352 402.693 510.827 402.693H508.585V400.237Z" fill="#FCC10F"/>
</g>
</g>
</g>
<defs>
<filter id="filter0_d" x="144.594" y="87.8835" width="413.983" height="328.395" filterUnits="userSpaceOnUse" color-interpolation-filters="sRGB">
<feFlood flood-opacity="0" result="BackgroundImageFix"/>
<feColorMatrix in="SourceAlpha" type="matrix" values="0 0 0 0 0 0 0 0 0 0 0 0 0 0 0 0 0 0 127 0" result="hardAlpha"/>
<feOffset dy="4"/>
<feGaussianBlur stdDeviation="2"/>
<feComposite in2="hardAlpha" operator="out"/>
<feColorMatrix type="matrix" values="0 0 0 0 0 0 0 0 0 0 0 0 0 0 0 0 0 0 0.25 0"/>
<feBlend mode="normal" in2="BackgroundImageFix" result="effect1_dropShadow"/>
<feBlend mode="normal" in="SourceGraphic" in2="effect1_dropShadow" result="shape"/>
</filter>
<clipPath id="clip0">
<rect width="695" height="554" fill="white"/>
</clipPath>
</defs>
</svg>
