<svg width="34" height="34" viewBox="0 0 34 34" fill="none" xmlns="http://www.w3.org/2000/svg">
<path fill-rule="evenodd" clip-rule="evenodd" d="M0.333359 6.99992C0.333359 5.23181 1.03574 3.53612 2.28598 2.28587C3.53622 1.03563 5.23192 0.333252 7.00003 0.333252H27C28.7681 0.333252 30.4638 1.03563 31.7141 2.28587C32.9643 3.53612 33.6667 5.23181 33.6667 6.99992V26.9999C33.6667 28.768 32.9643 30.4637 31.7141 31.714C30.4638 32.9642 28.7681 33.6666 27 33.6666H7.00003C5.23192 33.6666 3.53622 32.9642 2.28598 31.714C1.03574 30.4637 0.333359 28.768 0.333359 26.9999V6.99992ZM7.00003 3.66659C6.11597 3.66659 5.26812 4.01777 4.643 4.6429C4.01788 5.26802 3.66669 6.11586 3.66669 6.99992V26.9999C3.66669 27.884 4.01788 28.7318 4.643 29.3569C5.26812 29.9821 6.11597 30.3333 7.00003 30.3333H27C27.8841 30.3333 28.7319 29.9821 29.357 29.3569C29.9822 28.7318 30.3334 27.884 30.3334 26.9999V6.99992C30.3334 6.11586 29.9822 5.26802 29.357 4.6429C28.7319 4.01777 27.8841 3.66659 27 3.66659H7.00003ZM17 11.9999C15.6739 11.9999 14.4022 12.5267 13.4645 13.4644C12.5268 14.4021 12 15.6738 12 16.9999C12 18.326 12.5268 19.5978 13.4645 20.5355C14.4022 21.4731 15.6739 21.9999 17 21.9999C18.3261 21.9999 19.5979 21.4731 20.5356 20.5355C21.4732 19.5978 22 18.326 22 16.9999C22 15.6738 21.4732 14.4021 20.5356 13.4644C19.5979 12.5267 18.3261 11.9999 17 11.9999ZM8.66669 16.9999C8.66669 14.7898 9.54467 12.6702 11.1075 11.1074C12.6703 9.54456 14.7899 8.66659 17 8.66659C19.2102 8.66659 21.3298 9.54456 22.8926 11.1074C24.4554 12.6702 25.3334 14.7898 25.3334 16.9999C25.3334 19.2101 24.4554 21.3297 22.8926 22.8925C21.3298 24.4553 19.2102 25.3333 17 25.3333C14.7899 25.3333 12.6703 24.4553 11.1075 22.8925C9.54467 21.3297 8.66669 19.2101 8.66669 16.9999ZM26.1667 10.3333C26.8297 10.3333 27.4656 10.0699 27.9345 9.60102C28.4033 9.13218 28.6667 8.49629 28.6667 7.83325C28.6667 7.17021 28.4033 6.53433 27.9345 6.06549C27.4656 5.59664 26.8297 5.33325 26.1667 5.33325C25.5037 5.33325 24.8678 5.59664 24.3989 6.06549C23.9301 6.53433 23.6667 7.17021 23.6667 7.83325C23.6667 8.49629 23.9301 9.13218 24.3989 9.60102C24.8678 10.0699 25.5037 10.3333 26.1667 10.3333Z" fill="url(#paint0_linear)"/>
<defs>
<linearGradient id="paint0_linear" x1="17" y1="0.333252" x2="17" y2="33.6666" gradientUnits="userSpaceOnUse">
<stop stop-color="#F4BE02"/>
<stop stop-color="#F4BE02"/>
<stop offset="0.0001" stop-color="#DA00ED"/>
<stop offset="1" stop-opacity="0.62"/>
</linearGradient>
</defs>
</svg>
