<svg width="34" height="34" viewBox="0 0 34 34" fill="none" xmlns="http://www.w3.org/2000/svg">
<path fill-rule="evenodd" clip-rule="evenodd" d="M7.00001 0.333252C5.2319 0.333252 3.53621 1.03563 2.28597 2.28587C1.03572 3.53612 0.333344 5.23181 0.333344 6.99992V26.9999C0.333344 28.768 1.03572 30.4637 2.28597 31.714C3.53621 32.9642 5.2319 33.6666 7.00001 33.6666H27C28.7681 33.6666 30.4638 32.9642 31.7141 31.714C32.9643 30.4637 33.6667 28.768 33.6667 26.9999V6.99992C33.6667 5.23181 32.9643 3.53612 31.7141 2.28587C30.4638 1.03563 28.7681 0.333252 27 0.333252H7.00001ZM3.66668 6.99992C3.66668 6.11586 4.01787 5.26802 4.64299 4.6429C5.26811 4.01777 6.11596 3.66659 7.00001 3.66659H27C27.8841 3.66659 28.7319 4.01777 29.357 4.6429C29.9822 5.26802 30.3333 6.11586 30.3333 6.99992V26.9999C30.3333 27.884 29.9822 28.7318 29.357 29.3569C28.7319 29.9821 27.8841 30.3333 27 30.3333H7.00001C6.11596 30.3333 5.26811 29.9821 4.64299 29.3569C4.01787 28.7318 3.66668 27.884 3.66668 26.9999V6.99992ZM12 15.3333C12 14.8912 11.8244 14.4673 11.5119 14.1547C11.1993 13.8422 10.7754 13.6666 10.3333 13.6666C9.89132 13.6666 9.46739 13.8422 9.15483 14.1547C8.84227 14.4673 8.66668 14.8912 8.66668 15.3333V25.3333C8.66668 25.7753 8.84227 26.1992 9.15483 26.5118C9.46739 26.8243 9.89132 26.9999 10.3333 26.9999C10.7754 26.9999 11.1993 26.8243 11.5119 26.5118C11.8244 26.1992 12 25.7753 12 25.3333V15.3333ZM12.8333 9.49992C12.8333 10.163 12.57 10.7988 12.1011 11.2677C11.6323 11.7365 10.9964 11.9999 10.3333 11.9999C9.6703 11.9999 9.03442 11.7365 8.56558 11.2677C8.09674 10.7988 7.83334 10.163 7.83334 9.49992C7.83334 8.83688 8.09674 8.20099 8.56558 7.73215C9.03442 7.26331 9.6703 6.99992 10.3333 6.99992C10.9964 6.99992 11.6323 7.26331 12.1011 7.73215C12.57 8.20099 12.8333 8.83688 12.8333 9.49992ZM17 13.6666C17.5667 13.6666 18.0667 13.9499 18.3667 14.3799C19.2257 13.9118 20.1884 13.6665 21.1667 13.6666C24.7667 13.6666 27 16.8766 27 19.6183V25.3333C27 25.7753 26.8244 26.1992 26.5119 26.5118C26.1993 26.8243 25.7754 26.9999 25.3333 26.9999C24.8913 26.9999 24.4674 26.8243 24.1548 26.5118C23.8423 26.1992 23.6667 25.7753 23.6667 25.3333V19.6166C23.6667 18.3366 22.5667 16.9983 21.1667 16.9983C20.2933 16.9983 19.3283 17.4733 18.6667 18.6033V25.3333C18.6667 25.7753 18.4911 26.1992 18.1785 26.5118C17.866 26.8243 17.442 26.9999 17 26.9999C16.558 26.9999 16.1341 26.8243 15.8215 26.5118C15.5089 26.1992 15.3333 25.7753 15.3333 25.3333V15.3333C15.3333 14.8912 15.5089 14.4673 15.8215 14.1547C16.1341 13.8422 16.558 13.6666 17 13.6666Z" fill="#0029FF"/>
</svg>
