<svg width="270" height="227" viewBox="0 0 270 227" fill="none" xmlns="http://www.w3.org/2000/svg">
<rect x="0.730469" y="-0.000244141" width="269.074" height="226.056" rx="4" fill="#EBFFF4"/>
<g clip-path="url(#clip0)">
<path d="M90.5388 139.967C86.923 139.967 83.2051 142.613 83.2051 147.245C83.2051 151.48 86.474 154.47 90.5388 154.47C93.8941 154.47 95.3895 152.414 95.3895 152.414V153.31C95.3895 153.734 95.8281 154.207 96.3711 154.207H98.7965V140.284H95.3895V142.05C95.3895 142.05 93.8815 139.967 90.5388 139.967ZM91.1457 142.814C94.1222 142.814 95.6836 145.205 95.6836 147.244C95.6836 149.516 93.8298 151.673 91.152 151.673C88.9136 151.673 86.6713 150.017 86.6713 147.214C86.6713 144.684 88.6009 142.814 91.1457 142.814Z" fill="black"/>
<path d="M103.531 154.207C103.008 154.207 102.55 153.864 102.55 153.31V140.284H105.957V142.007C106.729 140.947 108.237 139.963 110.552 139.963C114.336 139.963 116.351 142.718 116.351 145.294V154.207H113.983C113.363 154.207 112.944 153.732 112.944 153.257V145.979C112.944 144.551 111.986 142.817 109.771 142.817C107.38 142.817 105.957 144.881 105.957 146.823V154.207H103.531Z" fill="black"/>
<path d="M126.283 139.967C122.668 139.967 118.95 142.613 118.95 147.245C118.95 151.479 122.219 154.47 126.283 154.47C129.639 154.47 131.134 152.413 131.134 152.413V153.31C131.134 153.733 131.573 154.206 132.116 154.206H134.541V133.322H131.134V142.05C131.134 142.05 129.626 139.967 126.283 139.967ZM126.89 142.814C129.867 142.814 131.428 145.204 131.428 147.244C131.428 149.515 129.574 151.672 126.897 151.672C124.658 151.672 122.416 150.016 122.416 147.214C122.416 144.684 124.346 142.814 126.89 142.814Z" fill="black"/>
<path d="M139.276 154.207C138.753 154.207 138.294 153.864 138.294 153.31V140.284H141.701V142.604C142.288 141.304 143.553 140.125 145.801 140.125C146.428 140.125 147.014 140.231 147.014 140.231V143.448C147.014 143.448 146.282 143.184 145.397 143.184C143.007 143.184 141.701 145.248 141.701 147.19V154.207H139.276Z" fill="black"/>
<path d="M167.687 154.207C167.164 154.207 166.706 153.864 166.706 153.31V140.284H170.113V154.207H167.687Z" fill="black"/>
<path d="M180.103 139.967C176.487 139.967 172.769 142.613 172.769 147.245C172.769 151.479 176.038 154.47 180.103 154.47C183.458 154.47 184.953 152.413 184.953 152.413V153.31C184.953 153.733 185.392 154.206 185.935 154.206H188.36V133.322H184.953V142.05C184.953 142.05 183.445 139.967 180.103 139.967ZM180.71 142.814C183.686 142.814 185.248 145.204 185.248 147.244C185.248 149.515 183.394 151.672 180.716 151.672C178.478 151.672 176.235 150.016 176.235 147.214C176.235 144.684 178.165 142.814 180.71 142.814Z" fill="black"/>
<path d="M168.382 137.281C169.627 137.281 170.636 136.359 170.636 135.223C170.636 134.086 169.627 133.165 168.382 133.165C167.138 133.165 166.129 134.086 166.129 135.223C166.129 136.359 167.138 137.281 168.382 137.281Z" fill="black"/>
<path d="M156 139.963C152.213 139.963 148.053 142.544 148.053 147.221C148.053 151.482 151.596 154.471 155.991 154.471C161.408 154.471 164.053 150.494 164.053 147.248C164.053 143.264 160.647 139.963 156 139.963ZM156.012 142.868C158.631 142.868 160.584 144.796 160.584 147.229C160.584 149.705 158.51 151.615 156.02 151.615C153.708 151.615 151.46 149.897 151.46 147.271C151.46 144.601 153.598 142.868 156.012 142.868Z" fill="black"/>
<path d="M161.447 86.8575L170.164 73.0664C170.656 72.2932 170.359 71.3111 169.524 70.8619C168.689 70.4126 167.602 70.6738 167.121 71.447L158.29 85.4157C151.552 82.6052 143.968 81.0381 135.811 81.0381C127.655 81.0381 120.07 82.6052 113.332 85.4157L104.501 71.447C104.009 70.6738 102.933 70.4126 102.087 70.8619C101.24 71.3111 100.954 72.2932 101.446 73.0664L110.163 86.8575C95.1315 94.2963 84.9502 108.192 83.2686 124.459H188.354C186.672 108.192 176.491 94.2963 161.447 86.8575ZM111.685 110.982C109.248 110.982 107.28 109.174 107.28 106.959C107.28 104.734 109.26 102.937 111.685 102.937C114.121 102.937 116.089 104.744 116.089 106.959C116.101 109.174 114.121 110.982 111.685 110.982ZM159.926 110.982C157.489 110.982 155.522 109.174 155.522 106.959C155.522 104.734 157.501 102.937 159.926 102.937C162.363 102.937 164.33 104.744 164.33 106.959C164.342 109.174 162.363 110.982 159.926 110.982Z" fill="#32DE84"/>
</g>
<defs>
<clipPath id="clip0">
<rect width="105.155" height="83.829" fill="white" transform="translate(83.2051 70.6421)"/>
</clipPath>
</defs>
</svg>
