<svg width="140" height="140" viewBox="0 0 140 140" fill="none" xmlns="http://www.w3.org/2000/svg">
<path d="M95.675 79.4855C97.1693 78.7987 98.8462 79.7136 99.294 81.2959L100.881 86.9039C101.302 88.391 100.463 89.9192 99.1503 90.7342C98.3494 91.2313 97.5925 91.8275 96.8972 92.5228C92.0197 97.4002 92.0197 105.308 96.8972 110.186C97.8344 111.123 98.8835 111.88 100.002 112.457C101.375 113.166 102.331 114.624 102.028 116.14L100.885 121.854C100.563 123.466 98.9629 124.509 97.4192 123.943C94.2431 122.777 91.2636 120.919 88.7139 118.369C79.3169 108.972 79.3169 93.7364 88.7139 84.3394C90.7911 82.2623 93.1535 80.6443 95.675 79.4855Z" fill="#F4BE02"/>
<path d="M135.624 138.542H111.562C110.354 138.542 109.374 137.562 109.374 136.354C109.374 135.146 110.354 134.167 111.562 134.167H132.708C133.513 134.167 134.166 133.514 134.166 132.708V111.563C134.166 110.354 135.145 109.375 136.354 109.375C137.562 109.375 138.541 110.354 138.541 111.563V135.625C138.541 137.236 137.235 138.542 135.624 138.542Z" fill="#F4BE02"/>
<path d="M4.37443 1.45837L28.4369 1.45838C29.6451 1.45838 30.6244 2.43775 30.6244 3.64588C30.6244 4.854 29.6451 5.83337 28.4369 5.83337L7.2911 5.83337C6.48568 5.83337 5.83276 6.48629 5.83276 7.29171L5.83276 28.4375C5.83276 29.6457 4.85339 30.625 3.64526 30.625C2.43714 30.625 1.45776 29.6457 1.45776 28.4375L1.45777 4.37504C1.45777 2.76421 2.7636 1.45837 4.37443 1.45837Z" fill="#F4BE02"/>
<path d="M65.4882 83.3943C66.1397 85.2877 62.0601 89.9519 58.8268 91.8438C58.2645 92.6049 57.46 93.4689 56.8985 94.2296L58.0874 93.8253C61.2559 92.7125 64.2348 91.1212 67.2023 89.5342L67.138 87.296C67.6626 84.7137 71.1049 82.798 71.2348 82.5223C71.2465 82.4975 71.6553 81.921 72.3878 80.8918L66.4875 81.6209C66.1061 82.1201 65.7327 82.6067 65.368 83.0797L65.4882 83.3943Z" fill="#F4BE02"/>
<path d="M50.931 102.317L52.0247 100.742C52.2692 101.18 52.5905 101.504 53.0219 101.799C52.2744 101.97 51.6491 102.126 50.931 102.317Z" fill="#F4BE02"/>
<path d="M95.675 79.4855L95.8838 79.9398L95.675 79.4855ZM99.294 81.2959L98.8129 81.4321L99.294 81.2959ZM100.881 86.9039L101.362 86.7678L100.881 86.9039ZM99.1503 90.7342L98.8866 90.3094L99.1503 90.7342ZM100.002 112.457L99.7722 112.901L100.002 112.457ZM102.028 116.14L102.518 116.238L102.028 116.14ZM100.885 121.854L100.395 121.755L100.885 121.854ZM97.4192 123.943L97.5916 123.473L97.4192 123.943ZM4.37443 1.45837V1.95837V1.45837ZM28.4369 1.45838V0.958375V1.45838ZM28.4369 5.83337V6.33337V5.83337ZM7.2911 5.83337V5.33337V5.83337ZM5.83276 7.29171H6.33276H5.83276ZM5.83276 28.4375H5.33276H5.83276ZM1.45776 28.4375H1.95776H1.45776ZM1.45777 4.37504H0.957765H1.45777ZM65.4882 83.3943L65.961 83.2316C65.9592 83.2263 65.9573 83.221 65.9552 83.2157L65.4882 83.3943ZM58.8268 91.8438L58.5743 91.4123C58.5158 91.4465 58.4649 91.4922 58.4247 91.5467L58.8268 91.8438ZM56.8985 94.2296L56.4962 93.9327C56.3664 94.1085 56.3659 94.3483 56.4949 94.5247C56.6239 94.7012 56.8525 94.7734 57.0595 94.703L56.8985 94.2296ZM58.0874 93.8253L58.2484 94.2987L58.2531 94.2971L58.0874 93.8253ZM67.2023 89.5342L67.4381 89.9752C67.6053 89.8857 67.7075 89.7094 67.7021 89.5199L67.2023 89.5342ZM67.138 87.296L66.648 87.1965C66.6404 87.2339 66.6371 87.2722 66.6382 87.3104L67.138 87.296ZM71.2348 82.5223L70.7826 82.3091L70.7826 82.3091L71.2348 82.5223ZM72.3878 80.8918L72.7952 81.1817C72.9101 81.0202 72.9188 80.806 72.8173 80.6357C72.7158 80.4655 72.5233 80.3712 72.3265 80.3956L72.3878 80.8918ZM66.4875 81.6209L66.4262 81.1247C66.2929 81.1412 66.1718 81.2106 66.0902 81.3174L66.4875 81.6209ZM65.368 83.0797L64.972 82.7744C64.8657 82.9123 64.8387 83.0956 64.9009 83.2582L65.368 83.0797ZM50.931 102.317L50.5203 102.032C50.4007 102.204 50.4013 102.433 50.5217 102.604C50.6421 102.776 50.8568 102.854 51.0594 102.8L50.931 102.317ZM52.0247 100.742L52.4611 100.498C52.3769 100.348 52.2212 100.251 52.0489 100.243C51.8767 100.234 51.7123 100.315 51.6139 100.457L52.0247 100.742ZM53.0219 101.799L53.134 102.286C53.3275 102.241 53.4764 102.086 53.5132 101.891C53.5501 101.696 53.468 101.498 53.304 101.386L53.0219 101.799ZM95.8838 79.9398C97.0597 79.3993 98.4364 80.1017 98.8129 81.4321L99.7751 81.1598C99.256 79.3255 97.2788 78.1981 95.4662 79.0311L95.8838 79.9398ZM98.8129 81.4321L100.4 87.0401L101.362 86.7678L99.7751 81.1598L98.8129 81.4321ZM100.4 87.0401C100.744 88.2538 100.068 89.5762 98.8866 90.3094L99.414 91.159C100.859 90.2622 101.861 88.5283 101.362 86.7678L100.4 87.0401ZM98.8866 90.3094C98.0534 90.8265 97.2663 91.4466 96.5437 92.1692L97.2508 92.8763C97.9187 92.2083 98.6454 91.636 99.414 91.159L98.8866 90.3094ZM96.5437 92.1692C91.4709 97.2419 91.4709 105.466 96.5437 110.539L97.2508 109.832C92.5686 105.15 92.5686 97.5585 97.2508 92.8763L96.5437 92.1692ZM96.5437 110.539C97.5178 111.513 98.6089 112.301 99.7722 112.901L100.231 112.013C99.1582 111.459 98.1511 110.732 97.2508 109.832L96.5437 110.539ZM99.7722 112.901C101.008 113.539 101.785 114.804 101.538 116.041L102.518 116.238C102.877 114.443 101.742 112.793 100.231 112.013L99.7722 112.901ZM101.538 116.041L100.395 121.755L101.375 121.952L102.518 116.238L101.538 116.041ZM100.395 121.755C100.124 123.111 98.8065 123.919 97.5916 123.473L97.2469 124.412C99.1192 125.099 101.002 123.821 101.375 121.952L100.395 121.755ZM97.5916 123.473C94.4822 122.332 91.5648 120.513 89.0675 118.015L88.3604 118.723C90.9624 121.325 94.0041 123.221 97.2469 124.412L97.5916 123.473ZM89.0675 118.015C79.8657 108.814 79.8657 93.8947 89.0675 84.693L88.3604 83.9859C78.7681 93.5781 78.7681 109.13 88.3604 118.723L89.0675 118.015ZM89.0675 84.693C91.1021 82.6584 93.4153 81.0743 95.8838 79.9398L95.4662 79.0311C92.8916 80.2144 90.48 81.8662 88.3604 83.9859L89.0675 84.693ZM135.624 138.042H111.562V139.042H135.624V138.042ZM111.562 138.042C110.63 138.042 109.874 137.286 109.874 136.354H108.874C108.874 137.838 110.078 139.042 111.562 139.042V138.042ZM109.874 136.354C109.874 135.422 110.63 134.667 111.562 134.667V133.667C110.078 133.667 108.874 134.87 108.874 136.354H109.874ZM111.562 134.667H132.708V133.667H111.562V134.667ZM132.708 134.667C133.789 134.667 134.666 133.79 134.666 132.708H133.666C133.666 133.238 133.237 133.667 132.708 133.667V134.667ZM134.666 132.708V111.563H133.666V132.708H134.666ZM134.666 111.563C134.666 110.631 135.422 109.875 136.354 109.875V108.875C134.869 108.875 133.666 110.078 133.666 111.563H134.666ZM136.354 109.875C137.286 109.875 138.041 110.631 138.041 111.563H139.041C139.041 110.078 137.838 108.875 136.354 108.875V109.875ZM138.041 111.563V135.625H139.041V111.563H138.041ZM138.041 135.625C138.041 136.96 136.959 138.042 135.624 138.042V139.042C137.511 139.042 139.041 137.512 139.041 135.625H138.041ZM4.37443 1.95837L28.4369 1.95838V0.958375L4.37443 0.958374V1.95837ZM28.4369 1.95838C29.3689 1.95838 30.1244 2.7139 30.1244 3.64588H31.1244C31.1244 2.16161 29.9212 0.958376 28.4369 0.958375V1.95838ZM30.1244 3.64588C30.1244 4.57786 29.3689 5.33338 28.4369 5.33338V6.33337C29.9212 6.33337 31.1244 5.13014 31.1244 3.64588H30.1244ZM28.4369 5.33338L7.2911 5.33337V6.33337L28.4369 6.33337V5.33338ZM7.2911 5.33337C6.20954 5.33337 5.33276 6.21015 5.33276 7.29171H6.33276C6.33276 6.76243 6.76183 6.33337 7.2911 6.33337V5.33337ZM5.33276 7.29171L5.33276 28.4375H6.33276L6.33276 7.29171H5.33276ZM5.33276 28.4375C5.33276 29.3695 4.57724 30.125 3.64526 30.125V31.125C5.12953 31.125 6.33276 29.9218 6.33276 28.4375H5.33276ZM3.64526 30.125C2.71328 30.125 1.95776 29.3695 1.95776 28.4375H0.957764C0.957764 29.9218 2.161 31.125 3.64526 31.125V30.125ZM1.95776 28.4375L1.95777 4.37504H0.957765L0.957764 28.4375H1.95776ZM1.95777 4.37504C1.95777 3.04035 3.03974 1.95837 4.37443 1.95837V0.958374C2.48746 0.958374 0.957765 2.48807 0.957765 4.37504H1.95777ZM65.0154 83.557C65.1117 83.8369 65.0535 84.3278 64.7236 85.0362C64.406 85.7184 63.8833 86.5021 63.2275 87.3028C61.9143 88.9061 60.1296 90.5022 58.5743 91.4123L59.0793 92.2754C60.7573 91.2936 62.6291 89.6116 64.0011 87.9365C64.6879 87.0979 65.2651 86.2424 65.6302 85.4583C65.983 84.7006 66.1904 83.8984 65.961 83.2316L65.0154 83.557ZM58.4247 91.5467C58.1546 91.9121 57.8238 92.3058 57.4797 92.7151C57.1406 93.1183 56.7882 93.5371 56.4962 93.9327L57.3007 94.5266C57.5703 94.1614 57.9009 93.7679 58.245 93.3586C58.584 92.9555 58.9366 92.5366 59.2289 92.141L58.4247 91.5467ZM57.0595 94.703L58.2484 94.2987L57.9264 93.3519L56.7375 93.7562L57.0595 94.703ZM58.2531 94.2971C61.4638 93.1694 64.4763 91.5591 67.4381 89.9752L66.9665 89.0933C63.9934 90.6833 61.0479 92.2556 57.9217 93.3536L58.2531 94.2971ZM67.7021 89.5199L67.6378 87.2817L66.6382 87.3104L66.7025 89.5486L67.7021 89.5199ZM67.628 87.3956C67.8562 86.2723 68.7399 85.2402 69.6663 84.4182C70.1204 84.0153 70.5648 83.6799 70.9113 83.4231C71.0807 83.2976 71.2364 83.1839 71.3503 83.0951C71.4073 83.0507 71.4638 83.005 71.5112 82.9614C71.5393 82.9356 71.632 82.8525 71.6871 82.7356L70.7826 82.3091C70.8215 82.2266 70.872 82.1908 70.8351 82.2246C70.8176 82.2407 70.7863 82.2669 70.7357 82.3063C70.6345 82.3851 70.4958 82.4864 70.316 82.6197C69.9641 82.8803 69.4908 83.237 69.0026 83.6702C68.0442 84.5206 66.9445 85.7374 66.648 87.1965L67.628 87.3956ZM71.6871 82.7356C71.6697 82.7726 71.649 82.802 71.6602 82.7848C71.6614 82.7829 71.6647 82.778 71.6709 82.7689C71.683 82.7511 71.7015 82.7244 71.7269 82.6881C71.7773 82.6158 71.8517 82.5103 71.9492 82.3725C72.1439 82.0973 72.4289 81.6963 72.7952 81.1817L71.9805 80.6018C71.6142 81.1164 71.3285 81.5184 71.1329 81.7949C71.0351 81.933 70.9593 82.0406 70.907 82.1156C70.8809 82.1528 70.8598 82.1833 70.8445 82.2059C70.8369 82.2169 70.8295 82.2279 70.8231 82.2377C70.82 82.2424 70.8158 82.249 70.8113 82.2563C70.8107 82.2572 70.7962 82.2802 70.7826 82.3091L71.6871 82.7356ZM72.3265 80.3956L66.4262 81.1247L66.5489 82.1172L72.4492 81.388L72.3265 80.3956ZM66.0902 81.3174C65.7092 81.816 65.3363 82.302 64.972 82.7744L65.7639 83.385C66.1291 82.9114 66.5029 82.4242 66.8848 81.9245L66.0902 81.3174ZM64.9009 83.2582L65.0212 83.5728L65.9552 83.2157L65.835 82.9012L64.9009 83.2582ZM51.3417 102.602L52.4354 101.027L51.6139 100.457L50.5203 102.032L51.3417 102.602ZM51.5882 100.986C51.8774 101.503 52.2575 101.882 52.7398 102.211L53.304 101.386C52.9234 101.126 52.6609 100.856 52.4611 100.498L51.5882 100.986ZM52.9098 101.311C52.1566 101.485 51.5258 101.642 50.8025 101.834L51.0594 102.8C51.7724 102.611 52.3923 102.456 53.134 102.286L52.9098 101.311Z" fill="#A8ABFF"/>
<path d="M26.9786 40.8334L27.268 40.4256L26.7577 40.0635L26.5171 40.6411L26.9786 40.8334ZM49.5828 56.875L49.2934 57.2828L49.7844 57.6313L50.0367 57.0846L49.5828 56.875ZM62.7078 28.4375L63.005 28.0355L62.5111 27.6704L62.2538 28.228L62.7078 28.4375ZM79.4786 40.8334L79.1814 41.2355L79.6147 41.5557L79.9017 41.0998L79.4786 40.8334ZM91.8744 21.1459L92.1351 20.7192L91.7142 20.462L91.4513 20.8795L91.8744 21.1459ZM48.3959 110.186C48.6694 110.223 48.9218 110.032 48.9595 109.759C48.9973 109.485 48.8061 109.233 48.5326 109.195L48.3959 110.186ZM43.0656 111.662L42.5956 111.491L42.5953 111.492L43.0656 111.662ZM45.0538 115.225L44.7936 115.652L44.7938 115.652L45.0538 115.225ZM56.7343 118.156C57.0092 118.13 57.2107 117.885 57.1843 117.61C57.1579 117.336 56.9136 117.134 56.6388 117.161L56.7343 118.156ZM41.5492 106.175C41.3384 106.353 41.312 106.668 41.4904 106.879C41.6687 107.09 41.9842 107.116 42.195 106.938L41.5492 106.175ZM49.8398 95.9349L50.2077 96.2736C50.2163 96.2642 50.2246 96.2545 50.2325 96.2445L49.8398 95.9349ZM65.4881 83.3941L65.9609 83.2314L65.4881 83.3941ZM62.2985 81.4307L62.4096 81.9182C62.4206 81.9157 62.4315 81.9128 62.4423 81.9096L62.2985 81.4307ZM51.1612 85.5913L51.2424 86.0846C51.2524 86.083 51.2624 86.081 51.2723 86.0788L51.1612 85.5913ZM31.0808 89.9878L30.7593 89.6048C30.7535 89.6097 30.7478 89.6147 30.7423 89.6199L31.0808 89.9878ZM17.3233 109.274L17.6404 109.66L17.3233 109.274ZM30.0607 128.664L30.2101 129.141L30.2101 129.141L30.0607 128.664ZM57.8166 119.237L58.1605 119.6L58.1607 119.6L57.8166 119.237ZM61.3754 110.114C61.1657 109.934 60.8501 109.959 60.6703 110.168C60.4906 110.378 60.5149 110.694 60.7245 110.873L61.3754 110.114ZM46.3864 81.5965L46.536 82.0736L46.3864 81.5965ZM53.3323 80.0059L53.2569 79.5116L53.3323 80.0059ZM67.7025 80.4156C67.9744 80.4638 68.2339 80.2824 68.282 80.0105C68.3302 79.7386 68.1488 79.4791 67.8769 79.4309L67.7025 80.4156ZM67.438 89.975C67.6815 89.8447 67.7733 89.5418 67.6431 89.2983C67.5129 89.0548 67.2099 88.9629 66.9664 89.0931L67.438 89.975ZM58.0873 93.8251L58.2522 94.2972L58.253 94.2969L58.0873 93.8251ZM53.4772 95.876L53.7819 96.2724L53.7833 96.2714L53.4772 95.876ZM51.8087 100.292L51.3404 100.467L51.3408 100.468L51.8087 100.292ZM58.7496 102.354L58.6658 101.862L58.6657 101.862L58.7496 102.354ZM71.4641 98.2681L71.1955 97.8464L71.1954 97.8465L71.4641 98.2681ZM72.8175 96.944L72.3634 96.7349L72.363 96.7357L72.8175 96.944ZM73.0261 95.4541L72.5265 95.4743L72.5266 95.475L73.0261 95.4541ZM72.5235 91.0862C72.4132 90.833 72.1186 90.7172 71.8654 90.8274C71.6122 90.9377 71.4964 91.2323 71.6067 91.4855L72.5235 91.0862ZM68.8889 99.5575C68.764 99.3112 68.4631 99.2128 68.2169 99.3377C67.9706 99.4626 67.8722 99.7635 67.9971 100.01L68.8889 99.5575ZM69.6134 105.036L69.133 104.897L69.1326 104.899L69.6134 105.036ZM66.8988 108.199L66.6272 107.779L66.627 107.779L66.8988 108.199ZM50.5856 110.237L50.4847 110.727L50.4851 110.727L50.5856 110.237ZM45.8287 104.486L46.2356 104.777L45.8287 104.486ZM48.502 102.992L48.3637 102.512L48.3626 102.512L48.502 102.992ZM53.1513 102.298C53.4204 102.236 53.5884 101.967 53.5265 101.698C53.4645 101.429 53.1962 101.261 52.9271 101.323L53.1513 102.298ZM67.1379 87.2958L67.6279 87.3956L67.6279 87.3954L67.1379 87.2958ZM68.0913 90.9455L67.773 91.3312L67.7739 91.3319L68.0913 90.9455ZM71.8819 91.3396L71.7458 90.8585L71.7452 90.8587L71.8819 91.3396ZM73.736 90.48L73.4318 90.0832L73.4317 90.0832L73.736 90.48ZM71.687 82.7354C71.8047 82.4856 71.6977 82.1876 71.4479 82.0699C71.1982 81.9521 70.9002 82.0592 70.7825 82.309L71.687 82.7354ZM72.9895 80.0258C72.7608 79.8711 72.4499 79.931 72.2952 80.1598C72.1404 80.3885 72.2004 80.6993 72.4291 80.8541L72.9895 80.0258ZM27.5423 93.5089C27.3677 93.7229 27.3995 94.0378 27.6135 94.2125C27.8274 94.3871 28.1424 94.3553 28.317 94.1413L27.5423 93.5089ZM10.7241 137.343L10.3273 137.648L10.7241 137.343ZM14.8952 137.965L14.6021 137.56L14.8952 137.965ZM3.82803 114.824L3.72534 114.334L3.82803 114.824ZM1.52908 117.2L1.03124 117.154L1.52908 117.2ZM58.6018 91.9271L58.7712 92.3975L58.6018 91.9271ZM59.0315 91.7208L58.7698 91.2948L59.0315 91.7208ZM93.6863 116.291C93.8816 116.096 93.8816 115.779 93.6863 115.584C93.4911 115.389 93.1745 115.389 92.9792 115.584L93.6863 116.291ZM83.1244 126.146V126.646C83.257 126.646 83.3842 126.593 83.478 126.499L83.1244 126.146ZM70.7286 125.646C70.4525 125.646 70.2286 125.87 70.2286 126.146C70.2286 126.422 70.4525 126.646 70.7286 126.646V125.646ZM114.125 82.7715C113.93 82.9667 113.93 83.2833 114.125 83.4786C114.32 83.6739 114.637 83.6739 114.832 83.4786L114.125 82.7715ZM124.687 72.9167V72.4167C124.554 72.4167 124.427 72.4694 124.333 72.5632L124.687 72.9167ZM136.354 73.4167C136.63 73.4167 136.854 73.1928 136.854 72.9167C136.854 72.6406 136.63 72.4167 136.354 72.4167V73.4167ZM121.417 110.48C121.221 110.675 121.221 110.992 121.417 111.187C121.612 111.382 121.929 111.382 122.124 111.187L121.417 110.48ZM129.062 103.542V103.042C128.929 103.042 128.802 103.094 128.708 103.188L129.062 103.542ZM136.354 104.042C136.63 104.042 136.854 103.818 136.854 103.542C136.854 103.266 136.63 103.042 136.354 103.042V104.042ZM9.21097 84.7757L27.4401 41.0257L26.5171 40.6411L8.28789 84.3911L9.21097 84.7757ZM26.6892 41.2411L49.2934 57.2828L49.8721 56.4673L27.268 40.4256L26.6892 41.2411ZM50.0367 57.0846L63.1617 28.6471L62.2538 28.228L49.1288 56.6655L50.0367 57.0846ZM62.4106 28.8396L79.1814 41.2355L79.7758 40.4313L63.005 28.0355L62.4106 28.8396ZM79.9017 41.0998L92.2975 21.4123L91.4513 20.8795L79.0555 40.567L79.9017 41.0998ZM91.6137 21.5725L104.739 29.5933L105.26 28.7401L92.1351 20.7192L91.6137 21.5725ZM48.5326 109.195C47.5645 109.061 46.3328 109.026 45.2244 109.313C44.11 109.601 43.0511 110.238 42.5956 111.491L43.5355 111.833C43.8384 110.999 44.546 110.521 45.4749 110.281C46.4098 110.039 47.4982 110.062 48.3959 110.186L48.5326 109.195ZM42.5953 111.492C42.2314 112.499 42.449 113.362 42.9413 114.062C43.4138 114.733 44.1349 115.25 44.7936 115.652L45.314 114.798C44.683 114.413 44.1088 113.983 43.7589 113.486C43.4288 113.017 43.2972 112.492 43.5358 111.832L42.5953 111.492ZM44.7938 115.652C48.1852 117.716 52.8437 118.53 56.7343 118.156L56.6388 117.161C52.922 117.517 48.4882 116.73 45.3138 114.798L44.7938 115.652ZM42.195 106.938C44.0618 105.359 45.3889 103.406 46.5837 101.506C47.7919 99.5852 48.8497 97.7484 50.2077 96.2736L49.472 95.5963C48.0341 97.1579 46.9119 99.106 45.7372 100.974C44.549 102.863 43.2901 104.702 41.5492 106.175L42.195 106.938ZM50.2325 96.2445C51.2275 94.9824 52.5993 94.2779 54.1233 93.7607C54.8862 93.5018 55.6724 93.2945 56.4626 93.0839C57.2459 92.8751 58.0351 92.6626 58.7712 92.3975L58.4324 91.4567C57.7427 91.7051 56.9941 91.9073 56.2051 92.1176C55.4231 92.3261 54.6026 92.5421 53.8019 92.8138C52.1986 93.3578 50.6153 94.1437 49.4472 95.6254L50.2325 96.2445ZM59.2931 92.1469C60.9482 91.1305 62.7634 89.4715 64.0873 87.8301C64.7497 87.0088 65.304 86.1738 65.653 85.4084C65.9906 84.6679 66.1858 83.885 65.9609 83.2314L65.0153 83.5568C65.1093 83.83 65.0566 84.3059 64.7431 84.9936C64.4409 85.6564 63.9407 86.419 63.309 87.2023C62.0446 88.7699 60.3126 90.3474 58.7698 91.2948L59.2931 92.1469ZM65.9609 83.2314C65.6036 82.1931 65.0295 81.4974 64.3235 81.1269C63.6198 80.7576 62.847 80.744 62.1548 80.9518L62.4423 81.9096C62.9291 81.7635 63.4253 81.7849 63.8588 82.0124C64.2899 82.2386 64.7211 82.7017 65.0153 83.5568L65.9609 83.2314ZM62.1875 80.9432C60.0063 81.44 58.2392 82.2605 56.5196 83.0573C54.7936 83.8571 53.1152 84.6333 51.0502 85.1037L51.2723 86.0788C53.4534 85.5819 55.2205 84.7615 56.9401 83.9646C58.6661 83.1648 60.3445 82.3886 62.4096 81.9182L62.1875 80.9432ZM30.7423 89.6199C28.2335 91.928 26.1035 95.7246 23.9674 99.4002C21.8023 103.126 19.626 106.738 17.0063 108.887L17.6404 109.66C20.4262 107.376 22.6894 103.59 24.832 99.9027C27.0037 96.1658 29.0496 92.5361 31.4193 90.3558L30.7423 89.6199ZM17.0063 108.887C13.1958 112.012 6.9407 113.66 3.72534 114.334L3.93071 115.313C7.14491 114.639 13.6223 112.955 17.6404 109.66L17.0063 108.887ZM1.03124 117.154C0.649949 121.247 1.78816 124.817 3.61074 128.137C5.42504 131.441 7.94097 134.535 10.3273 137.648L11.1209 137.039C8.70566 133.889 6.25477 130.875 4.48731 127.656C2.72812 124.451 1.66962 121.082 2.02693 117.247L1.03124 117.154ZM15.1883 138.37C17.1373 136.959 20.0227 134.921 22.866 133.097C25.7281 131.26 28.4891 129.68 30.2101 129.141L29.9113 128.186C28.0426 128.772 25.1731 130.428 22.326 132.255C19.4601 134.094 16.5577 136.144 14.6021 137.56L15.1883 138.37ZM30.2101 129.141C32.3903 128.458 34.7379 127.97 37.1671 127.511C39.5876 127.054 42.0969 126.623 44.5588 126.058C49.4863 124.928 54.3209 123.238 58.1605 119.6L57.4727 118.874C53.8283 122.327 49.2048 123.966 44.3351 125.084C41.8984 125.643 39.4245 126.067 36.9814 126.528C34.5471 126.988 32.1508 127.485 29.9112 128.187L30.2101 129.141ZM58.1607 119.6C58.5352 119.244 58.9734 118.863 59.4433 118.445C59.9085 118.032 60.3985 117.59 60.8563 117.129C61.755 116.224 62.6034 115.177 62.8573 114.057L61.8821 113.836C61.6955 114.659 61.0321 115.532 60.1467 116.424C59.7124 116.861 59.2423 117.287 58.7793 117.698C58.3208 118.105 57.8627 118.504 57.4725 118.874L58.1607 119.6ZM62.8573 114.057C63.1177 112.908 62.722 111.908 62.2998 111.228C62.0869 110.885 61.8598 110.61 61.686 110.421C61.5988 110.327 61.524 110.252 61.4697 110.2C61.4426 110.175 61.4205 110.154 61.4044 110.14C61.3964 110.133 61.3899 110.127 61.385 110.123C61.3826 110.12 61.3805 110.119 61.3789 110.117C61.3781 110.117 61.3774 110.116 61.3768 110.115C61.3765 110.115 61.3763 110.115 61.376 110.115C61.3759 110.115 61.3757 110.114 61.3757 110.114C61.3755 110.114 61.3754 110.114 61.0499 110.494C60.7245 110.873 60.7244 110.873 60.7243 110.873C60.7242 110.873 60.7241 110.873 60.724 110.873C60.7239 110.873 60.7238 110.873 60.7237 110.873C60.7235 110.873 60.7235 110.872 60.7235 110.873C60.7236 110.873 60.7241 110.873 60.725 110.874C60.7267 110.875 60.73 110.878 60.7348 110.883C60.7443 110.891 60.7596 110.905 60.7797 110.924C60.82 110.963 60.8793 111.021 60.9502 111.099C61.0926 111.253 61.2781 111.478 61.4502 111.755C61.798 112.315 62.0621 113.041 61.8821 113.836L62.8573 114.057ZM31.4022 90.3708C33.7607 88.3912 40.8103 83.8691 46.536 82.0736L46.2367 81.1194C40.3572 82.9632 33.1936 87.5616 30.7593 89.6048L31.4022 90.3708ZM46.536 82.0736C49.1644 81.2493 50.679 80.916 53.4076 80.5002L53.2569 79.5116C50.4835 79.9343 48.9188 80.2783 46.2367 81.1194L46.536 82.0736ZM53.4076 80.5002C58.8888 79.6649 64.587 79.8638 67.7025 80.4156L67.8769 79.4309C64.6458 78.8587 58.8373 78.6612 53.2569 79.5116L53.4076 80.5002ZM66.9664 89.0931C63.9933 90.6831 61.0478 92.2554 57.9216 93.3534L58.253 94.2969C61.4637 93.1692 64.4762 91.5589 67.438 89.975L66.9664 89.0931ZM57.9224 93.3531C56.3797 93.892 54.5919 94.3804 53.171 95.4807L53.7833 96.2714C55.0388 95.2991 56.6069 94.8719 58.2522 94.2972L57.9224 93.3531ZM53.1724 95.4797C51.7394 96.5815 50.6426 98.6008 51.3404 100.467L52.277 100.117C51.7946 98.8266 52.5343 97.2317 53.7819 96.2724L53.1724 95.4797ZM51.3408 100.468C51.885 101.912 53.3346 102.774 54.7339 103.034L54.917 102.051C53.7321 101.831 52.6572 101.125 52.2766 100.115L51.3408 100.468ZM54.7339 103.034C56.1263 103.294 57.5434 103.067 58.8336 102.847L58.6657 101.862C57.3556 102.085 56.1089 102.273 54.917 102.051L54.7339 103.034ZM58.8335 102.847C63.2513 102.096 67.8575 101.16 71.7328 98.6898L71.1954 97.8465C67.5094 100.196 63.0896 101.109 58.6658 101.862L58.8335 102.847ZM71.7327 98.6899C72.2725 98.3461 72.9387 97.8797 73.2721 97.1523L72.363 96.7357C72.1642 97.1694 71.7375 97.5012 71.1955 97.8464L71.7327 98.6899ZM73.2717 97.1531C73.5372 96.5766 73.5472 95.9491 73.5257 95.4332L72.5266 95.475C72.5471 95.9663 72.5231 96.3881 72.3634 96.7349L73.2717 97.1531ZM73.5257 95.4339C73.463 93.8854 73.1405 92.5027 72.5235 91.0862L71.6067 91.4855C72.1751 92.7905 72.4689 94.0516 72.5265 95.4743L73.5257 95.4339ZM67.9971 100.01C68.4119 100.828 68.812 101.661 69.0501 102.497C69.2871 103.33 69.3538 104.132 69.133 104.897L70.0938 105.175C70.3836 104.17 70.2802 103.166 70.0119 102.223C69.7448 101.285 69.3043 100.377 68.8889 99.5575L67.9971 100.01ZM69.1326 104.899C68.7943 106.083 67.7868 107.029 66.6272 107.779L67.1704 108.619C68.3899 107.83 69.6539 106.714 70.0941 105.173L69.1326 104.899ZM66.627 107.779C62.0657 110.734 56.1314 110.865 50.6862 109.747L50.4851 110.727C56.0457 111.869 62.2919 111.778 67.1706 108.619L66.627 107.779ZM50.6866 109.747C49.227 109.447 47.8458 109.053 46.877 108.142L46.192 108.87C47.3853 109.993 49.0237 110.426 50.4847 110.727L50.6866 109.747ZM46.877 108.142C46.4117 107.704 46.0708 107.094 45.9423 106.468C45.8142 105.844 45.9026 105.243 46.2356 104.777L45.4218 104.196C44.8916 104.938 44.7923 105.839 44.9627 106.669C45.1327 107.497 45.5763 108.291 46.192 108.87L46.877 108.142ZM46.2356 104.777C46.7262 104.09 47.6217 103.768 48.6413 103.472L48.3626 102.512C47.3878 102.795 46.1424 103.187 45.4218 104.196L46.2356 104.777ZM48.6402 103.473C50.16 103.035 51.61 102.652 53.1513 102.298L52.9271 101.323C51.3651 101.683 49.8975 102.07 48.3637 102.512L48.6402 103.473ZM66.648 87.1961C66.3682 88.5704 66.5442 90.3171 67.773 91.3312L68.4095 90.5599C67.596 89.8885 67.3806 88.6102 67.6279 87.3956L66.648 87.1961ZM67.7739 91.3319C68.9924 92.3329 70.7083 92.1931 72.0187 91.8205L71.7452 90.8587C70.5099 91.2099 69.228 91.2323 68.4086 90.5592L67.7739 91.3319ZM72.0181 91.8207C72.7057 91.6261 73.4226 91.3504 74.0403 90.8767L73.4317 90.0832C72.9582 90.4464 72.3792 90.6792 71.7458 90.8585L72.0181 91.8207ZM74.0403 90.8768C75.6654 89.6307 76.3699 87.5253 75.8793 84.6279L74.8933 84.7948C75.3437 87.4546 74.6726 89.1318 73.4318 90.0832L74.0403 90.8768ZM70.7825 82.309C70.8214 82.2264 70.8719 82.1906 70.835 82.2244C70.8175 82.2405 70.7862 82.2667 70.7356 82.3061C70.6344 82.385 70.4957 82.4863 70.3159 82.6195C69.964 82.8802 69.4907 83.2368 69.0025 83.67C68.0441 84.5204 66.9443 85.7372 66.6479 87.1963L67.6279 87.3954C67.8561 86.2721 68.7398 85.24 69.6662 84.418C70.1203 84.0151 70.5647 83.6797 70.9112 83.423C71.0806 83.2975 71.2363 83.1837 71.3502 83.095C71.4072 83.0505 71.4637 83.0048 71.5111 82.9612C71.5392 82.9354 71.6318 82.8523 71.687 82.7354L70.7825 82.309ZM75.8793 84.6279C75.6248 83.1249 74.9022 81.9769 74.2529 81.2105C73.9275 80.8264 73.6173 80.5343 73.3866 80.3368C73.2711 80.2379 73.175 80.1623 73.1063 80.1105C73.0719 80.0845 73.0444 80.0645 73.0246 80.0503C73.0147 80.0433 73.0067 80.0377 73.0008 80.0336C72.9979 80.0316 72.9955 80.0299 72.9936 80.0286C72.9926 80.0279 72.9918 80.0274 72.9911 80.0269C72.9908 80.0267 72.9905 80.0265 72.9902 80.0263C72.9901 80.0262 72.9899 80.0261 72.9898 80.026C72.9896 80.0259 72.9895 80.0258 72.7093 80.4399C72.4291 80.8541 72.429 80.854 72.4288 80.8539C72.4288 80.8538 72.4287 80.8538 72.4286 80.8537C72.4285 80.8536 72.4284 80.8535 72.4283 80.8535C72.4281 80.8534 72.4281 80.8534 72.4282 80.8534C72.4285 80.8536 72.4292 80.8541 72.4304 80.855C72.4329 80.8567 72.4374 80.8598 72.4438 80.8644C72.4566 80.8735 72.4769 80.8882 72.5038 80.9085C72.5576 80.9492 72.6376 81.012 72.7363 81.0964C72.934 81.2657 73.2048 81.5204 73.4899 81.8569C74.0614 82.5315 74.6773 83.5192 74.8933 84.7948L75.8793 84.6279ZM51.08 85.0979C47.709 85.6526 43.2486 85.9606 39.0059 86.9984C34.7312 88.044 30.5242 89.8563 27.5423 93.5089L28.317 94.1413C31.1024 90.7293 35.0665 88.9915 39.2435 87.9697C43.4523 86.9402 47.7241 86.6636 51.2424 86.0846L51.08 85.0979ZM10.3273 137.648C11.483 139.155 13.6438 139.488 15.1883 138.37L14.6021 137.56C13.502 138.356 11.9515 138.122 11.1209 137.039L10.3273 137.648ZM3.72534 114.334C2.36531 114.62 1.16896 115.676 1.03124 117.154L2.02693 117.247C2.1155 116.296 2.90333 115.529 3.93071 115.313L3.72534 114.334ZM58.7712 92.3975C58.9531 92.332 59.1272 92.2488 59.2931 92.1469L58.7698 91.2948C58.6634 91.3601 58.5512 91.4139 58.4324 91.4567L58.7712 92.3975ZM92.9792 115.584L82.7709 125.792L83.478 126.499L93.6863 116.291L92.9792 115.584ZM83.1244 125.646H70.7286V126.646H83.1244V125.646ZM114.832 83.4786L125.04 73.2703L124.333 72.5632L114.125 82.7715L114.832 83.4786ZM124.687 73.4167H136.354V72.4167H124.687V73.4167ZM122.124 111.187L129.415 103.895L128.708 103.188L121.417 110.48L122.124 111.187ZM129.062 104.042H136.354V103.042H129.062V104.042Z" fill="black"/>
<path d="M122.001 11.6668C122.001 13.0015 120.919 14.0834 119.584 14.0834C118.249 14.0834 117.167 13.0015 117.167 11.6668C117.167 10.3321 118.249 9.25011 119.584 9.25011C120.919 9.25011 122.001 10.3321 122.001 11.6668Z" fill="white" stroke="#000577"/>
<path d="M66.488 81.6208C83.4383 59.4397 116.372 12.2787 118.363 13.1365C120.215 13.9347 79.7865 70.4978 72.3883 80.8916L66.488 81.6208Z" fill="#F4BE02" stroke="#A8ABFF" stroke-miterlimit="10" stroke-linecap="round" stroke-linejoin="round"/>
<path d="M70.5229 83.0791L73.4396 80.8916L74.8979 83.0791" stroke="#000577" stroke-linecap="round" stroke-linejoin="round"/>
<path d="M11.1661 84.5832C11.1661 85.9179 10.0841 86.9999 8.74943 86.9999C7.41474 86.9999 6.33276 85.9179 6.33276 84.5832C6.33276 83.2486 7.41474 82.1666 8.74943 82.1666C10.0841 82.1666 11.1661 83.2486 11.1661 84.5832ZM29.704 40.6432C29.704 41.9779 28.622 43.0599 27.2873 43.0599C25.9526 43.0599 24.8706 41.9779 24.8706 40.6432C24.8706 39.3085 25.9526 38.2265 27.2873 38.2265C28.622 38.2265 29.704 39.3085 29.704 40.6432ZM51.9994 56.875C51.9994 58.2097 50.9175 59.2916 49.5828 59.2916C48.2481 59.2916 47.1661 58.2097 47.1661 56.875C47.1661 55.5403 48.2481 54.4583 49.5828 54.4583C50.9175 54.4583 51.9994 55.5403 51.9994 56.875ZM65.1244 27.7083C65.1244 29.043 64.0425 30.125 62.7078 30.125C61.3731 30.125 60.2911 29.043 60.2911 27.7083C60.2911 26.3736 61.3731 25.2916 62.7078 25.2916C64.0425 25.2916 65.1244 26.3736 65.1244 27.7083ZM94.2911 21.4848C94.2911 22.8195 93.2091 23.9014 91.8744 23.9014C90.5397 23.9014 89.4578 22.8195 89.4578 21.4848C89.4578 20.1501 90.5397 19.0681 91.8744 19.0681C93.2091 19.0681 94.2911 20.1501 94.2911 21.4848ZM81.8953 40.9252C81.8953 42.2599 80.8133 43.3419 79.4786 43.3419C78.1439 43.3419 77.0619 42.2599 77.0619 40.9252C77.0619 39.5905 78.1439 38.5086 79.4786 38.5086C80.8133 38.5086 81.8953 39.5905 81.8953 40.9252ZM104.738 124.896C103.443 124.842 102.535 123.588 102.807 122.231L103.949 116.518C104.197 115.282 105.398 114.413 106.781 114.301C109.746 114.062 112.645 112.807 114.914 110.539C117.13 108.323 118.378 105.504 118.658 102.61C118.791 101.229 119.679 100.042 120.918 99.8139L126.649 98.7613C128.01 98.5113 129.249 99.4384 129.283 100.734C129.446 106.97 127.148 113.257 122.39 118.015C117.537 122.868 111.095 125.162 104.738 124.896ZM111.13 89.6252C109.858 89.0647 109.005 87.8492 109.177 86.5994L109.969 80.8272C110.157 79.4575 111.422 78.5704 112.663 78.9413C116.281 80.0237 119.691 81.9937 122.55 84.8528C125.141 87.4434 127.001 90.486 128.133 93.7261C128.56 94.9481 127.731 96.2525 126.371 96.5022L120.64 97.5548C119.399 97.7827 118.146 96.9856 117.528 95.7401C116.917 94.5084 116.099 93.3539 115.074 92.329C113.902 91.1575 112.562 90.2559 111.13 89.6252ZM105.443 77.9557C106.739 77.9313 107.721 79.1274 107.533 80.4983L106.617 87.1662C106.514 87.9165 105.828 88.4973 104.986 88.5557C104.142 88.6141 103.379 88.1337 103.173 87.4062L101.34 80.9288C100.963 79.597 101.77 78.2761 103.057 78.1212C103.849 78.0258 104.646 77.9707 105.443 77.9557Z" fill="white" stroke="black"/>
</svg>
