<svg width="120" height="120" viewBox="0 0 120 120" fill="none" xmlns="http://www.w3.org/2000/svg">
<path d="M67.4673 109.31L67.4411 109.81L67.4673 109.31ZM46.405 96.1365L46.7607 95.785L46.7603 95.7847L46.405 96.1365ZM39.2773 87.3716L39.6928 87.0935L39.2773 87.3716ZM35.723 77.3926L36.1117 77.7071L36.1118 77.7069L35.723 77.3926ZM39.8718 76.875L39.7354 77.356L39.7355 77.356L39.8718 76.875ZM43.5994 80.0765L44.047 79.8532L44.0415 79.8429L43.5994 80.0765ZM61.8799 96.8011L61.7481 97.2835L61.7584 97.2861L61.8799 96.8011ZM78.3271 91.4284L78.6452 91.8142L78.3271 91.4284ZM78.8452 91.0703L78.603 90.6329V90.6329L78.8452 91.0703ZM85.8352 89.3467L85.8192 89.8465L85.8202 89.8465L85.8352 89.3467ZM95.2584 94.2876C95.4449 94.4913 95.7612 94.5052 95.9648 94.3187C96.1685 94.1322 96.1824 93.8159 95.9959 93.6123L95.2584 94.2876ZM66.2751 88.4743L66.5688 88.8789L66.2751 88.4743ZM55.2193 86.8779L55.1412 87.3717L55.1413 87.3717L55.2193 86.8779ZM45.5228 83.525L45.0799 83.7571L45.0799 83.7572L45.5228 83.525ZM47.1998 77.8191L47.129 77.3241L47.1998 77.8191ZM84.1422 81.6694L84.2981 81.1943L84.2981 81.1943L84.1422 81.6694ZM117.26 103.955L117.631 103.62L117.26 103.955ZM118.125 106.41L118.623 106.457V106.457L118.125 106.41ZM116.022 112.61L116.443 112.879L116.443 112.879L116.022 112.61ZM107.893 118.535L107.748 118.057L107.893 118.535ZM103.898 116.473L104.343 116.245L103.898 116.473ZM98.5599 109.95L98.8622 109.552L98.8618 109.551L98.5599 109.95ZM62.6825 108.739L62.775 108.248L62.7744 108.248L62.6825 108.739ZM25.8673 81.088L25.4216 80.8614L25.4199 80.8647L25.8673 81.088ZM26.7336 80.3314L26.9576 80.7784L26.7336 80.3314ZM70.4784 85.114C70.6347 84.8864 70.577 84.5751 70.3494 84.4187C70.1218 84.2623 69.8106 84.3201 69.6542 84.5476L70.4784 85.114ZM61.8799 90.4534L61.8348 89.9555L61.8799 90.4534ZM50.831 89.9564C50.5565 89.9263 50.3096 90.1244 50.2794 90.3988C50.2493 90.6733 50.4473 90.9203 50.7218 90.9505L50.831 89.9564ZM44.5318 102.148C44.7753 102.278 45.0783 102.186 45.2085 101.943C45.3388 101.699 45.2469 101.396 45.0034 101.266L44.5318 102.148ZM20.4228 87.3716L20.1093 87.7611L20.1104 87.762L20.4228 87.3716ZM18.2133 83.955L18.7069 84.0347L18.7073 84.0324L18.2133 83.955ZM20.4228 81.8445L20.5874 82.3167L20.591 82.3154L20.4228 81.8445ZM25.754 83.9359C25.9546 84.1257 26.2711 84.117 26.4609 83.9164C26.6507 83.7158 26.642 83.3994 26.4414 83.2096L25.754 83.9359ZM20.9103 81.4917C20.8562 81.7625 21.0319 82.0258 21.3027 82.0799C21.5735 82.1339 21.8369 81.9582 21.8909 81.6874L20.9103 81.4917ZM23.0856 79.2163L23.3127 79.6617L23.3139 79.6611L23.0856 79.2163ZM26.8314 80.4909C27.0164 80.696 27.3325 80.7122 27.5376 80.5273C27.7426 80.3423 27.7589 80.0261 27.5739 79.8211L26.8314 80.4909ZM57.6941 50.984C57.6941 50.7079 57.4703 50.484 57.1941 50.484C56.918 50.484 56.6941 50.7079 56.6941 50.984H57.6941ZM73.492 50.984C73.492 50.7079 73.2682 50.484 72.992 50.484C72.7159 50.484 72.492 50.7079 72.492 50.984H73.492ZM38.7227 52.879C38.9761 52.7692 39.0925 52.4747 38.9827 52.2214C38.8729 51.968 38.5785 51.8516 38.3251 51.9614L38.7227 52.879ZM16.7826 61.2965C16.5292 61.4063 16.4128 61.7007 16.5226 61.9541C16.6324 62.2075 16.9268 62.3239 17.1802 62.2141L16.7826 61.2965ZM33.3761 42.8521C33.644 42.919 33.9154 42.7561 33.9824 42.4882C34.0494 42.2204 33.8865 41.9489 33.6186 41.8819L33.3761 42.8521ZM16.3846 37.5734C16.1167 37.5064 15.8452 37.6693 15.7782 37.9372C15.7113 38.2051 15.8741 38.4766 16.142 38.5435L16.3846 37.5734ZM90.4249 51.9614C90.1715 51.8516 89.8771 51.968 89.7673 52.2214C89.6575 52.4747 89.7739 52.7692 90.0273 52.879L90.4249 51.9614ZM111.57 62.2141C111.823 62.3239 112.118 62.2075 112.227 61.9541C112.337 61.7007 112.221 61.4063 111.967 61.2965L111.57 62.2141ZM95.1314 41.8819C94.8635 41.9489 94.7006 42.2204 94.7676 42.4882C94.8346 42.7561 95.106 42.919 95.3739 42.8521L95.1314 41.8819ZM112.608 38.5435C112.876 38.4766 113.039 38.2051 112.972 37.9372C112.905 37.6693 112.633 37.5064 112.365 37.5734L112.608 38.5435ZM67.6639 108.85C54.6034 103.266 50.6929 99.7645 46.7607 95.785L46.0494 96.4879C50.0811 100.568 54.1027 104.139 67.2707 109.77L67.6639 108.85ZM46.7603 95.7847C44.3071 93.307 41.7302 90.137 39.6928 87.0935L38.8618 87.6497C40.9327 90.7433 43.5495 93.9631 46.0497 96.4883L46.7603 95.7847ZM39.6928 87.0935C38.2381 84.9204 37.072 82.832 36.4185 81.1193C36.0912 80.2617 35.9017 79.5219 35.8585 78.9264C35.8149 78.3247 35.9246 77.9383 36.1117 77.7071L35.3343 77.0781C34.921 77.5889 34.8086 78.2739 34.8611 78.9987C34.9141 79.7296 35.139 80.5713 35.4842 81.4759C36.1756 83.2878 37.3871 85.4468 38.8618 87.6497L39.6928 87.0935ZM36.1118 77.7069C36.3656 77.3929 36.9048 77.1881 37.6499 77.1368C38.3689 77.0874 39.1536 77.191 39.7354 77.356L40.0082 76.3939C39.3263 76.2005 38.426 76.0811 37.5813 76.1392C36.7626 76.1955 35.8592 76.4287 35.3341 77.0783L36.1118 77.7069ZM39.7355 77.356C41.828 77.9489 42.8804 79.7859 43.1574 80.3101L44.0415 79.8429C43.7462 79.284 42.5255 77.1072 40.0081 76.3939L39.7355 77.356ZM43.1521 80.2998C45.1412 84.2861 47.5352 87.8973 50.5363 90.8233L51.2344 90.1072C48.3361 87.2815 46.0023 83.7722 44.0468 79.8533L43.1521 80.2998ZM50.5363 90.8233C53.5855 93.7961 57.2559 96.0558 61.7481 97.2834L62.0117 96.3188C57.6964 95.1395 54.1725 92.9718 51.2344 90.1072L50.5363 90.8233ZM61.7584 97.2861C68.2523 98.9129 73.9034 95.7235 78.6452 91.8142L78.009 91.0426C73.3221 94.9067 68.0084 97.8209 62.0014 96.3161L61.7584 97.2861ZM79.0875 91.5077C80.3246 90.8225 82.7114 89.7469 85.8192 89.8465L85.8512 88.847C82.4951 88.7395 79.9252 89.9006 78.603 90.6329L79.0875 91.5077ZM85.8202 89.8465C91.1871 90.0074 94.5713 93.5372 95.2584 94.2876L95.9959 93.6123C95.2683 92.8176 91.6423 89.0205 85.8502 88.8469L85.8202 89.8465ZM66.3354 87.978C61.8868 87.4376 58.2712 86.8541 55.2974 86.384L55.1413 87.3717C58.1126 87.8414 61.7456 88.4278 66.2148 88.9707L66.3354 87.978ZM55.2975 86.384C51.8906 85.845 49.7358 85.4443 48.3208 84.9721C46.9318 84.5084 46.3379 84.003 45.9656 83.2928L45.0799 83.7572C45.6137 84.7752 46.4703 85.4086 48.0042 85.9206C49.5121 86.4239 51.7525 86.8356 55.1412 87.3717L55.2975 86.384ZM45.9656 83.2929C45.5125 82.4284 45.2637 81.2122 45.4383 80.1952C45.5246 79.6931 45.7092 79.2651 45.996 78.9467C46.277 78.6347 46.6821 78.3983 47.2707 78.314L47.129 77.3241C46.3266 77.439 45.7024 77.7784 45.253 78.2774C44.8093 78.7701 44.5623 79.3883 44.4528 80.0259C44.2359 81.2885 44.5395 82.7261 45.0799 83.7571L45.9656 83.2929ZM47.2707 78.314C50.0059 77.9225 67.2413 76.6492 83.9863 82.1444L84.2981 81.1943C67.3593 75.6354 49.9574 76.9192 47.129 77.3241L47.2707 78.314ZM83.9862 82.1444C99.992 87.3982 111.102 97.8719 116.888 104.289L117.631 103.62C111.791 97.1421 100.54 86.5255 84.2981 81.1943L83.9862 82.1444ZM117.627 106.362C117.478 107.937 117.004 110.145 115.6 112.341L116.443 112.879C117.957 110.512 118.463 108.138 118.623 106.457L117.627 106.362ZM115.6 112.34C113.408 115.769 110.119 117.34 107.748 118.057L108.037 119.014C110.535 118.259 114.075 116.583 116.443 112.879L115.6 112.34ZM104.343 116.245C103.191 113.997 101.469 111.531 98.8622 109.552L98.2575 110.348C100.713 112.213 102.349 114.546 103.453 116.701L104.343 116.245ZM98.8618 109.551C94.3768 106.153 89.7347 106.188 84.6534 106.939C79.5473 107.694 74.0317 109.153 67.4934 108.811L67.4411 109.81C74.1124 110.159 79.8222 108.664 84.7995 107.928C89.8017 107.189 94.1011 107.199 98.2579 110.348L98.8618 109.551ZM67.4934 108.811C65.975 108.731 64.4041 108.554 62.775 108.248L62.5901 109.231C64.2656 109.546 65.881 109.728 67.4411 109.81L67.4934 108.811ZM62.7744 108.248C53.7329 106.558 45.3111 101.984 38.8177 96.9878C35.573 94.4913 32.8184 91.8959 30.7159 89.5143C28.6061 87.1245 27.178 84.9781 26.5539 83.3818L25.6226 83.7459C26.309 85.5017 27.8253 87.7511 29.9662 90.1761C32.1144 92.6095 34.9168 95.2481 38.2079 97.7803C44.7861 102.842 53.3509 107.504 62.5906 109.231L62.7744 108.248ZM26.5539 83.3818C26.1487 82.3452 26.1343 81.6727 26.3147 81.3112L25.4199 80.8647C25.0379 81.6303 25.1985 82.6612 25.6226 83.7459L26.5539 83.3818ZM26.313 81.3146C26.4459 81.0532 26.7006 80.9072 26.9576 80.7784L26.5097 79.8844C26.258 80.0104 25.7179 80.2786 25.4216 80.8614L26.313 81.3146ZM26.9576 80.7784C27.0799 80.7172 27.207 80.6672 27.3389 80.6278L27.0531 79.6695C26.8671 79.725 26.6856 79.7962 26.5097 79.8844L26.9576 80.7784ZM27.3389 80.6278C28.2448 80.3576 29.4014 80.5866 30.7007 81.1865C31.985 81.7794 33.3245 82.6956 34.5495 83.6676C35.7712 84.637 36.8621 85.6483 37.6486 86.4186C38.0414 86.8034 38.3573 87.1271 38.5746 87.354C38.6831 87.4675 38.767 87.5567 38.8234 87.6172C38.8517 87.6475 38.873 87.6706 38.8871 87.6859C38.8942 87.6936 38.8995 87.6993 38.9029 87.7031C38.9046 87.705 38.9059 87.7063 38.9066 87.7072C38.907 87.7076 38.9073 87.7079 38.9075 87.7081C38.9075 87.7082 38.9076 87.7082 38.9076 87.7082C38.9076 87.7082 38.9076 87.7082 39.2773 87.3716C39.647 87.035 39.6469 87.0349 39.6468 87.0348C39.6467 87.0347 39.6466 87.0345 39.6464 87.0344C39.6461 87.034 39.6457 87.0335 39.6451 87.0329C39.644 87.0317 39.6425 87.03 39.6404 87.0278C39.6364 87.0234 39.6305 87.0169 39.6227 87.0085C39.6073 86.9917 39.5846 86.9672 39.5549 86.9354C39.4957 86.8718 39.4088 86.7794 39.297 86.6626C39.0734 86.4289 38.7498 86.0975 38.3483 85.7042C37.5461 84.9185 36.4284 83.882 35.171 82.8842C33.9168 81.8891 32.5066 80.9188 31.1198 80.2786C29.748 79.6452 28.3119 79.2941 27.0531 79.6695L27.3389 80.6278ZM69.6542 84.5476C69.1363 85.3012 67.7011 86.8212 65.9813 88.0697L66.5688 88.8789C68.3582 87.5799 69.882 85.9819 70.4784 85.114L69.6542 84.5476ZM65.9813 88.0697C64.6026 89.0705 63.1185 89.8392 61.8348 89.9555L61.925 90.9514C63.4836 90.8103 65.1485 89.91 66.5688 88.8789L65.9813 88.0697ZM61.8348 89.9555C58.685 90.2407 54.4968 90.3478 50.9384 89.9681L50.8323 90.9624C54.4755 91.3512 58.7329 91.2405 61.925 90.9514L61.8348 89.9555ZM50.9384 89.9681C50.9026 89.9642 50.8668 89.9604 50.831 89.9564L50.7218 90.9505C50.7586 90.9545 50.7954 90.9585 50.8323 90.9624L50.9384 89.9681ZM45.0034 101.266C43.6493 100.542 38.7816 97.932 33.6467 95.0183C28.4964 92.0958 23.126 88.8946 20.7353 86.9812L20.1104 87.762C22.5759 89.7351 28.0227 92.9768 33.1532 95.888C38.2991 98.808 43.1756 101.423 44.5318 102.148L45.0034 101.266ZM20.7363 86.9821C20.0053 86.3938 19.4526 85.8464 19.1053 85.3369C18.7595 84.8296 18.6471 84.4052 18.7069 84.0347L17.7197 83.8753C17.6046 84.588 17.8499 85.2706 18.279 85.9001C18.7067 86.5275 19.3461 87.1469 20.1093 87.7611L20.7363 86.9821ZM18.7073 84.0324C18.7828 83.5502 19.152 83.1417 19.6148 82.8209C20.0656 82.5085 20.5175 82.341 20.5874 82.3167L20.2583 81.3724C20.1454 81.4117 19.5998 81.6146 19.0452 81.999C18.5025 82.3752 17.8584 82.9901 17.7193 83.8776L18.7073 84.0324ZM20.591 82.3154C21.7658 81.896 22.9737 82.2106 23.9664 82.7076C24.9528 83.2013 25.6489 83.8374 25.7465 83.9288L26.4301 83.1989C26.3009 83.0779 25.5238 82.3688 24.4141 81.8133C23.3106 81.261 21.7992 80.8222 20.2547 81.3736L20.591 82.3154ZM25.7465 83.9288C25.7497 83.9318 25.7522 83.9341 25.754 83.9359L26.4414 83.2096C26.4384 83.2068 26.4347 83.2032 26.4301 83.1989L25.7465 83.9288ZM21.8909 81.6874C21.9301 81.4909 22.199 80.2296 23.3127 79.6617L22.8584 78.7708C21.2857 79.5728 20.9505 81.29 20.9103 81.4917L21.8909 81.6874ZM23.3139 79.6611C24.37 79.1189 25.8348 79.3915 26.8255 80.4845L27.5665 79.8129C26.3157 78.433 24.3712 77.9942 22.8572 78.7715L23.3139 79.6611ZM26.8255 80.4845C26.8275 80.4866 26.8294 80.4888 26.8314 80.4909L27.5739 79.8211C27.5714 79.8184 27.569 79.8156 27.5665 79.8129L26.8255 80.4845ZM116.888 104.289C117.417 104.875 117.698 105.618 117.627 106.362L118.623 106.457C118.724 105.394 118.318 104.382 117.631 103.62L116.888 104.289ZM107.748 118.057C106.427 118.456 105.055 117.635 104.343 116.245L103.453 116.701C104.297 118.349 106.09 119.602 108.037 119.014L107.748 118.057ZM78.6452 91.8142C78.7899 91.6948 78.9359 91.5917 79.0875 91.5077L78.603 90.6329C78.386 90.7531 78.1894 90.8939 78.009 91.0426L78.6452 91.8142ZM56.6941 50.984V57.4468H57.6941V50.984H56.6941ZM56.6941 57.4468V61.7553H57.6941V57.4468H56.6941ZM62.9388 68H67.2473V67H62.9388V68ZM73.492 61.7553V57.4468H72.492V61.7553H73.492ZM73.492 57.4468V50.984H72.492V57.4468H73.492ZM57.1941 62.2553L72.992 62.2553V61.2553L57.1941 61.2553V62.2553ZM57.1941 57.9468H72.992V56.9468H57.1941V57.9468ZM67.2473 68C70.6962 68 73.492 65.2041 73.492 61.7553H72.492C72.492 64.6518 70.1439 67 67.2473 67V68ZM56.6941 61.7553C56.6941 65.2041 59.49 68 62.9388 68V67C60.0423 67 57.6941 64.6518 57.6941 61.7553H56.6941ZM38.3251 51.9614L16.7826 61.2965L17.1802 62.2141L38.7227 52.879L38.3251 51.9614ZM33.6186 41.8819L16.3846 37.5734L16.142 38.5435L33.3761 42.8521L33.6186 41.8819ZM90.0273 52.879L111.57 62.2141L111.967 61.2965L90.4249 51.9614L90.0273 52.879ZM95.3739 42.8521L112.608 38.5435L112.365 37.5734L95.1314 41.8819L95.3739 42.8521Z" fill="#000577"/>
<path d="M65.0931 0C51.6091 0 40.6782 10.9309 40.6782 24.4149C40.6782 31.611 43.7915 38.08 48.7447 42.5484C49.5633 43.2869 50.361 44.0523 51.0494 44.9135L54.8467 49.6638C55.661 50.6825 56.1891 51.8916 56.3876 53.1672C56.4852 53.7942 56.9905 54.3116 57.625 54.3116H72.5612C73.1957 54.3116 73.7011 53.7942 73.7986 53.1672C73.9971 51.8916 74.5252 50.6825 75.3395 49.6638L79.1369 44.9135C79.8253 44.0523 80.623 43.2869 81.4416 42.5484C86.3947 38.08 89.508 31.611 89.508 24.4149C89.508 10.9309 78.5771 0 65.0931 0Z" fill="#F4BE02"/>
<path d="M60.7845 45.2393L50.7313 24.4148M69.4015 45.2393L79.4547 24.4148" stroke="white" stroke-linecap="round" stroke-linejoin="round"/>
<path d="M52.1675 20.1064L56.476 15.7979L60.7845 20.1064L65.093 15.7979L69.4015 20.1064L73.71 15.7979L78.0185 20.1064" stroke="#000577" stroke-linecap="round" stroke-linejoin="round"/>
</svg>
