<svg width="552" height="619" viewBox="0 0 552 619" fill="none" xmlns="http://www.w3.org/2000/svg">
<path d="M549.41 402.056C542.057 443.412 520.91 481.065 489.409 508.891C478.533 518.47 466.764 526.988 454.264 534.328C410.205 560.935 355.603 577.062 298.76 590.289L289.031 592.477C280.582 594.394 271.915 595.181 263.258 594.817C172.849 591.052 111.269 457.203 92.1178 316.333C75.4112 190.93 103.374 48.8898 228.572 42.4797C275.585 40.1395 330.441 63.5414 381.376 101.188C385.043 103.884 388.711 106.682 392.327 109.531L394.568 111.312C489.663 187.012 567.339 309.771 549.41 402.056Z" fill="#FDE6D6"/>
<path d="M105.666 520.134C112.746 534.43 115.344 552.541 101.133 558.34C85.2416 564.852 59.8761 554.372 52.5415 530.512C47.8046 515.25 49.4345 493.985 62.7285 485.794C73.5776 478.774 97.2113 502.633 105.666 520.134Z" fill="#F5F9FD"/>
<path d="M494.502 199.527C488.135 193.982 483.042 185.74 488.441 180.195C493.84 174.65 508.407 174.192 516.964 184.316C522.414 190.777 526.184 201.359 522.058 207.82C518.391 213.314 502.448 206.293 494.502 199.527Z" fill="#FFAD69"/>
<path fill-rule="evenodd" clip-rule="evenodd" d="M193.987 117.417C190.626 117.061 187.213 116.806 183.8 116.654C183.53 116.731 183.241 116.629 183.078 116.4C182.916 116.171 182.916 115.865 183.078 115.635C183.241 115.406 183.53 115.305 183.8 115.382C186.854 115.382 189.991 115.718 193.06 116.046L193.061 116.046C193.371 116.079 193.679 116.112 193.987 116.145C194.16 116.157 194.319 116.241 194.426 116.377C194.533 116.513 194.577 116.687 194.548 116.857C194.505 117.147 194.278 117.375 193.987 117.417ZM143.562 121.08C143.287 121.058 143.048 120.88 142.951 120.622C142.853 120.271 143.058 119.907 143.409 119.808C146.618 118.943 149.98 118.18 153.596 117.519C153.758 117.473 153.933 117.496 154.077 117.582C154.222 117.669 154.324 117.812 154.36 117.976C154.423 118.326 154.198 118.663 153.851 118.74C150.489 119.401 147.178 120.164 143.969 121.029L143.562 121.08ZM224.141 123.115C227.4 123.98 230.66 124.895 233.92 125.913H234.378C234.716 125.913 234.99 125.639 234.99 125.302C234.99 124.965 234.716 124.692 234.378 124.692C231.068 123.623 227.757 122.708 224.548 121.843C224.365 121.78 224.165 121.801 223.998 121.899C223.832 121.996 223.716 122.162 223.682 122.352C223.638 122.682 223.828 122.999 224.141 123.115ZM124.359 127.999C124.125 127.979 123.916 127.846 123.799 127.642C123.652 127.319 123.787 126.937 124.105 126.778C127.161 125.404 130.319 124.081 133.579 122.911C133.734 122.845 133.909 122.846 134.063 122.914C134.217 122.981 134.337 123.109 134.394 123.267C134.502 123.59 134.348 123.942 134.037 124.081C130.828 125.251 127.67 126.574 124.665 127.948L124.359 127.999ZM243.649 129.118C246.807 130.237 250.015 131.458 253.173 132.679L253.632 132.73C253.969 132.73 254.243 132.457 254.243 132.119C254.243 131.782 253.969 131.509 253.632 131.509C250.474 130.288 247.265 129.067 244.056 127.948C243.735 127.862 243.396 128.01 243.241 128.304C243.139 128.64 243.318 128.998 243.649 129.118ZM106.736 138.173C106.533 138.187 106.337 138.09 106.227 137.919C106.112 137.804 106.047 137.649 106.047 137.487C106.047 137.324 106.112 137.169 106.227 137.054C109.028 135.07 111.88 133.188 114.835 131.509C115.134 131.4 115.469 131.52 115.631 131.794C115.793 132.068 115.737 132.418 115.497 132.628C112.594 134.307 109.69 136.138 106.991 138.072C106.93 138.118 106.861 138.152 106.787 138.173H106.736ZM271.612 140.768H271.917H271.968C272.18 140.761 272.372 140.646 272.478 140.463C272.546 140.314 272.553 140.145 272.495 139.992C272.438 139.839 272.321 139.715 272.172 139.649C269.116 138.173 266.009 136.8 262.851 135.426C262.703 135.358 262.533 135.351 262.38 135.409C262.226 135.466 262.103 135.582 262.036 135.731C261.889 136.055 262.024 136.437 262.342 136.596C265.449 137.919 268.607 139.343 271.612 140.768ZM91.4258 151.512C91.3023 151.549 91.1701 151.545 91.0482 151.502C90.9331 151.388 90.8684 151.232 90.8684 151.07C90.8684 150.908 90.9331 150.752 91.0482 150.637C93.4421 148.145 96.1417 145.55 98.4847 143.566C98.7408 143.32 99.1453 143.32 99.4015 143.566C99.6473 143.822 99.6473 144.226 99.4015 144.482C96.9057 146.669 94.308 149.009 92.0669 151.451C91.8776 151.581 91.6351 151.604 91.4258 151.512ZM307.877 160.151H307.572C304.719 158.37 301.765 156.641 298.811 155.063C298.62 154.945 298.506 154.734 298.513 154.51C298.52 154.286 298.646 154.082 298.844 153.976C299.042 153.87 299.282 153.877 299.473 153.995C301.017 154.872 302.561 155.778 304.09 156.674L304.091 156.675L304.091 156.675L304.092 156.675L304.094 156.676L304.096 156.678L304.097 156.678L304.098 156.679L304.099 156.679C305.493 157.497 306.875 158.307 308.234 159.082C308.349 159.197 308.414 159.353 308.414 159.515C308.414 159.677 308.349 159.833 308.234 159.947C308.145 160.058 308.018 160.131 307.877 160.151ZM78.3654 167.375H78.722C78.9277 167.467 79.1685 167.427 79.3332 167.273C80.9935 164.584 82.7724 162.329 84.5655 160.056C84.8077 159.749 85.0501 159.442 85.2926 159.133C85.4241 159.017 85.4995 158.851 85.4995 158.675C85.4995 158.5 85.4241 158.334 85.2926 158.218C85.1779 158.103 85.0221 158.038 84.8596 158.038C84.6971 158.038 84.5413 158.103 84.4267 158.218C82.3383 160.863 80.301 163.61 78.3654 166.51C78.2503 166.625 78.1857 166.78 78.1857 166.942C78.1857 167.105 78.2503 167.26 78.3654 167.375ZM325.042 171.19C324.93 171.245 324.798 171.245 324.686 171.19L316.231 165.493C315.935 165.31 315.844 164.923 316.027 164.628C316.21 164.333 316.597 164.242 316.893 164.424C319.779 166.256 322.631 168.138 325.45 170.071C325.665 170.32 325.665 170.688 325.45 170.936C325.365 171.084 325.212 171.179 325.042 171.19ZM68.7388 184.926C68.5756 184.861 68.4486 184.729 68.3901 184.563C68.3316 184.397 68.3473 184.215 68.4332 184.062C69.8593 180.958 71.4383 177.906 73.0682 174.955C73.1319 174.683 73.3597 174.48 73.6376 174.449C73.9154 174.417 74.1833 174.563 74.3069 174.813C74.4306 175.064 74.3833 175.365 74.1888 175.566C72.5589 178.465 71.0308 181.518 69.5537 184.621C69.4871 184.77 69.3633 184.887 69.2102 184.944C69.057 185.001 68.8872 184.995 68.7388 184.926ZM357.284 195.61C357.415 195.661 357.56 195.661 357.691 195.61C357.834 195.618 357.976 195.582 358.099 195.508C358.214 195.394 358.279 195.238 358.279 195.076C358.279 194.913 358.214 194.758 358.099 194.643C356.266 193.237 354.58 191.853 352.92 190.489C351.997 189.73 351.081 188.979 350.153 188.233C349.871 188.079 349.519 188.149 349.318 188.4C349.117 188.651 349.125 189.01 349.338 189.251C351.308 190.656 353.083 192.134 354.865 193.617C355.664 194.282 356.464 194.949 357.284 195.61ZM61.557 204.106C61.2427 203.968 61.0714 203.626 61.1495 203.292C62.2191 199.985 63.3397 196.729 64.5621 193.626C64.7173 193.332 65.0555 193.184 65.3771 193.27C65.5356 193.326 65.6637 193.446 65.7312 193.6C65.7987 193.754 65.7996 193.929 65.7336 194.084C64.5621 197.136 63.4416 200.392 62.3719 203.648C62.273 203.999 61.9085 204.204 61.557 204.106ZM373.226 208.92C373.157 208.92 373.089 208.909 373.023 208.888C370.527 206.599 367.929 204.36 365.332 202.173C365.109 201.908 365.109 201.522 365.332 201.257C365.588 201.011 365.992 201.011 366.248 201.257L373.94 207.972C374.162 208.237 374.162 208.623 373.94 208.888C373.727 209.038 373.448 209.049 373.226 208.92ZM56.036 223.578C56.1335 223.725 56.2893 223.822 56.4635 223.845C56.657 223.86 56.8475 223.79 56.9848 223.653C57.122 223.516 57.1921 223.326 57.1766 223.133C57.8897 219.826 58.6537 216.468 59.5196 213.212C59.5866 212.878 59.3881 212.547 59.0612 212.449C58.8923 212.386 58.7042 212.4 58.5471 212.489C58.3899 212.577 58.2798 212.73 58.2462 212.907C58.082 213.614 57.9178 214.315 57.7548 215.011L57.7533 215.018L57.7531 215.019L57.7527 215.02C57.1077 217.774 56.4823 220.444 55.9542 223.082C55.9087 223.251 55.9385 223.432 56.036 223.578ZM402.361 237.479C402.215 237.544 402.049 237.544 401.903 237.479C399.611 234.986 397.217 232.392 394.874 230.102C394.628 229.846 394.628 229.443 394.874 229.187C395.139 228.964 395.525 228.964 395.791 229.187C396.801 230.24 397.821 231.331 398.839 232.419L398.84 232.421L398.84 232.421L398.84 232.421L398.841 232.421L398.841 232.421L398.841 232.422C400.181 233.855 401.517 235.284 402.82 236.614C403.065 236.87 403.065 237.274 402.82 237.53C402.665 237.557 402.506 237.54 402.361 237.479ZM52.4397 243.228C52.4088 243.576 52.6542 243.888 52.9999 243.94C53.3321 243.974 53.6377 243.756 53.713 243.431C54.1205 239.921 54.5789 236.512 55.0883 233.257C55.135 233.093 55.1045 232.917 55.0054 232.778C54.9062 232.639 54.7492 232.553 54.5789 232.544C54.4165 232.515 54.2491 232.552 54.1148 232.648C53.9805 232.744 53.8907 232.89 53.8658 233.053C53.3055 236.411 52.8471 239.819 52.4397 243.228ZM415.91 252.741C415.747 252.809 415.563 252.809 415.4 252.741L408.728 245.008C408.613 244.894 408.548 244.738 408.548 244.576C408.548 244.414 408.613 244.258 408.728 244.144C408.844 244.012 409.011 243.937 409.186 243.937C409.362 243.937 409.529 244.012 409.645 244.144C411.264 245.949 412.911 247.865 414.565 249.79L414.566 249.791L414.577 249.804C415.157 250.478 415.737 251.154 416.317 251.825C416.563 252.081 416.563 252.485 416.317 252.741C416.186 252.792 416.041 252.792 415.91 252.741ZM50.9188 264.042C51.035 264.168 51.1987 264.239 51.37 264.239C51.6994 264.243 51.9815 264.004 52.0322 263.679C52.0938 262.304 52.2051 260.922 52.316 259.544C52.4802 257.505 52.6434 255.478 52.6434 253.504C52.6471 253.148 52.3858 252.843 52.0322 252.792C51.8614 252.778 51.6926 252.836 51.5667 252.952C51.4408 253.068 51.3694 253.231 51.37 253.403C51.3153 254.125 51.2558 254.849 51.1961 255.576C50.9785 258.226 50.7588 260.902 50.7588 263.577C50.7445 263.748 50.8026 263.917 50.9188 264.042ZM428.847 268.665C428.686 268.739 428.5 268.739 428.338 268.665C426.25 265.918 424.161 263.221 422.073 260.627C421.958 260.512 421.893 260.357 421.893 260.194C421.893 260.032 421.958 259.876 422.073 259.762C422.189 259.63 422.356 259.555 422.531 259.555C422.707 259.555 422.874 259.63 422.99 259.762C423.61 260.551 424.239 261.332 424.874 262.118L424.875 262.119C426.325 263.917 427.802 265.748 429.255 267.8C429.501 268.056 429.501 268.46 429.255 268.716L428.847 268.665ZM50.7588 284.029C50.7588 284.366 51.0325 284.639 51.37 284.639H51.421C51.5923 284.64 51.756 284.568 51.8722 284.443C51.9884 284.317 52.0465 284.148 52.0322 283.978V276.855V273.803C52.0328 273.632 51.9614 273.468 51.8355 273.352C51.7096 273.236 51.5408 273.178 51.37 273.192C51.0325 273.192 50.7588 273.466 50.7588 273.803V276.855V284.029ZM440.511 285.25C440.33 285.316 440.132 285.316 439.951 285.25C438.117 282.502 436.182 279.704 434.195 276.855C434.08 276.741 434.016 276.585 434.016 276.423C434.016 276.261 434.08 276.105 434.195 275.991C434.452 275.745 434.856 275.745 435.112 275.991C437.15 278.789 439.085 281.638 440.919 284.385C441.134 284.633 441.134 285.001 440.919 285.25C440.789 285.306 440.641 285.306 440.511 285.25ZM450.8 302.241C450.897 302.432 451.095 302.551 451.309 302.547L451.666 302.241C451.781 302.127 451.846 301.971 451.846 301.809C451.846 301.647 451.781 301.491 451.666 301.377C450.189 298.477 448.406 295.577 446.573 292.626C446.324 292.412 445.955 292.412 445.707 292.626C445.484 292.891 445.484 293.277 445.707 293.542C446.684 295.282 447.717 297.021 448.75 298.761L448.75 298.762C449.439 299.922 450.128 301.082 450.8 302.241ZM52.185 304.989C51.8664 304.99 51.6003 304.746 51.5738 304.429C51.5738 302.351 51.39 300.273 51.2101 298.239C51.0905 296.887 50.9726 295.554 50.9116 294.254C50.9106 293.908 51.1772 293.62 51.5228 293.593C51.6936 293.579 51.8625 293.637 51.9884 293.753C52.1142 293.869 52.1856 294.032 52.185 294.203C52.185 296.575 52.3946 298.999 52.6071 301.457C52.6909 302.426 52.7751 303.4 52.8471 304.378C52.8614 304.549 52.8034 304.717 52.6872 304.843C52.571 304.969 52.4073 305.04 52.2359 305.04L52.185 304.989ZM460.376 320.149C460.509 320.361 460.737 320.494 460.987 320.505V320.454C461.305 320.295 461.44 319.913 461.293 319.589C459.816 316.588 458.237 313.535 456.607 310.483C456.43 310.184 456.052 310.073 455.741 310.229C455.526 310.477 455.526 310.845 455.741 311.094C457.371 314.146 458.95 317.198 460.376 320.149ZM54.3242 325.287C53.9949 325.291 53.7127 325.053 53.6621 324.728C53.2546 321.37 52.8471 317.961 52.4906 314.553C52.4614 314.383 52.5056 314.208 52.6124 314.073C52.7192 313.937 52.8785 313.853 53.0509 313.841C53.3992 313.81 53.7115 314.055 53.764 314.4C54.1205 317.758 54.5279 321.166 54.9354 324.575L54.9355 324.575C54.9647 324.745 54.9204 324.92 54.8136 325.055C54.7069 325.191 54.5476 325.275 54.3752 325.287H54.3242ZM468.423 338.769C468.526 339.015 468.767 339.176 469.035 339.176L469.238 339.125C469.397 339.068 469.525 338.949 469.593 338.795C469.66 338.641 469.661 338.466 469.595 338.311C468.423 335.157 467.099 332.003 465.724 328.848C465.564 328.531 465.182 328.396 464.858 328.543C464.709 328.61 464.592 328.733 464.535 328.886C464.477 329.039 464.484 329.209 464.552 329.357C465.928 332.511 467.201 335.666 468.423 338.769ZM57.3803 345.433C57.0789 345.438 56.8193 345.222 56.7691 344.925C56.1579 341.567 55.5976 338.158 55.0883 334.75C55.0591 334.574 55.1021 334.394 55.2075 334.25C55.313 334.107 55.472 334.012 55.6486 333.987C55.9969 333.956 56.3092 334.201 56.3616 334.546C56.7458 337.079 57.1589 339.611 57.5792 342.187C57.7161 343.027 57.8538 343.871 57.9916 344.721C58.0546 345.071 57.8297 345.408 57.4822 345.484L57.3803 345.433ZM475.249 357.999C475.299 358.296 475.558 358.512 475.86 358.508L476.013 358.457C476.178 358.421 476.32 358.319 476.407 358.175C476.494 358.03 476.517 357.856 476.471 357.694C475.554 354.489 474.536 351.182 473.466 347.926C473.42 347.759 473.305 347.618 473.15 347.541C472.994 347.463 472.813 347.455 472.651 347.519C472.483 347.565 472.343 347.68 472.265 347.835C472.187 347.991 472.18 348.172 472.244 348.333C473.313 351.538 474.332 354.845 475.249 357.999ZM61.557 365.427C61.2555 365.431 60.996 365.215 60.9458 364.918C60.1817 361.56 59.4687 358.203 58.8574 354.743C58.8119 354.574 58.8418 354.393 58.9393 354.247C59.0368 354.1 59.1925 354.003 59.3668 353.98C59.5292 353.951 59.6966 353.988 59.8309 354.084C59.9652 354.18 60.055 354.326 60.0799 354.489C60.3544 355.839 60.6377 357.206 60.9261 358.598C61.3333 360.564 61.7508 362.579 62.1682 364.664C62.2142 364.826 62.1911 365 62.1043 365.144C62.0175 365.289 61.8747 365.391 61.7098 365.427H61.557ZM479.324 377.738C479.396 378.043 479.672 378.255 479.986 378.247L480.088 378.196C480.251 378.171 480.397 378.082 480.493 377.947C480.589 377.813 480.626 377.646 480.597 377.484C480.088 374.024 479.476 370.667 478.712 367.309C478.636 366.962 478.298 366.737 477.948 366.8C477.621 366.899 477.423 367.229 477.49 367.563C478.203 371.125 478.814 374.482 479.324 377.738ZM66.3448 385.725C66.0589 385.734 65.805 385.544 65.7336 385.268V384.759C64.8677 381.452 64.0018 378.145 63.1869 374.584C63.1483 374.24 63.3633 373.918 63.6962 373.821C64.0268 373.776 64.3441 373.966 64.4603 374.279L64.4605 374.28C65.2754 377.586 66.0903 380.893 66.9561 384.148V384.657C67.0539 385.008 66.8489 385.372 66.4976 385.471L66.3448 385.725ZM481.106 397.986C481.106 398.323 481.38 398.597 481.717 398.597L481.768 398.546C482.114 398.519 482.381 398.231 482.38 397.884C482.356 396.306 482.242 394.705 482.128 393.103C481.999 391.297 481.87 389.489 481.87 387.71C481.857 387.534 481.775 387.371 481.641 387.256C481.507 387.142 481.333 387.085 481.157 387.099C480.985 387.111 480.826 387.195 480.719 387.331C480.612 387.467 480.568 387.641 480.597 387.811C480.852 391.22 481.106 394.628 481.106 397.986ZM71.7439 405.312C71.4766 405.312 71.2355 405.151 71.1327 404.905C70.1649 401.649 69.1972 398.342 68.2804 395.086C68.2343 394.924 68.2575 394.75 68.3443 394.606C68.4311 394.461 68.5739 394.359 68.7388 394.323C68.8941 394.276 69.062 394.292 69.2054 394.368C69.3487 394.445 69.4558 394.575 69.5028 394.73C70.4196 398.037 71.3874 401.293 72.3551 404.498C72.4575 404.834 72.2785 405.192 71.9477 405.312H71.7439ZM480.007 418.799C480.116 418.927 480.276 419 480.444 418.997L480.648 418.946C480.918 418.884 481.122 418.661 481.157 418.386C481.234 417.676 481.317 416.962 481.401 416.243C481.709 413.614 482.023 410.928 482.023 408.212C482.002 407.874 481.747 407.598 481.412 407.55C481.241 407.536 481.072 407.594 480.946 407.71C480.82 407.826 480.749 407.99 480.75 408.161C480.546 411.62 480.24 415.029 479.884 418.336C479.853 418.501 479.898 418.671 480.007 418.799ZM78.0598 424.746C77.7845 424.724 77.5464 424.546 77.4486 424.288C76.379 421.083 75.3094 417.878 74.2907 414.622C74.2634 414.317 74.4497 414.033 74.7408 413.936C75.0319 413.839 75.3515 413.954 75.5131 414.215C76.5318 417.471 77.6014 420.676 78.671 423.881C78.7351 424.042 78.7273 424.223 78.6495 424.379C78.5717 424.534 78.4314 424.649 78.2636 424.695L78.0598 424.746ZM476.522 438.075C476.459 438.424 476.684 438.761 477.031 438.838L477.337 439.296C477.548 439.242 477.723 439.096 477.812 438.897C477.902 438.699 477.895 438.471 477.795 438.278C478.509 434.768 479.171 431.41 479.68 428.103C479.709 427.941 479.672 427.774 479.576 427.64C479.48 427.506 479.334 427.416 479.171 427.391C478.821 427.328 478.483 427.553 478.407 427.9C477.897 431.359 477.235 434.717 476.522 438.075ZM84.5795 443.925C84.3122 443.925 84.0711 443.765 83.9683 443.518C82.7968 440.364 81.6253 437.159 80.5047 433.954C80.3781 433.631 80.5377 433.266 80.8612 433.14C81.1847 433.013 81.5496 433.173 81.6762 433.496C82.0667 434.564 82.4516 435.633 82.8364 436.701C83.6061 438.838 84.3758 440.974 85.1907 443.111C85.2931 443.447 85.1141 443.805 84.7832 443.925H84.5795ZM471.276 457.814C471.173 458.15 471.352 458.508 471.683 458.628H471.887C472.154 458.628 472.395 458.467 472.498 458.221C473.568 455.016 474.587 451.709 475.503 448.453C475.588 448.116 475.383 447.774 475.045 447.69C474.707 447.605 474.365 447.81 474.281 448.148C473.364 451.353 472.396 454.609 471.276 457.814ZM92.1178 462.901C91.8731 462.918 91.6461 462.773 91.5575 462.545C90.2332 459.391 88.9599 456.237 87.7374 453.082C87.6537 452.922 87.645 452.734 87.7138 452.567C87.7826 452.4 87.9218 452.272 88.094 452.218C88.4307 452.115 88.7888 452.294 88.9089 452.625C90.1314 455.779 91.4047 458.933 92.729 462.036C92.8429 462.373 92.6907 462.742 92.3725 462.901H92.1178ZM463.636 476.586C463.488 476.91 463.623 477.291 463.941 477.451C464.265 477.598 464.647 477.463 464.807 477.146C466.284 474.144 467.659 470.99 468.984 467.836C469.092 467.513 468.938 467.161 468.627 467.022C468.479 466.953 468.309 466.947 468.156 467.004C468.003 467.062 467.879 467.178 467.812 467.327C466.488 470.481 465.113 473.585 463.636 476.586ZM100.369 481.623C100.129 481.624 99.9092 481.485 99.8089 481.266C98.3828 478.163 97.0075 475.06 95.6323 471.906C95.5636 471.757 95.5572 471.588 95.6147 471.435C95.6721 471.282 95.7885 471.158 95.9379 471.092C96.098 471.008 96.2869 470.999 96.454 471.068C96.621 471.137 96.7491 471.276 96.8038 471.448C97.8433 473.884 98.9456 476.32 100.037 478.731C100.336 479.392 100.634 480.05 100.93 480.707C101.077 481.03 100.942 481.412 100.624 481.572L100.369 481.623ZM453.703 495.206H454.009L454.111 495.257C454.378 495.315 454.655 495.217 454.824 495.002C455.601 493.643 456.414 492.261 457.233 490.867L457.234 490.865C458.132 489.337 459.039 487.795 459.917 486.252C460.112 486.051 460.159 485.75 460.036 485.5C459.912 485.249 459.644 485.103 459.366 485.135C459.088 485.167 458.861 485.37 458.797 485.642C457.269 488.592 455.537 491.492 453.703 494.341C453.588 494.456 453.524 494.611 453.524 494.773C453.524 494.936 453.588 495.091 453.703 495.206ZM109.232 499.988C108.991 499.99 108.772 499.85 108.672 499.632C107.093 496.58 105.565 493.476 104.138 490.475C104.07 490.326 104.063 490.157 104.121 490.004C104.178 489.851 104.295 489.727 104.444 489.661C104.676 489.453 105.027 489.453 105.259 489.661L109.792 498.818C109.948 499.128 109.836 499.506 109.537 499.683L109.232 499.988ZM441.632 511.638H442.039H442.141C442.241 511.666 442.347 511.666 442.447 511.638C444.637 508.993 446.725 506.246 448.712 503.549C448.827 503.435 448.892 503.279 448.892 503.117C448.892 502.955 448.827 502.799 448.712 502.684C448.597 502.569 448.441 502.505 448.279 502.505C448.116 502.505 447.961 502.569 447.846 502.684C446.222 505.096 444.531 507.168 442.799 509.289L442.797 509.291L442.797 509.291L442.797 509.291L442.796 509.292L442.796 509.292L442.796 509.292L442.796 509.292L442.796 509.293L442.789 509.3L442.774 509.319C442.395 509.783 442.014 510.249 441.632 510.722C441.386 510.978 441.386 511.382 441.632 511.638ZM118.909 517.947C118.683 517.947 118.471 517.832 118.349 517.641L117.965 516.958C116.455 514.271 114.899 511.501 113.256 508.688C113.188 508.398 113.322 508.099 113.583 507.956C113.845 507.814 114.169 507.863 114.376 508.077C116.006 511.129 117.687 514.131 119.47 516.98C119.685 517.228 119.685 517.596 119.47 517.845L118.909 517.947ZM427.879 526.697C428.008 526.76 428.159 526.76 428.287 526.697C428.406 526.778 428.551 526.814 428.694 526.799C430.939 524.697 433.14 522.295 435.22 520.027C435.406 519.824 435.591 519.622 435.774 519.422C436.02 519.166 436.02 518.762 435.774 518.506C435.66 518.391 435.504 518.327 435.341 518.327C435.179 518.327 435.023 518.391 434.908 518.506C433.685 519.729 432.415 521.073 431.125 522.438L431.122 522.441C430.051 523.575 428.965 524.725 427.879 525.832C427.75 525.938 427.675 526.097 427.675 526.264C427.675 526.432 427.75 526.591 427.879 526.697ZM129.402 535.345C129.178 535.337 128.97 535.224 128.842 535.04C127.059 532.242 125.225 529.291 123.443 526.392C123.228 526.143 123.228 525.775 123.443 525.527C123.557 525.412 123.713 525.347 123.876 525.347C124.038 525.347 124.194 525.412 124.309 525.527C125.768 527.97 127.299 530.413 128.811 532.825L128.821 532.842L128.875 532.928L129.076 533.248C129.27 533.558 129.464 533.867 129.657 534.175C129.872 534.424 129.872 534.792 129.657 535.04L129.402 535.345ZM412.65 540.178C412.777 540.33 412.962 540.422 413.159 540.433L413.312 540.382C413.341 540.362 413.367 540.339 413.392 540.315C413.419 540.288 413.443 540.26 413.465 540.229L421.207 533.565C421.453 533.309 421.453 532.905 421.207 532.649C421.092 532.534 420.937 532.47 420.774 532.47C420.612 532.47 420.456 532.534 420.341 532.649C419.331 533.52 418.336 534.391 417.344 535.258L417.343 535.259L417.342 535.26L417.341 535.261L417.34 535.262L417.338 535.263L417.337 535.264L417.328 535.272C415.776 536.63 414.232 537.981 412.65 539.314C412.535 539.428 412.47 539.584 412.47 539.746C412.47 539.908 412.535 540.064 412.65 540.178ZM140.913 552.286C140.702 552.279 140.509 552.164 140.404 551.981C138.417 549.336 136.431 546.538 134.496 543.689C134.273 543.424 134.273 543.038 134.496 542.773C134.752 542.527 135.156 542.527 135.412 542.773C137.348 545.571 139.334 548.369 141.27 551.065C141.385 551.18 141.45 551.336 141.45 551.498C141.45 551.66 141.385 551.816 141.27 551.93C141.232 552.049 141.161 552.155 141.066 552.236L140.913 552.286ZM396.453 552.795C396.614 552.869 396.8 552.869 396.962 552.795L397.115 552.744C397.163 552.769 397.214 552.786 397.268 552.795C400.12 550.811 402.871 548.776 405.519 546.741C405.634 546.627 405.699 546.471 405.699 546.309C405.699 546.146 405.634 545.991 405.519 545.876C405.404 545.761 405.249 545.697 405.086 545.697C404.924 545.697 404.768 545.761 404.653 545.876C402.271 547.707 399.806 549.496 397.296 551.318L396.453 551.93C396.338 552.045 396.273 552.2 396.273 552.363C396.273 552.525 396.338 552.681 396.453 552.795ZM379.899 564.038C379.685 564.042 379.487 563.924 379.39 563.733C379.275 563.618 379.21 563.463 379.21 563.301C379.21 563.138 379.275 562.983 379.39 562.868C382.344 561.037 385.247 559.205 387.998 557.374C388.112 557.259 388.268 557.194 388.431 557.194C388.593 557.194 388.749 557.259 388.863 557.374C388.979 557.488 389.043 557.644 389.043 557.806C389.043 557.968 388.979 558.124 388.863 558.239C386.113 560.07 383.21 561.902 380.256 563.733L379.899 564.038ZM153.087 568.261C153.251 568.323 153.432 568.323 153.596 568.261L154.054 568.362C154.3 568.107 154.3 567.703 154.054 567.447C152.915 565.984 151.762 564.622 150.609 563.261L150.609 563.261C149.597 562.066 148.586 560.873 147.586 559.612C147.375 559.345 146.987 559.3 146.72 559.51C146.453 559.721 146.407 560.108 146.618 560.375C148.757 563.173 150.896 565.768 153.087 568.261ZM362.428 574.264C362.194 574.245 361.985 574.111 361.868 573.908C361.713 573.597 361.824 573.22 362.123 573.043C365.128 571.415 368.133 569.736 370.985 567.956C371.234 567.741 371.603 567.741 371.851 567.956C371.966 568.07 372.031 568.226 372.031 568.388C372.031 568.55 371.966 568.706 371.851 568.82L362.938 573.908L362.428 574.264ZM167.247 583.116C167.378 583.167 167.523 583.167 167.654 583.116V583.065C167.798 583.138 167.968 583.138 168.112 583.065C168.242 582.959 168.317 582.8 168.317 582.633C168.317 582.465 168.242 582.306 168.112 582.2C165.769 580.013 163.375 577.469 160.982 574.925C160.725 574.68 160.321 574.68 160.065 574.925C159.935 575.031 159.86 575.19 159.86 575.358C159.86 575.525 159.935 575.684 160.065 575.79C162.476 578.334 164.87 580.776 167.247 583.116ZM344.296 583.625C344.055 583.626 343.836 583.487 343.735 583.269C343.649 583.115 343.634 582.933 343.692 582.767C343.751 582.601 343.878 582.469 344.041 582.404L353.107 577.825C353.308 577.631 353.61 577.584 353.861 577.707C354.111 577.831 354.258 578.098 354.226 578.376C354.194 578.653 353.991 578.881 353.719 578.944C350.662 580.521 347.657 582.048 344.55 583.523L344.296 583.625ZM325.246 591.866C325.33 592.105 325.553 592.267 325.806 592.273L326.061 592.222L335.331 587.949C335.607 587.909 335.829 587.7 335.885 587.427C335.941 587.154 335.82 586.875 335.582 586.73C335.343 586.585 335.039 586.604 334.822 586.779C332.654 587.825 330.461 588.82 328.261 589.819L328.255 589.821L328.254 589.821L328.253 589.822L328.252 589.822L328.252 589.823L328.251 589.823L328.25 589.824L328.249 589.824L328.237 589.829C327.343 590.235 326.447 590.642 325.552 591.052C325.402 591.119 325.286 591.242 325.228 591.395C325.171 591.548 325.177 591.718 325.246 591.866ZM183.189 596.445C183.073 596.484 182.948 596.484 182.833 596.445C181.263 595.239 179.766 593.998 178.213 592.71L178.209 592.708L178.208 592.707L178.203 592.702L178.202 592.702L178.2 592.7C177.135 591.817 176.045 590.913 174.887 589.984C174.619 589.759 174.585 589.36 174.81 589.094C175.035 588.827 175.434 588.792 175.702 589.017L176.005 589.279L176.273 589.51L176.274 589.511C178.668 591.577 181.001 593.589 183.597 595.427C183.728 595.543 183.804 595.71 183.804 595.885C183.804 596.06 183.728 596.227 183.597 596.343C183.442 596.434 183.256 596.452 183.087 596.394L183.189 596.445ZM306.604 599.955C306.693 600.184 306.92 600.328 307.164 600.311L307.419 600.26C310.577 598.989 313.684 597.666 316.842 596.292C316.991 596.226 317.108 596.102 317.165 595.949C317.222 595.796 317.216 595.627 317.147 595.478C316.992 595.184 316.654 595.036 316.332 595.122C313.225 596.496 310.067 597.818 306.91 599.09C306.592 599.25 306.457 599.632 306.604 599.955ZM200.201 607.484H199.896C197.213 606.052 194.531 604.453 191.886 602.876L191.886 602.875L191.885 602.875L191.883 602.873L191.084 602.397C190.869 602.149 190.869 601.781 191.084 601.532C191.199 601.417 191.354 601.353 191.517 601.353C191.679 601.353 191.835 601.417 191.95 601.532C194.802 603.415 197.756 605.144 200.66 606.62C200.875 606.868 200.875 607.236 200.66 607.484C200.506 607.523 200.343 607.505 200.201 607.434V607.484ZM287.605 607.535C287.69 607.774 287.912 607.936 288.166 607.942L288.42 607.891L297.894 604.127C298.205 603.987 298.359 603.635 298.251 603.313C298.111 603.002 297.759 602.848 297.436 602.957L287.962 606.721C287.793 606.763 287.652 606.881 287.582 607.04C287.513 607.2 287.521 607.383 287.605 607.535ZM269.116 615.116C268.83 615.125 268.576 614.934 268.505 614.658C268.402 614.321 268.581 613.964 268.912 613.844C270.389 613.386 271.917 612.826 273.445 612.267L278.539 610.384C278.694 610.318 278.869 610.319 279.023 610.387C279.178 610.454 279.297 610.582 279.354 610.74C279.438 610.893 279.447 611.076 279.377 611.235C279.307 611.395 279.167 611.513 278.997 611.554L273.904 613.488C272.376 614.047 270.797 614.607 269.269 615.065L269.116 615.116ZM209.319 611.91C212.463 613.251 215.676 614.423 218.945 615.421V615.37C219.267 615.456 219.605 615.308 219.76 615.014C219.858 614.663 219.653 614.299 219.302 614.2C216.083 613.219 212.921 612.064 209.828 610.74C209.491 610.627 209.121 610.779 208.962 611.097C208.854 611.419 209.008 611.771 209.319 611.91ZM249.099 618.982C248.761 618.982 248.487 618.709 248.487 618.371C248.457 618.206 248.502 618.036 248.611 617.908C248.719 617.78 248.88 617.707 249.048 617.71C252.467 617.479 255.87 617.037 259.235 616.387C259.585 616.324 259.922 616.549 259.999 616.896C260.028 617.058 259.991 617.226 259.895 617.36C259.799 617.494 259.652 617.584 259.489 617.608C256.124 618.269 252.722 618.728 249.302 618.982H249.099ZM238.912 618.982C235.495 618.778 232.093 618.37 228.725 617.761C228.551 617.738 228.395 617.641 228.297 617.495C228.2 617.348 228.17 617.167 228.215 616.998C228.24 616.835 228.33 616.689 228.464 616.593C228.599 616.497 228.766 616.46 228.928 616.489C232.297 617.099 235.698 617.507 239.115 617.71C239.287 617.71 239.45 617.781 239.567 617.907C239.683 618.032 239.741 618.201 239.727 618.371C239.717 618.568 239.62 618.75 239.463 618.868C239.305 618.986 239.103 619.028 238.912 618.982ZM387.947 222.878C388.033 222.922 388.129 222.939 388.223 222.93C388.418 223.049 388.665 223.051 388.863 222.929C389.109 222.673 389.109 222.269 388.863 222.013C387.05 220.122 385.014 218.23 383.032 216.389C382.508 215.903 381.989 215.42 381.478 214.942C381.222 214.696 380.817 214.696 380.561 214.942C380.446 215.056 380.381 215.212 380.381 215.374C380.381 215.537 380.446 215.692 380.561 215.807C382.074 217.318 383.72 218.873 385.382 220.444L385.383 220.445C386.239 221.253 387.099 222.066 387.947 222.878ZM341.341 183.044H341.698C341.848 183.045 341.993 182.991 342.105 182.891C342.221 182.777 342.285 182.621 342.285 182.459C342.285 182.297 342.221 182.141 342.105 182.027C339.355 179.992 336.604 177.957 333.803 175.973C333.517 175.87 333.197 175.975 333.028 176.228C332.859 176.481 332.885 176.816 333.09 177.041C335.84 178.974 338.642 181.009 341.341 183.044ZM290.101 149.976H289.795C286.807 148.348 283.802 146.771 280.78 145.245C280.6 145.153 280.471 144.984 280.432 144.785C280.392 144.587 280.445 144.381 280.576 144.227C280.652 144.073 280.788 143.958 280.953 143.909C281.118 143.861 281.295 143.884 281.442 143.973C284.396 145.448 287.452 147.076 290.458 148.704C290.573 148.819 290.637 148.974 290.637 149.137C290.637 149.299 290.573 149.455 290.458 149.569C290.427 149.746 290.313 149.897 290.152 149.976H290.101ZM204.174 118.79C207.638 119.299 210.999 119.961 214.361 120.673C214.683 120.736 214.998 120.534 215.074 120.215C215.137 119.865 214.912 119.528 214.565 119.452C211.05 118.689 207.638 118.078 204.378 117.519C204.216 117.489 204.048 117.527 203.914 117.623C203.78 117.718 203.69 117.864 203.665 118.027C203.602 118.377 203.827 118.714 204.174 118.79ZM162.997 117.272C163.113 117.379 163.269 117.431 163.426 117.417H163.375C166.737 117.061 170.15 116.755 173.562 116.755C173.734 116.756 173.897 116.685 174.014 116.559C174.13 116.433 174.188 116.265 174.174 116.094C174.149 115.768 173.889 115.508 173.562 115.484C170.099 115.585 166.686 115.84 163.375 116.196C163.207 116.193 163.047 116.266 162.938 116.394C162.83 116.522 162.785 116.692 162.815 116.857C162.815 117.015 162.881 117.166 162.997 117.272Z" fill="#D8D5DB"/>
<path d="M479.222 402.514C479.222 403.124 479.222 403.633 479.222 404.193C477.948 418.386 465.724 448.656 453.754 475.416C454.162 485.082 454.467 493.731 454.518 500.853C454.518 502.176 454.518 503.397 454.518 504.618H453.041C453.398 510.926 453.856 521.864 454.213 534.43C410.154 561.037 355.552 577.164 298.709 590.391L288.98 592.578C280.531 594.495 271.864 595.282 263.208 594.919C262.687 592.79 262.498 590.593 262.647 588.407C263.851 559.725 266.845 531.146 271.612 502.837L268.454 502.379C280.016 463.41 285.823 407.194 288.828 358.406C289.184 352.657 289.49 347.061 289.745 341.516C282.359 349.045 277.266 353.726 277.266 353.726L261.629 328.034C242.324 341.974 224.09 354.285 215.176 359.983C207.791 366.902 195.21 367.92 185.328 354.896C169.335 333.987 146.771 246.229 144.122 231.323C143.736 231.177 143.375 230.971 143.053 230.713C139.385 225.625 126.55 197.899 127.772 192.507C128.995 187.114 135.005 175.464 141.983 173.887C141.168 171.394 140.251 168.799 138.927 165.187C135.973 157.149 132.458 149.009 137.755 149.925C143.053 150.841 155.175 180.449 157.263 185.537C157.569 183.146 157.875 181.213 157.875 181.213C159.504 176.43 168.061 173.887 166.788 181.213C165.311 191.387 168.876 196.475 168.724 204.869C168.724 205.327 168.724 205.836 168.724 206.548C168.744 206.853 168.744 207.159 168.724 207.463C168.751 207.683 168.751 207.905 168.724 208.125C168.724 208.125 168.724 208.379 168.724 208.481C167.484 214.733 165.284 220.756 162.204 226.338C167.756 244.449 193.223 291.812 208.045 317.911C217.112 310.381 228.419 301.427 240.134 292.474L239.115 290.795C239.115 290.795 299.524 234.376 330.798 230.102C331.256 227.915 331.562 225.524 331.868 223.031C332.173 220.538 332.377 216.316 332.479 212.856C309.507 212.602 307.368 195.712 309.66 174.243L306.044 173.327L311.392 159.489V158.472C310.804 157.789 310.464 156.929 310.424 156.03C310.424 154.351 310.882 152.927 311.799 152.876C311.93 152.825 312.076 152.825 312.207 152.876C312.207 151.655 312.614 150.434 312.767 149.213C313.174 146.517 313.684 144.126 314.193 141.633C312.831 141.365 311.43 141.365 310.067 141.633L309.66 139.14C311.345 138.84 313.069 138.84 314.753 139.14C316.444 132.319 319.175 125.799 322.852 119.808C315.517 119.299 312.054 116.908 317.147 111.007C325.042 101.849 362.428 97.2708 381.274 101.137C387.896 102.511 392.225 104.902 392.276 108.463C392.276 108.87 392.276 109.124 392.276 109.48C394.204 108.666 395.863 107.326 397.064 105.614L399.203 107.039C397.974 108.776 396.373 110.218 394.517 111.261L393.753 111.668C413.923 124.794 385.4 195.101 385.298 195.101C384.738 207.158 384.381 219.063 384.432 227.457C402.565 229.543 414.025 234.834 421.614 243.126C441.988 259.457 473.262 326.457 473.262 326.457L460.478 329.815C469.595 359.017 477.337 388.32 479.578 398.139C479.645 399.606 479.525 401.076 479.222 402.514Z" fill="#D1CDD3"/>
<rect opacity="0.3" x="384.789" y="289.727" width="340.906" height="265.816" rx="33.6" transform="rotate(180 384.789 289.727)" fill="#4D8DFF"/>
<path opacity="0.3" fill-rule="evenodd" clip-rule="evenodd" d="M41.5905 313.79H362.072C372.905 313.79 383.293 309.481 390.939 301.815C398.585 294.15 402.86 283.759 402.82 272.938V40.6991C402.82 18.2216 384.576 0 362.072 0H41.5905C19.0862 0 0.842773 18.2216 0.842773 40.6991V273.091C0.842773 295.568 19.0862 313.79 41.5905 313.79ZM1.96334 40.6991C1.9914 18.8513 19.7167 1.14725 41.5906 1.11922H362.072C383.946 1.14725 401.671 18.8513 401.699 40.6991V272.938C401.671 294.786 383.946 312.49 362.072 312.518H41.5906C19.7167 312.49 1.9914 294.786 1.96334 272.938V40.6991Z" fill="#4D8DFF"/>
<g opacity="0.3">
<rect x="129.096" y="102.663" width="56.945" height="44.4129" rx="5.6" transform="rotate(180 129.096 102.663)" fill="#4D8DFF"/>
<rect x="204.887" y="102.663" width="56.945" height="44.4129" rx="5.6" transform="rotate(180 204.887 102.663)" fill="#4D8DFF"/>
<rect x="280.729" y="102.663" width="56.945" height="44.4129" rx="5.6" transform="rotate(180 280.729 102.663)" fill="#4D8DFF"/>
<rect x="356.571" y="102.663" width="56.945" height="44.4129" rx="5.6" transform="rotate(180 356.571 102.663)" fill="#4D8DFF"/>
</g>
<g opacity="0.3">
<rect x="129.096" y="179.025" width="56.945" height="44.4129" rx="5.6" transform="rotate(180 129.096 179.025)" fill="#4D8DFF"/>
<rect x="204.887" y="179.025" width="56.945" height="44.4129" rx="5.6" transform="rotate(180 204.887 179.025)" fill="#4D8DFF"/>
<rect x="280.729" y="179.025" width="56.945" height="44.4129" rx="5.6" transform="rotate(180 280.729 179.025)" fill="#4D8DFF"/>
<rect x="356.571" y="179.025" width="56.945" height="44.4129" rx="5.6" transform="rotate(180 356.571 179.025)" fill="#4D8DFF"/>
</g>
<g opacity="0.3">
<rect x="129.096" y="255.336" width="56.945" height="44.4129" rx="5.6" transform="rotate(180 129.096 255.336)" fill="#4D8DFF"/>
<rect x="204.887" y="255.336" width="56.945" height="44.4129" rx="5.6" transform="rotate(180 204.887 255.336)" fill="#4D8DFF"/>
<rect x="280.729" y="255.336" width="56.945" height="44.4129" rx="5.6" transform="rotate(180 280.729 255.336)" fill="#4D8DFF"/>
<rect x="356.571" y="255.336" width="56.945" height="44.4129" rx="5.6" transform="rotate(180 356.571 255.336)" fill="#4D8DFF"/>
</g>
<rect x="287.962" y="95.4393" width="56.945" height="44.4129" rx="5.6" transform="rotate(180 287.962 95.4393)" fill="#4D8DFF"/>
<rect x="287.962" y="248.112" width="56.945" height="44.4129" rx="5.6" transform="rotate(180 287.962 248.112)" fill="#FF4E4A"/>
<rect x="136.278" y="171.801" width="56.945" height="44.4129" rx="5.6" transform="rotate(180 136.278 171.801)" fill="#FFC84D"/>
<path d="M424.569 151.197C422.837 162.288 419.475 222.42 420.851 236.156C422.226 249.892 354.635 254.064 363.651 238.751C372.666 223.438 366.248 172.615 366.248 172.615L424.569 151.197Z" fill="#FFAD69"/>
<path d="M419.883 152.927L366.249 172.513C368.257 189.274 368.734 206.183 367.675 223.031C389.78 213.924 384.891 195.406 384.891 185.435C384.891 176.38 419.934 154.656 419.883 152.927Z" fill="#D88344"/>
<path d="M349.185 155.216L340.832 173.022L351.019 177.143L349.185 155.216Z" fill="#D88344"/>
<path d="M349.033 149.315C343.939 183.553 335.586 217.689 377.148 212.042C418.711 206.395 425.129 153.283 425.027 143.21C424.365 89.6906 358.812 82.0595 349.033 149.315Z" fill="#FFAD69"/>
<path d="M430.07 111.872C432.216 110.764 434.08 109.18 435.52 107.242L433.38 105.818C432.081 107.559 430.315 108.899 428.287 109.684C428.315 109.328 428.315 108.971 428.287 108.616C428.287 94.778 363.804 98.7461 353.158 111.108C346.842 118.434 353.566 120.367 364.466 120.011C363.656 120.634 363.053 121.484 362.734 122.453C355.552 157.607 389.475 192.201 393.295 195.152H421.003C421.003 195.152 450.036 124.794 430.07 111.872Z" fill="#232323"/>
<path d="M515.64 398.19C511.973 381.859 492.872 311.195 477.694 277.313L438.932 285.555C438.932 285.555 463.941 369.09 477.235 400.275C474.128 417.064 458.44 495.155 448.763 516.98C444.484 527.155 460.682 531.072 464.603 526.188C468.525 521.304 513.042 431.97 515.538 404.091C515.538 403.48 515.538 402.972 515.538 402.412C515.792 401.018 515.827 399.594 515.64 398.19Z" fill="#FFAD69"/>
<path d="M457.422 242.872C477.796 258.795 509.324 326.508 509.324 326.508L442.6 343.805C442.6 343.805 403.787 200.952 457.422 242.872Z" fill="#E5AA33"/>
<path d="M489.409 508.942C478.533 518.521 466.764 527.038 454.264 534.379C410.205 560.986 355.603 577.113 298.76 590.34C298.709 589.68 298.709 589.016 298.76 588.356C300.594 556.865 303.853 520.897 308.947 498.055L454.671 500.955L489.103 501.667C489.103 503.397 489.409 505.839 489.409 508.942Z" fill="#232323"/>
<path d="M408.626 226.643C448.61 227.966 462.159 241.447 469.035 264.798C476.879 291.253 490.682 451.251 490.682 504.668C490.682 504.668 370.934 513.164 304.617 502.277C325.399 432.122 327.64 306.006 328.098 268.258C328.404 240.226 357.895 224.964 408.626 226.643Z" fill="#FFC84D"/>
<path fill-rule="evenodd" clip-rule="evenodd" d="M413.567 254.115C414.283 255.082 415.419 255.649 416.623 255.641L417.234 255.438C418.601 255.265 419.768 254.371 420.29 253.097L426.097 238.649C426.484 237.488 426.298 236.212 425.596 235.209C424.893 234.207 423.756 233.596 422.531 233.562H405.876C404.429 233.562 403.106 234.378 402.459 235.671C401.812 236.964 401.951 238.51 402.82 239.667L413.567 254.115ZM404.602 236.818C404.821 236.373 405.278 236.095 405.774 236.105H422.379C422.807 236.101 423.208 236.311 423.448 236.665C423.678 237.04 423.678 237.511 423.448 237.886L417.642 252.283C417.488 252.728 417.091 253.045 416.623 253.097C416.169 253.15 415.722 252.956 415.451 252.589L404.602 238.14C404.343 237.738 404.343 237.22 404.602 236.818Z" fill="white"/>
<path d="M327.946 277.568C327.64 296.035 326.927 325.491 324.94 358.406C341.902 338.057 358.557 313.993 359.525 295.933C360.9 271.107 346.791 269.58 327.946 277.568Z" fill="#E5AA33"/>
<path d="M350.51 286.165L330.136 252.334C330.136 252.334 274.108 292.677 244.005 317.656C229.132 291.507 203.716 244.144 198.164 226.083C201.235 220.52 203.417 214.513 204.633 208.277C204.663 208.161 204.663 208.038 204.633 207.921C204.633 207.921 204.633 207.464 204.633 207.26C204.655 206.955 204.655 206.649 204.633 206.344C204.633 205.632 204.633 205.072 204.633 204.615C204.633 196.424 201.22 191.387 202.697 181.009C203.716 173.734 195.413 176.227 193.784 181.009L193.121 185.283C191.033 180.195 178.452 150.332 173.664 149.671C168.876 149.009 171.882 157.048 174.836 164.933C176.109 168.443 177.077 171.19 177.892 173.632C170.863 175.26 164.649 187.267 163.681 192.303C162.713 197.34 175.447 225.422 178.962 230.509C179.234 230.849 179.561 231.142 179.929 231.374C182.527 246.331 205.397 334.038 221.085 354.998C230.966 367.97 243.598 366.953 250.983 360.085C269.116 348.537 324.839 310.28 350.51 286.165Z" fill="#FFAD69"/>
<path d="M384.891 252.334C382.853 289.676 313.582 353.726 313.582 353.726L274.973 290.642C274.973 290.642 388.66 184.418 384.891 252.334Z" fill="#FFC84D"/>
<path d="M363.498 159.896C361.97 168.85 359.729 177.753 368.133 177.092C376.537 176.43 378.677 162.491 378.829 159.846C379.542 145.601 366.503 142.192 363.498 159.896Z" fill="#FFAD69"/>
</svg>
