<svg width="140" height="140" viewBox="0 0 140 140" fill="none" xmlns="http://www.w3.org/2000/svg">
<path d="M62.7084 79.6667V29.7084C62.7084 28.6038 63.6038 27.7084 64.7084 27.7084H132.167C133.271 27.7084 134.167 28.6038 134.167 29.7084V79.6667C134.167 80.7713 133.271 81.6667 132.167 81.6667H64.7084C63.6038 81.6667 62.7084 80.7713 62.7084 79.6667Z" fill="white" stroke="#000577"/>
<path d="M70.7291 40.8333C70.7291 39.2225 72.035 37.9166 73.6458 37.9166H76.5625C78.1733 37.9166 79.4791 39.2225 79.4791 40.8333V72.9166C79.4791 74.5275 78.1733 75.8333 76.5625 75.8333H73.6458C72.035 75.8333 70.7291 74.5275 70.7291 72.9166V40.8333Z" fill="#F4BE02"/>
<path d="M82.3958 36.4583C82.3958 34.8475 83.7016 33.5416 85.3125 33.5416H88.2291C89.84 33.5416 91.1458 34.8475 91.1458 36.4583V72.9166C91.1458 74.5275 89.84 75.8333 88.2291 75.8333H85.3125C83.7016 75.8333 82.3958 74.5275 82.3958 72.9166V36.4583Z" fill="#F4BE02"/>
<path d="M94.0625 51.7708C94.0625 50.16 95.3683 48.8541 96.9791 48.8541H99.8958C101.507 48.8541 102.812 50.16 102.812 51.7708V72.9166C102.812 74.5275 101.507 75.8333 99.8958 75.8333H96.9791C95.3683 75.8333 94.0625 74.5275 94.0625 72.9166V51.7708Z" fill="#F4BE02"/>
<path d="M105.729 45.2083C105.729 43.5975 107.035 42.2916 108.646 42.2916H111.562C113.173 42.2916 114.479 43.5975 114.479 45.2083V72.9166C114.479 74.5275 113.173 75.8333 111.562 75.8333H108.646C107.035 75.8333 105.729 74.5275 105.729 72.9166V45.2083Z" fill="#F4BE02"/>
<path d="M117.396 48.8541C117.396 47.2433 118.702 45.9375 120.312 45.9375H123.229C124.84 45.9375 126.146 47.2433 126.146 48.8541V72.9166C126.146 74.5275 124.84 75.8333 123.229 75.8333H120.312C118.702 75.8333 117.396 74.5275 117.396 72.9166V48.8541Z" fill="#F4BE02"/>
<path d="M10.2082 56.6875C10.2082 55.5829 11.1036 54.6875 12.2082 54.6875H127.641C128.745 54.6875 129.641 55.5829 129.641 56.6875V134.228H10.2082V56.6875Z" fill="white"/>
<path d="M10.2082 134.228H129.641H138.695C138.971 134.228 139.195 134.452 139.195 134.728V137.271C139.195 138.375 138.3 139.271 137.195 139.271H2.65357C1.549 139.271 0.653564 138.375 0.653564 137.271V134.728C0.653564 134.452 0.877422 134.228 1.15356 134.228H10.2082Z" fill="white"/>
<path d="M129.641 134.228V56.6875C129.641 55.5829 128.745 54.6875 127.641 54.6875H12.2082C11.1036 54.6875 10.2082 55.5829 10.2082 56.6875V134.228M129.641 134.228H10.2082M129.641 134.228H138.695C138.971 134.228 139.195 134.452 139.195 134.728V137.271C139.195 138.375 138.3 139.271 137.195 139.271H2.65357C1.549 139.271 0.653564 138.375 0.653564 137.271V134.728C0.653564 134.452 0.877422 134.228 1.15356 134.228H10.2082" stroke="#000577"/>
<rect x="115.708" y="77.7916" width="3.375" height="42.75" rx="1.5" stroke="#000577" stroke-linejoin="round"/>
<rect x="116.667" y="107.917" width="1.45833" height="11.6667" rx="0.729167" fill="#F4BE02"/>
<rect x="115.708" y="69.0416" width="3.375" height="3.375" rx="1.5" stroke="#000577" stroke-linejoin="round"/>
<rect x="115.708" y="125.917" width="3.375" height="3.375" rx="1.5" fill="white" stroke="#000577" stroke-linejoin="round"/>
<path d="M10.2082 134.229H129.641H138.695C138.971 134.229 139.195 134.452 139.195 134.729V137.271C139.195 138.376 138.3 139.271 137.195 139.271H2.65357C1.549 139.271 0.653564 138.376 0.653564 137.271V134.729C0.653564 134.452 0.877422 134.229 1.15356 134.229H10.2082Z" fill="white" stroke="#000577"/>
<path d="M83.3358 101.219C83.8992 101.332 84.4436 100.948 84.4956 100.376C84.5536 99.7375 84.5833 99.0909 84.5833 98.4375C84.5833 98.0347 84.2329 97.7264 83.8317 97.7629L73.8217 98.6723C73.6627 98.6867 73.5403 98.8188 73.5319 98.9782C73.5234 99.1374 73.6312 99.2798 73.7875 99.3111L83.3358 101.219Z" fill="#F4BE02"/>
<path d="M68.7748 88.822C68.482 89.2365 67.9271 89.3607 67.4619 89.1582C66.2242 88.6194 64.8577 88.3206 63.4214 88.3206C58.5341 88.3206 54.4556 91.7806 53.5056 96.3831C53.4029 96.8804 52.9811 97.2627 52.4733 97.2627H43.3479C42.7741 97.2627 42.3158 96.7803 42.3756 96.2097C43.4896 85.5782 52.487 77.2916 63.4214 77.2916C67.1673 77.2916 70.6859 78.264 73.7381 79.9702C74.2392 80.2503 74.3688 80.9032 74.0376 81.372L68.7748 88.822Z" fill="#F4BE02"/>
<path d="M83.3358 101.219C83.8992 101.332 84.4436 100.948 84.4956 100.376C84.5536 99.7375 84.5833 99.0909 84.5833 98.4375C84.5833 98.0347 84.2329 97.7264 83.8317 97.7629L73.8217 98.6723C73.6627 98.6867 73.5403 98.8188 73.5319 98.9782C73.5234 99.1374 73.6312 99.2798 73.7875 99.3111L83.3358 101.219Z" stroke="#A8ABFF" stroke-linecap="round" stroke-linejoin="round"/>
<path d="M68.7748 88.822C68.482 89.2365 67.9271 89.3607 67.4619 89.1582C66.2242 88.6194 64.8577 88.3206 63.4214 88.3206C58.5341 88.3206 54.4556 91.7806 53.5056 96.3831C53.4029 96.8804 52.9811 97.2627 52.4733 97.2627H43.3479C42.7741 97.2627 42.3158 96.7803 42.3756 96.2097C43.4896 85.5782 52.487 77.2916 63.4214 77.2916C67.1673 77.2916 70.6859 78.264 73.7381 79.9702C74.2392 80.2503 74.3688 80.9032 74.0376 81.372L68.7748 88.822Z" stroke="#A8ABFF" stroke-linecap="round" stroke-linejoin="round"/>
<path d="M123.958 134.167V134.667C124.234 134.667 124.458 134.443 124.458 134.167H123.958ZM16.0415 134.167H15.5415C15.5415 134.443 15.7654 134.667 16.0415 134.667V134.167ZM84.0821 93.8413L83.5939 93.9495L84.0821 93.8413ZM82.8265 95.495L82.7813 94.997L82.8265 95.495ZM75.6778 83.1245L76.0862 83.413L75.6778 83.1245ZM77.7394 82.8662L77.4012 83.2345L77.7394 82.8662ZM71.0901 91.8315L70.7116 92.1583L71.0901 91.8315ZM70.9303 89.8451L70.5219 89.5567L70.9303 89.8451ZM72.9848 95.1068L73.4569 94.9421L72.9848 95.1068ZM74.6256 96.24L74.6709 96.7379L74.6256 96.24ZM53.5964 100.89L54.0815 100.769L53.5964 100.89ZM42.4318 101.147L41.9358 101.211L42.4318 101.147ZM72.5754 102.766L72.1237 102.551L72.5754 102.766ZM74.327 101.815L74.229 102.305L74.327 101.815ZM83.4754 105.208L83.949 105.368L83.4754 105.208ZM82.4037 103.429L82.5017 102.939L82.4037 103.429ZM57.9798 84.9369C58.1751 85.1321 58.4917 85.1321 58.6869 84.9369C58.8822 84.7416 58.8822 84.425 58.6869 84.2298L57.9798 84.9369ZM50.8648 77.1147L51.2183 76.7612L50.8648 77.1147ZM33.5417 75.3333C33.2656 75.3333 33.0417 75.5572 33.0417 75.8333C33.0417 76.1095 33.2656 76.3333 33.5417 76.3333V75.3333ZM80.5619 98.8131C80.3667 98.6178 80.0501 98.6178 79.8548 98.8131C79.6596 99.0084 79.6596 99.325 79.8548 99.5202L80.5619 98.8131ZM89.8645 108.823L89.5109 109.176H89.5109L89.8645 108.823ZM105 110.604C105.276 110.604 105.5 110.38 105.5 110.104C105.5 109.828 105.276 109.604 105 109.604V110.604ZM17.4999 60.2917H122.5V59.2917H17.4999V60.2917ZM123.458 61.25V134.167H124.458V61.25H123.458ZM123.958 133.667H16.0415V134.667H123.958V133.667ZM16.5415 134.167V61.25H15.5415V134.167H16.5415ZM122.5 60.2917C123.029 60.2917 123.458 60.7207 123.458 61.25H124.458C124.458 60.1684 123.581 59.2917 122.5 59.2917V60.2917ZM17.4999 59.2917C16.4183 59.2917 15.5415 60.1684 15.5415 61.25H16.5415C16.5415 60.7207 16.9706 60.2917 17.4999 60.2917V59.2917ZM13.1248 55.1875H126.724V54.1875H13.1248V55.1875ZM129.141 57.6042V134.228H130.141V57.6042H129.141ZM129.641 133.728H10.2082V134.728H129.641V133.728ZM10.7082 134.228V57.6042H9.70816V134.228H10.7082ZM129.641 134.728H138.466V133.728H129.641V134.728ZM138.695 134.957V136.354H139.695V134.957H138.695ZM136.279 138.771H3.57023V139.771H136.279V138.771ZM1.15356 136.354V134.957H0.153564V136.354H1.15356ZM1.38273 134.728H10.2082V133.728H1.38273V134.728ZM1.15356 134.957C1.15356 134.831 1.25617 134.728 1.38273 134.728V133.728C0.703881 133.728 0.153564 134.279 0.153564 134.957H1.15356ZM138.466 134.728C138.593 134.728 138.695 134.831 138.695 134.957H139.695C139.695 134.279 139.145 133.728 138.466 133.728V134.728ZM138.695 136.354C138.695 137.689 137.613 138.771 136.279 138.771V139.771C138.166 139.771 139.695 138.241 139.695 136.354H138.695ZM126.724 55.1875C128.059 55.1875 129.141 56.2695 129.141 57.6042H130.141C130.141 55.7172 128.611 54.1875 126.724 54.1875V55.1875ZM3.57023 138.771C2.23555 138.771 1.15356 137.689 1.15356 136.354H0.153564C0.153564 138.241 1.68326 139.771 3.57023 139.771V138.771ZM13.1248 54.1875C11.2379 54.1875 9.70816 55.7172 9.70816 57.6042H10.7082C10.7082 56.2695 11.7901 55.1875 13.1248 55.1875V54.1875ZM83.0017 105.048C80.2433 113.209 72.5184 119.083 63.4215 119.083V120.083C72.9598 120.083 81.0573 113.923 83.949 105.368L83.0017 105.048ZM63.4215 119.083C52.9074 119.083 44.2274 111.236 42.9277 101.084L41.9358 101.211C43.2986 111.856 52.3983 120.083 63.4215 120.083V119.083ZM43.8322 100.112H52.065V99.1122H43.8322V100.112ZM53.1112 101.011C54.2625 105.631 58.4415 109.054 63.4215 109.054V108.054C58.911 108.054 55.1243 104.954 54.0815 100.769L53.1112 101.011ZM63.4215 109.054C67.6635 109.054 71.3241 106.57 73.0272 102.98L72.1237 102.551C70.58 105.806 67.2632 108.054 63.4215 108.054V109.054ZM74.229 102.305L82.3057 103.919L82.5017 102.939L74.425 101.325L74.229 102.305ZM73.4569 94.9421C73.0125 93.6679 72.3321 92.5047 71.4685 91.5047L70.7116 92.1583C71.4945 93.0648 72.1105 94.1183 72.5127 95.2715L73.4569 94.9421ZM71.3387 90.1336L76.0862 83.413L75.2695 82.836L70.5219 89.5567L71.3387 90.1336ZM77.4012 83.2345C80.4573 86.0418 82.6639 89.7564 83.5939 93.9495L84.5702 93.733C83.5946 89.3343 81.2803 85.4399 78.0777 82.498L77.4012 83.2345ZM82.7813 94.997L74.5804 95.742L74.6709 96.7379L82.8717 95.9929L82.7813 94.997ZM83.5939 93.9495C83.7044 94.4476 83.3398 94.9463 82.7813 94.997L82.8717 95.9929C83.9796 95.8923 84.8221 94.8685 84.5702 93.733L83.5939 93.9495ZM76.0862 83.413C76.4099 82.9547 77.0249 82.8888 77.4012 83.2345L78.0777 82.498C77.2208 81.7109 75.9118 81.9266 75.2695 82.836L76.0862 83.413ZM71.4685 91.5047C71.1095 91.089 71.0654 90.5205 71.3387 90.1336L70.5219 89.5567C69.9412 90.3788 70.1032 91.4537 70.7116 92.1583L71.4685 91.5047ZM72.5127 95.2715C72.8191 96.1499 73.6679 96.829 74.6709 96.7379L74.5804 95.742C74.1086 95.7849 73.6382 95.4618 73.4569 94.9421L72.5127 95.2715ZM52.065 100.112C52.5387 100.112 52.9781 100.477 53.1112 101.011L54.0815 100.769C53.8565 99.8662 53.0725 99.1122 52.065 99.1122V100.112ZM42.9277 101.084C42.8628 100.577 43.2719 100.112 43.8322 100.112V99.1122C42.7188 99.1122 41.7882 100.058 41.9358 101.211L42.9277 101.084ZM73.0272 102.98C73.2629 102.483 73.7648 102.212 74.229 102.305L74.425 101.325C73.4382 101.127 72.5222 101.711 72.1237 102.551L73.0272 102.98ZM83.949 105.368C84.3216 104.266 83.5932 103.157 82.5017 102.939L82.3057 103.919C82.8557 104.029 83.1652 104.565 83.0017 105.048L83.949 105.368ZM58.6869 84.2298L51.2183 76.7612L50.5112 77.4683L57.9798 84.9369L58.6869 84.2298ZM47.7712 75.3333H33.5417V76.3333H47.7712V75.3333ZM79.8548 99.5202L89.5109 109.176L90.218 108.469L80.5619 98.8131L79.8548 99.5202ZM92.9581 110.604H105V109.604H92.9581V110.604ZM89.5109 109.176C90.4252 110.091 91.6651 110.604 92.9581 110.604V109.604C91.9304 109.604 90.9447 109.196 90.218 108.469L89.5109 109.176ZM51.2183 76.7612C50.3041 75.8469 49.0641 75.3333 47.7712 75.3333V76.3333C48.7989 76.3333 49.7845 76.7416 50.5112 77.4683L51.2183 76.7612Z" fill="black"/>
<path d="M102.812 84.5834H86.5551C85.7595 84.5834 84.9964 84.8994 84.4338 85.4621L78.0208 91.875M56.875 112.292L47.5453 121.621C46.9827 122.184 46.2197 122.5 45.424 122.5H26.25" stroke="#F4BE02" stroke-linecap="round" stroke-linejoin="round"/>
<path d="M0.029508 40.4327V1.85897C0.029508 0.832291 1.34853 0 2.97563 0H70C71.6271 0 72.9462 0.832291 72.9462 1.85897V40.4327C72.9462 41.4594 71.6271 42.2917 70 42.2917H2.97564C1.34853 42.2917 0.029508 41.4594 0.029508 40.4327Z" fill="#F4BE02"/>
<path fill-rule="evenodd" clip-rule="evenodd" d="M-3.8147e-05 30.2657V28.4187L3.45331 25.7346C3.92706 25.3209 4.58024 25.1664 5.14799 25.1704C5.72357 25.1746 6.38734 25.3432 6.85291 25.7838L7.40704 26.3083C7.5166 26.412 7.77177 26.5201 8.11997 26.5226C8.46706 26.5251 8.73088 26.4212 8.85006 26.3137L11.4497 23.9704C11.9412 23.5274 12.6327 23.372 13.2245 23.3874C13.8118 23.4028 14.5 23.5923 14.9525 24.0817L17.2463 26.563C17.3616 26.6877 17.6778 26.817 18.1012 26.7856C18.5487 26.7524 18.7191 26.5782 18.7358 26.5435L24.253 15.0551C24.5936 14.3459 25.3894 14.0619 26.0058 13.9979C26.65 13.931 27.4434 14.0606 28.0015 14.5536L28.5219 15.0133C28.6564 15.1322 28.9499 15.2361 29.317 15.2179C29.6939 15.1993 29.9177 15.0659 29.9839 14.9824L33.0379 11.1283C33.6049 10.4127 34.6005 10.2697 35.3199 10.3637C35.7038 10.4138 36.1032 10.5395 36.4333 10.7652C36.7681 10.9941 37.0786 11.3647 37.1241 11.8814L37.956 21.33C37.9636 21.3401 37.982 21.3593 38.0221 21.3861C38.1211 21.4524 38.2925 21.5179 38.5155 21.5443C38.7347 21.5703 38.9567 21.5526 39.1369 21.4986C39.3203 21.4436 39.4123 21.367 39.4509 21.3133L43.3865 15.85C43.782 15.301 44.4649 15.0675 45.0419 15.0148C45.6347 14.9606 46.3287 15.0746 46.8615 15.4626L53.2394 20.106C53.4227 20.2395 53.7582 20.3203 54.1198 20.2749C54.5077 20.2263 54.6579 20.0746 54.6761 20.0401L57.3253 15.0252C57.6907 14.3335 58.4888 14.0644 59.1106 14.0119C59.7556 13.9574 60.5514 14.1006 61.0944 14.6146L62.6017 16.0412C62.6948 16.1293 62.8971 16.2253 63.1903 16.2498C63.4706 16.2733 63.7367 16.2221 63.9146 16.1327L63.9194 16.1261C63.9347 16.1038 63.9566 16.0614 63.979 15.9923L65.7106 10.638C66.1932 9.14576 68.0431 8.63125 69.2269 9.66003L72.9166 12.8667V14.7988L68.2703 10.7608C67.8757 10.4178 67.259 10.5893 67.0982 11.0868L65.3666 16.441C65.2711 16.7364 65.0674 17.1745 64.6063 17.4168C64.138 17.663 63.5778 17.7457 63.0687 17.7031C62.5655 17.661 62.0076 17.4868 61.5992 17.1003L60.092 15.6737C59.9551 15.5441 59.6331 15.4313 59.2334 15.465C58.8105 15.5008 58.6371 15.6643 58.6148 15.7064L55.9656 20.7213C55.6228 21.3701 54.8915 21.6479 54.3012 21.7219C53.6846 21.7993 52.9452 21.6958 52.381 21.285L46.0032 16.6415C45.833 16.5176 45.522 16.4353 45.1745 16.467C44.8113 16.5002 44.6186 16.6347 44.5698 16.7024L40.6342 22.1657C40.3543 22.5543 39.9462 22.7784 39.5559 22.8954C39.1625 23.0134 38.7374 23.0391 38.344 22.9925C37.9544 22.9464 37.5476 22.8234 37.2109 22.5981C36.8695 22.3695 36.5506 21.9957 36.5044 21.4704L35.6725 12.0226C35.6651 12.0129 35.6475 11.9945 35.6101 11.9689C35.515 11.9039 35.3493 11.8382 35.131 11.8097C34.646 11.7464 34.2893 11.8972 34.1809 12.0341L31.1269 15.8881C30.6966 16.4311 29.985 16.645 29.3891 16.6745C28.7835 16.7045 28.0671 16.5574 27.5564 16.1063L27.036 15.6466C26.8835 15.5119 26.5499 15.4076 26.1563 15.4485C25.7347 15.4922 25.5816 15.6574 25.5676 15.6865L20.0504 27.1748C19.694 27.9169 18.8473 28.1926 18.209 28.2399C17.5467 28.289 16.7083 28.1293 16.1755 27.5529L13.8816 25.0717C13.7925 24.9753 13.5494 24.8547 13.1865 24.8453C12.8282 24.8359 12.5509 24.9411 12.4261 25.0536L9.82648 27.3969C9.35107 27.8255 8.68622 27.985 8.10952 27.9809C7.53393 27.9768 6.87016 27.8081 6.40458 27.3675L5.85045 26.843C5.74089 26.7393 5.48573 26.6312 5.13753 26.6287C4.79044 26.6262 4.52662 26.7302 4.40745 26.8376L4.3877 26.8554L-3.8147e-05 30.2657ZM35.6746 12.0255C35.6759 12.0291 35.6773 12.0308 35.6773 12.0308L35.6761 12.0278L35.6746 12.0255Z" fill="#000577"/>
</svg>
