<svg width="270" height="222" viewBox="0 0 270 222" fill="none" xmlns="http://www.w3.org/2000/svg">
<rect x="0.256836" y="-0.000244141" width="269.074" height="221.838" rx="4" fill="#FFFCEB"/>
<path d="M124.332 116.709C124.332 111.371 122.889 108.631 120.003 108.481C118.855 108.424 117.733 108.617 116.642 109.063C115.772 109.392 115.186 109.717 114.878 110.046V122.786C116.724 124.007 118.363 124.575 119.793 124.486C122.818 124.275 124.332 121.685 124.332 116.709ZM127.893 116.93C127.893 119.642 127.29 121.892 126.077 123.682C124.725 125.708 122.852 126.751 120.457 126.808C118.651 126.869 116.792 126.272 114.878 125.022V136.601L111.781 135.436V109.735C112.289 109.078 112.943 108.513 113.736 108.034C115.579 106.902 117.818 106.32 120.454 106.291L120.498 106.337C122.906 106.305 124.763 107.348 126.067 109.463C127.283 111.403 127.893 113.89 127.893 116.93Z" fill="#646464"/>
<path d="M146.816 124.529C146.816 128.166 146.47 130.684 145.779 132.085C145.085 133.485 143.763 134.604 141.812 135.436C140.23 136.093 138.519 136.451 136.683 136.511L136.172 134.454C138.038 134.186 139.353 133.918 140.115 133.65C141.616 133.114 142.646 132.292 143.211 131.192C143.665 130.295 143.889 128.584 143.889 126.051V125.201C141.771 126.215 139.553 126.719 137.232 126.719C135.708 126.719 134.363 126.215 133.204 125.201C131.903 124.097 131.253 122.696 131.253 120.999V107.409L134.349 106.291V119.97C134.349 121.432 134.796 122.557 135.691 123.346C136.585 124.136 137.744 124.515 139.163 124.486C140.582 124.454 142.103 123.875 143.719 122.743V106.784H146.816V124.529Z" fill="#646464"/>
<path d="M158.903 126.63C158.533 126.662 158.195 126.676 157.883 126.676C156.131 126.676 154.766 126.237 153.791 125.354C152.818 124.472 152.331 123.254 152.331 121.7V108.838H150.21V106.784H152.331V101.329L155.423 100.168V106.784H158.903V108.838H155.423V121.61C155.423 122.836 155.735 123.704 156.358 124.211C156.894 124.629 157.744 124.868 158.903 124.929V126.63Z" fill="#646464"/>
<path d="M177.649 126.362H174.553V113.758C174.553 112.475 174.269 111.371 173.703 110.449C173.049 109.406 172.141 108.885 170.976 108.885C169.556 108.885 167.781 109.674 165.65 111.253V126.362H162.554V96.2342L165.65 95.2053V108.928C167.629 107.409 169.79 106.648 172.138 106.648C173.777 106.648 175.105 107.231 176.122 108.392C177.141 109.553 177.649 111 177.649 112.729V126.362Z" fill="#646464"/>
<path d="M194.107 116.194C194.107 114.144 193.737 112.45 193.002 111.11C192.128 109.478 190.77 108.617 188.934 108.527C185.539 108.735 183.845 111.3 183.845 116.216C183.845 118.47 184.198 120.353 184.909 121.864C185.817 123.789 187.179 124.74 188.995 124.708C192.403 124.679 194.107 121.842 194.107 116.194ZM197.498 116.216C197.498 119.134 196.79 121.564 195.377 123.504C193.822 125.676 191.674 126.765 188.934 126.765C186.217 126.765 184.1 125.676 182.572 123.504C181.186 121.564 180.495 119.134 180.495 116.216C180.495 113.472 181.244 111.164 182.741 109.285C184.323 107.291 186.403 106.291 188.974 106.291C191.545 106.291 193.639 107.291 195.252 109.285C196.749 111.164 197.498 113.472 197.498 116.216Z" fill="#646464"/>
<path d="M215.249 126.362H212.152V113.043C212.152 111.582 211.736 110.442 210.902 109.621C210.069 108.803 208.958 108.406 207.572 108.438C206.102 108.467 204.703 108.974 203.375 109.956V126.362H200.279V109.553C202.061 108.184 203.7 107.291 205.198 106.873C206.61 106.484 207.857 106.291 208.931 106.291C209.666 106.291 210.357 106.366 211.007 106.516C212.224 106.813 213.213 107.363 213.975 108.17C214.825 109.063 215.249 110.135 215.249 111.389V126.362Z" fill="#646464"/>
<path d="M81.1999 96.3548C79.6068 96.3626 78.0855 96.5059 76.7469 96.7557C72.8035 97.4904 72.0875 99.0282 72.0875 101.864V105.61H81.4062V106.858H72.0875H68.5903C65.882 106.858 63.5106 108.575 62.7688 111.841C61.9132 115.584 61.8752 117.92 62.7688 121.828C63.4312 124.738 65.0131 126.811 67.7214 126.811H70.9254V122.321C70.9254 119.077 73.5866 116.216 76.7469 116.216H86.0547C88.6457 116.216 90.7141 113.966 90.7141 111.222V101.864C90.7141 99.2009 88.5836 97.2002 86.0547 96.7557C84.4539 96.4747 82.7929 96.347 81.1999 96.3548ZM76.1604 99.3672C77.1229 99.3672 77.909 100.21 77.909 101.246C77.909 102.278 77.1229 103.113 76.1604 103.113C75.1944 103.113 74.4118 102.278 74.4118 101.246C74.4118 100.21 75.1944 99.3672 76.1604 99.3672Z" fill="url(#paint0_linear)"/>
<path d="M91.8761 106.858V111.222C91.8761 114.605 89.1562 117.453 86.0546 117.453H76.7468C74.1972 117.453 72.0874 119.754 72.0874 122.447V131.805C72.0874 134.468 74.2834 136.035 76.7468 136.799C79.6965 137.713 82.5252 137.879 86.0546 136.799C88.4006 136.082 90.714 134.641 90.714 131.805V128.059H81.4061V126.811H90.714H95.3733C98.0816 126.811 99.0908 124.819 100.033 121.828C101.006 118.75 100.964 115.79 100.033 111.841C99.3634 108.997 98.085 106.858 95.3733 106.858H91.8761ZM86.6411 130.556C87.6071 130.556 88.3897 131.391 88.3897 132.423C88.3897 133.459 87.6071 134.302 86.6411 134.302C85.6785 134.302 84.8925 133.459 84.8925 132.423C84.8925 131.391 85.6785 130.556 86.6411 130.556Z" fill="url(#paint1_linear)"/>
<path d="M221.278 103.873H221.821V100.282H223.107V99.8542H219.992V100.282H221.278V103.873ZM223.588 103.873H224.052V100.593L225.059 103.872H225.575L226.624 100.605V103.873H227.13V99.8542H226.461L225.314 103.297L224.337 99.8542H223.588V103.873Z" fill="#646464"/>
<path opacity="0.44382" d="M94.0001 143.16C94.0001 143.495 93.6771 143.828 93.0495 144.137C92.4219 144.447 91.5021 144.729 90.3425 144.966C89.1829 145.203 87.8062 145.391 86.2911 145.519C84.776 145.648 83.1522 145.714 81.5122 145.714C79.8723 145.714 78.2485 145.648 76.7334 145.519C75.2183 145.391 73.8416 145.203 72.682 144.966C71.5224 144.729 70.6026 144.447 69.975 144.137C69.3474 143.828 69.0244 143.495 69.0244 143.16C69.0244 142.825 69.3474 142.493 69.975 142.183C70.6026 141.873 71.5224 141.592 72.682 141.354C73.8416 141.117 75.2183 140.929 76.7334 140.801C78.2485 140.672 79.8723 140.606 81.5122 140.606C83.1522 140.606 84.776 140.672 86.2911 140.801C87.8062 140.929 89.1829 141.117 90.3425 141.354C91.5021 141.592 92.4219 141.873 93.0495 142.183C93.6771 142.493 94.0001 142.825 94.0001 143.16Z" fill="url(#paint2_radial)"/>
<defs>
<linearGradient id="paint0_linear" x1="62.1128" y1="96.3545" x2="84.5528" y2="114.487" gradientUnits="userSpaceOnUse">
<stop stop-color="#5A9FD4"/>
<stop offset="1" stop-color="#306998"/>
</linearGradient>
<linearGradient id="paint1_linear" x1="86.4172" y1="132.108" x2="78.1561" y2="121.131" gradientUnits="userSpaceOnUse">
<stop stop-color="#FFD43B"/>
<stop offset="1" stop-color="#FFE873"/>
</linearGradient>
<radialGradient id="paint2_radial" cx="0" cy="0" r="1" gradientUnits="userSpaceOnUse" gradientTransform="translate(81.5122 143.16) rotate(-90) scale(2.55369 10.6435)">
<stop stop-color="#B8B8B8" stop-opacity="0.498039"/>
<stop offset="1" stop-color="#7F7F7F" stop-opacity="0"/>
</radialGradient>
</defs>
</svg>
