<svg width="120" height="120" viewBox="0 0 120 120" fill="none" xmlns="http://www.w3.org/2000/svg">
<path fill-rule="evenodd" clip-rule="evenodd" d="M41.25 41.25C39.8693 41.25 38.75 42.3693 38.75 43.75V81.25C38.75 82.6307 39.8693 83.75 41.25 83.75H78.75C80.1307 83.75 81.25 82.6307 81.25 81.25V43.75C81.25 42.3693 80.1307 41.25 78.75 41.25H41.25ZM46.25 46.25C44.8693 46.25 43.75 47.3693 43.75 48.75V76.25C43.75 77.6307 44.8693 78.75 46.25 78.75H73.75C75.1307 78.75 76.25 77.6307 76.25 76.25V48.75C76.25 47.3693 75.1307 46.25 73.75 46.25H46.25Z" fill="#F4BE02"/>
<path d="M41.25 83.25C40.9739 83.25 40.75 83.4738 40.75 83.75C40.75 84.0261 40.9739 84.25 41.25 84.25V83.25ZM79.375 84.25C79.6511 84.25 79.875 84.0261 79.875 83.75C79.875 83.4738 79.6511 83.25 79.375 83.25V84.25ZM41.25 40.75C40.9739 40.75 40.75 40.9739 40.75 41.25C40.75 41.5261 40.9739 41.75 41.25 41.75V40.75ZM79.375 41.75C79.6511 41.75 79.875 41.5261 79.875 41.25C79.875 40.9739 79.6511 40.75 79.375 40.75V41.75ZM51.75 56.25C51.75 55.1454 52.6454 54.25 53.75 54.25V53.25C52.0931 53.25 50.75 54.5931 50.75 56.25H51.75ZM53.75 54.25H66.25V53.25H53.75V54.25ZM66.25 54.25C67.3546 54.25 68.25 55.1454 68.25 56.25H69.25C69.25 54.5931 67.9068 53.25 66.25 53.25V54.25ZM68.25 56.25V68.75H69.25V56.25H68.25ZM68.25 68.75C68.25 69.8546 67.3546 70.75 66.25 70.75V71.75C67.9068 71.75 69.25 70.4068 69.25 68.75H68.25ZM66.25 70.75H53.75V71.75H66.25V70.75ZM53.75 70.75C52.6454 70.75 51.75 69.8546 51.75 68.75H50.75C50.75 70.4068 52.0931 71.75 53.75 71.75V70.75ZM51.75 68.75V56.25H50.75V68.75H51.75ZM52.375 41.25V33.75H51.375V41.25H52.375ZM54.375 31.75H55.625V30.75H54.375V31.75ZM58.625 28.75V11.25H57.625V28.75H58.625ZM55.625 8.25H25.625V9.25H55.625V8.25ZM68.625 41.25V39.375H67.625V41.25H68.625ZM70.625 37.375H76.875V36.375H70.625V37.375ZM79.875 34.375V19.375H78.875V34.375H79.875ZM81.875 17.375H95.625V16.375H81.875V17.375ZM51.375 83.75V101.875H52.375V83.75H51.375ZM54.375 104.875H59.375V103.875H54.375V104.875ZM61.375 106.875V112.5H62.375V106.875H61.375ZM59.375 114.5H28.125V115.5H59.375V114.5ZM26.125 112.5V104.375H25.125V112.5H26.125ZM23.125 101.375H10.625V102.375H23.125V101.375ZM67.625 83.75V90.625H68.625V83.75H67.625ZM70.625 93.625H79.375V92.625H70.625V93.625ZM81.375 95.625V101.875H82.375V95.625H81.375ZM84.375 104.875H99.375V103.875H84.375V104.875ZM81.25 71.125H86.875V70.125H81.25V71.125ZM88.875 73.125V78.125H89.875V73.125H88.875ZM91.875 81.125H106.875V80.125H91.875V81.125ZM108.875 83.125V115H109.875V83.125H108.875ZM81.25 54.875H95.625V53.875H81.25V54.875ZM98.625 51.875V41.875H97.625V51.875H98.625ZM100.625 39.875H116.25V38.875H100.625V39.875ZM38.75 53.875H29.375V54.875H38.75V53.875ZM27.375 51.875V49.375H26.375V51.875H27.375ZM24.375 46.375H10.625V47.375H24.375V46.375ZM8.625 44.375V35.625H7.625V44.375H8.625ZM38.75 70.125H23.125V71.125H38.75V70.125ZM20.125 73.125V80.625H21.125V73.125H20.125ZM18.125 82.625H6.25V83.625H18.125V82.625ZM4.25 80.625V68.75H3.25V80.625H4.25ZM98.625 14.375V3.75H97.625V14.375H98.625ZM41.25 84.25H51.875V83.25H41.25V84.25ZM51.875 84.25H68.125V83.25H51.875V84.25ZM68.125 84.25H79.375V83.25H68.125V84.25ZM41.25 41.75H51.875V40.75H41.25V41.75ZM51.875 41.75H68.125V40.75H51.875V41.75ZM68.125 41.75H79.375V40.75H68.125V41.75ZM6.25 82.625C5.14543 82.625 4.25 81.7296 4.25 80.625H3.25C3.25 82.2818 4.59315 83.625 6.25 83.625V82.625ZM20.125 80.625C20.125 81.7296 19.2296 82.625 18.125 82.625V83.625C19.7819 83.625 21.125 82.2818 21.125 80.625H20.125ZM23.125 70.125C21.4681 70.125 20.125 71.4681 20.125 73.125H21.125C21.125 72.0204 22.0204 71.125 23.125 71.125V70.125ZM27.375 49.375C27.375 47.7181 26.0319 46.375 24.375 46.375V47.375C25.4796 47.375 26.375 48.2704 26.375 49.375H27.375ZM95.625 54.875C97.2818 54.875 98.625 53.5318 98.625 51.875H97.625C97.625 52.9796 96.7296 53.875 95.625 53.875V54.875ZM86.875 71.125C87.9796 71.125 88.875 72.0204 88.875 73.125H89.875C89.875 71.4681 88.5318 70.125 86.875 70.125V71.125ZM81.375 101.875C81.375 103.532 82.7181 104.875 84.375 104.875V103.875C83.2704 103.875 82.375 102.98 82.375 101.875H81.375ZM79.375 93.625C80.4796 93.625 81.375 94.5204 81.375 95.625H82.375C82.375 93.9681 81.0318 92.625 79.375 92.625V93.625ZM67.625 90.625C67.625 92.2818 68.9681 93.625 70.625 93.625V92.625C69.5204 92.625 68.625 91.7296 68.625 90.625H67.625ZM26.125 104.375C26.125 102.718 24.7819 101.375 23.125 101.375V102.375C24.2296 102.375 25.125 103.27 25.125 104.375H26.125ZM10.625 46.375C9.52043 46.375 8.625 45.4796 8.625 44.375H7.625C7.625 46.0318 8.96815 47.375 10.625 47.375V46.375ZM51.375 101.875C51.375 103.532 52.7181 104.875 54.375 104.875V103.875C53.2704 103.875 52.375 102.98 52.375 101.875H51.375ZM29.375 53.875C28.2704 53.875 27.375 52.9796 27.375 51.875H26.375C26.375 53.5318 27.7181 54.875 29.375 54.875V53.875ZM95.625 17.375C97.2818 17.375 98.625 16.0319 98.625 14.375H97.625C97.625 15.4796 96.7296 16.375 95.625 16.375V17.375ZM79.875 19.375C79.875 18.2704 80.7704 17.375 81.875 17.375V16.375C80.2181 16.375 78.875 17.7181 78.875 19.375H79.875ZM28.125 114.5C27.0204 114.5 26.125 113.605 26.125 112.5H25.125C25.125 114.157 26.4681 115.5 28.125 115.5V114.5ZM58.625 11.25C58.625 9.59314 57.2818 8.25 55.625 8.25V9.25C56.7296 9.25 57.625 10.1454 57.625 11.25H58.625ZM76.875 37.375C78.5318 37.375 79.875 36.0319 79.875 34.375H78.875C78.875 35.4796 77.9796 36.375 76.875 36.375V37.375ZM61.375 112.5C61.375 113.605 60.4796 114.5 59.375 114.5V115.5C61.0318 115.5 62.375 114.157 62.375 112.5H61.375ZM106.875 81.125C107.98 81.125 108.875 82.0204 108.875 83.125H109.875C109.875 81.4681 108.532 80.125 106.875 80.125V81.125ZM55.625 31.75C57.2818 31.75 58.625 30.4069 58.625 28.75H57.625C57.625 29.8546 56.7296 30.75 55.625 30.75V31.75ZM98.625 41.875C98.625 40.7704 99.5204 39.875 100.625 39.875V38.875C98.9681 38.875 97.625 40.2181 97.625 41.875H98.625ZM68.625 39.375C68.625 38.2704 69.5204 37.375 70.625 37.375V36.375C68.9681 36.375 67.625 37.7181 67.625 39.375H68.625ZM59.375 104.875C60.4796 104.875 61.375 105.77 61.375 106.875H62.375C62.375 105.218 61.0318 103.875 59.375 103.875V104.875ZM88.875 78.125C88.875 79.7818 90.2181 81.125 91.875 81.125V80.125C90.7704 80.125 89.875 79.2296 89.875 78.125H88.875ZM52.375 33.75C52.375 32.6454 53.2704 31.75 54.375 31.75V30.75C52.7181 30.75 51.375 32.0931 51.375 33.75H52.375Z" fill="#000577"/>
<path d="M79.375 100.625V96.625C79.375 96.0727 78.9273 95.625 78.375 95.625H74.375M23.125 76.875V74.125C23.125 73.5727 23.5727 73.125 24.125 73.125H30M55.625 18.125V12.25C55.625 11.6977 55.1773 11.25 54.625 11.25H48.75M89.375 51.875H94.625C95.1773 51.875 95.625 51.4273 95.625 50.875V44.375" stroke="#A8ABFF" stroke-linecap="round" stroke-linejoin="round"/>
<path d="M26.875 8.75C26.875 10.8211 25.1961 12.5 23.125 12.5C21.0539 12.5 19.375 10.8211 19.375 8.75C19.375 6.67894 21.0539 5 23.125 5C25.1961 5 26.875 6.67894 26.875 8.75Z" fill="#F4BE02"/>
<path d="M11.875 32.5C11.875 34.5711 10.1961 36.25 8.125 36.25C6.05393 36.25 4.375 34.5711 4.375 32.5C4.375 30.4289 6.05393 28.75 8.125 28.75C10.1961 28.75 11.875 30.4289 11.875 32.5Z" fill="#F4BE02"/>
<path d="M101.875 3.75C101.875 5.82107 100.196 7.5 98.125 7.5C96.0539 7.5 94.375 5.82107 94.375 3.75C94.375 1.67893 96.0539 0 98.125 0C100.196 0 101.875 1.67893 101.875 3.75Z" fill="#F4BE02"/>
<path d="M120 38.75C120 40.8211 118.321 42.5 116.25 42.5C114.179 42.5 112.5 40.8211 112.5 38.75C112.5 36.6789 114.179 35 116.25 35C118.321 35 120 36.6789 120 38.75Z" fill="#F4BE02"/>
<path d="M113.125 116.25C113.125 118.321 111.446 120 109.375 120C107.304 120 105.625 118.321 105.625 116.25C105.625 114.179 107.304 112.5 109.375 112.5C111.446 112.5 113.125 114.179 113.125 116.25Z" fill="#F4BE02"/>
<path d="M101.25 105C101.25 107.071 99.5711 108.75 97.5 108.75C95.4289 108.75 93.75 107.071 93.75 105C93.75 102.929 95.4289 101.25 97.5 101.25C99.5711 101.25 101.25 102.929 101.25 105Z" fill="#F4BE02"/>
<path d="M12.5 101.875C12.5 103.946 10.8211 105.625 8.75 105.625C6.67893 105.625 5 103.946 5 101.875C5 99.8039 6.67893 98.125 8.75 98.125C10.8211 98.125 12.5 99.8039 12.5 101.875Z" fill="#F4BE02"/>
<path d="M7.5 68.75C7.5 70.8211 5.82107 72.5 3.75 72.5C1.67893 72.5 0 70.8211 0 68.75C0 66.6789 1.67893 65 3.75 65C5.82107 65 7.5 66.6789 7.5 68.75Z" fill="#F4BE02"/>
</svg>
