<svg width="153" height="128" viewBox="0 0 153 128" fill="none" xmlns="http://www.w3.org/2000/svg">
<path d="M52.0264 93.0528C51.7794 93.1763 51.6793 93.4766 51.8028 93.7236C51.9263 93.9706 52.2266 94.0707 52.4736 93.9472L52.0264 93.0528ZM54.75 92.25H55.25C55.25 92.0767 55.1603 91.9158 55.0129 91.8247C54.8655 91.7336 54.6814 91.7253 54.5264 91.8028L54.75 92.25ZM54.25 99.75C54.25 100.026 54.4739 100.25 54.75 100.25C55.0261 100.25 55.25 100.026 55.25 99.75H54.25ZM20.7764 93.0528C20.5294 93.1763 20.4293 93.4766 20.5528 93.7236C20.6763 93.9706 20.9766 94.0707 21.2236 93.9472L20.7764 93.0528ZM23.5 92.25H24C24 92.0767 23.9103 91.9158 23.7629 91.8247C23.6155 91.7336 23.4314 91.7253 23.2764 91.8028L23.5 92.25ZM23 99.75C23 100.026 23.2239 100.25 23.5 100.25C23.7761 100.25 24 100.026 24 99.75H23ZM31.4014 93.0528C31.1544 93.1763 31.0543 93.4766 31.1778 93.7236C31.3013 93.9706 31.6016 94.0707 31.8486 93.9472L31.4014 93.0528ZM34.125 92.25H34.625C34.625 92.0767 34.5353 91.9158 34.3879 91.8247C34.2405 91.7336 34.0564 91.7253 33.9014 91.8028L34.125 92.25ZM33.625 99.75C33.625 100.026 33.8489 100.25 34.125 100.25C34.4011 100.25 34.625 100.026 34.625 99.75H33.625ZM62.6514 93.0528C62.4044 93.1763 62.3043 93.4766 62.4278 93.7236C62.5513 93.9706 62.8516 94.0707 63.0986 93.9472L62.6514 93.0528ZM65.375 92.25H65.875C65.875 92.0767 65.7853 91.9158 65.6379 91.8247C65.4905 91.7336 65.3064 91.7253 65.1514 91.8028L65.375 92.25ZM64.875 99.75C64.875 100.026 65.0989 100.25 65.375 100.25C65.6511 100.25 65.875 100.026 65.875 99.75H64.875ZM42.0264 93.0528C41.7794 93.1763 41.6793 93.4766 41.8028 93.7236C41.9263 93.9706 42.2266 94.0707 42.4736 93.9472L42.0264 93.0528ZM44.75 92.25H45.25C45.25 92.0767 45.1603 91.9158 45.0129 91.8247C44.8655 91.7336 44.6814 91.7253 44.5264 91.8028L44.75 92.25ZM44.25 99.75C44.25 100.026 44.4739 100.25 44.75 100.25C45.0261 100.25 45.25 100.026 45.25 99.75H44.25ZM47.0264 93.0528C46.7794 93.1763 46.6793 93.4766 46.8028 93.7236C46.9263 93.9706 47.2266 94.0707 47.4736 93.9472L47.0264 93.0528ZM49.75 92.25H50.25C50.25 92.0767 50.1603 91.9158 50.0129 91.8247C49.8655 91.7336 49.6814 91.7253 49.5264 91.8028L49.75 92.25ZM49.25 99.75C49.25 100.026 49.4739 100.25 49.75 100.25C50.0261 100.25 50.25 100.026 50.25 99.75H49.25ZM26.625 92.25V91.75C26.3489 91.75 26.125 91.9739 26.125 92.25H26.625ZM26.625 99.75H26.125C26.125 100.026 26.3489 100.25 26.625 100.25V99.75ZM29.125 99.75V100.25C29.4011 100.25 29.625 100.026 29.625 99.75H29.125ZM29.125 92.25H29.625C29.625 91.9739 29.4011 91.75 29.125 91.75V92.25ZM57.875 92.25V91.75C57.5989 91.75 57.375 91.9739 57.375 92.25H57.875ZM57.875 99.75H57.375C57.375 100.026 57.5989 100.25 57.875 100.25V99.75ZM60.375 99.75V100.25C60.6511 100.25 60.875 100.026 60.875 99.75H60.375ZM60.375 92.25H60.875C60.875 91.9739 60.6511 91.75 60.375 91.75V92.25ZM37.25 92.25V91.75C36.9739 91.75 36.75 91.9739 36.75 92.25H37.25ZM37.25 99.75H36.75C36.75 100.026 36.9739 100.25 37.25 100.25V99.75ZM39.75 99.75V100.25C40.0261 100.25 40.25 100.026 40.25 99.75H39.75ZM39.75 92.25H40.25C40.25 91.9739 40.0261 91.75 39.75 91.75V92.25ZM100.375 21H100.875V20.191L100.151 20.5528L100.375 21ZM92.875 21V20.5H92.375V21H92.875ZM92.875 28.5H92.375V29H92.875V28.5ZM95.375 28.5V29H95.875V28.5H95.375ZM95.375 21H95.875V20.5H95.375V21ZM100.375 33.5H100.875V32.691L100.151 33.0528L100.375 33.5ZM95.375 33.5H95.875V32.691L95.1514 33.0528L95.375 33.5ZM100.375 46H100.875V45.191L100.151 45.5528L100.375 46ZM95.375 46H95.875V45.191L95.1514 45.5528L95.375 46ZM100.375 58.5H100.875V57.691L100.151 58.0528L100.375 58.5ZM92.875 58.5V58H92.375V58.5H92.875ZM92.875 66H92.375V66.5H92.875V66ZM95.375 66V66.5H95.875V66H95.375ZM95.375 58.5H95.875V58H95.375V58.5ZM108 18.7394V104.511H109V18.7394H108ZM104.511 108H18.7394V109H104.511V108ZM18.7394 108C16.8122 108 15.25 106.438 15.25 104.511H14.25C14.25 106.99 16.26 109 18.7394 109V108ZM108 104.511C108 106.438 106.438 108 104.511 108V109C106.99 109 109 106.99 109 104.511H108ZM104.511 15.25C106.438 15.25 108 16.8122 108 18.7394H109C109 16.26 106.99 14.25 104.511 14.25V15.25ZM15.25 104.511V87.25H14.25V104.511H15.25ZM91.625 15.25H104.511V14.25H91.625V15.25ZM52.4736 93.9472L54.9736 92.6972L54.5264 91.8028L52.0264 93.0528L52.4736 93.9472ZM54.25 92.25V99.75H55.25V92.25H54.25ZM21.2236 93.9472L23.7236 92.6972L23.2764 91.8028L20.7764 93.0528L21.2236 93.9472ZM23 92.25V99.75H24V92.25H23ZM31.8486 93.9472L34.3486 92.6972L33.9014 91.8028L31.4014 93.0528L31.8486 93.9472ZM33.625 92.25V99.75H34.625V92.25H33.625ZM63.0986 93.9472L65.5986 92.6972L65.1514 91.8028L62.6514 93.0528L63.0986 93.9472ZM64.875 92.25V99.75H65.875V92.25H64.875ZM42.4736 93.9472L44.9736 92.6972L44.5264 91.8028L42.0264 93.0528L42.4736 93.9472ZM44.25 92.25V99.75H45.25V92.25H44.25ZM47.4736 93.9472L49.9736 92.6972L49.5264 91.8028L47.0264 93.0528L47.4736 93.9472ZM49.25 92.25V99.75H50.25V92.25H49.25ZM26.125 92.25V99.75H27.125V92.25H26.125ZM26.625 100.25H29.125V99.25H26.625V100.25ZM29.625 99.75V92.25H28.625V99.75H29.625ZM29.125 91.75H26.625V92.75H29.125V91.75ZM57.375 92.25V99.75H58.375V92.25H57.375ZM57.875 100.25H60.375V99.25H57.875V100.25ZM60.875 99.75V92.25H59.875V99.75H60.875ZM60.375 91.75H57.875V92.75H60.375V91.75ZM36.75 92.25V99.75H37.75V92.25H36.75ZM37.25 100.25H39.75V99.25H37.25V100.25ZM40.25 99.75V92.25H39.25V99.75H40.25ZM39.75 91.75H37.25V92.75H39.75V91.75ZM98.0986 22.6972L100.599 21.4472L100.151 20.5528L97.6514 21.8028L98.0986 22.6972ZM99.875 21V28.5H100.875V21H99.875ZM92.375 21V28.5H93.375V21H92.375ZM92.875 29H95.375V28H92.875V29ZM95.875 28.5V21H94.875V28.5H95.875ZM95.375 20.5H92.875V21.5H95.375V20.5ZM98.0986 35.1972L100.599 33.9472L100.151 33.0528L97.6514 34.3028L98.0986 35.1972ZM99.875 33.5V41H100.875V33.5H99.875ZM93.0986 35.1972L95.5986 33.9472L95.1514 33.0528L92.6514 34.3028L93.0986 35.1972ZM94.875 33.5V41H95.875V33.5H94.875ZM98.0986 47.6972L100.599 46.4472L100.151 45.5528L97.6514 46.8028L98.0986 47.6972ZM99.875 46V53.5H100.875V46H99.875ZM93.0986 47.6972L95.5986 46.4472L95.1514 45.5528L92.6514 46.8028L93.0986 47.6972ZM94.875 46V53.5H95.875V46H94.875ZM98.0986 60.1972L100.599 58.9472L100.151 58.0528L97.6514 59.3028L98.0986 60.1972ZM99.875 58.5V66H100.875V58.5H99.875ZM92.375 58.5V66H93.375V58.5H92.375ZM92.875 66.5H95.375V65.5H92.875V66.5ZM95.875 66V58.5H94.875V66H95.875ZM95.375 58H92.875V59H95.375V58ZM1.5 3.5C1.5 2.39543 2.39543 1.5 3.5 1.5V0.5C1.84315 0.5 0.5 1.84315 0.5 3.5H1.5ZM3.5 1.5H88.5V0.5H3.5V1.5ZM88.5 1.5C89.6046 1.5 90.5 2.39543 90.5 3.5H91.5C91.5 1.84315 90.1569 0.5 88.5 0.5V1.5ZM90.5 3.5V84.75H91.5V3.5H90.5ZM90.5 84.75C90.5 85.8546 89.6046 86.75 88.5 86.75V87.75C90.1569 87.75 91.5 86.4069 91.5 84.75H90.5ZM88.5 86.75H3.5V87.75H88.5V86.75ZM3.5 86.75C2.39543 86.75 1.5 85.8546 1.5 84.75H0.5C0.5 86.4069 1.84315 87.75 3.5 87.75V86.75ZM1.5 84.75V3.5H0.5V84.75H1.5ZM12.1667 15.4918V27.0302H13.1667V15.4918H12.1667ZM15.1392 30.0028H30.1667V29.0028H15.1392V30.0028ZM30.1667 30.0028H46.0001V29.0028H30.1667V30.0028ZM46.5001 29.5028V14.6676H45.5001V29.5028H46.5001ZM46.0001 30.0028H61.8334V29.0028H46.0001V30.0028ZM61.8334 30.0028H76.8609V29.0028H61.8334V30.0028ZM79.8334 27.0302V14.6676H78.8334V27.0302H79.8334ZM29.6667 29.5028V44.75H30.6667V29.5028H29.6667ZM29.6667 45.5742V57.1127H30.6667V45.5742H29.6667ZM32.6392 60.0852H46.0001V59.0852H32.6392V60.0852ZM46.0001 60.0852H59.3609V59.0852H46.0001V60.0852ZM45.5001 59.5852V68.239H46.5001V59.5852H45.5001ZM59.3609 60.0852C61.0025 60.0852 62.3334 58.7543 62.3334 57.1127H61.3334C61.3334 58.2021 60.4503 59.0852 59.3609 59.0852V60.0852ZM76.8609 30.0028C78.5025 30.0028 79.8334 28.6719 79.8334 27.0302H78.8334C78.8334 28.1196 77.9503 29.0028 76.8609 29.0028V30.0028ZM29.6667 57.1127C29.6667 58.7543 30.9976 60.0852 32.6392 60.0852V59.0852C31.5498 59.0852 30.6667 58.2021 30.6667 57.1127H29.6667ZM12.1667 27.0302C12.1667 28.6719 13.4976 30.0028 15.1392 30.0028V29.0028C14.0498 29.0028 13.1667 28.1196 13.1667 27.0302H12.1667ZM62.3334 57.1127V29.5028H61.3334V57.1127H62.3334Z" fill="#000577"/>
<path d="M69.3333 8.89835C69.3333 7.98799 70.0795 7.25 71 7.25H84.3333C85.2538 7.25 86 7.98799 86 8.89835V22.0852C86 22.9955 85.2538 23.7335 84.3333 23.7335H71C70.0795 23.7335 69.3333 22.9955 69.3333 22.0852V8.89835Z" fill="#F4BE02"/>
<path d="M6 8.89835C6 7.98799 6.74619 7.25 7.66667 7.25H21C21.9205 7.25 22.6667 7.98799 22.6667 8.89835V22.0852C22.6667 22.9955 21.9205 23.7335 21 23.7335H7.66667C6.74619 23.7335 6 22.9955 6 22.0852V8.89835Z" fill="#F4BE02"/>
<path d="M37.6667 8.89835C37.6667 7.98799 38.4129 7.25 39.3333 7.25H52.6667C53.5871 7.25 54.3333 7.98799 54.3333 8.89835V22.0852C54.3333 22.9955 53.5871 23.7335 52.6667 23.7335H39.3333C38.4129 23.7335 37.6667 22.9955 37.6667 22.0852V8.89835Z" fill="#F4BE02"/>
<path d="M37.6667 67.4149C37.6667 66.5045 38.4047 65.7665 39.3151 65.7665H52.685C53.5954 65.7665 54.3334 66.5045 54.3334 67.4149V80.6017C54.3334 81.5121 53.5954 82.2501 52.685 82.2501H39.3151C38.4047 82.2501 37.6667 81.5121 37.6667 80.6017V67.4149Z" fill="#F4BE02"/>
<path d="M21.8333 37.7445C21.8333 36.8341 22.5795 36.0961 23.4999 36.0961H36.8333C37.7538 36.0961 38.4999 36.8341 38.4999 37.7445V50.9313C38.4999 51.8417 37.7538 52.5796 36.8333 52.5796H23.5C22.5795 52.5796 21.8333 51.8417 21.8333 50.9313V37.7445Z" fill="#F4BE02"/>
<path d="M53.4999 37.7445C53.4999 36.8341 54.2461 36.0961 55.1666 36.0961H68.4999C69.4204 36.0961 70.1666 36.8341 70.1666 37.7445V50.9313C70.1666 51.8417 69.4204 52.5796 68.4999 52.5796H55.1666C54.2461 52.5796 53.4999 51.8417 53.4999 50.9313V37.7445Z" fill="#F4BE02"/>
<path d="M65.4966 70.741L65.4999 117.449C65.5 117.864 65.8358 118.199 66.2499 118.199H141.75C142.164 118.199 142.5 117.863 142.5 117.449L142.497 70.7409C142.497 70.3267 142.161 69.991 141.747 69.991H66.2466C65.8324 69.991 65.4966 70.3268 65.4966 70.741Z" fill="#F4BE02" stroke="#F4BE02"/>
<path d="M111 87.2084C111 91.012 107.866 94.0953 104 94.0953C100.134 94.0953 97 91.012 97 87.2084C97 83.4049 100.134 80.3215 104 80.3215C107.866 80.3215 111 83.4049 111 87.2084Z" stroke="black"/>
<path d="M104 100.982C105.933 100.982 107.5 99.4406 107.5 97.5388V88.9302H100.5V97.5388C100.5 99.4406 102.067 100.982 104 100.982Z" stroke="black"/>
<path d="M125 72.9037L125 63.1031C125 51.6925 115.598 42.4424 104 42.4424C92.402 42.4424 83 51.6925 83 63.1031L83 72.9037" stroke="black"/>
</svg>
