<svg width="699" height="555" viewBox="0 0 699 555" fill="none" xmlns="http://www.w3.org/2000/svg">
<g clip-path="url(#clip0)" filter="url(#filter0_d)">
<path d="M510.137 396.457C503.416 392.864 495.5 392.396 488.039 393.675C484.031 394.361 479.853 395.603 477.126 398.723C474.398 401.844 473.88 407.334 477.013 410.014C478.876 411.611 481.477 411.851 483.894 411.824C489.736 411.753 496.217 410.687 500.883 414.329C503.546 416.406 505.318 419.861 508.502 420.881C511.615 421.881 515.13 419.978 516.78 417.065C518.432 414.154 518.487 410.513 517.718 407.231C517.718 407.231 516.906 400.076 510.137 396.457Z" fill="#FCC10F"/>
<path d="M525.533 365.658C521.424 371.739 513.437 369.726 509.733 366.014C506.03 362.302 504.464 356.923 503.04 351.792C499.785 340.069 496.501 327.77 498.922 315.833C499.645 312.264 500.933 308.704 503.353 306.056C505.774 303.409 509.496 301.833 512.899 302.764C516.925 303.867 519.431 307.955 521.239 311.843C526.557 323.271 529.371 335.94 529.412 348.627C529.432 354.552 528.759 360.765 525.533 365.658Z" fill="#FCC10F"/>
<path d="M536.819 374.384C532.357 368.898 531.51 360.894 533.496 354.019C535.481 347.145 539.967 341.298 545.137 336.524C551.197 330.926 558.322 326.569 565.982 323.78C568.996 322.682 572.175 321.815 575.355 322.129C578.536 322.444 581.74 324.129 583.224 327.062C585.417 331.397 583.314 336.654 581.039 340.944C577.031 348.503 572.449 355.732 567.347 362.546C563.244 368.03 558.543 373.436 552.289 375.914C546.035 378.392 539.538 378.1 536.223 373.605" fill="#FCC10F"/>
<path d="M525.812 457.4C525.735 457.406 525.61 456.42 525.44 454.636C525.251 452.625 525.013 450.099 524.731 447.094C524.392 443.921 523.945 440.144 523.095 436.032C522.247 431.93 520.919 427.486 519.214 422.976C517.449 418.494 515.297 414.418 512.78 411.161C510.282 407.889 507.376 405.52 504.644 404.154C501.921 402.759 499.481 402.196 497.794 401.943C496.092 401.763 495.138 401.623 495.137 401.544C495.137 401.466 496.092 401.454 497.841 401.502C499.572 401.621 502.114 402.078 504.983 403.429C507.861 404.753 510.944 407.156 513.566 410.496C516.207 413.822 518.439 417.986 520.236 422.549C521.97 427.136 523.277 431.629 524.089 435.818C524.896 440.003 525.266 443.821 525.508 447.02C525.739 450.223 525.826 452.817 525.869 454.61C525.907 456.402 525.888 457.396 525.812 457.4Z" fill="#253138"/>
<path d="M525.31 451.595C525.273 451.594 525.248 451.154 525.238 450.314C525.241 449.352 525.244 448.137 525.248 446.647C525.256 443.466 525.255 438.861 525.09 433.174C524.819 421.799 523.874 409.558 522.048 392.301C520.319 376.074 517.999 357.192 515.551 344.914C515.026 342.12 514.497 339.606 513.998 337.407C513.524 335.2 513.119 333.3 512.728 331.76C512.392 330.312 512.118 329.133 511.901 328.196C511.724 327.377 511.648 326.943 511.684 326.932C511.721 326.923 511.868 327.334 512.114 328.134C512.385 329.056 512.724 330.219 513.142 331.647C513.598 333.172 514.065 335.061 514.598 337.257C515.153 339.448 515.737 341.954 516.313 344.743C518.735 355.869 521.299 371.418 523.143 388.716C524.972 406.01 525.795 421.757 525.869 433.159C525.934 438.86 525.817 443.473 525.677 446.657C525.589 448.146 525.518 449.36 525.46 450.323C525.398 451.16 525.348 451.598 525.31 451.595Z" fill="#253138"/>
<path d="M525.237 421.226C525.16 421.223 525.174 419.865 525.262 417.396C525.398 414.935 525.725 411.378 526.394 407.018C527.104 402.671 528.095 397.507 529.652 391.897C530.326 389.333 531.912 383.188 535.753 374.006C540.816 361.564 547.691 351.394 553.675 345.092C555.077 343.421 556.64 342.214 557.889 341.032C558.537 340.467 559.108 339.901 559.691 339.453C560.277 339.034 560.821 338.645 561.327 338.284C563.296 336.89 564.398 336.153 564.439 336.219C564.616 336.469 560.029 339.265 554.237 345.65C548.47 352.021 541.784 362.122 536.764 374.458C533.964 381.15 532.012 387.12 530.628 392.187C529.028 397.744 527.964 402.852 527.162 407.157C526.398 411.471 525.956 414.993 525.69 417.432C525.47 419.875 525.312 421.229 525.237 421.226Z" fill="#253138"/>
<path d="M553.567 474.799L550.63 516.49H498.939L496.002 474.799H553.567Z" fill="#253138"/>
<path d="M558.558 474.797H489.834V458.366H558.558V474.797Z" fill="#253138"/>
<path d="M558.558 514.893V519.449H555.328H490.972V514.893H558.558Z" fill="#455A63"/>
<path d="M552.164 527.465L555.33 519.449H493.432L497.126 527.465H552.164Z" fill="#455A63"/>
<path d="M496.962 488.423C496.95 488.433 497.032 488.562 497.203 488.805C497.409 489.087 497.662 489.437 497.975 489.867C498.71 490.84 499.718 492.177 500.987 493.86L501.12 494.037L501.25 493.852C503.143 491.139 505.672 487.516 508.648 483.25H508.222C510.422 486.479 512.874 490.075 515.505 493.936L515.733 494.272L515.989 493.956C518.677 490.643 521.596 487.043 524.627 483.307L524.13 483.3C524.279 483.496 524.442 483.708 524.604 483.919C527.284 487.399 529.875 490.768 532.328 493.952L532.585 494.286L532.823 493.939C535.445 490.095 537.895 486.503 540.111 483.255L539.687 483.276C543.278 487.516 546.324 491.113 548.661 493.871L548.82 494.059L548.942 493.847C550.124 491.787 551.068 490.147 551.752 488.956C552.045 488.425 552.283 487.996 552.473 487.653C552.631 487.355 552.707 487.198 552.692 487.189C552.68 487.179 552.577 487.32 552.392 487.602C552.183 487.931 551.919 488.344 551.594 488.855C550.877 490.023 549.886 491.636 548.645 493.658L548.924 493.634C546.624 490.84 543.628 487.202 540.094 482.91L539.872 482.639L539.67 482.932C537.436 486.164 534.964 489.739 532.318 493.566L532.814 493.552C530.367 490.362 527.781 486.99 525.108 483.505C524.945 483.292 524.782 483.081 524.632 482.886L524.387 482.567L524.134 482.88C521.112 486.622 518.2 490.228 515.52 493.549L516.004 493.568C513.346 489.726 510.87 486.149 508.648 482.937L508.433 482.626L508.222 482.937C505.308 487.248 502.833 490.912 500.98 493.653L501.243 493.645C499.923 492.006 498.875 490.703 498.111 489.754C497.771 489.346 497.495 489.014 497.273 488.748C497.079 488.523 496.973 488.413 496.962 488.423Z" fill="#DFDFDF"/>
<path d="M495.283 474.522C495.283 474.707 508.235 474.857 524.208 474.857C540.186 474.857 553.135 474.707 553.135 474.522C553.135 474.338 540.186 474.189 524.208 474.189C508.235 474.189 495.283 474.338 495.283 474.522Z" fill="#455A63"/>
<path d="M492.671 519.899C492.671 520.084 506.748 520.232 524.108 520.232C541.473 520.232 555.547 520.084 555.547 519.899C555.547 519.714 541.473 519.564 524.108 519.564C506.748 519.564 492.671 519.714 492.671 519.899Z" fill="#253138"/>
<path d="M-0.330917 528.222H158.629V371.711C158.629 360.594 149.933 351.584 139.205 351.584H19.0957C8.3672 351.584 -0.330917 360.594 -0.330917 371.711V528.222Z" fill="#455A63"/>
<path d="M13.0347 352.485C12.8497 352.485 12.702 391.809 12.702 440.305C12.702 488.818 12.8497 528.133 13.0347 528.133C13.2209 528.133 13.3699 488.818 13.3699 440.305C13.3699 391.809 13.2209 352.485 13.0347 352.485Z" fill="#253138"/>
<path d="M83.8944 159.823C69.3299 181.334 60.8424 207.206 59.7341 233.456C58.9854 251.155 61.2855 270.016 53.1781 285.614C41.5494 307.989 16.3861 307.23 8.682 331.359C5.33144 341.851 11.5073 364.947 13.173 375.865C15.0646 388.274 7.74065 398.694 9.63361 411.104C11.3686 422.478 19.5839 430.598 29.4532 435.894C38.2322 440.606 46.3498 440.731 55.4846 436.814C72.8898 429.347 87.376 421.466 99.7765 406.774C117.187 386.147 122.446 357.589 125.42 330.359C131.977 270.329 130.649 209.379 121.48 149.718" fill="#253138"/>
<path d="M46.6719 439.351C46.6719 439.351 46.4831 439.29 46.1107 439.205C45.7382 439.113 45.177 439.025 44.4643 438.8C43.0336 438.406 40.9326 437.7 38.4528 436.309C35.987 434.927 33.0667 432.892 30.5085 429.711C29.2448 428.123 28.0877 426.224 27.4032 424.003C26.7495 421.781 26.4542 419.283 26.3155 416.691C26.0689 411.475 26.8369 405.768 27.9798 399.736C29.0997 393.697 30.6202 387.253 30.9849 380.276C31.1609 376.801 31.0145 373.188 30.2594 369.608C29.5428 366.02 28.2919 362.513 26.9935 358.99C25.6862 355.469 24.3108 351.909 23.3155 348.179C22.3729 344.458 21.7937 340.507 22.4242 336.605C22.9726 332.699 24.5175 329.045 26.5916 325.848C28.6631 322.636 31.2341 319.866 33.8745 317.299C39.1796 312.169 44.9227 307.931 49.8285 303.172C59.7274 293.726 66.3938 282.977 70.6074 273.449C72.7059 268.668 74.3176 264.203 75.3899 260.18C76.0076 258.192 76.3569 256.279 76.7987 254.553C77.1288 252.802 77.4318 251.201 77.7041 249.757C78.1125 246.851 78.4091 244.594 78.49 243.049C78.5453 242.304 78.5915 241.722 78.6223 241.298C78.648 240.903 78.6454 240.699 78.6454 240.699C78.6454 240.699 78.6018 240.899 78.553 241.291C78.5055 241.716 78.4412 242.293 78.3578 243.035C78.2332 244.573 77.8942 246.82 77.446 249.71C77.157 251.146 76.8372 252.738 76.4879 254.478C76.0282 256.195 75.6622 258.096 75.0303 260.07C73.9297 264.066 72.2936 268.499 70.1772 273.243C65.9315 282.696 59.2651 293.35 49.4124 302.703C44.5349 307.413 38.7802 311.639 33.4276 316.802C30.7628 319.387 28.1558 322.188 26.0419 325.464C23.9229 328.72 22.3266 332.48 21.7629 336.504C21.1143 340.527 21.7128 344.585 22.6734 348.36C23.6866 352.144 25.0749 355.722 26.3823 359.235C27.6819 362.749 28.9276 366.221 29.6339 369.744C30.3826 373.258 30.5355 376.809 30.3698 380.246C30.0269 387.141 28.5372 393.571 27.4366 399.627C26.3129 405.679 25.5629 411.438 25.8442 416.715C25.9995 419.349 26.3091 421.845 26.9987 424.139C27.7217 426.422 28.9212 428.353 30.2208 429.957C32.8522 433.17 35.8239 435.189 38.3308 436.549C40.853 437.913 42.981 438.583 44.4322 438.936C45.8859 439.294 46.6719 439.351 46.6719 439.351Z" fill="#455A63"/>
<path d="M285.774 486.898L224.146 456.57C224.146 456.57 200.146 335.819 195.608 326.749C191.07 317.682 172.099 309.845 172.099 309.845L175.277 473.359L180.906 511.076L267.822 519.608L285.774 486.898Z" fill="#FFF578"/>
<path d="M338.376 515.505C338.717 515.492 340.431 516.604 338.994 519.408C337.557 522.21 327.123 531.484 324.051 528.253C320.98 525.023 325.67 521.082 325.67 521.082L338.376 515.505Z" fill="#FFBD9D"/>
<path d="M325.227 521.207C325.227 521.207 312.626 522.853 307.773 524.765C302.503 526.839 296.086 525.425 291.767 522.392C287.448 519.36 284.929 516.62 284.929 516.62L268.852 516.356C268.852 516.356 261.134 508.068 265.716 495.716C266.516 493.562 267.378 491.856 269.4 489.214C271.309 487.075 274.325 485.34 279.536 484.407L298.636 488.681C298.636 488.681 328.229 486.491 333.488 489.069C333.488 489.069 340.1 493.13 342.146 494.834C342.916 495.476 345.26 503.277 340.448 507.333C340.448 507.333 344.637 510.788 342.368 513.883L341.28 515.257C341.28 515.257 344.098 519.036 342.652 520.681C341.206 522.326 328.545 530.016 324.015 528.182C319.486 526.35 323.234 522.002 325.227 521.207Z" fill="#FFBD9D"/>
<path d="M337.28 500.592C337.264 500.556 336.712 500.78 335.714 501.174C334.715 501.566 333.268 502.124 331.451 502.724C330.543 503.023 329.541 503.329 328.457 503.625C327.38 503.931 326.2 504.17 324.976 504.581C323.768 504.999 322.462 505.589 321.506 506.75C320.599 507.871 319.983 509.545 320.578 511.13C320.869 511.908 321.477 512.5 322.143 512.87C322.818 513.231 323.542 513.402 324.246 513.478C325.667 513.617 327 513.43 328.262 513.259C330.786 512.858 332.985 512.158 334.792 511.496C336.602 510.833 338.029 510.206 339.014 509.771C339.996 509.331 340.53 509.066 340.517 509.033C340.503 508.995 339.942 509.195 338.938 509.573C337.931 509.947 336.485 510.518 334.673 511.13C332.863 511.742 330.675 512.395 328.193 512.761C326.955 512.919 325.628 513.088 324.301 512.947C323.64 512.874 322.977 512.708 322.387 512.391C321.81 512.067 321.304 511.568 321.066 510.925C320.563 509.625 321.078 508.109 321.9 507.094C322.739 506.056 323.965 505.469 325.128 505.058C326.307 504.647 327.488 504.389 328.573 504.06C329.658 503.743 330.661 503.414 331.568 503.09C333.381 502.44 334.815 501.823 335.793 501.368C336.77 500.912 337.294 500.624 337.28 500.592Z" fill="#EB996D"/>
<path d="M336.147 491.154C336.132 491.118 335.582 491.34 334.591 491.738C333.597 492.134 332.161 492.707 330.358 493.329C328.556 493.953 326.387 494.627 323.946 495.233C322.742 495.553 321.353 495.807 320.209 496.8C319.65 497.289 319.226 498.011 319.114 498.804C318.994 499.591 319.129 500.403 319.439 501.132C320.072 502.623 321.405 503.577 322.737 504.041C324.084 504.52 325.487 504.552 326.754 504.371C329.305 503.975 331.403 503.027 333.214 502.434C334.946 501.804 336.381 501.284 337.473 500.887C338.474 500.512 339.024 500.286 339.012 500.251C339.001 500.217 338.431 500.372 337.408 500.687C336.304 501.04 334.853 501.505 333.098 502.066C331.274 502.616 329.143 503.523 326.693 503.873C325.47 504.034 324.158 503.989 322.904 503.537C321.669 503.1 320.471 502.217 319.92 500.911C319.339 499.625 319.53 498.044 320.548 497.203C321.527 496.333 322.859 496.045 324.061 495.722C326.513 495.083 328.685 494.366 330.48 493.693C332.277 493.019 333.698 492.391 334.67 491.935C335.64 491.473 336.161 491.186 336.147 491.154Z" fill="#EB996D"/>
<path d="M330.073 493.85C330.225 493.848 330.309 492.648 330.644 491.226C330.969 489.8 331.421 488.692 331.286 488.619C331.168 488.547 330.477 489.595 330.133 491.099C329.78 492.6 329.935 493.859 330.073 493.85Z" fill="#EB996D"/>
<path d="M285.602 494.242L296.836 489.757C296.836 489.757 328.032 474.671 328.558 475.487C329.086 476.305 330.776 476.216 330.408 480.156C330.038 484.097 311.858 492.043 311.284 493.408C310.709 494.773 311.667 501.677 304.953 506.621C298.239 511.565 293.393 511.674 293.393 511.674" fill="#FFBD9D"/>
<path d="M293.394 511.673C293.394 511.682 293.485 511.689 293.661 511.682C293.837 511.673 294.098 511.653 294.438 511.602C295.117 511.504 296.114 511.295 297.354 510.877C298.598 510.463 300.08 509.83 301.709 508.913C303.322 507.977 305.156 506.864 306.882 505.196C308.611 503.549 310.026 501.172 310.713 498.393C311.074 497.009 311.201 495.509 311.376 494.045C311.399 493.859 311.439 493.693 311.486 493.545C311.525 493.444 311.639 493.351 311.78 493.235C312.059 493.017 312.376 492.818 312.693 492.623C313.33 492.233 313.997 491.86 314.671 491.485C317.377 489.991 320.257 488.48 323.162 486.751C324.615 485.887 326.075 484.969 327.493 483.922C328.197 483.388 328.893 482.828 329.527 482.162C329.845 481.835 330.137 481.462 330.384 481.039C330.491 480.814 330.602 480.59 330.642 480.315C330.697 480.052 330.684 479.839 330.708 479.598C330.744 478.669 330.715 477.671 330.227 476.787C329.988 476.345 329.589 476.013 329.237 475.758C329.058 475.626 328.9 475.505 328.805 475.372C328.772 475.339 328.832 475.384 328.697 475.26C328.554 475.167 328.527 475.199 328.478 475.188C328.367 475.18 328.334 475.2 328.257 475.206C328.137 475.23 328.024 475.258 327.917 475.288C326.227 475.828 324.679 476.532 323.128 477.194C320.044 478.54 317.101 479.9 314.299 481.206C308.698 483.819 303.679 486.233 299.473 488.276C298.42 488.776 297.425 489.299 296.472 489.717C295.501 490.112 294.584 490.486 293.725 490.836C292.021 491.534 290.548 492.14 289.327 492.64C288.153 493.132 287.227 493.521 286.555 493.802C286.264 493.931 286.029 494.033 285.839 494.118C285.679 494.192 285.599 494.234 285.602 494.242C285.605 494.252 285.691 494.226 285.858 494.17C286.053 494.1 286.295 494.013 286.594 493.904C287.274 493.646 288.213 493.291 289.404 492.838C290.634 492.361 292.12 491.784 293.837 491.118C294.702 490.778 295.626 490.417 296.604 490.035C297.582 489.619 298.567 489.116 299.629 488.625C303.873 486.639 308.907 484.28 314.495 481.663C317.301 480.374 320.25 479.022 323.328 477.686C324.867 477.034 326.444 476.323 328.054 475.812C328.154 475.782 328.253 475.759 328.344 475.741C328.376 475.738 328.448 475.722 328.447 475.73C328.453 475.713 328.444 475.77 328.464 475.686C328.497 475.586 328.456 475.601 328.483 475.553C328.491 475.538 328.503 475.525 328.52 475.514C328.166 475.763 328.43 475.596 328.356 475.657L328.387 475.698C328.552 475.926 328.756 476.067 328.93 476.198C329.283 476.458 329.582 476.711 329.776 477.066C330.17 477.77 330.224 478.689 330.183 479.573C330.156 480.049 330.136 480.417 329.924 480.775C329.714 481.132 329.454 481.474 329.151 481.783C328.554 482.41 327.875 482.959 327.186 483.481C325.795 484.512 324.346 485.425 322.905 486.289C320.019 488.016 317.15 489.533 314.442 491.042C313.766 491.423 313.099 491.799 312.451 492.201C312.126 492.405 311.806 492.604 311.496 492.849C311.355 492.967 311.157 493.114 311.055 493.365C310.984 493.577 310.94 493.779 310.918 493.968C310.744 495.496 310.635 496.922 310.29 498.281C309.639 500.989 308.293 503.293 306.623 504.92C304.965 506.556 303.149 507.697 301.568 508.647C299.967 509.58 298.51 510.234 297.29 510.676C296.069 511.12 295.089 511.361 294.421 511.494C294.086 511.562 293.829 511.599 293.656 511.626C293.482 511.651 293.394 511.663 293.394 511.673Z" fill="#EB996D"/>
<path d="M327.798 513.191C327.789 513.161 327.351 513.248 326.604 513.551C325.859 513.853 324.803 514.39 323.664 515.313C323.102 515.783 322.503 516.319 321.962 517.022C321.446 517.71 320.92 518.64 321.056 519.743C321.191 520.854 322.108 521.73 323.135 522.072C324.197 522.441 325.348 522.266 326.405 521.965C330.585 520.646 334.223 519.054 336.746 517.662C338.008 516.967 338.994 516.342 339.655 515.88C340.319 515.42 340.666 515.135 340.647 515.105C340.625 515.071 340.241 515.296 339.549 515.699C338.858 516.102 337.851 516.673 336.578 517.318C334.039 518.609 330.391 520.138 326.266 521.438C325.251 521.732 324.2 521.876 323.298 521.565C322.395 521.268 321.649 520.539 321.536 519.671C321.406 518.798 321.834 517.954 322.31 517.297C322.797 516.632 323.369 516.084 323.897 515.611C326.073 513.752 327.849 513.296 327.798 513.191Z" fill="#EB996D"/>
<path d="M181.348 511.115C191.442 475.84 200.344 430.405 210.439 395.13C214.127 427.698 209.51 470.691 203.725 502.93C203.046 506.706 202.734 510.411 199.907 512.895L181.348 511.115Z" fill="black"/>
<path d="M197.878 486.9C198.013 486.933 198.44 484.598 199.809 481.075C200.479 479.31 201.46 477.287 202.705 475.141C203.99 473.021 205.562 470.793 207.448 468.664C209.359 466.557 211.387 464.765 213.333 463.28C215.305 461.834 217.18 460.671 218.829 459.849C222.118 458.172 224.335 457.56 224.291 457.423C224.28 457.376 223.725 457.515 222.73 457.806C222.227 457.942 221.62 458.132 220.938 458.42C220.254 458.698 219.455 458.972 218.626 459.406C216.929 460.184 215 461.319 212.976 462.759C210.978 464.24 208.902 466.048 206.958 468.192C205.039 470.358 203.453 472.638 202.178 474.811C200.941 477.009 199.991 479.086 199.368 480.897C199.011 481.785 198.807 482.632 198.59 483.36C198.364 484.087 198.226 484.727 198.131 485.256C197.925 486.308 197.833 486.89 197.878 486.9Z" fill="#253138"/>
<path d="M178.631 308.201C178.631 308.201 210.915 382.919 210.915 396.637C210.915 410.356 186.725 505.666 186.725 505.666C186.954 509.449 187.898 528.447 187.898 528.447L52.2941 528.927L50.2304 498.725L60.8137 469.943L50.2394 388.58C50.2394 388.58 43.1234 341.339 42.4903 328.128C41.6992 311.596 95.741 292.434 94.2693 290.147L103.599 277.203L157.067 322.185L167.631 290.57L180.287 302.966L178.631 308.201Z" fill="#FFF578"/>
<path d="M89.8311 328.077C104.506 353.808 131.368 400.699 131.368 400.699L179.501 457.564C179.501 457.564 182.649 486.462 176.352 495.319C170.055 504.174 159.259 510.234 159.259 510.234C159.259 510.234 146.551 510.234 130.413 496.25C114.274 482.268 69.7393 424.47 69.7393 424.47L54.4454 405.362C54.4454 405.362 36.2157 358.942 39.6176 335.318C40.9314 326.211 44.6724 322.422 49.668 318.245C62.215 307.754 81.6287 313.694 89.8311 328.077Z" fill="#FFF578"/>
<path d="M48.7925 389.229C48.7822 389.234 48.858 389.413 49.0147 389.756C49.1893 390.126 49.4256 390.628 49.7287 391.27C50.3683 392.596 51.3456 394.533 52.6837 396.983C55.3408 401.894 59.4683 408.832 64.8711 417.196C67.5744 421.374 70.5988 425.908 73.916 430.725C77.1998 435.569 81.0216 440.505 84.132 446.308C87.3221 452.055 90.0626 458.445 93.4697 464.784C96.8768 471.119 100.899 477.412 105.703 483.292C110.518 489.158 115.963 494.272 121.917 498.144C127.85 502.045 134.322 504.57 140.691 505.677C147.059 506.817 153.334 506.446 158.878 504.878C161.661 504.121 164.231 502.96 166.57 501.645C168.918 500.343 171.055 498.853 172.909 497.2C174.781 495.576 176.39 493.809 177.686 491.963C179.034 490.155 180.022 488.246 180.848 486.431C182.429 482.749 183.094 479.32 183.437 476.527C183.71 473.72 183.723 471.527 183.655 470.046C183.614 469.331 183.583 468.773 183.56 468.364C183.536 467.984 183.516 467.79 183.505 467.791C183.494 467.791 183.491 467.988 183.493 468.368C183.501 468.777 183.509 469.335 183.52 470.05C183.547 471.527 183.488 473.71 183.177 476.495C182.798 479.263 182.102 482.651 180.509 486.27C179.676 488.055 178.689 489.927 177.348 491.699C176.059 493.507 174.46 495.235 172.603 496.825C170.769 498.442 168.653 499.9 166.326 501.175C164.006 502.461 161.479 503.589 158.732 504.323C153.267 505.843 147.077 506.189 140.792 505.046C134.506 503.935 128.127 501.435 122.266 497.569C116.383 493.733 110.992 488.666 106.212 482.845C101.444 477.008 97.4393 470.751 94.0438 464.454C90.6457 458.155 87.891 451.766 84.6663 445.989C81.5148 440.152 77.6569 435.201 74.3655 430.391C71.0329 425.592 67.9867 421.08 65.2615 416.922C59.8138 408.602 55.6311 401.712 52.9098 396.848C51.5395 394.423 50.5249 392.509 49.8482 391.205C49.5207 390.577 49.2638 390.086 49.0763 389.723C48.8991 389.391 48.8028 389.224 48.7925 389.229Z" fill="#253138"/>
<path d="M181.911 454.997C181.853 455.097 182.595 455.531 183.48 456.553C184.36 457.551 185.341 459.239 185.528 461.299C185.708 463.359 185.042 465.206 184.353 466.355C183.665 467.526 183.011 468.095 183.087 468.181C183.124 468.244 183.908 467.802 184.746 466.627C185.58 465.483 186.391 463.5 186.195 461.234C185.988 458.972 184.84 457.178 183.818 456.209C182.784 455.215 181.938 454.929 181.911 454.997Z" fill="#253138"/>
<path d="M173.059 470.094C173.05 470.071 172.79 470.134 172.306 470.273C172.062 470.338 171.767 470.445 171.41 470.529C171.037 470.601 170.621 470.676 170.164 470.764C168.29 471.081 165.478 471.046 162.226 470.002C158.995 468.929 155.377 466.865 152.008 463.776C148.633 460.687 145.599 456.567 142.43 452.26C139.272 447.939 136.082 443.876 132.562 440.83C130.815 439.31 129.101 437.963 127.674 436.517C126.247 435.083 125.103 433.528 124.463 431.932C123.257 428.654 124.068 425.579 125.203 424.082C126.39 422.532 127.584 422.379 127.524 422.284C127.517 422.264 127.262 422.329 126.776 422.506C126.319 422.734 125.629 423.12 125 423.912C123.744 425.441 122.808 428.624 124.02 432.111C124.674 433.82 125.839 435.435 127.285 436.926C128.728 438.424 130.447 439.8 132.162 441.317C135.605 444.341 138.74 448.361 141.899 452.681C145.068 456.985 148.137 461.13 151.602 464.256C155.054 467.374 158.766 469.434 162.088 470.468C165.429 471.476 168.316 471.435 170.208 471.03C170.667 470.919 171.085 470.82 171.46 470.73C171.816 470.622 172.108 470.494 172.347 470.408C172.822 470.224 173.066 470.116 173.059 470.094Z" fill="#253138"/>
<path d="M83.2994 320.175C83.2814 320.191 83.4677 320.466 83.8388 320.978C84.2536 321.537 84.8007 322.274 85.4826 323.194C86.9467 325.086 88.9629 327.908 91.4183 331.42C96.283 338.475 102.53 348.579 108.547 360.255C114.601 371.916 119.615 382.732 123.451 390.452C125.358 394.32 126.926 397.437 128.056 399.563C128.598 400.579 129.032 401.392 129.364 402.01C129.668 402.567 129.839 402.853 129.859 402.841C129.88 402.83 129.75 402.521 129.483 401.945C129.181 401.312 128.783 400.479 128.286 399.438C127.211 397.196 125.711 394.069 123.873 390.233C120.148 382.46 115.201 371.609 109.134 359.927C103.105 348.228 96.7749 338.129 91.8023 331.133C89.2917 327.65 87.2138 324.868 85.6855 323.025C84.9625 322.139 84.3833 321.428 83.9428 320.888C83.5383 320.406 83.3174 320.159 83.2994 320.175Z" fill="#253138"/>
<path d="M183.506 467.791C177.245 471.308 170.372 470.934 163.383 469.513C156.396 468.091 149.924 464.079 145.41 458.37C146.625 464.692 149.239 470.872 153.69 475.375C158.142 479.879 164.586 482.499 170.704 481.337C176.825 480.177 183 474.216 183.506 467.791Z" fill="black"/>
<path d="M124.297 429.392C120.361 435.642 118.955 443.548 120.483 450.841C115.181 442.429 113.936 431.778 115.363 421.838C116.79 411.9 120.685 402.528 125.027 393.542C125.027 393.542 129.816 401.917 129.859 402.842C130.092 407.679 128.373 416.786 127.471 421.537C125.06 423.891 123.92 427.561 124.552 430.931" fill="black"/>
<path d="M162.285 502.603C149.523 512.91 130.584 513.396 116.621 504.926C103.172 496.769 94.8939 482.084 87.2077 468.037C75.3106 446.294 60.7949 419.407 52.2959 396.014C52.2959 396.014 76.121 429.696 83.3011 444.213C88.7193 455.167 92.8763 462.385 99.5479 472.568C112.957 493.027 137.235 505.281 161.047 503.607" fill="black"/>
<path d="M187.896 528.445C187.91 528.444 187.919 528.303 187.918 528.029C187.913 527.703 187.905 527.305 187.896 526.814C187.858 525.684 187.804 524.141 187.736 522.205C187.556 518.157 187.306 512.48 187.004 505.653L186.992 505.747C189.3 497.766 191.997 488.084 194.788 477.625C198.489 463.762 201.612 451.146 203.712 441.976C204.761 437.39 205.579 433.67 206.091 431.09C206.334 429.849 206.529 428.859 206.676 428.116C206.803 427.435 206.857 427.074 206.834 427.069C206.812 427.065 206.712 427.414 206.545 428.086C206.367 428.821 206.132 429.801 205.837 431.03C205.21 433.657 204.331 437.339 203.252 441.859C201.034 450.994 197.843 463.582 194.143 477.44C191.353 487.895 188.698 497.587 186.462 505.583L186.446 505.634L186.45 505.679C186.85 512.504 187.181 518.175 187.419 522.222C187.55 524.154 187.655 525.696 187.731 526.825C187.772 527.312 187.806 527.71 187.833 528.033C187.862 528.307 187.881 528.445 187.896 528.445Z" fill="#253138"/>
<path d="M52.2367 317.445C52.2752 317.552 53.6237 317.057 55.8505 316.484C58.0774 315.91 61.2071 315.329 64.7015 315.216C68.1985 315.112 71.3577 315.497 73.6115 315.934C75.8679 316.366 77.2433 316.777 77.2754 316.669C77.2896 316.624 76.9595 316.475 76.3482 316.248C75.7408 316.011 74.8392 315.735 73.7091 315.454C71.4514 314.889 68.2408 314.419 64.6809 314.524C61.1249 314.639 57.9477 315.308 55.7272 316.012C54.6164 316.362 53.7302 316.693 53.1369 316.967C52.5398 317.234 52.2187 317.401 52.2367 317.445Z" fill="#253138"/>
<path d="M95.1899 292.911C95.1694 292.925 95.2875 293.163 95.5328 293.603C95.8192 294.105 96.1801 294.736 96.6244 295.51C97.5889 297.158 99.0195 299.52 100.83 302.41C104.465 308.178 109.661 316.036 115.808 324.403C120.754 331.145 125.545 337.196 129.47 341.937L129.745 342.27L129.919 341.876C131.783 337.638 133.326 334.13 134.446 331.585C134.946 330.41 135.349 329.458 135.661 328.725C135.931 328.064 136.062 327.706 136.037 327.695C136.012 327.683 135.832 328.016 135.515 328.653C135.171 329.37 134.722 330.301 134.17 331.45C132.998 333.969 131.383 337.444 129.431 341.639L129.881 341.575C126.024 336.786 121.278 330.716 116.341 323.984C110.203 315.63 104.955 307.831 101.223 302.138C99.4125 299.337 97.9292 297.043 96.844 295.367C96.3573 294.62 95.9618 294.012 95.6458 293.529C95.3659 293.112 95.2092 292.898 95.1899 292.911Z" fill="#253138"/>
<path d="M63.9714 507.476C64.1564 507.455 63.5669 500.548 62.6577 492.051C61.7485 483.552 60.8623 476.679 60.6787 476.7C60.4951 476.722 61.0832 483.626 61.9925 492.128C62.9017 500.626 63.7878 507.499 63.9714 507.476Z" fill="#253138"/>
<path d="M156.921 505.666C156.737 505.646 156.053 510.837 155.392 517.258C154.731 523.683 154.343 528.906 154.527 528.926C154.711 528.947 155.396 523.757 156.056 517.333C156.719 510.91 157.104 505.687 156.921 505.666Z" fill="#253138"/>
<path d="M88.3312 353.684C88.4995 352.584 89.9686 351.98 90.8201 352.658L90.9074 352.733C91.7088 353.475 91.4057 355.084 90.3912 355.458C89.3792 355.831 88.1617 354.783 88.3312 353.684Z" fill="white"/>
<path d="M101.721 319.866C101.89 318.767 103.359 318.163 104.211 318.843L104.297 318.917C105.099 319.66 104.795 321.267 103.782 321.641C102.769 322.015 101.552 320.966 101.721 319.866Z" fill="white"/>
<path d="M132.452 347.097C132.62 345.997 134.089 345.393 134.941 346.071L135.028 346.146C135.83 346.888 135.525 348.497 134.512 348.871C133.499 349.244 132.283 348.196 132.452 347.097Z" fill="white"/>
<path d="M165.673 333.424C165.841 332.323 167.31 331.719 168.162 332.398L168.249 332.472C169.05 333.215 168.746 334.824 167.733 335.196C166.719 335.57 165.503 334.523 165.673 333.424Z" fill="white"/>
<path d="M171.551 319.944C171.719 318.844 173.188 318.238 174.04 318.918L174.127 318.993C174.928 319.735 174.624 321.344 173.611 321.716C172.599 322.09 171.381 321.043 171.551 319.944Z" fill="white"/>
<path d="M168.998 304.366C169.166 303.267 170.638 302.663 171.488 303.343L171.575 303.417C172.377 304.16 172.072 305.768 171.058 306.141C170.046 306.515 168.83 305.466 168.998 304.366Z" fill="white"/>
<path d="M187.395 325.791C187.564 324.69 189.033 324.086 189.884 324.765L189.972 324.839C190.773 325.582 190.469 327.191 189.455 327.565C188.442 327.937 187.226 326.89 187.395 325.791Z" fill="white"/>
<path d="M144.777 331.968C144.947 330.869 146.417 330.265 147.267 330.945L147.355 331.019C148.156 331.762 147.852 333.371 146.838 333.743C145.825 334.117 144.609 333.069 144.777 331.968Z" fill="white"/>
<path d="M180.859 359.735C181.027 358.634 182.497 358.03 183.348 358.709L183.435 358.783C184.237 359.526 183.934 361.135 182.919 361.509C181.907 361.881 180.69 360.834 180.859 359.735Z" fill="white"/>
<path d="M213.887 439.601C214.056 438.502 215.527 437.898 216.377 438.578L216.464 438.653C217.266 439.395 216.961 441.004 215.947 441.376C214.935 441.75 213.719 440.702 213.887 439.601Z" fill="white"/>
<path d="M202.104 393.54C202.272 392.44 203.742 391.836 204.593 392.514L204.68 392.589C205.482 393.331 205.179 394.94 204.164 395.313C203.152 395.687 201.935 394.639 202.104 393.54Z" fill="white"/>
<path d="M115.239 312.655C115.409 311.556 116.878 310.95 117.729 311.63L117.815 311.705C118.618 312.447 118.314 314.056 117.301 314.428C116.287 314.802 115.071 313.755 115.239 312.655Z" fill="white"/>
<path d="M73.7843 404.374C73.9538 403.275 75.423 402.671 76.2745 403.351L76.3605 403.426C77.1632 404.168 76.8588 405.777 75.8455 406.149C74.8323 406.523 73.6161 405.475 73.7843 404.374Z" fill="white"/>
<path d="M57.6307 325.444C57.8002 324.343 59.2693 323.739 60.1207 324.418L60.2067 324.494C61.0094 325.236 60.705 326.844 59.6918 327.217C58.6786 327.59 57.4624 326.543 57.6307 325.444Z" fill="white"/>
<path d="M63.9729 377.134C64.1424 376.034 65.6115 375.43 66.463 376.108L66.549 376.184C67.3516 376.927 67.0473 378.534 66.034 378.908C65.0208 379.281 63.8046 378.235 63.9729 377.134Z" fill="white"/>
<path d="M100.197 414.458C100.366 413.359 101.835 412.754 102.686 413.434L102.774 413.508C103.575 414.251 103.272 415.858 102.257 416.232C101.245 416.605 100.028 415.559 100.197 414.458Z" fill="white"/>
<path d="M98.6721 383.389C98.8417 382.288 100.311 381.684 101.162 382.363L101.248 382.437C102.051 383.18 101.747 384.789 100.733 385.163C99.7201 385.535 98.5039 384.488 98.6721 383.389Z" fill="white"/>
<path d="M76.8179 325.712C76.9862 324.613 78.4553 324.009 79.3068 324.689L79.3941 324.764C80.1955 325.506 79.8911 327.115 78.8779 327.488C77.8646 327.861 76.6484 326.813 76.8179 325.712Z" fill="white"/>
<path d="M106.238 295.611C106.407 294.511 107.876 293.905 108.727 294.585L108.814 294.66C109.616 295.402 109.311 297.011 108.298 297.384C107.285 297.758 106.069 296.71 106.238 295.611Z" fill="white"/>
<path d="M107.306 344.137C107.474 343.037 108.943 342.433 109.795 343.113L109.882 343.188C110.683 343.93 110.379 345.538 109.366 345.912C108.354 346.285 107.136 345.237 107.306 344.137Z" fill="white"/>
<path d="M144.864 492.173C145.033 491.074 146.504 490.47 147.355 491.15L147.442 491.224C148.243 491.967 147.939 493.575 146.924 493.948C145.912 494.322 144.696 493.273 144.864 492.173Z" fill="white"/>
<path d="M187.948 467.83C188.116 466.731 189.588 466.125 190.438 466.805L190.525 466.88C191.326 467.622 191.022 469.23 190.007 469.604C188.996 469.976 187.779 468.93 187.948 467.83Z" fill="white"/>
<path d="M222.784 479.762C222.953 478.662 224.422 478.058 225.274 478.736L225.36 478.811C226.163 479.553 225.858 481.162 224.845 481.535C223.832 481.908 222.615 480.861 222.784 479.762Z" fill="white"/>
<path d="M226.512 500.319C226.681 499.22 228.152 498.615 229.002 499.294L229.089 499.369C229.891 500.112 229.586 501.719 228.572 502.093C227.56 502.466 226.343 501.42 226.512 500.319Z" fill="white"/>
<path d="M193.852 507.207C194.021 506.106 195.49 505.502 196.342 506.181L196.428 506.257C197.231 506.999 196.926 508.606 195.913 508.98C194.9 509.353 193.684 508.307 193.852 507.207Z" fill="white"/>
<path d="M204.774 461.169C204.942 460.068 206.411 459.464 207.263 460.143L207.35 460.218C208.151 460.961 207.847 462.568 206.834 462.942C205.82 463.315 204.604 462.269 204.774 461.169Z" fill="white"/>
<path d="M164.701 472.868C164.87 471.767 166.339 471.162 167.191 471.842L167.277 471.916C168.079 472.659 167.775 474.268 166.762 474.64C165.749 475.014 164.532 473.967 164.701 472.868Z" fill="white"/>
<path d="M69.444 461.091C69.6135 459.991 71.0839 459.385 71.9341 460.065L72.0214 460.14C72.8228 460.882 72.5185 462.491 71.5039 462.864C70.4919 463.238 69.2757 462.19 69.444 461.091Z" fill="white"/>
<path d="M128.384 519.61C128.552 518.51 130.021 517.905 130.873 518.584L130.96 518.659C131.761 519.401 131.457 521.01 130.444 521.382C129.431 521.756 128.214 520.709 128.384 519.61Z" fill="white"/>
<path d="M103.246 487.034C103.415 485.935 104.884 485.331 105.735 486.011L105.823 486.085C106.624 486.828 106.321 488.435 105.306 488.809C104.294 489.183 103.077 488.135 103.246 487.034Z" fill="white"/>
<path d="M88.3142 513.526C88.4837 512.427 89.9529 511.821 90.8043 512.501L90.8903 512.576C91.693 513.318 91.3886 514.927 90.3754 515.3C89.3621 515.674 88.146 514.626 88.3142 513.526Z" fill="white"/>
<path d="M129.859 374.79C130.029 373.691 131.499 373.085 132.349 373.765L132.437 373.84C133.238 374.582 132.934 376.19 131.919 376.564C130.907 376.936 129.691 375.89 129.859 374.79Z" fill="white"/>
<path d="M96.0532 442.422C96.2214 441.322 97.6919 440.718 98.5434 441.396L98.6307 441.471C99.4321 442.213 99.1277 443.822 98.1131 444.196C97.1011 444.569 95.885 443.521 96.0532 442.422Z" fill="white"/>
<path d="M107.018 468.039C107.187 466.94 108.656 466.334 109.507 467.014L109.594 467.089C110.396 467.831 110.091 469.44 109.078 469.813C108.065 470.187 106.849 469.139 107.018 468.039Z" fill="white"/>
<path d="M70.9697 488.616C71.138 487.516 72.6071 486.912 73.4586 487.59L73.5459 487.666C74.3473 488.409 74.0429 490.016 73.0297 490.39C72.0164 490.762 70.8002 489.717 70.9697 488.616Z" fill="white"/>
<path d="M169.609 518.322C169.778 517.221 171.247 516.617 172.098 517.296L172.186 517.37C172.987 518.113 172.683 519.722 171.669 520.096C170.657 520.468 169.44 519.421 169.609 518.322Z" fill="white"/>
<path d="M251.804 510.548C251.972 509.449 253.441 508.844 254.293 509.524L254.38 509.6C255.181 510.342 254.877 511.951 253.864 512.323C252.85 512.697 251.634 511.649 251.804 510.548Z" fill="white"/>
<path d="M179.42 496.562C179.589 495.463 181.058 494.857 181.909 495.537L181.997 495.612C182.798 496.354 182.494 497.961 181.48 498.335C180.468 498.708 179.251 497.662 179.42 496.562Z" fill="white"/>
<path d="M248.755 481.342C248.923 480.242 250.393 479.638 251.244 480.318L251.331 480.393C252.133 481.135 251.828 482.744 250.815 483.117C249.802 483.49 248.586 482.442 248.755 481.342Z" fill="white"/>
<path d="M132.908 433.045C133.076 431.945 134.548 431.34 135.398 432.019L135.485 432.094C136.287 432.836 135.982 434.445 134.968 434.819C133.956 435.191 132.74 434.144 132.908 433.045Z" fill="white"/>
<path d="M157.153 359.735C157.323 358.634 158.792 358.03 159.643 358.709L159.729 358.783C160.532 359.526 160.228 361.135 159.214 361.509C158.201 361.881 156.985 360.834 157.153 359.735Z" fill="white"/>
<path d="M163.209 423.308C163.377 422.209 164.847 421.604 165.698 422.284L165.785 422.358C166.587 423.101 166.284 424.708 165.269 425.082C164.257 425.455 163.04 424.409 163.209 423.308Z" fill="white"/>
<path d="M173.074 402.572C173.243 401.471 174.714 400.867 175.564 401.546L175.651 401.622C176.453 402.364 176.148 403.971 175.134 404.345C174.122 404.718 172.906 403.672 173.074 402.572Z" fill="white"/>
<path d="M129.454 467.754C129.622 466.653 131.091 466.049 131.942 466.728L132.03 466.802C132.831 467.545 132.527 469.154 131.513 469.526C130.5 469.9 129.284 468.853 129.454 467.754Z" fill="white"/>
<path d="M160.2 454.963C160.37 453.863 161.84 453.259 162.69 453.939L162.778 454.014C163.579 454.756 163.275 456.365 162.26 456.738C161.248 457.112 160.032 456.063 160.2 454.963Z" fill="white"/>
<path d="M147.04 384.763C147.208 383.664 148.677 383.059 149.529 383.739L149.616 383.813C150.418 384.556 150.114 386.165 149.1 386.537C148.088 386.911 146.871 385.864 147.04 384.763Z" fill="white"/>
<path d="M193.852 434.471C194.021 433.371 195.49 432.767 196.342 433.445L196.428 433.52C197.231 434.262 196.926 435.871 195.913 436.244C194.9 436.618 193.684 435.571 193.852 434.471Z" fill="white"/>
<path d="M121.596 411.657C121.765 410.557 123.236 409.953 124.086 410.631L124.174 410.706C124.975 411.448 124.671 413.057 123.656 413.431C122.644 413.804 121.428 412.756 121.596 411.657Z" fill="white"/>
<path d="M54.5815 352.102C54.751 351.003 56.2201 350.399 57.0716 351.079L57.1576 351.154C57.9603 351.896 57.6559 353.504 56.6427 353.878C55.6294 354.251 54.4132 353.203 54.5815 352.102Z" fill="white"/>
<path d="M81.7905 307.007C81.96 305.908 83.4305 305.303 84.2807 305.983L84.368 306.057C85.1694 306.8 84.865 308.408 83.8504 308.781C82.8385 309.155 81.6223 308.108 81.7905 307.007Z" fill="white"/>
<path d="M134.528 312.655C134.697 311.556 136.166 310.95 137.018 311.63L137.104 311.705C137.906 312.447 137.602 314.056 136.589 314.428C135.576 314.802 134.359 313.755 134.528 312.655Z" fill="white"/>
<path d="M188.318 150.783C198.433 157.453 202.47 171.427 200.542 179.685C199.569 183.849 197.746 188.038 198.542 192.24C199.229 195.872 201.749 198.775 203.635 201.918C209.924 212.401 208.811 227.07 201.017 236.405C193.221 245.738 179.372 248.988 168.456 244.046" fill="#253138"/>
<path d="M194.302 205.325C218.908 149.249 160.381 121.079 128.444 130.424C98.4306 139.208 85.6294 154.685 80.6902 175.485C75.7497 196.294 75.986 218.83 83.8558 238.649C87.7381 248.42 94.7269 258.349 104.857 259.569" fill="#253138"/>
<path d="M165.475 342.266C165.899 315.474 166.199 278.672 166.208 278.824C166.208 278.824 188.435 275.001 193.04 244.955C195.33 230.013 194.605 205.512 193.387 185.486C192.291 167.461 180.764 145.344 163.431 147.244L109.304 161.42C104.037 161.996 100.073 166.652 100.178 172.138L103.705 288.143" fill="#FFBD9D"/>
<path d="M183.71 203.833C183.801 205.856 182.225 207.603 180.188 207.741C178.157 207.88 176.431 206.356 176.34 204.333C176.247 202.312 177.824 200.564 179.856 200.425C181.891 200.287 183.617 201.812 183.71 203.833Z" fill="#253138"/>
<path d="M145.286 203.833C145.377 205.856 143.801 207.603 141.764 207.741C139.733 207.88 138.007 206.356 137.915 204.333C137.823 202.312 139.399 200.564 141.432 200.425C143.467 200.287 145.193 201.812 145.286 203.833Z" fill="#253138"/>
<path d="M187.712 196.834C187.267 197.353 184.381 195.29 180.382 195.441C176.386 195.53 173.518 197.763 173.069 197.27C172.848 197.053 173.29 196.129 174.535 195.12C175.762 194.117 177.879 193.109 180.371 193.033C182.864 192.962 184.989 193.84 186.224 194.771C187.485 195.707 187.932 196.601 187.712 196.834Z" fill="#253138"/>
<path d="M149.733 197.824C149.268 198.324 146.458 196.151 142.459 196.144C138.462 196.076 135.515 198.196 135.082 197.687C134.87 197.46 135.339 196.557 136.627 195.599C137.89 194.643 140.041 193.72 142.533 193.741C145.026 193.766 147.121 194.727 148.321 195.706C149.545 196.69 149.959 197.6 149.733 197.824Z" fill="#253138"/>
<path d="M163.443 229.756C163.424 229.52 165.913 229.076 169.944 228.541C170.965 228.432 171.933 228.223 172.106 227.5C172.347 226.734 171.918 225.592 171.422 224.36C170.462 221.798 169.456 219.113 168.399 216.299C164.204 204.819 161.166 195.379 161.613 195.209C162.06 195.037 165.826 204.202 170.023 215.681C171.032 218.513 171.999 221.213 172.917 223.794C173.305 224.997 173.969 226.362 173.448 227.95C173.173 228.74 172.423 229.315 171.768 229.497C171.114 229.705 170.536 229.716 170.031 229.748C165.976 229.974 163.459 229.991 163.443 229.756Z" fill="#253138"/>
<path d="M166.208 278.825C166.208 278.825 146.701 280.127 127.373 268.091C127.373 268.091 137.185 288.996 166.208 286.184V278.825Z" fill="#EB996D"/>
<path d="M150.722 191.928C150.327 193.055 146.331 192.521 141.638 193.108C136.93 193.598 133.144 195.022 132.521 194.01C132.242 193.526 132.903 192.465 134.433 191.374C135.951 190.284 138.373 189.249 141.191 188.923C144.008 188.604 146.591 189.068 148.3 189.788C150.024 190.508 150.892 191.393 150.722 191.928Z" fill="#253138"/>
<path d="M186.788 186.413C186.083 187.355 183.325 186.38 180.011 186.334C176.697 186.167 173.889 186.966 173.241 185.98C172.958 185.501 173.401 184.558 174.627 183.667C175.837 182.778 177.858 182.053 180.137 182.123C182.415 182.198 184.387 183.052 185.541 184.017C186.712 184.984 187.097 185.954 186.788 186.413Z" fill="#253138"/>
<path d="M105.151 211.693C104.727 211.48 89.6293 204.562 89.4508 222.551C89.2748 240.539 106.742 237.014 106.778 236.499C106.812 235.983 105.151 211.693 105.151 211.693Z" fill="#FFF578"/>
<path d="M101.541 229.627C101.465 229.568 101.237 229.844 100.723 230.081C100.223 230.311 99.3641 230.465 98.4625 230.104C96.635 229.387 95.1196 226.355 95.0683 223.112C95.04 221.474 95.3855 219.918 95.9583 218.633C96.5015 217.322 97.3324 216.412 98.2571 216.252C99.1779 216.042 99.8264 216.621 100.033 217.129C100.262 217.635 100.147 217.993 100.239 218.025C100.286 218.07 100.614 217.728 100.483 216.983C100.415 216.625 100.216 216.199 99.8097 215.849C99.3975 215.493 98.7862 215.308 98.1428 215.373C96.8033 215.455 95.5845 216.718 94.9553 218.129C94.2515 219.544 93.8264 221.293 93.8585 223.132C93.933 226.758 95.6898 230.168 98.1941 230.947C99.4116 231.289 100.434 230.919 100.964 230.5C101.506 230.062 101.601 229.66 101.541 229.627Z" fill="#EB996D"/>
<path d="M169.211 138.371C178.869 143.542 182.845 164.018 178.849 174.495C174.852 184.971 164.083 190.089 153.462 192.498C142.843 194.91 132.429 195.196 121.956 192.178C121.228 199.476 117.005 206.967 110.171 208.892C101.123 211.442 92.0038 202.858 89.9902 193.37C87.9765 183.881 90.9944 174.109 93.9751 164.898" fill="#253138"/>
<path d="M92.6103 203.646C92.5692 203.701 93.0443 204.168 93.9484 204.956C94.8564 205.74 96.1868 206.859 97.9527 208.086C99.7198 209.298 101.95 210.648 104.704 211.471C107.419 212.286 110.746 212.581 113.917 211.331C117.08 210.085 119.415 207.603 120.89 205.085C122.385 202.537 123.056 199.92 123.388 197.741C123.714 195.548 123.71 193.757 123.662 192.53C123.605 191.302 123.5 190.63 123.434 190.634C123.244 190.63 123.451 193.367 122.691 197.612C122.28 199.713 121.559 202.203 120.104 204.58C118.669 206.938 116.457 209.222 113.56 210.359C110.665 211.506 107.557 211.277 104.95 210.548C102.32 209.816 100.119 208.58 98.3341 207.467C94.7883 205.168 92.713 203.498 92.6103 203.646Z" fill="#253138"/>
<path d="M162.261 241.31C161.678 242.84 161.081 244.394 160.104 245.69C159.127 246.988 157.697 248.015 156.112 248.092C154.422 248.176 152.792 247.14 151.85 245.684C150.906 244.228 150.586 242.413 150.663 240.662C150.731 239.078 151.43 237.187 152.95 237.001C153.582 236.924 154.205 237.177 154.794 237.426C157.455 238.543 160.115 239.661 162.776 240.78" fill="#EB996D"/>
<path d="M159.073 248.116C159.033 247.857 157.28 248.594 154.816 247.571C153.623 247.073 152.315 246.088 151.598 244.539C150.877 243.01 150.735 240.939 151.492 239.129C151.667 238.675 151.93 238.261 152.188 237.891C152.504 237.548 152.446 237.564 152.789 237.616C153.116 237.708 153.642 237.963 154.07 238.136C154.514 238.325 154.952 238.509 155.381 238.69C157.09 239.407 158.636 240.032 159.944 240.538C162.558 241.551 164.214 242.083 164.29 241.895C164.368 241.708 162.853 240.835 160.339 239.577C159.083 238.949 157.577 238.223 155.896 237.439C155.473 237.243 155.043 237.042 154.605 236.839C154.138 236.641 153.783 236.424 153.146 236.217C152.834 236.126 152.393 236.075 151.961 236.252C151.54 236.429 151.278 236.726 151.081 236.973C150.724 237.466 150.41 237.971 150.184 238.542C149.245 240.803 149.471 243.306 150.428 245.161C151.404 247.056 153.067 248.12 154.479 248.555C155.916 249.014 157.153 248.904 157.939 248.695C158.733 248.478 159.104 248.199 159.073 248.116Z" fill="#253138"/>
<path d="M85.6827 199.379C87.4613 199.25 101.8 201.174 100.67 228.792C99.6153 254.587 82.1498 248.907 76.5762 239.195C71.298 229.995 68.248 200.647 85.6827 199.379Z" fill="#455A63"/>
<path d="M76.8165 202.642C76.8358 202.642 76.8576 202.393 76.8833 201.915C76.9038 201.378 76.9334 200.682 76.968 199.814C77.0194 197.906 77.0913 195.249 77.1799 191.946C77.3109 185.162 77.4933 175.741 77.7039 164.859L77.3816 165.189C79.7471 165.192 82.2321 165.196 84.7749 165.2L84.4423 164.846C84.3884 166.902 84.3331 169.071 84.2753 171.271C84.0262 181.635 83.7976 191.289 83.6037 199.367L83.596 199.604L83.8194 199.657C87.1456 200.465 89.7744 202.469 91.4324 204.736C93.1211 207.008 93.961 209.419 94.4747 211.4C94.9858 213.395 95.1592 215.017 95.2568 216.116C95.3043 216.667 95.33 217.092 95.3442 217.378C95.3608 217.664 95.3698 217.809 95.3852 217.81C95.3994 217.81 95.4212 217.665 95.4328 217.378C95.4469 217.09 95.4482 216.662 95.4276 216.106C95.3827 214.994 95.262 213.352 94.7906 211.318C94.3155 209.297 93.5064 206.821 91.7971 204.452C90.1225 202.086 87.3922 199.955 83.9491 199.092L84.1649 199.382C84.3884 191.303 84.6555 181.655 84.9431 171.291C84.9984 169.091 85.0536 166.919 85.1062 164.863L85.1152 164.512H84.7749C82.2321 164.516 79.7471 164.518 77.3816 164.521H77.0644L77.0605 164.851C76.9462 175.733 76.8448 185.154 76.7728 191.939C76.7626 195.243 76.7549 197.901 76.7484 199.809C76.7574 200.678 76.7664 201.375 76.7728 201.914C76.7831 202.393 76.796 202.642 76.8165 202.642Z" fill="#455A63"/>
<path d="M85.6854 164.855C85.6854 164.855 93.1828 146.672 111.052 137.699C119.707 133.353 126.184 131.111 132.458 129.475C132.458 129.475 122.033 126.91 105.163 134.688C97.4991 138.221 89.777 142.822 84.6696 149.719C81.4269 154.099 77.3764 162.659 77.3829 164.855H85.6854Z" fill="#455A63"/>
<path d="M131.944 385.033C131.95 385.025 131.842 384.902 131.624 384.67C131.411 384.432 131.069 384.102 130.654 383.635C129.81 382.714 128.602 381.31 127.188 379.373C125.768 377.439 124.176 374.947 122.503 371.924C120.828 368.903 119.09 365.346 117.198 361.369C113.409 353.414 109.025 343.771 104.49 332.724C102.219 327.203 99.9071 321.333 97.6057 315.152C97.0355 313.606 96.4602 312.041 95.8784 310.463C95.3018 308.882 94.7098 307.256 93.816 305.746C92.935 304.234 91.6584 302.898 90.0853 302.073C89.3057 301.658 88.4299 301.342 87.4731 301.385C86.9967 301.425 86.51 301.589 86.1106 301.898C85.697 302.205 85.4505 302.656 85.2437 303.095L85.2013 303.183L85.2232 303.287C85.3516 303.895 85.5352 304.516 85.9128 305.061C86.2826 305.609 86.8837 306.011 87.5155 306.151C88.7972 306.419 90.0185 305.997 91.0985 305.468C93.4191 304.466 94.7945 301.617 94.2706 299.021C94.0304 297.714 93.2432 296.523 92.1863 295.771C91.1319 295.014 89.8361 294.616 88.5365 294.694C87.2664 294.777 85.8743 295.315 85.1666 296.62C84.8032 297.256 84.843 298.197 85.3002 298.789C85.7279 299.392 86.3148 299.753 86.9273 300.02C89.099 300.913 91.7072 300.127 93.0814 298.213C93.7697 297.256 94.0574 296.014 93.9161 294.857C93.7967 293.693 93.3125 292.594 92.5818 291.722C91.8498 290.848 90.8301 290.212 89.691 290.065C88.5711 289.95 87.3768 290.273 86.5665 291.177C86.1606 291.622 85.9346 292.253 85.9513 292.876C85.9565 293.512 86.2672 294.115 86.6936 294.517C87.5515 295.326 88.7317 295.616 89.8335 295.393C90.9804 295.142 91.801 294.25 92.3327 293.31C92.8643 292.348 93.1263 291.286 93.274 290.241C93.5296 288.164 93.5026 285.976 92.5908 284.035C92.1041 283.095 91.426 282.22 90.4025 281.793C89.402 281.38 88.3002 281.488 87.3524 281.893C86.4342 282.309 85.5185 283.171 85.471 284.357C85.3901 285.509 86.1709 286.538 87.1007 286.956C88.0202 287.411 89.1491 287.431 90.0557 286.912C90.9547 286.41 91.5673 285.517 91.8806 284.575C92.2209 283.642 92.1978 282.563 92.0553 281.664C91.9397 280.731 91.774 279.798 91.462 278.901C91.1627 278.014 90.6413 277.131 89.9055 276.551C89.1876 275.959 88.3721 275.527 87.486 275.306C87.057 275.211 86.56 275.119 86.0707 275.288C85.6071 275.448 85.2206 275.733 84.8957 276.064C84.5746 276.401 84.3126 276.795 84.1405 277.243C83.9659 277.68 83.9017 278.232 84.0969 278.715C84.4757 279.724 85.5609 280.052 86.3931 280.032C87.2741 280.044 88.1191 279.68 88.8049 279.193C90.1829 278.181 91.0703 276.618 91.3836 275.004C91.7291 273.395 91.5518 271.686 90.8442 270.265C90.4744 269.568 90.0236 268.913 89.402 268.436C88.7908 267.957 88.0819 267.657 87.3486 267.519C86.6204 267.399 85.8332 267.447 85.1641 267.838C84.5078 268.223 84.0237 268.943 83.9852 269.725C83.9351 271.306 85.1166 272.547 86.4059 272.917C87.7865 273.295 89.1105 272.521 89.8978 271.559C90.7145 270.575 91.137 269.347 91.2154 268.153C91.3245 265.73 90.4037 263.693 89.9581 261.782C89.4342 259.869 88.9564 258.122 88.5262 256.545C87.6645 253.424 86.9903 250.991 86.5254 249.305C86.2955 248.502 86.117 247.877 85.9886 247.426C85.864 247.004 85.7844 246.794 85.7844 246.794C85.7844 246.794 85.8203 247.019 85.9231 247.447C86.0361 247.902 86.1928 248.53 86.3957 249.342C86.8336 251.036 87.4654 253.483 88.2758 256.618C88.6893 258.199 89.1491 259.951 89.6499 261.869C90.0878 263.798 90.9714 265.849 90.8417 268.126C90.762 269.239 90.3537 270.389 89.5947 271.286C88.8742 272.169 87.6581 272.827 86.5164 272.491C85.4029 272.181 84.364 271.02 84.4346 269.76C84.4629 269.145 84.8584 268.563 85.3901 268.255C85.9333 267.938 86.6165 267.89 87.2702 268.003C87.9239 268.13 88.5699 268.405 89.1092 268.836C89.6512 269.253 90.0724 269.866 90.4037 270.501C91.0459 271.802 91.2077 273.394 90.8789 274.892C90.5823 276.394 89.7488 277.829 88.5018 278.735C87.8674 279.177 87.1598 279.476 86.3905 279.467C85.6508 279.48 84.8469 279.182 84.6131 278.505C84.3512 277.862 84.7685 277.03 85.2951 276.478C85.5699 276.197 85.8974 275.967 86.2416 275.85C86.569 275.73 86.9582 275.794 87.355 275.883C88.923 276.302 90.4153 277.408 90.9097 279.109C91.1961 279.939 91.3541 280.833 91.4645 281.741C91.6032 282.67 91.6096 283.52 91.3117 284.37C91.0343 285.197 90.5026 285.95 89.7642 286.356C89.0502 286.768 88.1217 286.757 87.3627 286.378C86.5947 286.023 86.0309 285.242 86.0926 284.39C86.1157 283.545 86.8118 282.851 87.6028 282.49C88.4081 282.147 89.3661 282.062 90.1687 282.402C90.9611 282.719 91.6071 283.509 92.0219 284.333C92.8386 286.064 92.8862 288.163 92.6332 290.144C92.4919 291.137 92.2415 292.123 91.7689 292.973C91.3027 293.805 90.572 294.55 89.6987 294.729C88.8203 294.914 87.8006 294.652 87.1469 294.022C86.4535 293.416 86.447 292.306 87.0596 291.634C87.6593 290.948 88.6906 290.64 89.6178 290.749C90.5514 290.868 91.4453 291.409 92.081 292.176C93.3755 293.682 93.7505 296.153 92.5433 297.803C91.3836 299.451 89.0258 300.159 87.1803 299.38C86.6589 299.157 86.1465 298.824 85.8447 298.385C85.5301 297.952 85.5095 297.417 85.7574 296.942C86.2737 295.96 87.4577 295.448 88.5763 295.385C90.8519 295.222 93.2239 296.844 93.6195 299.158C94.0741 301.441 92.8836 303.97 90.8134 304.853C89.8079 305.357 88.6726 305.71 87.6632 305.488C86.623 305.292 86.0566 304.248 85.8627 303.163L85.8434 303.355C86.1414 302.602 86.7527 302.099 87.5168 302.055C88.2796 302.017 89.0746 302.282 89.7924 302.668C91.2513 303.435 92.4341 304.659 93.2753 306.093C94.1293 307.526 94.7149 309.115 95.2928 310.693C95.8784 312.272 96.4576 313.836 97.0304 315.384C99.3484 321.565 101.681 327.436 103.973 332.954C108.547 343.997 112.981 353.626 116.824 361.559C118.743 365.527 120.513 369.079 122.222 372.094C123.929 375.111 125.554 377.596 127.008 379.517C129.917 383.366 131.944 385.033 131.944 385.033Z" fill="white"/>
<path d="M70.1208 186.429C70.2364 186.455 70.0682 184.545 71.2908 181.509C72.4774 178.529 75.3939 174.483 80.5103 171.941C83.0479 170.7 86.0902 169.914 89.3946 169.69C92.7028 169.465 96.2626 169.793 99.9343 170.524C107.295 171.926 115.025 175.22 123.682 176.57C128.019 177.16 132.315 177.132 136.397 176.557C140.484 175.962 144.308 174.762 147.828 173.345C154.829 170.351 160.474 166.174 164.473 161.954C168.494 157.747 171.092 153.719 172.537 150.778C172.947 150.069 173.247 149.405 173.482 148.817C173.724 148.249 173.929 147.759 174.105 147.345C174.255 146.977 174.377 146.677 174.476 146.435C174.555 146.229 174.592 146.121 174.58 146.117C174.57 146.112 174.513 146.211 174.413 146.408C174.299 146.643 174.158 146.931 173.983 147.288C173.793 147.694 173.567 148.171 173.305 148.728C173.051 149.303 172.733 149.953 172.308 150.649C170.803 153.533 168.165 157.483 164.141 161.606C160.139 165.742 154.527 169.828 147.6 172.753C144.116 174.137 140.337 175.309 136.308 175.885C132.279 176.441 128.047 176.464 123.776 175.885C115.236 174.557 107.495 171.284 100.049 169.896C96.3384 169.176 92.7246 168.863 89.3573 169.116C85.9926 169.372 82.8951 170.198 80.3035 171.501C75.0998 174.158 72.1833 178.34 71.0506 181.406C70.4355 182.948 70.2762 184.244 70.1568 185.101C70.1401 185.503 70.126 185.828 70.1131 186.093C70.108 186.315 70.1093 186.429 70.1208 186.429Z" fill="#455A63"/>
<path d="M89.501 157.753C89.4984 157.777 89.8169 157.834 90.423 157.922C91.0279 158.007 91.9217 158.145 93.0634 158.351C95.3545 158.746 98.6306 159.5 102.664 160.541C106.693 161.576 111.526 162.831 117.026 163.423C122.513 164.026 128.63 163.976 134.935 163.02C141.244 162.074 147.117 160.331 152.236 158.199C157.355 156.062 161.742 153.592 165.222 151.213C166.947 150.001 168.495 148.88 169.794 147.82C171.07 146.723 172.215 145.84 173.06 145.007C173.869 144.219 174.518 143.586 175.013 143.104C175.455 142.664 175.677 142.424 175.661 142.407C175.645 142.389 175.392 142.594 174.922 143.002C174.407 143.458 173.733 144.057 172.89 144.803C172.023 145.602 170.86 146.451 169.57 147.511C168.255 148.537 166.695 149.623 164.966 150.801C158.012 155.41 147.394 160.488 134.84 162.335C128.59 163.281 122.531 163.351 117.088 162.789C111.637 162.236 106.823 161.04 102.775 160.065C98.7256 159.084 95.4149 158.397 93.1045 158.085C91.95 157.918 91.0485 157.824 90.4372 157.784C89.8246 157.74 89.5023 157.729 89.501 157.753Z" fill="#455A63"/>
<path d="M87.5911 246.91C87.6 246.932 87.7721 246.879 88.0945 246.758C88.4117 246.625 88.8753 246.411 89.4262 246.043C90.5281 245.33 91.996 243.995 93.1839 241.89C94.3885 239.794 95.1861 236.96 95.4891 233.791C95.7858 230.618 95.7871 227.123 95.502 223.47C95.204 219.817 94.6094 216.368 93.8517 213.293C93.1056 210.226 92.2118 207.47 90.9853 205.393C89.7768 203.305 88.3154 201.964 87.2045 201.262C86.6497 200.905 86.1861 200.688 85.865 200.561C85.544 200.44 85.3693 200.396 85.3616 200.418C85.3359 200.476 86.0179 200.725 87.0607 201.486C88.0996 202.238 89.4583 203.587 90.5769 205.64C91.7135 207.684 92.5457 210.392 93.2533 213.447C93.9712 216.5 94.5414 219.913 94.8355 223.527C95.1167 227.137 95.1347 230.61 94.8765 233.728C94.612 236.842 93.8813 239.596 92.773 241.647C91.6762 243.713 90.3098 245.057 89.2798 245.82C88.2473 246.597 87.5641 246.846 87.5911 246.91Z" fill="#253138"/>
<path d="M143.838 250.732L157.009 253.411C158.995 253.814 160.92 252.474 161.309 250.417L161.405 249.915C161.793 247.858 160.501 245.863 158.516 245.46L145.345 242.782C143.359 242.378 141.434 243.718 141.044 245.774L140.949 246.277C140.56 248.334 141.853 250.329 143.838 250.732Z" fill="#455A63"/>
<path d="M142.83 244.829L81.8984 225.024C80.3907 224.534 78.7841 225.398 78.3026 226.956C77.8017 228.573 78.7058 230.295 80.2893 230.738L142.596 248.18L142.83 244.829Z" fill="#455A63"/>
<path d="M97.7925 236.124C97.8053 236.078 97.0874 235.818 95.7762 235.389C94.3495 234.939 92.4706 234.347 90.204 233.629C87.8666 232.882 84.9964 232.094 81.9605 231.061C81.2285 230.768 80.5144 230.372 79.9635 229.789C79.4344 229.222 79.0915 228.403 79.1056 227.593C79.1069 226.782 79.6065 226.053 80.3667 225.785C81.1283 225.522 82.0401 225.639 82.9134 225.866C89.9959 228.227 96.4017 230.363 101.18 231.955C103.446 232.682 105.321 233.281 106.745 233.737C108.062 234.143 108.798 234.347 108.814 234.3C108.828 234.255 108.12 233.965 106.827 233.48C105.421 232.972 103.568 232.3 101.329 231.491C96.6636 229.849 90.2682 227.579 83.0777 225.194C82.1467 224.959 81.1373 224.798 80.1458 225.136C79.1441 225.467 78.4327 226.536 78.4519 227.577C78.4455 228.609 78.8578 229.558 79.5089 230.253C80.1587 230.931 80.9613 231.355 81.7396 231.659C84.8898 232.691 87.6971 233.406 90.073 234.102C92.3653 234.731 94.2647 235.253 95.7043 235.648C97.0373 235.998 97.7796 236.17 97.7925 236.124Z" fill="#253138"/>
<path d="M197.426 187.764C195.34 195.351 202.783 201.857 205.403 209.266C207.937 216.429 205.78 224.454 202.66 231.364C199.541 238.275 195.435 244.831 193.839 252.277C189.901 270.64 205.925 290.422 202.873 308.965C201.761 315.718 199.137 322.768 196.862 329.2C194.584 335.632 194.744 341.515 196.862 348.005C200.324 358.626 206.203 363.634 210.344 373.99C212.461 379.286 212.296 385.217 212.189 390.949C212.083 396.679 212.121 402.657 214.582 407.789C217.042 412.923 222.679 416.892 228.021 415.404C222.431 422.216 212.106 424.252 204.489 420.046C197.462 416.164 193.532 408.28 190.17 400.802C173.882 364.592 165.268 361.535 165.715 321.589C165.744 319.016 166.207 279.009 166.207 279.009C166.207 279.009 172.306 277.323 175.822 274.811C194.013 261.802 194.675 238.617 194.531 220.649" fill="#253138"/>
<path d="M161.026 308.965V324.04C161.026 324.04 172.218 383.183 175.575 416.039C178.932 448.895 179.503 457.564 179.503 457.564C179.503 457.564 171.472 470.542 154.685 448.509C137.896 426.477 134.911 422.996 128.197 422.61C128.197 422.61 136.405 330.226 136.033 326.746C135.659 323.268 133.047 320.176 133.047 320.176L161.026 308.965Z" fill="#FFBD9D"/>
<path d="M139.015 274.948C139.015 274.948 157.296 300.075 158.788 303.553C160.282 307.031 161.028 308.963 161.028 308.963L133.048 320.174L105.813 289.251L95.7399 261.806L98.7258 229.335C98.7258 229.335 104.695 228.949 105.813 234.361C106.933 239.772 106.561 244.797 106.561 244.797L114.919 237.839L128.385 233.588C128.385 233.588 131.555 239 126.333 241.705C121.11 244.412 119.618 244.412 119.618 244.412L114.919 252.914L116.972 262.443L126.493 253.19C128.404 251.334 131.318 251.146 133.436 252.741L139.59 257.376L145.358 254.708L156.55 264.898L161.028 269.15C161.028 269.15 158.042 274.948 152.074 272.242L146.105 269.537L139.015 274.948Z" fill="#FFBD9D"/>
<path d="M161.027 314.053C161.027 314.053 161.05 313.78 161.033 313.248C161.015 312.716 160.973 311.923 160.851 310.889C160.725 309.856 160.53 308.579 160.149 307.099C159.736 305.642 159.266 303.91 158.187 302.232C154.007 295.573 147.416 286.312 139.205 274.804L139.156 275.145C141.37 273.46 143.768 271.637 146.253 269.747L146.004 269.777C147.209 270.326 148.441 270.886 149.693 271.457C150.952 272 152.182 272.695 153.624 273.045C155.043 273.38 156.64 273.272 157.992 272.531C159.362 271.83 160.467 270.676 161.274 269.287L161.384 269.099L161.215 268.937C156.402 264.257 151.056 259.523 145.561 254.471L145.395 254.32L145.203 254.437C143.665 255.378 141.96 256.421 140.236 257.476L140.562 257.485C138.653 256.183 136.715 254.861 134.75 253.52C133.746 252.852 132.825 252.171 131.732 251.501C130.562 250.883 129.057 251.014 127.991 251.841C124.297 255.074 120.517 258.385 116.668 261.753L117.201 261.939C116.586 259.074 115.915 255.972 115.242 252.841L115.206 253.086C116.694 250.398 118.294 247.503 119.907 244.583L119.616 244.758C120.501 244.658 121.175 244.381 121.936 244.11C122.673 243.829 123.404 243.509 124.133 243.171C124.863 242.836 125.586 242.473 126.311 242.103C126.673 241.917 127.038 241.672 127.401 241.456C127.723 241.163 128.099 240.94 128.367 240.579C129.226 239.638 129.726 238.31 129.663 237.026C129.636 235.736 129.265 234.527 128.67 233.408L128.544 233.175L128.288 233.257C123.739 234.694 119.248 236.114 114.822 237.512L114.761 237.531L114.712 237.572C111.89 239.923 109.105 242.244 106.357 244.533L106.887 244.824C107.063 241.319 106.827 237.873 106.176 234.533C105.894 232.827 104.916 231.145 103.454 230.252C102.011 229.329 100.356 228.979 98.7078 229.009L98.4394 229.014L98.4125 229.306C97.3645 240.848 96.3757 251.722 95.4613 261.778L95.4536 261.847L95.4793 261.91C99.2113 272.027 102.597 281.202 105.599 289.336L105.616 289.379L105.644 289.412C114.599 299.512 121.805 307.641 126.79 313.263C129.273 316.041 131.2 318.2 132.527 319.682C133.174 320.398 133.671 320.946 134.026 321.336C134.366 321.706 134.551 321.883 134.551 321.883C134.551 321.883 134.399 321.675 134.074 321.289C133.731 320.889 133.25 320.326 132.623 319.591C131.318 318.088 129.42 315.903 126.976 313.086C122.028 307.429 114.875 299.252 105.986 289.09L106.031 289.166C103.056 281.019 99.7031 271.834 96.0045 261.702L96.0225 261.834C96.9561 251.781 97.9668 240.908 99.0392 229.367L98.7464 229.663C100.236 229.633 101.83 229.974 103.113 230.811C104.427 231.627 105.274 233.069 105.545 234.667C106.181 237.933 106.409 241.362 106.235 244.772L106.196 245.536L106.765 245.062C109.517 242.775 112.304 240.456 115.127 238.108L115.016 238.168C119.44 236.772 123.933 235.354 128.481 233.919L128.099 233.768C128.621 234.747 128.978 235.907 128.995 237.038C129.048 238.179 128.623 239.285 127.879 240.108C127.652 240.424 127.303 240.622 127.023 240.885C126.684 241.082 126.372 241.298 126.013 241.481C125.295 241.849 124.579 242.209 123.86 242.539C122.447 243.179 120.929 243.857 119.616 244.066L119.406 244.099L119.327 244.24C117.714 247.159 116.116 250.056 114.631 252.744L114.567 252.86L114.595 252.99C115.271 256.121 115.942 259.223 116.56 262.087L116.677 262.636L117.092 262.273C120.925 258.909 124.693 255.604 128.372 252.376C129.248 251.696 130.487 251.585 131.451 252.094C132.409 252.68 133.427 253.419 134.403 254.067C136.371 255.404 138.312 256.724 140.223 258.023L140.385 258.133L140.551 258.03C142.272 256.972 143.978 255.924 145.514 254.98L145.159 254.946C150.66 259.983 156.019 264.706 160.839 269.364L160.781 269.014C160.056 270.269 158.996 271.391 157.747 272.024C156.506 272.708 155.063 272.811 153.737 272.503C152.418 272.194 151.164 271.507 149.901 270.965C148.647 270.398 147.414 269.842 146.206 269.298L146.07 269.236L145.956 269.327C143.477 271.227 141.086 273.059 138.879 274.753L138.686 274.898L138.83 275.094C147.086 286.559 153.739 295.785 157.97 302.374C159.041 304 159.532 305.715 159.961 307.154C160.359 308.615 160.572 309.882 160.717 310.907C160.86 311.933 160.928 312.723 160.966 313.251C161.005 313.782 161.027 314.053 161.027 314.053Z" fill="#EB996D"/>
<path d="M126.402 280.767C126.536 280.744 126.041 278.716 125.837 275.423C125.772 273.79 125.861 271.785 126.719 269.837C127.572 267.885 129.256 266.187 131.176 264.651C135.048 261.555 138.783 259.061 141.53 257.344C142.816 256.561 143.91 255.893 144.81 255.344C145.586 254.875 146.012 254.602 145.991 254.558C145.97 254.517 145.505 254.707 144.688 255.105C143.873 255.501 142.707 256.112 141.295 256.92C138.47 258.537 134.671 260.98 130.763 264.106C128.818 265.662 127.046 267.457 126.158 269.573C125.269 271.684 125.239 273.786 125.364 275.453C125.501 277.137 125.792 278.463 125.996 279.372C126.211 280.282 126.358 280.776 126.402 280.767Z" fill="#EB996D"/>
<path d="M106.823 268.706C106.924 268.679 106.653 267.364 106.348 265.229C106.041 263.093 105.749 260.121 105.772 256.832C105.803 253.541 106.143 250.577 106.485 248.446C106.825 246.316 107.117 245.008 107.017 244.98C106.94 244.956 106.484 246.223 106.021 248.354C105.556 250.482 105.135 253.487 105.103 256.828C105.08 260.168 105.452 263.178 105.883 265.314C106.312 267.453 106.744 268.727 106.823 268.706Z" fill="#EB996D"/>
<path d="M-13.5505 528.602C-13.5505 528.794 117.005 528.949 278.013 528.949C439.079 528.949 569.606 528.794 569.606 528.602C569.606 528.411 439.079 528.255 278.013 528.255C117.005 528.255 -13.5505 528.411 -13.5505 528.602Z" fill="#253138"/>
<path d="M151.46 528.926C151.46 528.926 142.751 513.516 123.992 512.856C105.234 512.194 95.8557 528.926 95.8557 528.926H151.46Z" fill="#455A63"/>
<path d="M115.514 528.447C115.651 528.447 115.686 527.308 116.065 525.544C116.436 523.785 117.257 521.418 118.741 519.144C120.235 516.877 122.057 515.212 123.499 514.206C124.94 513.192 125.95 512.741 125.9 512.609C125.871 512.523 124.771 512.778 123.192 513.698C121.618 514.608 119.63 516.287 118.063 518.666C116.506 521.052 115.731 523.586 115.495 525.437C115.251 527.297 115.427 528.452 115.514 528.447Z" fill="#253138"/>
<path d="M163.073 528.223L163.075 528.1C163.141 524.028 166.343 520.761 170.275 520.761H329.964C333.941 520.761 337.166 524.101 337.166 528.223H163.073Z" fill="#30657C"/>
<path d="M468.77 238.389C468.77 241.87 466.254 449.672 466.254 449.672L317.301 486.807H304.982L312.822 196.698H324.022L468.77 238.389Z" fill="#253138"/>
<path d="M437.269 440.973L483.434 528.645H441.24C448.786 527.864 374.423 528.645 374.423 528.645L441.24 510.287L420.347 461.116L422.13 440.973H437.269Z" fill="#253138"/>
<path d="M436.239 457.154L441.241 293.758L395.884 289.251L390.291 463.718L406.493 464.57L436.239 457.154Z" fill="#253138"/>
<path d="M383.952 470.189C383.952 470.189 383.97 469.934 383.979 469.431C383.985 468.908 383.996 468.164 384.007 467.19C384.019 465.197 384.037 462.284 384.06 458.509C384.082 450.915 384.113 439.875 384.152 426.009C384.182 398.235 384.223 359.151 384.272 313.827L383.952 314.158C400.738 314.164 418.796 314.168 437.471 314.173L437.137 313.827V321.367C437.156 365.563 437.174 406.701 437.191 440.972V441.048L437.225 441.11C451.116 467.501 462.64 489.393 470.701 504.707C474.738 512.335 477.906 518.322 480.076 522.42C481.157 524.444 481.986 525.998 482.557 527.067C483.123 528.116 483.434 528.645 483.434 528.645C483.434 528.645 483.176 528.086 482.635 527.024C482.08 525.947 481.272 524.379 480.223 522.335C478.085 518.221 474.964 512.207 470.986 504.547C462.975 489.206 451.522 467.274 437.718 440.833L437.751 440.972C437.767 406.701 437.784 365.563 437.805 321.367V313.827V313.48H437.471C418.796 313.485 400.738 313.49 383.952 313.494H383.631V313.827C383.68 359.151 383.721 398.235 383.75 426.009C383.79 439.875 383.822 450.915 383.844 458.509C383.867 462.284 383.884 465.197 383.897 467.19C383.908 468.164 383.917 468.908 383.924 469.431C383.933 469.934 383.952 470.189 383.952 470.189Z" fill="#455A63"/>
<path d="M420.347 461.117C420.178 461.195 426.603 476.583 434.693 495.484C442.788 514.391 449.484 529.65 449.653 529.572C449.822 529.495 443.4 514.109 435.306 495.201C427.215 476.302 420.515 461.038 420.347 461.117Z" fill="#455A63"/>
<path d="M317.302 486.806C317.302 486.806 317.326 486.554 317.339 486.059C317.349 485.538 317.365 484.809 317.383 483.866C317.406 481.91 317.437 479.073 317.479 475.433C317.532 468.109 317.692 457.513 317.941 444.421C318.423 418.237 319.562 382.078 320.962 342.143C322.362 302.197 323.427 266.024 323.787 239.833C323.976 226.739 324.063 216.14 324.036 208.816C324.023 205.177 324.014 202.34 324.008 200.383C323.998 199.44 323.989 198.711 323.984 198.191C323.973 197.696 323.953 197.443 323.953 197.443C323.953 197.443 323.928 197.696 323.914 198.191C323.905 198.711 323.891 199.44 323.873 200.383C323.851 202.339 323.818 205.176 323.776 208.815C323.723 216.138 323.564 226.732 323.314 239.825C322.834 266.008 321.694 302.172 320.294 342.119C318.894 382.053 317.828 418.221 317.469 444.414C317.28 457.508 317.193 468.107 317.22 475.431C317.231 479.073 317.24 481.91 317.246 483.866C317.257 484.809 317.266 485.538 317.272 486.059C317.281 486.554 317.302 486.806 317.302 486.806Z" fill="#455A63"/>
<path d="M392.076 312.62C391.891 312.62 391.742 347.374 391.742 390.235C391.742 433.11 391.891 467.856 392.076 467.856C392.261 467.856 392.41 433.11 392.41 390.235C392.41 347.374 392.261 312.62 392.076 312.62Z" fill="#455A63"/>
<path d="M472.336 514.959C472.356 514.974 472.577 514.655 472.978 514.034C473.188 513.707 473.432 513.324 473.714 512.881C474.019 512.432 474.332 511.891 474.639 511.256C476.03 508.806 477.609 504.975 478.711 500.012C479.809 495.047 480.18 488.917 479.508 482.222C478.769 475.541 477.038 468.28 473.942 461.193C472.381 457.644 470.366 454.426 468.119 451.595C467.577 450.868 467.02 450.168 466.417 449.517C465.828 448.857 465.26 448.185 464.667 447.556C463.429 446.345 462.269 445.102 460.995 444.052C458.551 441.827 455.966 440.056 453.533 438.449C452.268 437.729 451.076 436.976 449.871 436.366C448.65 435.793 447.522 435.138 446.364 434.707C441.814 432.791 437.9 431.858 435.166 431.616C433.809 431.38 432.733 431.467 432.017 431.418C431.295 431.403 430.917 431.407 430.917 431.431C430.917 431.455 431.296 431.496 432.013 431.556C432.727 431.652 433.791 431.608 435.132 431.883C437.837 432.207 441.698 433.203 446.18 435.16C447.322 435.599 448.432 436.263 449.635 436.841C450.822 437.458 451.997 438.216 453.245 438.94C455.641 440.553 458.187 442.324 460.593 444.538C461.848 445.583 462.992 446.817 464.211 448.018C464.794 448.644 465.351 449.31 465.933 449.963C466.527 450.609 467.076 451.302 467.609 452.02C469.822 454.82 471.801 457.994 473.333 461.483C476.392 468.483 478.132 475.686 478.894 482.293C479.595 488.918 479.275 494.982 478.249 499.907C477.215 504.833 475.72 508.657 474.409 511.127C474.121 511.77 473.829 512.318 473.544 512.774C473.284 513.228 473.058 513.622 472.865 513.959C472.501 514.6 472.317 514.946 472.336 514.959Z" fill="#455A63"/>
<g filter="url(#filter1_d)">
<path fill-rule="evenodd" clip-rule="evenodd" d="M274.022 171.335C273.329 173.477 271.902 175.132 270.158 176.326C269.328 176.896 268.265 177.465 267.316 177.76C266.872 177.901 266.404 177.619 266.276 177.131C266.247 177.019 266.236 176.9 266.247 176.783C266.334 175.84 266.334 174.886 266.221 173.946C266.159 173.421 266.06 172.901 265.925 172.393C262.119 171.832 258.63 169.806 256.052 166.681C253.346 163.399 251.861 159.17 251.861 154.745C251.861 150.007 253.563 145.502 256.62 142.151C259.676 138.801 263.786 136.936 268.109 136.936C272.432 136.936 276.542 138.801 279.599 142.151C282.656 145.502 284.359 150.006 284.359 154.745C284.359 158.411 283.342 161.96 281.42 164.961C279.58 167.832 277.002 170.056 274.022 171.335Z" fill="#24366F"/>
<path fill-rule="evenodd" clip-rule="evenodd" d="M260.859 157.472C261.734 157.472 262.446 156.69 262.446 155.731C262.446 154.773 261.734 153.99 260.859 153.99C259.983 153.99 259.271 154.773 259.271 155.731C259.269 156.69 259.983 157.472 260.859 157.472Z" fill="white"/>
<path fill-rule="evenodd" clip-rule="evenodd" d="M267.292 157.472C268.168 157.472 268.881 156.69 268.881 155.731C268.881 154.773 268.167 153.99 267.292 153.99C266.418 153.99 265.704 154.773 265.704 155.731C265.704 156.69 266.418 157.472 267.292 157.472Z" fill="white"/>
<path fill-rule="evenodd" clip-rule="evenodd" d="M273.727 157.472C274.601 157.472 275.315 156.69 275.315 155.731C275.315 154.773 274.601 153.99 273.727 153.99C272.852 153.99 272.138 154.773 272.138 155.731C272.138 156.69 272.852 157.472 273.727 157.472Z" fill="white"/>
<path fill-rule="evenodd" clip-rule="evenodd" d="M244.894 213.728H281.948C284.64 213.728 286.842 216.788 286.842 220.529V248.575V250.65V268.502C286.842 268.816 286.713 269.083 286.505 269.203C286.297 269.323 286.069 269.261 285.91 269.039L277.571 257.451H244.894C242.203 257.451 240 254.391 240 250.65V220.529C240 216.788 242.203 213.728 244.894 213.728Z" fill="#FCC10F"/>
<path fill-rule="evenodd" clip-rule="evenodd" d="M253.191 239.334C254.756 239.334 256.033 237.652 256.033 235.589C256.033 233.525 254.756 231.844 253.191 231.844C251.624 231.844 250.347 233.527 250.347 235.589C250.347 237.652 251.623 239.334 253.191 239.334Z" fill="white"/>
<path fill-rule="evenodd" clip-rule="evenodd" d="M264.707 239.334C266.274 239.334 267.551 237.652 267.551 235.589C267.551 233.525 266.275 231.844 264.707 231.844C263.141 231.844 261.864 233.527 261.864 235.589C261.864 237.652 263.141 239.334 264.707 239.334Z" fill="white"/>
<path fill-rule="evenodd" clip-rule="evenodd" d="M276.225 239.334C277.791 239.334 279.068 237.652 279.068 235.589C279.068 233.525 277.79 231.844 276.225 231.844C274.66 231.844 273.382 233.527 273.382 235.589C273.382 237.652 274.659 239.334 276.225 239.334Z" fill="white"/>
<path fill-rule="evenodd" clip-rule="evenodd" d="M553.415 218.694H514.326C511.486 218.694 509.163 221.754 509.163 225.495V253.54V255.615V273.468C509.163 273.781 509.299 274.049 509.519 274.169C509.739 274.289 509.978 274.227 510.147 274.005L518.943 262.415H553.414C556.253 262.415 558.577 259.355 558.577 255.614V225.493C558.577 221.753 556.254 218.694 553.415 218.694Z" fill="#24366F"/>
<path fill-rule="evenodd" clip-rule="evenodd" d="M545.387 244.298C546.954 244.298 548.23 242.616 548.23 240.553C548.23 238.489 546.954 236.808 545.387 236.808C543.822 236.808 542.544 238.489 542.544 240.553C542.544 242.616 543.822 244.298 545.387 244.298Z" fill="white"/>
<path fill-rule="evenodd" clip-rule="evenodd" d="M533.869 244.298C535.435 244.298 536.712 242.616 536.712 240.553C536.712 238.489 535.435 236.808 533.869 236.808C532.303 236.808 531.027 238.489 531.027 240.553C531.028 242.616 532.304 244.298 533.869 244.298Z" fill="white"/>
<path fill-rule="evenodd" clip-rule="evenodd" d="M522.353 244.298C523.918 244.298 525.195 242.616 525.195 240.553C525.195 238.489 523.918 236.808 522.353 236.808C520.787 236.808 519.509 238.489 519.509 240.553C519.509 242.616 520.787 244.298 522.353 244.298Z" fill="white"/>
<path fill-rule="evenodd" clip-rule="evenodd" d="M482.624 168.045H510.534C511.167 168.045 511.751 168.293 512.206 168.707C512.331 168.764 512.445 168.857 512.532 168.983C512.582 169.055 512.62 169.134 512.647 169.214C512.975 169.695 513.17 170.292 513.17 170.936V188.913C513.17 189.707 512.874 190.428 512.397 190.952V190.954C511.919 191.478 511.259 191.802 510.534 191.802H482.624C481.899 191.802 481.238 191.478 480.762 190.954C480.284 190.431 479.987 189.708 479.987 188.912V170.934C479.987 170.287 480.183 169.689 480.511 169.206C480.539 169.127 480.577 169.051 480.625 168.981C480.714 168.855 480.825 168.763 480.95 168.706C481.407 168.293 481.991 168.045 482.624 168.045Z" fill="#24366F"/>
<path fill-rule="evenodd" clip-rule="evenodd" d="M495.589 179.92L509.249 168.484H481.93L495.589 179.92ZM480.6 187.571L491.347 178.573L480.6 169.574L480.598 169.619V187.571H480.6ZM499.832 178.573L510.58 187.571V169.619L510.578 169.574L499.832 178.573ZM509.905 188.658L498.844 179.398L496.084 181.708L496.083 181.71L496.074 181.716C496.053 181.736 496.03 181.752 496.007 181.768L496.003 181.77L495.99 181.779L495.986 181.782L495.972 181.79L495.969 181.791L495.954 181.801L495.953 181.802L495.938 181.811L495.935 181.812L495.919 181.82L495.918 181.822L495.901 181.829L495.9 181.83L495.883 181.838H495.882C495.852 181.851 495.822 181.862 495.79 181.872L495.789 181.873C495.757 181.881 495.727 181.888 495.695 181.892L495.693 181.894L495.675 181.895L495.674 181.896L495.656 181.898H495.655L495.618 181.901H495.617L495.599 181.902H495.598H495.58H495.579L495.561 181.901H495.559L495.522 181.898H495.52L495.503 181.896L495.501 181.895L495.483 181.894L495.482 181.892C495.449 181.89 495.418 181.883 495.387 181.873L495.386 181.872C495.354 181.863 495.325 181.852 495.295 181.838H495.297L495.281 181.83L495.279 181.829L495.263 181.822L495.262 181.82L495.245 181.812L495.244 181.811L495.229 181.802L495.226 181.801L495.212 181.793L495.21 181.791L495.196 181.783L495.192 181.78L495.18 181.772L495.175 181.769C495.152 181.754 495.13 181.736 495.108 181.718L495.099 181.711L495.096 181.71L492.336 179.399L481.277 188.659C481.39 188.707 481.511 188.731 481.638 188.731H509.547C509.671 188.731 509.792 188.707 509.905 188.658ZM481.636 166.728H509.545C510.179 166.728 510.762 166.976 511.218 167.39C511.342 167.448 511.455 167.54 511.542 167.666C511.592 167.738 511.631 167.815 511.659 167.897C511.987 168.378 512.182 168.974 512.182 169.619V187.596C512.182 188.389 511.886 189.111 511.407 189.634V189.637C510.93 190.159 510.271 190.485 509.545 190.485H481.636C480.909 190.485 480.251 190.159 479.773 189.637C479.296 189.114 479 188.391 479 187.594V169.619C479 168.972 479.196 168.373 479.524 167.891C479.552 167.812 479.59 167.736 479.638 167.666C479.725 167.54 479.838 167.447 479.963 167.39C480.418 166.977 481.002 166.728 481.636 166.728Z" fill="white"/>
<path fill-rule="evenodd" clip-rule="evenodd" d="M393.59 171.92L407.25 160.484H379.933L393.59 171.92ZM378.601 179.571L389.347 170.573L378.601 161.576L378.6 161.619V179.571H378.601ZM397.834 170.573L408.58 179.571V161.619L408.578 161.576L397.834 170.573ZM407.906 180.659L396.845 171.399L394.086 173.71L394.083 173.711L394.074 173.718C394.053 173.736 394.03 173.754 394.007 173.769L394.002 173.772L393.988 173.78L393.986 173.783L393.972 173.791L393.969 173.793L393.954 173.801L393.952 173.802L393.937 173.812H393.934L393.919 173.82L393.916 173.822L393.9 173.83H393.899L393.881 173.838C393.851 173.852 393.82 173.862 393.789 173.872H393.787C393.756 173.88 393.724 173.887 393.694 173.891H393.693L393.675 173.892L393.674 173.894L393.656 173.895H393.653L393.617 173.898H393.616H393.598H393.597H393.58H393.578H393.56H393.557L393.521 173.895H393.519L393.502 173.894L393.501 173.892L393.483 173.891H393.482C393.45 173.887 393.42 173.88 393.388 173.872H393.387C393.355 173.862 393.325 173.852 393.295 173.838L393.277 173.83H393.276L393.259 173.822L393.258 173.82L393.241 173.812H393.24L393.225 173.802L393.223 173.801L393.207 173.793L393.205 173.791L393.191 173.783L393.187 173.78L393.175 173.772L393.169 173.769C393.147 173.754 393.124 173.736 393.102 173.718L393.094 173.711L393.091 173.71L390.331 171.399L379.272 180.659C379.384 180.707 379.506 180.732 379.633 180.732H407.543C407.671 180.732 407.792 180.707 407.906 180.659ZM379.636 158.728H407.546C408.179 158.728 408.762 158.977 409.218 159.39C409.343 159.447 409.455 159.54 409.544 159.666C409.593 159.738 409.632 159.815 409.659 159.897C409.987 160.379 410.182 160.974 410.182 161.617V179.596C410.182 180.389 409.885 181.112 409.408 181.635V181.637C408.931 182.161 408.271 182.486 407.546 182.486H379.636C378.911 182.486 378.25 182.161 377.773 181.637C377.296 181.114 377 180.391 377 179.596V161.617C377 160.97 377.196 160.372 377.524 159.89C377.551 159.811 377.589 159.736 377.638 159.666C377.727 159.54 377.838 159.447 377.964 159.39C378.419 158.977 379.003 158.728 379.636 158.728Z" fill="#24366F"/>
<g opacity="0.72">
<path fill-rule="evenodd" clip-rule="evenodd" d="M675.532 429.391C675.532 428.815 675.106 428.348 674.58 428.348C674.053 428.348 673.627 428.816 673.627 429.391V431.847H671.386C670.861 431.847 670.435 432.314 670.435 432.89C670.435 433.467 670.862 433.933 671.386 433.933H673.627V436.389C673.627 436.966 674.054 437.434 674.58 437.434C675.106 437.434 675.532 436.966 675.532 436.389V433.933H677.774C678.301 433.933 678.726 433.466 678.726 432.89C678.726 432.314 678.301 431.847 677.774 431.847H675.532V429.391Z" fill="#24366F"/>
<path fill-rule="evenodd" clip-rule="evenodd" d="M370.222 286.315C370.222 285.737 369.795 285.271 369.269 285.271C368.743 285.271 368.317 285.739 368.317 286.315V288.77H366.077C365.551 288.77 365.125 289.239 365.125 289.815C365.125 290.392 365.551 290.858 366.077 290.858H368.317V293.314C368.317 293.891 368.743 294.357 369.269 294.357C369.796 294.357 370.222 293.891 370.222 293.314V290.858H372.463C372.99 290.858 373.416 290.391 373.416 289.815C373.416 289.237 372.988 288.77 372.463 288.77H370.222V286.315Z" fill="#24366F"/>
<path fill-rule="evenodd" clip-rule="evenodd" d="M264.496 301.687C264.496 301.109 264.07 300.644 263.544 300.644C263.017 300.644 262.592 301.109 262.592 301.687V304.142H260.352C259.825 304.142 259.4 304.608 259.4 305.186C259.4 305.763 259.826 306.231 260.352 306.231H262.592V308.686C262.592 309.264 263.019 309.731 263.544 309.731C264.071 309.731 264.496 309.262 264.496 308.686V306.231H266.736C267.263 306.231 267.688 305.762 267.688 305.186C267.688 304.608 267.262 304.142 266.736 304.142H264.496V301.687Z" fill="#24366F"/>
<path fill-rule="evenodd" clip-rule="evenodd" d="M371.3 95.9398C371.3 95.3623 370.874 94.895 370.348 94.895C369.821 94.895 369.396 95.3623 369.396 95.9398V98.3953H367.156C366.629 98.3953 366.204 98.8641 366.204 99.4401C366.204 100.018 366.631 100.483 367.156 100.483H369.396V102.94C369.396 103.518 369.823 103.984 370.348 103.984C370.875 103.984 371.3 103.516 371.3 102.94V100.483H373.541C374.068 100.483 374.494 100.016 374.494 99.4401C374.494 98.8641 374.068 98.3953 373.541 98.3953H371.3V95.9398Z" fill="#24366F"/>
<path fill-rule="evenodd" clip-rule="evenodd" d="M223.499 192.529C223.499 191.952 223.073 191.484 222.546 191.484C222.021 191.484 221.594 191.952 221.594 192.529V194.985H219.354C218.828 194.985 218.401 195.452 218.401 196.03C218.401 196.606 218.828 197.074 219.354 197.074H221.594V199.53C221.594 200.107 222.022 200.575 222.546 200.575C223.073 200.575 223.499 200.107 223.499 199.53V197.074H225.741C226.267 197.074 226.694 196.606 226.694 196.03C226.694 195.452 226.267 194.985 225.741 194.985H223.499V192.529Z" fill="#24366F"/>
<path fill-rule="evenodd" clip-rule="evenodd" d="M208.396 89.6564C208.396 89.0789 207.97 88.6116 207.444 88.6116C206.917 88.6116 206.492 89.0789 206.492 89.6564V92.1119H204.252C203.725 92.1119 203.3 92.5792 203.3 93.1567C203.3 93.7342 203.727 94.2015 204.252 94.2015H206.492V96.657C206.492 97.233 206.919 97.7003 207.444 97.7003C207.971 97.7003 208.396 97.233 208.396 96.657V94.2015H210.637C211.162 94.2015 211.589 93.7342 211.589 93.1567C211.589 92.5792 211.162 92.1119 210.637 92.1119H208.396V89.6564Z" fill="#24366F"/>
<path fill-rule="evenodd" clip-rule="evenodd" d="M157.69 290.673C157.69 290.096 157.264 289.63 156.738 289.63C156.212 289.63 155.787 290.096 155.787 290.673V293.129H153.546C153.019 293.129 152.594 293.596 152.594 294.172C152.594 294.748 153.021 295.217 153.546 295.217H155.787V297.672C155.787 298.248 156.213 298.716 156.738 298.716C157.265 298.716 157.69 298.247 157.69 297.672V295.217H159.931C160.458 295.217 160.884 294.748 160.884 294.172C160.884 293.596 160.456 293.129 159.931 293.129H157.69V290.673Z" fill="#24366F"/>
<path fill-rule="evenodd" clip-rule="evenodd" d="M618.354 203.171C618.354 202.594 617.928 202.126 617.402 202.126C616.877 202.126 616.451 202.594 616.451 203.171V205.627H614.21C613.683 205.627 613.258 206.094 613.258 206.672C613.258 207.249 613.685 207.716 614.21 207.716H616.451V210.172C616.451 210.748 616.877 211.217 617.402 211.217C617.929 211.217 618.354 210.748 618.354 210.172V207.716H620.595C621.122 207.716 621.547 207.249 621.547 206.672C621.547 206.094 621.12 205.627 620.595 205.627H618.354V203.171Z" fill="#24366F"/>
<path fill-rule="evenodd" clip-rule="evenodd" d="M394.992 248.428C394.992 247.851 394.564 247.384 394.04 247.384C393.513 247.384 393.087 247.851 393.087 248.428V250.884H390.847C390.32 250.884 389.893 251.351 389.893 251.929C389.893 252.506 390.32 252.972 390.847 252.972H393.087V255.428C393.087 256.005 393.513 256.472 394.04 256.472C394.566 256.472 394.992 256.005 394.992 255.428V252.972H397.232C397.758 252.972 398.184 252.505 398.184 251.929C398.184 251.353 397.757 250.884 397.232 250.884H394.992V248.428Z" fill="#FCC10F"/>
<path fill-rule="evenodd" clip-rule="evenodd" d="M325.946 171.57C325.946 170.992 325.519 170.525 324.995 170.525C324.468 170.525 324.043 170.992 324.043 171.57V174.025H321.802C321.275 174.025 320.849 174.493 320.849 175.07C320.849 175.646 321.275 176.114 321.802 176.114H324.043V178.571C324.043 179.148 324.469 179.614 324.995 179.614C325.52 179.614 325.946 179.147 325.946 178.571V176.114H328.187C328.712 176.114 329.139 175.646 329.139 175.07C329.139 174.493 328.711 174.025 328.187 174.025H325.946V171.57Z" fill="#FCC10F"/>
<path fill-rule="evenodd" clip-rule="evenodd" d="M451.092 188.124C451.092 187.546 450.664 187.079 450.14 187.079C449.613 187.079 449.187 187.546 449.187 188.124V190.579H446.946C446.419 190.579 445.993 191.046 445.993 191.624C445.993 192.2 446.419 192.667 446.946 192.667H449.187V195.123C449.187 195.699 449.613 196.166 450.14 196.166C450.665 196.166 451.092 195.699 451.092 195.123V192.667H453.332C453.858 192.667 454.284 192.2 454.284 191.624C454.284 191.046 453.858 190.579 453.332 190.579H451.092V188.124Z" fill="#FCC10F"/>
<path fill-rule="evenodd" clip-rule="evenodd" d="M512.585 400.965C512.585 400.388 512.159 399.92 511.633 399.92C511.106 399.92 510.681 400.389 510.681 400.965V403.421H508.441C507.914 403.421 507.489 403.888 507.489 404.464C507.489 405.04 507.914 405.507 508.441 405.507H510.681V407.963C510.681 408.54 511.106 409.006 511.633 409.006C512.16 409.006 512.585 408.539 512.585 407.963V405.507H514.827C515.352 405.507 515.779 405.04 515.779 404.464C515.779 403.888 515.352 403.421 514.827 403.421H512.585V400.965Z" fill="#FCC10F"/>
</g>
</g>
</g>
<defs>
<filter id="filter0_d" x="0" y="0.728027" width="703" height="562" filterUnits="userSpaceOnUse" color-interpolation-filters="sRGB">
<feFlood flood-opacity="0" result="BackgroundImageFix"/>
<feColorMatrix in="SourceAlpha" type="matrix" values="0 0 0 0 0 0 0 0 0 0 0 0 0 0 0 0 0 0 127 0" result="hardAlpha"/>
<feOffset dy="4"/>
<feGaussianBlur stdDeviation="2"/>
<feComposite in2="hardAlpha" operator="out"/>
<feColorMatrix type="matrix" values="0 0 0 0 0 0 0 0 0 0 0 0 0 0 0 0 0 0 0.25 0"/>
<feBlend mode="normal" in2="BackgroundImageFix" result="effect1_dropShadow"/>
<feBlend mode="normal" in="SourceGraphic" in2="effect1_dropShadow" result="shape"/>
</filter>
<filter id="filter1_d" x="148.594" y="88.6116" width="534.131" height="356.822" filterUnits="userSpaceOnUse" color-interpolation-filters="sRGB">
<feFlood flood-opacity="0" result="BackgroundImageFix"/>
<feColorMatrix in="SourceAlpha" type="matrix" values="0 0 0 0 0 0 0 0 0 0 0 0 0 0 0 0 0 0 127 0" result="hardAlpha"/>
<feOffset dy="4"/>
<feGaussianBlur stdDeviation="2"/>
<feComposite in2="hardAlpha" operator="out"/>
<feColorMatrix type="matrix" values="0 0 0 0 0 0 0 0 0 0 0 0 0 0 0 0 0 0 0.25 0"/>
<feBlend mode="normal" in2="BackgroundImageFix" result="effect1_dropShadow"/>
<feBlend mode="normal" in="SourceGraphic" in2="effect1_dropShadow" result="shape"/>
</filter>
<clipPath id="clip0">
<rect width="695" height="554" fill="white" transform="translate(4 0.728027)"/>
</clipPath>
</defs>
</svg>
