<svg xmlns="http://www.w3.org/2000/svg" fill="none" viewBox="0 0 546.18 433.91"><path d="M478.55 303.454C472.409 299.933 465.175 299.474 458.357 300.727C454.694 301.4 450.877 302.617 448.384 305.675C445.892 308.733 445.419 314.114 448.281 316.74C449.984 318.305 452.36 318.541 454.569 318.514C459.907 318.445 465.83 317.4 470.093 320.97C472.527 323.005 474.147 326.391 477.056 327.391C479.901 328.37 483.113 326.506 484.621 323.651C486.13 320.797 486.18 317.229 485.477 314.013C485.477 314.013 484.736 307.001 478.55 303.454Z" fill="#FCC10F"></path><path d="M492.62 273.27C488.864 279.229 481.566 277.256 478.181 273.619C474.797 269.981 473.366 264.709 472.065 259.681C469.09 248.192 466.089 236.138 468.301 224.438C468.962 220.941 470.139 217.452 472.351 214.857C474.563 212.263 477.964 210.718 481.074 211.631C484.753 212.712 487.043 216.718 488.695 220.529C493.555 231.728 496.126 244.145 496.164 256.578C496.182 262.385 495.567 268.474 492.62 273.27Z" fill="#FCC10F"></path><path d="M502.933 281.821C498.855 276.444 498.081 268.6 499.896 261.863C501.71 255.126 505.809 249.396 510.534 244.717C516.072 239.23 522.583 234.96 529.582 232.227C532.336 231.151 535.242 230.301 538.147 230.609C541.054 230.918 543.982 232.569 545.337 235.443C547.342 239.692 545.42 244.844 543.341 249.049C539.679 256.456 535.491 263.541 530.829 270.22C527.08 275.594 522.784 280.893 517.069 283.321C511.354 285.749 505.417 285.464 502.388 281.058" fill="#FCC10F"></path><path d="M492.874 363.181C492.804 363.186 492.69 362.22 492.534 360.472C492.361 358.501 492.144 356.025 491.886 353.081C491.576 349.97 491.168 346.269 490.391 342.24C489.616 338.219 488.403 333.863 486.845 329.444C485.232 325.051 483.265 321.057 480.965 317.864C478.683 314.658 476.027 312.336 473.531 310.997C471.043 309.63 468.813 309.079 467.271 308.831C465.716 308.653 464.844 308.517 464.843 308.44C464.843 308.363 465.716 308.351 467.314 308.398C468.896 308.515 471.219 308.963 473.84 310.286C476.47 311.584 479.288 313.939 481.683 317.212C484.097 320.473 486.137 324.553 487.779 329.025C489.363 333.52 490.558 337.924 491.299 342.03C492.037 346.131 492.375 349.873 492.596 353.008C492.807 356.147 492.887 358.69 492.926 360.446C492.961 362.203 492.943 363.177 492.874 363.181Z" fill="#253138"></path><path d="M492.415 357.492C492.381 357.491 492.359 357.059 492.35 356.236C492.352 355.293 492.356 354.103 492.359 352.642C492.366 349.525 492.365 345.012 492.215 339.438C491.967 328.291 491.103 316.294 489.435 299.381C487.855 283.477 485.734 264.972 483.498 252.939C483.018 250.202 482.534 247.737 482.079 245.583C481.646 243.419 481.275 241.557 480.918 240.048C480.611 238.629 480.361 237.474 480.162 236.555C480.001 235.752 479.931 235.327 479.964 235.317C479.998 235.307 480.132 235.71 480.357 236.494C480.605 237.398 480.915 238.538 481.296 239.937C481.713 241.432 482.14 243.283 482.627 245.435C483.134 247.583 483.668 250.039 484.194 252.772C486.407 263.676 488.75 278.914 490.436 295.868C492.107 312.816 492.859 328.249 492.926 339.424C492.986 345.011 492.879 349.532 492.751 352.653C492.67 354.112 492.606 355.301 492.553 356.246C492.496 357.066 492.451 357.495 492.415 357.492Z" fill="#253138"></path><path d="M492.348 327.729C492.278 327.727 492.291 326.395 492.372 323.976C492.496 321.563 492.794 318.077 493.406 313.805C494.055 309.545 494.961 304.483 496.383 298.985C496.999 296.472 498.448 290.45 501.958 281.451C506.585 269.258 512.868 259.291 518.335 253.114C519.617 251.476 521.045 250.294 522.187 249.136C522.778 248.581 523.3 248.027 523.833 247.588C524.368 247.177 524.866 246.796 525.328 246.443C527.127 245.076 528.134 244.353 528.172 244.419C528.334 244.664 524.142 247.404 518.849 253.661C513.579 259.905 507.469 269.804 502.882 281.895C500.324 288.453 498.54 294.303 497.275 299.27C495.813 304.715 494.841 309.722 494.107 313.941C493.409 318.169 493.006 321.621 492.763 324.011C492.562 326.405 492.418 327.732 492.348 327.729Z" fill="#253138"></path><path d="M518.237 380.233L515.553 421.092H468.318L465.634 380.233H518.237Z" fill="#253138"></path><path d="M522.798 380.231H459.997V364.128H522.798V380.231Z" fill="#253138"></path><path d="M522.798 419.527V423.992H519.847H461.037V419.527H522.798Z" fill="#455A63"></path><path d="M516.955 431.848L519.848 423.992H463.285L466.661 431.848H516.955Z" fill="#455A63"></path><path d="M466.511 393.585C466.5 393.594 466.575 393.721 466.731 393.959C466.919 394.236 467.15 394.579 467.437 395C468.108 395.953 469.029 397.264 470.189 398.914L470.311 399.087L470.429 398.906C472.159 396.247 474.47 392.696 477.19 388.515H476.8C478.811 391.68 481.051 395.204 483.456 398.988L483.664 399.317L483.898 399.008C486.354 395.76 489.022 392.233 491.791 388.571L491.337 388.564C491.473 388.756 491.622 388.963 491.77 389.171C494.219 392.581 496.587 395.883 498.829 399.004L499.064 399.331L499.281 398.991C501.677 395.223 503.916 391.703 505.941 388.52L505.553 388.541C508.835 392.696 511.618 396.221 513.754 398.924L513.9 399.108L514.011 398.901C515.091 396.882 515.953 395.274 516.579 394.107C516.846 393.586 517.063 393.166 517.237 392.83C517.381 392.538 517.451 392.384 517.438 392.375C517.426 392.366 517.332 392.504 517.163 392.78C516.972 393.103 516.731 393.507 516.434 394.008C515.778 395.153 514.874 396.733 513.739 398.715L513.995 398.692C511.893 395.953 509.155 392.388 505.925 388.182L505.722 387.916L505.538 388.203C503.496 391.371 501.237 394.875 498.82 398.625L499.273 398.611C497.037 395.485 494.673 392.181 492.231 388.765C492.082 388.556 491.933 388.349 491.796 388.159L491.572 387.846L491.341 388.152C488.579 391.819 485.919 395.353 483.47 398.609L483.912 398.627C481.483 394.862 479.22 391.356 477.19 388.208L476.993 387.903L476.8 388.208C474.138 392.434 471.876 396.024 470.183 398.71L470.423 398.702C469.217 397.096 468.259 395.819 467.561 394.889C467.25 394.489 466.998 394.164 466.795 393.903C466.618 393.683 466.521 393.575 466.511 393.585Z" fill="#DFDFDF"></path><path d="M464.977 379.961C464.977 380.143 476.812 380.29 491.408 380.29C506.01 380.29 517.843 380.143 517.843 379.961C517.843 379.781 506.01 379.635 491.408 379.635C476.812 379.635 464.977 379.781 464.977 379.961Z" fill="#455A63"></path><path d="M462.59 424.433C462.59 424.614 475.453 424.759 491.317 424.759C507.186 424.759 520.047 424.614 520.047 424.433C520.047 424.252 507.186 424.104 491.317 424.104C475.453 424.104 462.59 424.252 462.59 424.433Z" fill="#253138"></path><path d="M12.0805 432.59H157.339V279.202C157.339 268.307 149.393 259.477 139.59 259.477H29.8327C20.0289 259.477 12.0805 268.307 12.0805 279.202V432.59Z" fill="#455A63"></path><path d="M24.2943 260.36C24.1253 260.36 23.9903 298.899 23.9903 346.427C23.9903 393.973 24.1253 432.503 24.2943 432.503C24.4644 432.503 24.6006 393.973 24.6006 346.427C24.6006 298.899 24.4644 260.36 24.2943 260.36Z" fill="#253138"></path><path d="M89.046 71.5416C75.7368 92.6239 67.9809 117.98 66.9681 143.706C66.2839 161.052 68.3858 179.536 60.9772 194.823C50.3507 216.752 27.3563 216.007 20.3162 239.655C17.2545 249.937 22.898 272.573 24.4201 283.273C26.1488 295.434 19.456 305.647 21.1858 317.809C22.7713 328.956 30.2785 336.914 39.2971 342.104C47.3195 346.722 54.7375 346.845 63.0849 343.005C78.9899 335.688 92.2275 327.964 103.559 313.565C119.469 293.35 124.275 265.361 126.993 238.675C132.985 179.843 131.771 120.109 123.392 61.6382" fill="#253138"></path><path d="M55.032 345.492C55.032 345.492 54.8595 345.432 54.5191 345.349C54.1788 345.259 53.666 345.173 53.0146 344.952C51.7073 344.566 49.7874 343.874 47.5213 342.511C45.2681 341.156 42.5994 339.162 40.2617 336.044C39.107 334.488 38.0496 332.627 37.4241 330.451C36.8268 328.273 36.5569 325.825 36.4301 323.285C36.2048 318.173 36.9066 312.579 37.951 306.668C38.9744 300.75 40.3638 294.434 40.6971 287.596C40.8579 284.19 40.7241 280.649 40.0341 277.141C39.3792 273.624 38.2362 270.188 37.0497 266.734C35.8551 263.284 34.5982 259.795 33.6887 256.14C32.8273 252.492 32.2981 248.62 32.8743 244.797C33.3754 240.968 34.7872 237.387 36.6824 234.254C38.5754 231.106 40.9248 228.391 43.3376 225.875C48.1855 220.848 53.4336 216.694 57.9165 212.031C66.9622 202.773 73.0541 192.238 76.9045 182.901C78.822 178.215 80.2948 173.839 81.2748 169.896C81.8392 167.948 82.1584 166.073 82.5621 164.381C82.8637 162.665 83.1407 161.096 83.3895 159.681C83.7627 156.833 84.0338 154.621 84.1077 153.107C84.1582 152.377 84.2004 151.807 84.2286 151.391C84.252 151.004 84.2497 150.804 84.2497 150.804C84.2497 150.804 84.2098 151 84.1652 151.385C84.1218 151.801 84.0631 152.367 83.9868 153.093C83.873 154.6 83.5632 156.803 83.1536 159.636C82.8896 161.043 82.5973 162.602 82.2781 164.308C81.858 165.991 81.5235 167.854 80.9462 169.788C79.9404 173.704 78.4453 178.05 76.5113 182.699C72.6316 191.963 66.5397 202.404 57.5363 211.571C53.0792 216.187 47.8205 220.329 42.9292 225.389C40.4941 227.922 38.1118 230.667 36.1802 233.877C34.2438 237.069 32.7851 240.754 32.2699 244.698C31.6773 248.64 32.2241 252.617 33.1019 256.317C34.0279 260.025 35.2965 263.532 36.4911 266.974C37.6788 270.419 38.8171 273.821 39.4626 277.274C40.1467 280.718 40.2864 284.198 40.135 287.566C39.8217 294.324 38.4603 300.626 37.4546 306.561C36.4278 312.492 35.7424 318.136 35.9994 323.308C36.1414 325.889 36.4243 328.335 37.0544 330.584C37.7151 332.822 38.8112 334.714 39.9989 336.285C42.4035 339.435 45.119 341.413 47.4098 342.746C49.7146 344.083 51.6592 344.74 52.9853 345.085C54.3138 345.436 55.032 345.492 55.032 345.492Z" fill="#455A63"></path><path d="M273.525 392.091L217.209 362.368C217.209 362.368 195.278 244.026 191.131 235.137C186.984 226.251 169.648 218.571 169.648 218.571L172.553 378.822L177.696 415.787L257.12 424.149L273.525 392.091Z" fill="#FFF578"></path><path d="M321.594 420.127C321.905 420.114 323.472 421.204 322.159 423.952C320.845 426.698 311.31 435.786 308.503 432.62C305.697 429.455 309.983 425.592 309.983 425.592L321.594 420.127Z" fill="#FFBD9D"></path><path d="M309.578 425.714C309.578 425.714 298.064 427.328 293.629 429.202C288.812 431.235 282.948 429.849 279.002 426.876C275.055 423.904 272.754 421.219 272.754 421.219L258.062 420.961C258.062 420.961 251.009 412.838 255.196 400.733C255.927 398.622 256.715 396.95 258.563 394.36C260.307 392.264 263.064 390.564 267.825 389.649L285.279 393.838C285.279 393.838 312.321 391.692 317.127 394.218C317.127 394.218 323.169 398.198 325.039 399.868C325.743 400.497 327.884 408.143 323.487 412.118C323.487 412.118 327.315 415.503 325.242 418.537L324.248 419.884C324.248 419.884 326.822 423.587 325.501 425.199C324.18 426.811 312.61 434.348 308.471 432.551C304.331 430.755 307.757 426.494 309.578 425.714Z" fill="#FFBD9D"></path><path d="M320.592 405.511C320.578 405.476 320.073 405.695 319.161 406.081C318.248 406.466 316.926 407.013 315.265 407.601C314.435 407.894 313.52 408.194 312.53 408.484C311.545 408.784 310.467 409.018 309.348 409.421C308.245 409.831 307.051 410.408 306.177 411.547C305.349 412.645 304.785 414.286 305.33 415.839C305.595 416.602 306.151 417.182 306.759 417.545C307.377 417.898 308.038 418.066 308.682 418.141C309.979 418.276 311.198 418.094 312.351 417.925C314.657 417.533 316.668 416.847 318.319 416.197C319.972 415.548 321.276 414.934 322.176 414.507C323.074 414.076 323.562 413.816 323.55 413.784C323.537 413.747 323.025 413.943 322.107 414.313C321.187 414.679 319.865 415.239 318.21 415.839C316.556 416.439 314.556 417.079 312.288 417.438C311.157 417.593 309.944 417.758 308.732 417.62C308.128 417.549 307.522 417.385 306.982 417.075C306.455 416.757 305.993 416.268 305.776 415.638C305.316 414.364 305.786 412.878 306.537 411.883C307.304 410.866 308.425 410.291 309.488 409.888C310.565 409.485 311.644 409.232 312.635 408.91C313.627 408.6 314.543 408.278 315.372 407.959C317.029 407.323 318.34 406.718 319.233 406.272C320.126 405.824 320.605 405.543 320.592 405.511Z" fill="#EB996D"></path><path d="M319.557 396.262C319.543 396.226 319.041 396.444 318.135 396.834C317.226 397.223 315.914 397.783 314.267 398.394C312.62 399.005 310.638 399.665 308.407 400.26C307.307 400.573 306.038 400.822 304.992 401.795C304.482 402.275 304.094 402.982 303.992 403.759C303.882 404.531 304.005 405.326 304.289 406.041C304.868 407.502 306.086 408.437 307.303 408.892C308.534 409.361 309.815 409.393 310.974 409.215C313.304 408.827 315.222 407.898 316.877 407.316C318.46 406.7 319.771 406.19 320.768 405.801C321.683 405.433 322.186 405.212 322.175 405.178C322.165 405.144 321.644 405.296 320.709 405.604C319.7 405.951 318.374 406.406 316.771 406.956C315.103 407.495 313.156 408.384 310.917 408.727C309.8 408.885 308.601 408.841 307.455 408.398C306.326 407.97 305.231 407.104 304.728 405.825C304.198 404.563 304.372 403.014 305.302 402.19C306.197 401.337 307.414 401.055 308.513 400.739C310.753 400.113 312.737 399.41 314.378 398.75C316.02 398.09 317.319 397.474 318.207 397.027C319.093 396.575 319.57 396.293 319.557 396.262Z" fill="#EB996D"></path><path d="M314.006 398.903C314.146 398.902 314.222 397.726 314.528 396.332C314.825 394.935 315.238 393.849 315.115 393.777C315.007 393.706 314.376 394.734 314.061 396.208C313.739 397.679 313.881 398.913 314.006 398.903Z" fill="#EB996D"></path><path d="M273.368 399.288L283.634 394.892C283.634 394.892 312.141 380.107 312.622 380.907C313.104 381.709 314.649 381.621 314.312 385.483C313.974 389.346 297.361 397.133 296.837 398.471C296.311 399.809 297.187 406.574 291.051 411.42C284.916 416.265 280.488 416.372 280.488 416.372" fill="#FFBD9D"></path><path d="M280.489 416.371C280.489 416.38 280.572 416.387 280.733 416.38C280.893 416.371 281.132 416.351 281.443 416.302C282.064 416.205 282.974 416.001 284.108 415.591C285.244 415.185 286.598 414.565 288.087 413.666C289.561 412.749 291.237 411.658 292.814 410.024C294.394 408.409 295.687 406.08 296.315 403.356C296.645 402 296.761 400.53 296.921 399.095C296.942 398.913 296.978 398.75 297.021 398.605C297.057 398.506 297.161 398.415 297.29 398.301C297.545 398.087 297.835 397.893 298.125 397.701C298.707 397.319 299.316 396.954 299.932 396.586C302.405 395.122 305.037 393.641 307.691 391.946C309.019 391.1 310.353 390.2 311.649 389.174C312.292 388.651 312.928 388.102 313.507 387.449C313.798 387.129 314.065 386.764 314.29 386.349C314.389 386.128 314.49 385.908 314.526 385.639C314.577 385.381 314.565 385.173 314.587 384.936C314.62 384.026 314.593 383.048 314.147 382.181C313.929 381.748 313.564 381.423 313.242 381.173C313.079 381.044 312.935 380.925 312.848 380.795C312.817 380.762 312.873 380.806 312.749 380.685C312.618 380.594 312.593 380.625 312.549 380.615C312.448 380.607 312.417 380.626 312.347 380.632C312.238 380.655 312.134 380.682 312.036 380.712C310.491 381.242 309.077 381.932 307.66 382.58C304.842 383.9 302.152 385.232 299.592 386.512C294.474 389.073 289.888 391.439 286.044 393.441C285.082 393.931 284.172 394.443 283.302 394.853C282.414 395.24 281.576 395.607 280.791 395.95C279.234 396.634 277.888 397.228 276.772 397.718C275.699 398.201 274.853 398.581 274.24 398.857C273.973 398.983 273.758 399.084 273.585 399.167C273.439 399.239 273.365 399.28 273.369 399.288C273.371 399.297 273.45 399.273 273.602 399.218C273.781 399.149 274.001 399.064 274.275 398.957C274.897 398.704 275.755 398.356 276.842 397.912C277.967 397.444 279.324 396.88 280.893 396.226C281.684 395.894 282.528 395.539 283.422 395.165C284.316 394.758 285.216 394.265 286.186 393.784C290.065 391.837 294.665 389.524 299.771 386.96C302.335 385.697 305.03 384.372 307.843 383.062C309.249 382.423 310.69 381.727 312.161 381.226C312.253 381.196 312.343 381.174 312.427 381.156C312.456 381.153 312.522 381.138 312.52 381.145C312.526 381.128 312.518 381.185 312.536 381.102C312.566 381.005 312.529 381.019 312.553 380.972C312.56 380.958 312.572 380.945 312.587 380.934C312.263 381.178 312.505 381.014 312.437 381.074L312.465 381.114C312.617 381.337 312.803 381.475 312.962 381.604C313.284 381.859 313.558 382.107 313.735 382.455C314.095 383.145 314.145 384.046 314.107 384.912C314.082 385.379 314.064 385.738 313.87 386.089C313.679 386.44 313.441 386.775 313.164 387.078C312.618 387.692 311.998 388.231 311.368 388.742C310.097 389.753 308.773 390.647 307.457 391.494C304.819 393.186 302.197 394.673 299.723 396.152C299.105 396.525 298.495 396.894 297.903 397.288C297.606 397.487 297.314 397.683 297.031 397.923C296.902 398.039 296.721 398.182 296.627 398.429C296.563 398.636 296.523 398.834 296.503 399.02C296.343 400.517 296.243 401.915 295.929 403.246C295.334 405.9 294.104 408.159 292.577 409.753C291.062 411.357 289.403 412.474 287.958 413.405C286.495 414.32 285.164 414.961 284.049 415.394C282.933 415.83 282.038 416.066 281.427 416.196C281.121 416.263 280.886 416.299 280.728 416.325C280.57 416.35 280.489 416.362 280.489 416.371Z" fill="#EB996D"></path><path d="M311.927 417.858C311.919 417.83 311.519 417.914 310.836 418.212C310.155 418.508 309.191 419.033 308.15 419.938C307.636 420.399 307.089 420.924 306.595 421.613C306.123 422.287 305.642 423.199 305.766 424.28C305.89 425.369 306.728 426.227 307.666 426.562C308.637 426.924 309.688 426.752 310.654 426.458C314.474 425.165 317.799 423.604 320.105 422.24C321.257 421.559 322.158 420.946 322.763 420.494C323.369 420.043 323.686 419.764 323.669 419.735C323.649 419.701 323.298 419.921 322.665 420.317C322.034 420.712 321.114 421.271 319.951 421.904C317.631 423.169 314.297 424.667 310.527 425.941C309.6 426.229 308.639 426.37 307.815 426.065C306.99 425.774 306.309 425.06 306.205 424.209C306.087 423.354 306.478 422.527 306.913 421.883C307.358 421.231 307.88 420.693 308.362 420.23C310.351 418.409 311.974 417.961 311.927 417.858Z" fill="#EB996D"></path><path d="M178.1 415.824C187.324 381.253 195.459 336.725 204.683 302.154C208.054 334.072 203.835 376.206 198.548 407.802C197.928 411.504 197.643 415.134 195.059 417.569L178.1 415.824Z" fill="black"></path><path d="M193.206 392.092C193.329 392.125 193.719 389.836 194.97 386.384C195.582 384.653 196.479 382.671 197.616 380.568C198.791 378.49 200.227 376.307 201.951 374.221C203.697 372.155 205.55 370.4 207.328 368.944C209.131 367.527 210.844 366.387 212.351 365.581C215.356 363.938 217.382 363.338 217.342 363.204C217.331 363.158 216.824 363.293 215.915 363.579C215.456 363.712 214.901 363.899 214.278 364.18C213.652 364.453 212.922 364.721 212.165 365.147C210.614 365.91 208.851 367.022 207.002 368.433C205.176 369.884 203.279 371.657 201.503 373.758C199.749 375.881 198.3 378.115 197.135 380.244C196.005 382.399 195.136 384.434 194.567 386.209C194.241 387.079 194.054 387.91 193.856 388.623C193.649 389.335 193.524 389.962 193.437 390.482C193.248 391.512 193.165 392.083 193.206 392.092Z" fill="#253138"></path><path d="M175.617 216.959C175.617 216.959 205.118 290.187 205.118 303.631C205.118 317.076 183.014 410.484 183.014 410.484C183.222 414.192 184.085 432.811 184.085 432.811L60.1694 433.281L58.2835 403.682L67.9547 375.474L58.2918 295.734C58.2918 295.734 51.7891 249.436 51.2106 236.488C50.4877 220.286 99.8716 201.507 98.5267 199.265L107.052 186.58L155.912 230.664L165.565 199.68L177.131 211.829L175.617 216.959Z" fill="#FFF578"></path><path d="M94.4712 236.438C107.881 261.656 132.428 307.612 132.428 307.612L176.413 363.342C176.413 363.342 179.289 391.663 173.535 400.343C167.78 409.022 157.915 414.961 157.915 414.961C157.915 414.961 146.302 414.961 131.555 401.256C116.807 387.552 76.1111 330.908 76.1111 330.908L62.1354 312.181C62.1354 312.181 45.4769 266.687 48.5857 243.535C49.7862 234.61 53.2047 230.896 57.7698 226.802C69.2353 216.521 86.9758 222.342 94.4712 236.438Z" fill="#FFF578"></path><path d="M56.9698 296.371C56.9605 296.376 57.0297 296.551 57.1729 296.887C57.3325 297.25 57.5484 297.741 57.8253 298.371C58.4098 299.67 59.3028 301.569 60.5257 303.97C62.9537 308.783 66.7255 315.583 71.6626 323.779C74.1329 327.874 76.8966 332.317 79.9279 337.038C82.9286 341.786 86.4211 346.623 89.2634 352.311C92.1785 357.943 94.6828 364.205 97.7962 370.418C100.91 376.627 104.585 382.794 108.975 388.557C113.375 394.306 118.351 399.317 123.791 403.112C129.213 406.936 135.128 409.41 140.947 410.495C146.767 411.612 152.501 411.249 157.567 409.712C160.11 408.97 162.459 407.832 164.596 406.543C166.742 405.268 168.695 403.807 170.388 402.188C172.099 400.595 173.57 398.863 174.754 397.055C175.986 395.282 176.888 393.412 177.643 391.633C179.088 388.025 179.696 384.664 180.009 381.927C180.259 379.175 180.271 377.026 180.208 375.575C180.171 374.874 180.143 374.328 180.122 373.926C180.099 373.555 180.082 373.364 180.071 373.365C180.062 373.365 180.058 373.558 180.06 373.93C180.068 374.332 180.075 374.878 180.085 375.579C180.11 377.026 180.056 379.166 179.772 381.896C179.426 384.608 178.79 387.928 177.333 391.476C176.573 393.224 175.67 395.059 174.445 396.796C173.267 398.567 171.806 400.261 170.109 401.82C168.433 403.404 166.499 404.834 164.373 406.083C162.253 407.343 159.944 408.449 157.433 409.169C152.44 410.658 146.783 410.997 141.04 409.877C135.296 408.788 129.467 406.337 124.111 402.549C118.735 398.789 113.808 393.823 109.44 388.119C105.083 382.398 101.424 376.266 98.3208 370.095C95.2156 363.921 92.6984 357.66 89.7516 351.998C86.8717 346.278 83.3464 341.425 80.3386 336.711C77.2933 332.008 74.5096 327.586 72.0194 323.511C67.0412 315.357 63.219 308.605 60.7322 303.838C59.48 301.461 58.5529 299.585 57.9345 298.307C57.6352 297.692 57.4005 297.211 57.2292 296.855C57.0672 296.53 56.9792 296.366 56.9698 296.371Z" fill="#253138"></path><path d="M178.614 360.826C178.561 360.924 179.24 361.349 180.048 362.351C180.852 363.329 181.749 364.984 181.92 367.002C182.084 369.021 181.475 370.831 180.846 371.958C180.217 373.106 179.62 373.662 179.689 373.747C179.723 373.809 180.439 373.376 181.205 372.224C181.967 371.102 182.709 369.159 182.529 366.938C182.34 364.722 181.291 362.964 180.357 362.014C179.412 361.04 178.639 360.76 178.614 360.826Z" fill="#253138"></path><path d="M170.525 375.622C170.517 375.599 170.28 375.661 169.838 375.798C169.615 375.861 169.345 375.966 169.018 376.048C168.678 376.118 168.298 376.193 167.88 376.279C166.168 376.589 163.598 376.555 160.626 375.532C157.674 374.48 154.368 372.458 151.288 369.43C148.204 366.403 145.433 362.365 142.536 358.144C139.65 353.909 136.735 349.927 133.519 346.941C131.923 345.452 130.356 344.132 129.052 342.715C127.748 341.309 126.703 339.786 126.118 338.221C125.016 335.009 125.757 331.995 126.794 330.528C127.879 329.009 128.97 328.859 128.915 328.766C128.909 328.747 128.675 328.81 128.232 328.984C127.814 329.207 127.184 329.585 126.609 330.361C125.461 331.859 124.606 334.979 125.713 338.397C126.311 340.071 127.375 341.655 128.697 343.115C130.016 344.584 131.586 345.932 133.154 347.419C136.3 350.383 139.165 354.323 142.052 358.556C144.947 362.775 147.751 366.837 150.918 369.9C154.072 372.956 157.465 374.975 160.5 375.988C163.553 376.976 166.191 376.936 167.92 376.54C168.34 376.43 168.721 376.334 169.064 376.245C169.389 376.139 169.657 376.014 169.875 375.929C170.309 375.749 170.532 375.644 170.525 375.622Z" fill="#253138"></path><path d="M88.5023 228.694C88.4859 228.71 88.656 228.98 88.9952 229.482C89.3742 230.029 89.8742 230.752 90.4973 231.653C91.8352 233.508 93.6776 236.274 95.9214 239.715C100.367 246.63 106.075 256.532 111.574 267.975C117.106 279.403 121.688 290.003 125.193 297.569C126.936 301.36 128.369 304.415 129.401 306.499C129.897 307.494 130.293 308.291 130.596 308.897C130.874 309.442 131.03 309.722 131.049 309.711C131.068 309.7 130.949 309.398 130.705 308.833C130.429 308.212 130.066 307.396 129.612 306.376C128.629 304.179 127.259 301.114 125.579 297.354C122.175 289.737 117.654 279.102 112.11 267.653C106.601 256.187 100.816 246.29 96.2723 239.433C93.978 236.021 92.0793 233.294 90.6827 231.487C90.022 230.619 89.4928 229.923 89.0902 229.393C88.7206 228.921 88.5187 228.678 88.5023 228.694Z" fill="#253138"></path><path d="M180.072 373.365C174.351 376.812 168.07 376.445 161.684 375.052C155.298 373.658 149.385 369.726 145.26 364.132C146.37 370.328 148.758 376.384 152.826 380.797C156.894 385.212 162.783 387.779 168.374 386.641C173.967 385.504 179.609 379.661 180.072 373.365Z" fill="black"></path><path d="M125.967 335.732C122.37 341.858 121.085 349.606 122.481 356.753C117.636 348.509 116.498 338.071 117.802 328.329C119.106 318.589 122.665 309.404 126.633 300.597C126.633 300.597 131.009 308.805 131.049 309.712C131.262 314.452 129.692 323.377 128.866 328.034C126.664 330.341 125.622 333.938 126.199 337.24" fill="black"></path><path d="M160.68 407.482C149.018 417.584 131.712 418.06 118.952 409.759C106.662 401.765 99.0976 387.373 92.0739 373.606C81.2022 352.297 67.9377 325.946 60.1711 303.02C60.1711 303.02 81.9427 336.03 88.504 350.258C93.4552 360.993 97.2539 368.067 103.35 378.047C115.603 398.098 137.789 410.107 159.549 408.467" fill="black"></path><path d="M184.084 432.809C184.097 432.808 184.105 432.669 184.104 432.401C184.099 432.081 184.092 431.691 184.084 431.21C184.049 430.103 183.999 428.59 183.937 426.693C183.773 422.725 183.544 417.162 183.268 410.471L183.258 410.563C185.367 402.741 187.831 393.253 190.381 383.002C193.763 369.416 196.617 357.052 198.536 348.065C199.495 343.57 200.242 339.925 200.711 337.396C200.933 336.179 201.111 335.209 201.245 334.481C201.361 333.814 201.41 333.46 201.389 333.455C201.369 333.451 201.278 333.793 201.125 334.451C200.963 335.173 200.748 336.132 200.478 337.337C199.906 339.912 199.102 343.52 198.116 347.95C196.089 356.903 193.173 369.24 189.792 382.821C187.243 393.067 184.816 402.567 182.773 410.403L182.759 410.452L182.763 410.497C183.128 417.186 183.43 422.744 183.647 426.71C183.767 428.603 183.863 430.115 183.933 431.22C183.97 431.698 184.002 432.088 184.026 432.405C184.052 432.673 184.07 432.809 184.084 432.809Z" fill="#253138"></path><path d="M60.117 226.019C60.1522 226.123 61.3844 225.638 63.4194 225.077C65.4543 224.514 68.3142 223.945 71.5075 223.834C74.703 223.733 77.5899 224.109 79.6495 224.537C81.7114 224.961 82.9683 225.364 82.9976 225.258C83.0106 225.214 82.709 225.068 82.1503 224.845C81.5953 224.613 80.7714 224.343 79.7387 224.068C77.6756 223.513 74.7417 223.053 71.4887 223.156C68.2391 223.268 65.3358 223.924 63.3067 224.614C62.2916 224.957 61.4818 225.282 60.9397 225.551C60.394 225.811 60.1006 225.976 60.117 226.019Z" fill="#253138"></path><path d="M99.3681 201.975C99.3493 201.988 99.4572 202.222 99.6814 202.653C99.9431 203.145 100.273 203.763 100.679 204.522C101.56 206.137 102.868 208.451 104.522 211.284C107.843 216.937 112.592 224.638 118.209 232.838C122.729 239.446 127.107 245.376 130.693 250.023L130.945 250.349L131.104 249.963C132.807 245.809 134.218 242.371 135.241 239.877C135.697 238.725 136.066 237.793 136.351 237.074C136.597 236.426 136.717 236.075 136.695 236.065C136.671 236.053 136.507 236.379 136.217 237.004C135.903 237.707 135.493 238.618 134.989 239.745C133.917 242.214 132.442 245.619 130.658 249.731L131.069 249.668C127.545 244.974 123.207 239.025 118.696 232.428C113.087 224.24 108.292 216.597 104.881 211.018C103.227 208.273 101.871 206.024 100.88 204.381C100.435 203.65 100.073 203.054 99.7847 202.58C99.5288 202.172 99.3857 201.962 99.3681 201.975Z" fill="#253138"></path><path d="M70.8403 412.258C71.0093 412.237 70.4707 405.469 69.6398 397.141C68.8089 388.811 67.9992 382.075 67.8314 382.096C67.6636 382.117 68.2011 388.884 69.0319 397.216C69.8628 405.544 70.6725 412.28 70.8403 412.258Z" fill="#253138"></path><path d="M155.778 410.484C155.61 410.464 154.985 415.552 154.382 421.845C153.777 428.141 153.423 433.26 153.591 433.28C153.759 433.301 154.385 428.215 154.988 421.918C155.594 415.623 155.946 410.505 155.778 410.484Z" fill="#253138"></path><path d="M93.1006 261.535C93.2543 260.456 94.5969 259.864 95.3749 260.529L95.4547 260.602C96.187 261.33 95.9101 262.907 94.983 263.273C94.0582 263.638 92.9457 262.612 93.1006 261.535Z" fill="white"></path><path d="M105.336 228.391C105.491 227.314 106.833 226.722 107.611 227.389L107.69 227.462C108.423 228.189 108.145 229.765 107.219 230.131C106.293 230.498 105.182 229.47 105.336 228.391Z" fill="white"></path><path d="M133.418 255.08C133.572 254.001 134.915 253.409 135.693 254.074L135.772 254.147C136.505 254.875 136.227 256.452 135.301 256.818C134.375 257.183 133.263 256.157 133.418 255.08Z" fill="white"></path><path d="M163.776 241.679C163.93 240.6 165.272 240.008 166.05 240.673L166.13 240.746C166.862 241.474 166.584 243.051 165.658 243.416C164.732 243.782 163.621 242.756 163.776 241.679Z" fill="white"></path><path d="M169.147 228.468C169.301 227.389 170.644 226.796 171.422 227.462L171.501 227.535C172.234 228.263 171.956 229.84 171.03 230.205C170.105 230.571 168.992 229.545 169.147 228.468Z" fill="white"></path><path d="M166.815 213.2C166.968 212.123 168.313 211.531 169.09 212.198L169.17 212.271C169.902 212.998 169.624 214.575 168.697 214.94C167.772 215.307 166.661 214.279 166.815 213.2Z" fill="white"></path><path d="M183.626 234.198C183.78 233.12 185.123 232.528 185.901 233.193L185.98 233.266C186.713 233.994 186.435 235.57 185.509 235.937C184.583 236.302 183.471 235.276 183.626 234.198Z" fill="white"></path><path d="M144.681 240.252C144.836 239.175 146.18 238.583 146.957 239.249L147.037 239.322C147.769 240.05 147.491 241.627 146.565 241.992C145.639 242.358 144.528 241.331 144.681 240.252Z" fill="white"></path><path d="M177.653 267.464C177.807 266.386 179.15 265.794 179.928 266.459L180.007 266.532C180.74 267.26 180.463 268.836 179.536 269.203C178.611 269.568 177.498 268.542 177.653 267.464Z" fill="white"></path><path d="M207.834 345.738C207.989 344.66 209.333 344.068 210.11 344.735L210.19 344.808C210.922 345.535 210.644 347.112 209.717 347.477C208.792 347.844 207.68 346.816 207.834 345.738Z" fill="white"></path><path d="M197.067 300.596C197.221 299.517 198.563 298.925 199.342 299.59L199.421 299.663C200.154 300.391 199.877 301.968 198.95 302.333C198.025 302.699 196.912 301.673 197.067 300.596Z" fill="white"></path><path d="M117.69 221.324C117.845 220.247 119.187 219.654 119.965 220.32L120.044 220.393C120.777 221.121 120.499 222.697 119.573 223.062C118.647 223.429 117.536 222.403 117.69 221.324Z" fill="white"></path><path d="M79.8075 311.214C79.9624 310.136 81.305 309.544 82.0831 310.211L82.1617 310.284C82.8952 311.012 82.617 312.588 81.6911 312.953C80.7651 313.32 79.6538 312.292 79.8075 311.214Z" fill="white"></path><path d="M65.0462 233.858C65.2011 232.779 66.5436 232.187 67.3216 232.853L67.4002 232.927C68.1337 233.655 67.8555 235.23 66.9297 235.596C66.0038 235.962 64.8925 234.935 65.0462 233.858Z" fill="white"></path><path d="M70.8418 284.517C70.9967 283.439 72.3392 282.847 73.1173 283.512L73.1959 283.586C73.9293 284.314 73.6512 285.889 72.7253 286.255C71.7994 286.621 70.6881 285.596 70.8418 284.517Z" fill="white"></path><path d="M103.944 321.096C104.098 320.019 105.44 319.425 106.218 320.092L106.298 320.165C107.03 320.893 106.753 322.468 105.826 322.834C104.901 323.2 103.789 322.175 103.944 321.096Z" fill="white"></path><path d="M102.55 290.647C102.705 289.568 104.047 288.976 104.825 289.641L104.904 289.714C105.638 290.442 105.359 292.018 104.434 292.385C103.508 292.75 102.396 291.724 102.55 290.647Z" fill="white"></path><path d="M82.5795 234.121C82.7332 233.044 84.0757 232.452 84.8538 233.119L84.9336 233.192C85.6659 233.919 85.3878 235.496 84.4618 235.861C83.5359 236.227 82.4246 235.2 82.5795 234.121Z" fill="white"></path><path d="M109.464 204.621C109.618 203.542 110.961 202.949 111.739 203.615L111.818 203.688C112.551 204.416 112.273 205.993 111.347 206.358C110.421 206.724 109.309 205.698 109.464 204.621Z" fill="white"></path><path d="M110.44 252.178C110.593 251.101 111.936 250.509 112.714 251.175L112.794 251.248C113.526 251.976 113.248 253.551 112.322 253.918C111.397 254.284 110.285 253.256 110.44 252.178Z" fill="white"></path><path d="M144.761 397.26C144.915 396.183 146.26 395.591 147.037 396.257L147.117 396.33C147.849 397.058 147.571 398.635 146.644 399C145.719 399.366 144.607 398.339 144.761 397.26Z" fill="white"></path><path d="M184.131 373.403C184.285 372.326 185.629 371.733 186.406 372.399L186.486 372.472C187.218 373.2 186.94 374.775 186.013 375.142C185.089 375.507 183.977 374.482 184.131 373.403Z" fill="white"></path><path d="M215.964 385.097C216.119 384.019 217.462 383.427 218.24 384.092L218.318 384.165C219.052 384.892 218.774 386.469 217.848 386.834C216.922 387.201 215.811 386.174 215.964 385.097Z" fill="white"></path><path d="M219.371 405.244C219.526 404.167 220.87 403.574 221.647 404.239L221.726 404.313C222.459 405.041 222.181 406.616 221.253 406.983C220.329 407.348 219.217 406.323 219.371 405.244Z" fill="white"></path><path d="M189.526 411.994C189.681 410.915 191.023 410.323 191.802 410.988L191.88 411.063C192.614 411.79 192.336 413.366 191.41 413.732C190.484 414.097 189.372 413.072 189.526 411.994Z" fill="white"></path><path d="M199.507 366.875C199.661 365.796 201.003 365.204 201.781 365.869L201.861 365.943C202.593 366.671 202.315 368.246 201.389 368.613C200.463 368.978 199.352 367.953 199.507 366.875Z" fill="white"></path><path d="M162.888 378.34C163.043 377.262 164.385 376.668 165.163 377.335L165.242 377.408C165.975 378.135 165.697 379.712 164.771 380.077C163.845 380.444 162.734 379.417 162.888 378.34Z" fill="white"></path><path d="M75.8413 366.799C75.9962 365.72 77.3399 365.127 78.1168 365.794L78.1966 365.867C78.9289 366.594 78.6508 368.171 77.7237 368.536C76.7989 368.903 75.6875 367.876 75.8413 366.799Z" fill="white"></path><path d="M129.701 424.149C129.855 423.071 131.197 422.479 131.975 423.144L132.055 423.217C132.787 423.945 132.509 425.521 131.583 425.886C130.658 426.253 129.546 425.227 129.701 424.149Z" fill="white"></path><path d="M106.73 392.224C106.884 391.147 108.227 390.555 109.005 391.221L109.084 391.294C109.817 392.022 109.54 393.597 108.613 393.964C107.688 394.33 106.575 393.302 106.73 392.224Z" fill="white"></path><path d="M93.085 418.187C93.2399 417.11 94.5824 416.517 95.3604 417.183L95.439 417.256C96.1725 417.984 95.8944 419.561 94.9685 419.926C94.0426 420.292 92.9312 419.266 93.085 418.187Z" fill="white"></path><path d="M131.049 282.219C131.204 281.142 132.548 280.549 133.325 281.215L133.405 281.288C134.137 282.016 133.859 283.591 132.932 283.958C132.007 284.323 130.896 283.298 131.049 282.219Z" fill="white"></path><path d="M100.157 348.503C100.311 347.424 101.654 346.832 102.432 347.497L102.512 347.57C103.245 348.298 102.966 349.874 102.039 350.241C101.115 350.606 100.003 349.58 100.157 348.503Z" fill="white"></path><path d="M110.177 373.608C110.331 372.531 111.673 371.937 112.451 372.604L112.531 372.677C113.263 373.404 112.985 374.981 112.059 375.346C111.133 375.713 110.022 374.686 110.177 373.608Z" fill="white"></path><path d="M77.2355 393.774C77.3892 392.696 78.7317 392.104 79.5098 392.769L79.5896 392.843C80.3219 393.571 80.0438 395.146 79.1178 395.513C78.1919 395.878 77.0806 394.853 77.2355 393.774Z" fill="white"></path><path d="M167.373 422.887C167.527 421.809 168.869 421.217 169.647 421.882L169.727 421.955C170.46 422.683 170.181 424.259 169.256 424.626C168.331 424.991 167.218 423.964 167.373 422.887Z" fill="white"></path><path d="M242.483 415.269C242.637 414.192 243.979 413.599 244.757 414.265L244.837 414.34C245.569 415.067 245.291 416.644 244.365 417.009C243.439 417.375 242.328 416.348 242.483 415.269Z" fill="white"></path><path d="M176.339 401.561C176.492 400.484 177.835 399.891 178.613 400.557L178.693 400.63C179.425 401.358 179.147 402.933 178.221 403.3C177.296 403.665 176.184 402.64 176.339 401.561Z" fill="white"></path><path d="M239.697 386.645C239.851 385.568 241.194 384.976 241.972 385.642L242.052 385.715C242.784 386.443 242.506 388.019 241.58 388.384C240.654 388.751 239.542 387.723 239.697 386.645Z" fill="white"></path><path d="M133.835 339.312C133.989 338.234 135.334 337.642 136.111 338.307L136.191 338.38C136.923 339.107 136.645 340.684 135.718 341.051C134.793 341.416 133.681 340.389 133.835 339.312Z" fill="white"></path><path d="M155.99 267.464C156.145 266.386 157.488 265.794 158.266 266.459L158.345 266.532C159.078 267.26 158.8 268.836 157.874 269.203C156.948 269.568 155.837 268.542 155.99 267.464Z" fill="white"></path><path d="M161.525 329.77C161.678 328.693 163.021 328.099 163.799 328.766L163.879 328.839C164.611 329.566 164.334 331.142 163.407 331.508C162.482 331.873 161.37 330.848 161.525 329.77Z" fill="white"></path><path d="M170.539 309.447C170.694 308.368 172.038 307.776 172.815 308.441L172.895 308.516C173.627 309.243 173.349 310.819 172.422 311.185C171.497 311.55 170.386 310.525 170.539 309.447Z" fill="white"></path><path d="M130.679 373.328C130.832 372.25 132.175 371.658 132.953 372.323L133.033 372.396C133.765 373.123 133.487 374.7 132.561 375.065C131.635 375.432 130.524 374.405 130.679 373.328Z" fill="white"></path><path d="M158.775 360.792C158.93 359.715 160.274 359.123 161.051 359.789L161.13 359.862C161.863 360.59 161.585 362.167 160.658 362.532C159.733 362.899 158.621 361.871 158.775 360.792Z" fill="white"></path><path d="M146.749 291.994C146.903 290.917 148.245 290.323 149.023 290.99L149.103 291.063C149.835 291.791 149.559 293.367 148.631 293.732C147.707 294.099 146.594 293.073 146.749 291.994Z" fill="white"></path><path d="M189.526 340.71C189.681 339.632 191.023 339.039 191.802 339.705L191.88 339.778C192.614 340.505 192.336 342.082 191.41 342.447C190.484 342.814 189.372 341.787 189.526 340.71Z" fill="white"></path><path d="M123.498 318.352C123.652 317.273 124.997 316.681 125.774 317.346L125.854 317.419C126.586 318.147 126.308 319.724 125.381 320.09C124.456 320.455 123.345 319.429 123.498 318.352Z" fill="white"></path><path d="M62.2597 259.984C62.4146 258.907 63.7571 258.315 64.5352 258.981L64.6138 259.054C65.3473 259.782 65.0692 261.357 64.1432 261.724C63.2173 262.09 62.106 261.063 62.2597 259.984Z" fill="white"></path><path d="M87.1235 215.789C87.2784 214.712 88.6221 214.119 89.399 214.785L89.4788 214.858C90.2111 215.586 89.933 217.163 89.0059 217.528C88.0811 217.894 86.9697 216.868 87.1235 215.789Z" fill="white"></path><path d="M135.315 221.324C135.47 220.247 136.813 219.654 137.591 220.32L137.67 220.393C138.403 221.121 138.125 222.697 137.199 223.062C136.273 223.429 135.162 222.403 135.315 221.324Z" fill="white"></path><path d="M184.469 62.6826C193.712 69.2188 197.402 82.9146 195.639 91.0079C194.751 95.0885 193.084 99.1938 193.812 103.312C194.44 106.871 196.742 109.717 198.466 112.797C204.213 123.071 203.196 137.447 196.073 146.596C188.95 155.743 176.294 158.927 166.319 154.084" fill="#253138"></path><path d="M189.938 116.136C212.423 61.179 158.94 33.571 129.756 42.7298C102.329 51.3382 90.6315 66.5063 86.118 86.8909C81.6034 107.285 81.8193 129.371 89.0108 148.794C92.5584 158.371 98.9448 168.102 108.202 169.298" fill="#253138"></path><path d="M163.595 250.344C163.983 224.087 164.257 188.02 164.265 188.168C164.265 188.168 184.576 184.422 188.784 154.975C190.877 140.331 190.215 116.32 189.101 96.6927C188.1 79.0272 177.566 57.3516 161.727 59.2138L112.266 73.1065C107.453 73.6712 103.83 78.2343 103.927 83.6112L107.149 197.301" fill="#FFBD9D"></path><path d="M180.258 114.674C180.342 116.656 178.902 118.368 177.04 118.504C175.184 118.639 173.607 117.146 173.523 115.164C173.439 113.183 174.88 111.469 176.736 111.334C178.597 111.198 180.174 112.693 180.258 114.674Z" fill="#253138"></path><path d="M145.146 114.674C145.229 116.656 143.789 118.368 141.928 118.504C140.072 118.639 138.494 117.146 138.411 115.164C138.327 113.183 139.766 111.469 141.624 111.334C143.484 111.198 145.061 112.693 145.146 114.674Z" fill="#253138"></path><path d="M183.915 107.814C183.509 108.323 180.872 106.301 177.218 106.449C173.566 106.536 170.945 108.724 170.534 108.242C170.333 108.029 170.736 107.123 171.875 106.134C172.995 105.151 174.93 104.164 177.207 104.089C179.485 104.019 181.427 104.88 182.556 105.793C183.709 106.709 184.117 107.586 183.915 107.814Z" fill="#253138"></path><path d="M149.21 108.784C148.785 109.274 146.217 107.145 142.563 107.138C138.911 107.072 136.217 109.149 135.822 108.65C135.628 108.428 136.057 107.543 137.234 106.604C138.387 105.667 140.353 104.762 142.631 104.783C144.909 104.808 146.823 105.749 147.92 106.709C149.038 107.673 149.416 108.565 149.21 108.784Z" fill="#253138"></path><path d="M161.739 140.079C161.721 139.848 163.996 139.413 167.679 138.888C168.612 138.781 169.497 138.577 169.654 137.868C169.875 137.117 169.483 135.998 169.03 134.791C168.152 132.28 167.233 129.649 166.268 126.89C162.434 115.64 159.658 106.388 160.067 106.222C160.475 106.053 163.916 115.035 167.751 126.285C168.673 129.06 169.557 131.707 170.396 134.236C170.75 135.415 171.357 136.753 170.881 138.309C170.63 139.084 169.944 139.647 169.346 139.826C168.748 140.029 168.22 140.04 167.759 140.071C164.053 140.293 161.753 140.31 161.739 140.079Z" fill="#253138"></path><path d="M164.265 188.17C164.265 188.17 146.439 189.445 128.778 177.649C128.778 177.649 137.743 198.137 164.265 195.381V188.17Z" fill="#EB996D"></path><path d="M150.114 103.006C149.753 104.111 146.102 103.588 141.812 104.163C137.51 104.643 134.05 106.038 133.481 105.047C133.227 104.572 133.831 103.533 135.229 102.464C136.616 101.396 138.829 100.381 141.404 100.061C143.979 99.7485 146.339 100.204 147.901 100.909C149.476 101.615 150.269 102.482 150.114 103.006Z" fill="#253138"></path><path d="M183.071 97.6016C182.427 98.5249 179.907 97.569 176.878 97.5234C173.85 97.3604 171.284 98.1428 170.692 97.1765C170.433 96.707 170.838 95.7837 171.959 94.91C173.064 94.0388 174.911 93.3281 176.993 93.3972C179.075 93.4703 180.878 94.3075 181.931 95.253C183.002 96.201 183.354 97.1517 183.071 97.6016Z" fill="#253138"></path><path d="M108.47 122.377C108.083 122.169 94.2867 115.389 94.1235 133.019C93.9628 150.648 109.924 147.193 109.957 146.688C109.989 146.182 108.47 122.377 108.47 122.377Z" fill="#FFF578"></path><path d="M105.172 139.953C105.103 139.896 104.894 140.166 104.424 140.398C103.968 140.623 103.183 140.775 102.359 140.421C100.689 139.718 99.304 136.746 99.257 133.568C99.2312 131.963 99.5469 130.438 100.07 129.178C100.567 127.894 101.326 127.002 102.171 126.845C103.012 126.639 103.605 127.207 103.794 127.705C104.003 128.2 103.898 128.551 103.982 128.582C104.025 128.627 104.324 128.292 104.205 127.561C104.143 127.211 103.961 126.793 103.59 126.45C103.213 126.101 102.654 125.919 102.067 125.983C100.843 126.064 99.7288 127.302 99.1538 128.684C98.5107 130.072 98.1222 131.785 98.1515 133.588C98.2196 137.141 99.825 140.484 102.113 141.247C103.226 141.582 104.16 141.219 104.645 140.808C105.14 140.379 105.227 139.986 105.172 139.953Z" fill="#EB996D"></path><path d="M167.009 50.5181C175.835 55.5858 179.468 75.6535 175.816 85.9208C172.164 96.1881 162.323 101.204 152.618 103.565C142.914 105.928 133.397 106.209 123.827 103.251C123.162 110.404 119.303 117.745 113.057 119.632C104.79 122.131 96.4565 113.718 94.6164 104.42C92.7763 95.12 95.5341 85.5426 98.2579 76.5155" fill="#253138"></path><path d="M97.0108 114.49C96.9733 114.545 97.4075 115.002 98.2336 115.774C99.0633 116.543 100.279 117.639 101.893 118.842C103.508 120.03 105.546 121.352 108.062 122.159C110.543 122.958 113.584 123.247 116.481 122.022C119.371 120.801 121.505 118.368 122.853 115.901C124.219 113.404 124.832 110.838 125.136 108.704C125.434 106.554 125.43 104.799 125.386 103.597C125.334 102.393 125.238 101.734 125.178 101.738C125.004 101.734 125.193 104.417 124.499 108.577C124.123 110.636 123.465 113.076 122.135 115.405C120.823 117.716 118.802 119.955 116.155 121.069C113.51 122.193 110.67 121.969 108.287 121.254C105.884 120.537 103.873 119.326 102.241 118.235C99.0011 115.982 97.1047 114.345 97.0108 114.49Z" fill="#253138"></path><path d="M160.658 151.403C160.126 152.902 159.58 154.426 158.687 155.696C157.795 156.967 156.488 157.974 155.039 158.05C153.495 158.132 152.006 157.116 151.144 155.689C150.282 154.263 149.99 152.484 150.06 150.767C150.122 149.216 150.761 147.362 152.15 147.18C152.728 147.104 153.297 147.352 153.835 147.596C156.267 148.691 158.697 149.787 161.129 150.884" fill="#EB996D"></path><path d="M157.745 158.073C157.709 157.819 156.107 158.541 153.855 157.539C152.765 157.051 151.57 156.086 150.914 154.568C150.256 153.069 150.125 151.039 150.818 149.265C150.977 148.821 151.218 148.415 151.454 148.053C151.742 147.716 151.69 147.732 152.003 147.783C152.301 147.873 152.782 148.123 153.173 148.293C153.579 148.478 153.979 148.658 154.371 148.835C155.933 149.538 157.346 150.151 158.541 150.646C160.93 151.639 162.443 152.161 162.512 151.977C162.584 151.793 161.199 150.937 158.902 149.705C157.754 149.089 156.378 148.377 154.842 147.609C154.456 147.417 154.062 147.221 153.662 147.021C153.235 146.827 152.911 146.614 152.329 146.412C152.044 146.322 151.64 146.272 151.246 146.446C150.861 146.619 150.622 146.91 150.442 147.153C150.116 147.635 149.828 148.131 149.622 148.69C148.764 150.906 148.97 153.359 149.845 155.177C150.737 157.034 152.256 158.077 153.547 158.504C154.861 158.954 155.991 158.845 156.709 158.641C157.434 158.428 157.773 158.154 157.745 158.073Z" fill="#253138"></path><path d="M90.6805 110.309C92.3058 110.182 105.408 112.068 104.376 139.135C103.412 164.415 87.452 158.848 82.3589 149.33C77.5356 140.314 74.7484 111.551 90.6805 110.309Z" fill="#455A63"></path><path d="M82.5783 113.507C82.5959 113.507 82.6159 113.263 82.6394 112.794C82.6581 112.268 82.6851 111.586 82.7168 110.735C82.7638 108.865 82.8295 106.261 82.9105 103.024C83.0302 96.3757 83.1968 87.1426 83.3893 76.4776L83.0947 76.801C85.2564 76.8036 87.5272 76.8075 89.8508 76.8114L89.5468 76.4645C89.4976 78.4794 89.4471 80.6051 89.3943 82.7621C89.1666 92.9185 88.9577 102.38 88.7805 110.297L88.7735 110.529L88.9777 110.581C92.0172 111.373 94.4194 113.337 95.9344 115.559C97.4777 117.785 98.2452 120.148 98.7146 122.09C99.1816 124.045 99.3401 125.635 99.4293 126.712C99.4727 127.252 99.4962 127.668 99.5091 127.948C99.5243 128.229 99.5325 128.371 99.5466 128.372C99.5595 128.372 99.5795 128.23 99.59 127.948C99.6029 127.667 99.6041 127.247 99.5853 126.702C99.5443 125.613 99.434 124.003 99.0033 122.009C98.5691 120.028 97.8297 117.603 96.2677 115.28C94.7374 112.961 92.2425 110.874 89.0962 110.027L89.2934 110.311C89.4976 102.394 89.7417 92.9381 90.0045 82.7817C90.055 80.6247 90.1055 78.4963 90.1536 76.4815L90.1618 76.1372H89.8508C87.5272 76.1411 85.2564 76.1437 83.0947 76.1463H82.8048L82.8013 76.4698C82.6969 87.1348 82.6042 96.3679 82.5384 103.018C82.5291 106.256 82.522 108.86 82.5161 110.73C82.5244 111.582 82.5326 112.265 82.5384 112.793C82.5478 113.263 82.5596 113.507 82.5783 113.507Z" fill="#455A63"></path><path d="M90.683 76.4735C90.683 76.4735 97.5341 58.6529 113.863 49.8592C121.772 45.6 127.691 43.4026 133.425 41.7998C133.425 41.7998 123.898 39.2855 108.482 46.908C101.478 50.3705 94.4219 54.8801 89.7547 61.6393C86.7915 65.9324 83.0902 74.3217 83.096 76.4735H90.683Z" fill="#455A63"></path><path d="M132.954 292.258C132.96 292.25 132.861 292.129 132.662 291.902C132.467 291.669 132.155 291.345 131.776 290.888C131.005 289.985 129.9 288.609 128.608 286.711C127.31 284.816 125.856 282.373 124.327 279.41C122.797 276.45 121.208 272.964 119.479 269.066C116.017 261.27 112.011 251.819 107.867 240.992C105.791 235.582 103.679 229.829 101.576 223.772C101.055 222.256 100.529 220.723 99.9973 219.176C99.4703 217.627 98.9293 216.033 98.1126 214.553C97.3075 213.071 96.141 211.762 94.7034 210.954C93.9911 210.547 93.1907 210.236 92.3164 210.279C91.881 210.318 91.4363 210.479 91.0713 210.781C90.6934 211.083 90.4681 211.525 90.2792 211.955L90.2404 212.041L90.2604 212.143C90.3777 212.739 90.5456 213.348 90.8906 213.881C91.2286 214.419 91.7778 214.812 92.3552 214.949C93.5264 215.213 94.6424 214.799 95.6293 214.28C97.7499 213.298 99.0068 210.506 98.528 207.962C98.3085 206.681 97.5892 205.514 96.6233 204.777C95.6599 204.035 94.4758 203.645 93.2881 203.721C92.1275 203.803 90.8554 204.33 90.2088 205.609C89.8766 206.233 89.913 207.155 90.3308 207.735C90.7216 208.326 91.2579 208.679 91.8177 208.941C93.8021 209.816 96.1856 209.046 97.4413 207.17C98.0703 206.233 98.3332 205.015 98.2041 203.881C98.095 202.74 97.6525 201.663 96.9848 200.809C96.3159 199.952 95.3841 199.329 94.3431 199.185C93.3198 199.072 92.2284 199.389 91.4879 200.274C91.1171 200.711 90.9105 201.329 90.9258 201.939C90.9305 202.563 91.2145 203.154 91.6041 203.547C92.388 204.34 93.4665 204.625 94.4734 204.407C95.5214 204.16 96.2713 203.287 96.7571 202.365C97.243 201.422 97.4824 200.381 97.6173 199.357C97.8509 197.322 97.8262 195.178 96.993 193.275C96.5482 192.354 95.9286 191.496 94.9933 191.078C94.0791 190.673 93.0722 190.779 92.2061 191.175C91.367 191.584 90.5303 192.429 90.4869 193.591C90.4129 194.72 91.1265 195.728 91.9761 196.138C92.8164 196.584 93.8479 196.603 94.6764 196.094C95.4979 195.603 96.0577 194.728 96.344 193.804C96.655 192.89 96.6339 191.833 96.5036 190.951C96.398 190.037 96.2466 189.123 95.9615 188.244C95.688 187.374 95.2116 186.509 94.5391 185.941C93.8831 185.36 93.1379 184.937 92.3282 184.72C91.9362 184.627 91.482 184.537 91.0349 184.703C90.6113 184.86 90.258 185.139 89.9611 185.463C89.6677 185.793 89.4283 186.179 89.2711 186.619C89.1115 187.047 89.0528 187.588 89.2312 188.061C89.5774 189.05 90.569 189.372 91.3295 189.352C92.1345 189.364 92.9067 189.007 93.5334 188.529C94.7926 187.538 95.6035 186.006 95.8899 184.424C96.2056 182.847 96.0436 181.173 95.397 179.78C95.059 179.097 94.6471 178.455 94.0791 177.987C93.5205 177.517 92.8727 177.224 92.2026 177.088C91.5372 176.971 90.8178 177.018 90.2064 177.401C89.6067 177.778 89.1643 178.484 89.1291 179.251C89.0833 180.8 90.163 182.017 91.3412 182.379C92.6028 182.75 93.8127 181.991 94.5321 181.048C95.2785 180.084 95.6645 178.88 95.7361 177.71C95.8359 175.336 94.9945 173.339 94.5872 171.466C94.1084 169.591 93.6719 167.879 93.2787 166.333C92.4913 163.275 91.8752 160.89 91.4504 159.238C91.2403 158.451 91.0772 157.838 90.9598 157.396C90.846 156.983 90.7732 156.777 90.7732 156.777C90.7732 156.777 90.8061 156.997 90.9 157.417C91.0032 157.863 91.1464 158.479 91.3318 159.274C91.732 160.934 92.3094 163.333 93.0499 166.405C93.4278 167.954 93.8479 169.672 94.3056 171.551C94.7058 173.442 95.5132 175.452 95.3946 177.683C95.3219 178.775 94.9487 179.901 94.2551 180.78C93.5968 181.646 92.4854 182.29 91.4421 181.962C90.4247 181.658 89.4753 180.519 89.5398 179.284C89.5657 178.682 89.9271 178.112 90.4129 177.81C90.9094 177.499 91.5337 177.452 92.131 177.563C92.7283 177.687 93.3186 177.957 93.8115 178.379C94.3068 178.788 94.6917 179.389 94.9945 180.011C95.5812 181.286 95.7291 182.846 95.4287 184.314C95.1576 185.787 94.396 187.193 93.2564 188.081C92.6767 188.514 92.0301 188.807 91.3271 188.798C90.6512 188.811 89.9165 188.519 89.703 187.855C89.4636 187.225 89.845 186.41 90.3261 185.869C90.5772 185.594 90.8765 185.368 91.191 185.253C91.4903 185.136 91.8458 185.199 92.2085 185.286C93.6414 185.697 95.005 186.781 95.4568 188.447C95.7185 189.261 95.8629 190.137 95.9638 191.027C96.0905 191.937 96.0964 192.77 95.8241 193.604C95.5707 194.413 95.0848 195.152 94.41 195.549C93.7575 195.954 92.9091 195.943 92.2155 195.572C91.5137 195.223 90.9985 194.458 91.0549 193.623C91.076 192.795 91.7121 192.114 92.435 191.761C93.1708 191.424 94.0462 191.341 94.7797 191.675C95.5038 191.985 96.0941 192.76 96.4731 193.567C97.2195 195.264 97.2629 197.32 97.0317 199.262C96.9026 200.235 96.6738 201.201 96.2419 202.035C95.8159 202.85 95.1482 203.58 94.3502 203.756C93.5475 203.937 92.6157 203.68 92.0184 203.062C91.3846 202.469 91.3788 201.381 91.9386 200.723C92.4866 200.05 93.429 199.749 94.2762 199.856C95.1294 199.972 95.9462 200.502 96.5271 201.254C97.71 202.73 98.0527 205.152 96.9496 206.769C95.8899 208.383 93.7352 209.077 92.0489 208.314C91.5724 208.095 91.1042 207.769 90.8284 207.339C90.5409 206.915 90.5221 206.39 90.7486 205.925C91.2203 204.962 92.3024 204.46 93.3245 204.399C95.404 204.239 97.5716 205.828 97.933 208.096C98.3484 210.334 97.2606 212.812 95.3688 213.678C94.4499 214.172 93.4125 214.518 92.4901 214.3C91.5396 214.108 91.022 213.084 90.8448 212.022L90.8272 212.209C91.0995 211.471 91.6581 210.978 92.3563 210.935C93.0534 210.899 93.7798 211.158 94.4358 211.536C95.769 212.288 96.8498 213.487 97.6185 214.893C98.3989 216.298 98.934 217.855 99.4621 219.402C99.9973 220.948 100.527 222.482 101.05 223.999C103.168 230.056 105.299 235.81 107.394 241.218C111.574 252.041 115.625 261.477 119.138 269.252C120.891 273.141 122.508 276.622 124.07 279.577C125.63 282.534 127.115 284.97 128.444 286.851C131.102 290.624 132.954 292.258 132.954 292.258Z" fill="white"></path><path d="M76.4597 97.6172C76.5653 97.6419 76.4116 95.7705 77.5288 92.7946C78.6132 89.8747 81.2783 85.9088 85.9537 83.418C88.2726 82.2013 91.0527 81.4318 94.0722 81.2114C97.0953 80.991 100.348 81.3132 103.703 82.0291C110.43 83.4036 117.494 86.6313 125.405 87.955C129.368 88.5327 133.293 88.5053 137.024 87.942C140.758 87.359 144.253 86.1827 147.47 84.7938C153.867 81.8596 159.025 77.766 162.68 73.6306C166.354 69.507 168.728 65.5595 170.048 62.6774C170.423 61.9823 170.697 61.3315 170.912 60.7551C171.133 60.1983 171.321 59.7184 171.481 59.3128C171.619 58.9515 171.73 58.6581 171.821 58.4208C171.892 58.2186 171.926 58.113 171.916 58.1091C171.906 58.1039 171.855 58.2017 171.763 58.3947C171.659 58.6242 171.529 58.9072 171.37 59.2567C171.196 59.6545 170.99 60.1226 170.75 60.6678C170.518 61.2311 170.228 61.8688 169.84 62.5509C168.464 65.3769 166.054 69.2488 162.376 73.289C158.719 77.3421 153.591 81.3471 147.261 84.2135C144.077 85.5698 140.624 86.7187 136.942 87.2834C133.26 87.8285 129.393 87.8507 125.49 87.2834C117.686 85.9819 110.612 82.7738 103.808 81.4136C100.418 80.708 97.1152 80.4016 94.0382 80.6494C90.9635 80.8997 88.1329 81.7096 85.7647 82.9863C81.0095 85.5906 78.3444 89.6895 77.3094 92.6941C76.7472 94.2056 76.6017 95.4758 76.4926 96.3157C76.4773 96.7095 76.4644 97.0277 76.4527 97.2872C76.448 97.505 76.4492 97.6172 76.4597 97.6172Z" fill="#455A63"></path><path d="M94.1694 69.5135C94.1671 69.537 94.4581 69.593 95.012 69.6791C95.5648 69.7626 96.3815 69.8969 97.4248 70.099C99.5184 70.4864 102.512 71.2258 106.198 72.2456C109.88 73.2602 114.296 74.49 119.322 75.0703C124.337 75.6611 129.926 75.6115 135.687 74.6752C141.453 73.7479 146.819 72.0396 151.497 69.9504C156.175 67.856 160.184 65.4355 163.364 63.1038C164.94 61.9157 166.355 60.8177 167.542 59.7783C168.708 58.7037 169.754 57.8378 170.526 57.0214C171.265 56.2494 171.859 55.6286 172.311 55.1565C172.715 54.7249 172.918 54.4901 172.904 54.4732C172.888 54.4562 172.657 54.657 172.228 55.0561C171.757 55.5034 171.141 56.0903 170.371 56.8219C169.579 57.6043 168.516 58.4364 167.337 59.4757C166.136 60.4812 164.71 61.5454 163.13 62.6995C156.776 67.2169 147.073 72.1934 135.6 74.0035C129.89 74.9308 124.353 74.9999 119.378 74.4483C114.398 73.907 109.998 72.7346 106.299 71.7787C102.599 70.8176 99.5736 70.1447 97.4624 69.8382C96.4074 69.6752 95.5835 69.5826 95.0249 69.5435C94.4652 69.5004 94.1706 69.49 94.1694 69.5135Z" fill="#455A63"></path><path d="M92.4241 156.891C92.4323 156.913 92.5896 156.861 92.8841 156.742C93.174 156.612 93.5976 156.402 94.1011 156.042C95.108 155.343 96.4494 154.035 97.5349 151.972C98.6357 149.918 99.3645 147.14 99.6414 144.033C99.9125 140.924 99.9137 137.499 99.6532 133.919C99.3809 130.339 98.8375 126.959 98.1452 123.945C97.4633 120.939 96.6465 118.238 95.5258 116.202C94.4215 114.156 93.086 112.842 92.0709 112.154C91.5639 111.804 91.1402 111.591 90.8468 111.467C90.5535 111.349 90.3939 111.305 90.3868 111.326C90.3633 111.384 90.9865 111.628 91.9394 112.374C92.8888 113.11 94.1304 114.433 95.1526 116.445C96.1912 118.448 96.9517 121.102 97.5983 124.096C98.2543 127.088 98.7753 130.433 99.0441 133.975C99.3011 137.513 99.3175 140.917 99.0816 143.972C98.8399 147.024 98.1721 149.723 97.1594 151.733C96.1572 153.758 94.9085 155.075 93.9673 155.823C93.0238 156.584 92.3995 156.828 92.4241 156.891Z" fill="#253138"></path><path d="M143.823 160.637L155.859 163.262C157.674 163.657 159.433 162.344 159.788 160.328L159.876 159.836C160.231 157.82 159.05 155.865 157.236 155.47L145.2 152.845C143.386 152.45 141.627 153.763 141.27 155.778L141.183 156.271C140.827 158.287 142.009 160.242 143.823 160.637Z" fill="#455A63"></path><path d="M142.902 154.852L87.2222 135.441C85.8444 134.962 84.3763 135.808 83.9362 137.335C83.4785 138.92 84.3047 140.607 85.7517 141.041L142.689 158.136L142.902 154.852Z" fill="#455A63"></path><path d="M101.746 146.321C101.758 146.275 101.102 146.021 99.9039 145.6C98.6001 145.159 96.8832 144.578 94.8119 143.875C92.676 143.143 90.0532 142.371 87.2789 141.359C86.61 141.072 85.9575 140.683 85.4541 140.112C84.9706 139.556 84.6572 138.753 84.6701 137.96C84.6713 137.164 85.1278 136.45 85.8225 136.188C86.5185 135.929 87.3517 136.044 88.1497 136.267C94.6218 138.581 100.475 140.674 104.842 142.235C106.912 142.947 108.626 143.534 109.927 143.981C111.131 144.379 111.804 144.578 111.818 144.533C111.831 144.488 111.184 144.204 110.002 143.729C108.717 143.231 107.024 142.573 104.978 141.78C100.715 140.17 94.8706 137.946 88.2999 135.609C87.4491 135.378 86.5267 135.22 85.6207 135.551C84.7053 135.876 84.0552 136.923 84.0728 137.944C84.0669 138.955 84.4436 139.885 85.0386 140.567C85.6324 141.231 86.3659 141.647 87.0771 141.944C89.9558 142.956 92.5211 143.656 94.6922 144.338C96.787 144.955 98.5226 145.466 99.8382 145.854C101.056 146.197 101.735 146.365 101.746 146.321Z" fill="#253138"></path><path d="M192.792 98.9253C190.886 106.361 197.688 112.737 200.082 119.998C202.397 127.018 200.426 134.884 197.575 141.656C194.725 148.428 190.973 154.853 189.514 162.151C185.916 180.148 200.559 199.535 197.77 217.708C196.754 224.326 194.356 231.235 192.277 237.539C190.195 243.843 190.342 249.609 192.277 255.969C195.441 266.378 200.813 271.286 204.597 281.436C206.532 286.626 206.38 292.438 206.283 298.057C206.186 303.672 206.221 309.53 208.469 314.56C210.718 319.591 215.869 323.482 220.75 322.024C215.642 328.699 206.207 330.695 199.247 326.572C192.825 322.768 189.234 315.041 186.162 307.712C171.277 272.225 163.407 269.229 163.815 230.08C163.841 227.559 164.264 188.35 164.264 188.35C164.264 188.35 169.838 186.697 173.051 184.235C189.674 171.486 190.278 148.763 190.147 131.154" fill="#253138"></path><path d="M159.53 217.708V232.482C159.53 232.482 169.757 290.445 172.825 322.646C175.893 354.846 176.414 363.342 176.414 363.342C176.414 363.342 169.076 376.061 153.735 354.468C138.393 332.875 135.666 329.464 129.531 329.086C129.531 329.086 137.031 238.545 136.691 235.135C136.349 231.726 133.962 228.695 133.962 228.695L159.53 217.708Z" fill="#FFBD9D"></path><path d="M139.416 184.369C139.416 184.369 156.121 208.995 157.485 212.404C158.849 215.813 159.531 217.706 159.531 217.706L133.963 228.694L109.076 198.387L99.8707 171.49L102.599 139.667C102.599 139.667 108.054 139.289 109.076 144.593C110.099 149.895 109.759 154.821 109.759 154.821L117.396 148.002L129.702 143.835C129.702 143.835 132.598 149.139 127.827 151.79C123.054 154.443 121.69 154.443 121.69 154.443L117.396 162.776L119.273 172.115L127.974 163.046C129.72 161.227 132.383 161.043 134.318 162.606L139.941 167.149L145.212 164.534L155.439 174.521L159.531 178.687C159.531 178.687 156.803 184.369 151.349 181.718L145.895 179.067L139.416 184.369Z" fill="#FFBD9D"></path><path d="M159.53 222.695C159.53 222.695 159.551 222.427 159.536 221.906C159.52 221.384 159.481 220.607 159.369 219.593C159.254 218.581 159.076 217.329 158.729 215.879C158.351 214.451 157.921 212.753 156.935 211.109C153.116 204.583 147.093 195.506 139.589 184.229L139.545 184.562C141.568 182.911 143.759 181.125 146.03 179.273L145.802 179.302C146.904 179.84 148.029 180.389 149.174 180.949C150.324 181.481 151.448 182.161 152.766 182.504C154.063 182.833 155.521 182.727 156.757 182.001C158.009 181.314 159.019 180.183 159.757 178.822L159.856 178.638L159.703 178.479C155.304 173.892 150.419 169.252 145.397 164.302L145.246 164.153L145.071 164.268C143.665 165.19 142.107 166.212 140.532 167.246L140.83 167.255C139.085 165.979 137.314 164.684 135.518 163.369C134.601 162.715 133.759 162.047 132.761 161.391C131.691 160.784 130.316 160.914 129.342 161.723C125.967 164.892 122.512 168.137 118.995 171.438L119.482 171.62C118.92 168.813 118.307 165.773 117.692 162.704L117.659 162.944C119.018 160.31 120.481 157.472 121.955 154.611L121.689 154.782C122.498 154.684 123.114 154.413 123.809 154.147C124.482 153.871 125.15 153.558 125.817 153.227C126.483 152.899 127.144 152.543 127.807 152.18C128.138 151.997 128.471 151.757 128.803 151.546C129.097 151.259 129.441 151.04 129.686 150.687C130.471 149.765 130.927 148.463 130.87 147.205C130.845 145.94 130.506 144.756 129.963 143.659L129.848 143.431L129.613 143.51C125.456 144.919 121.352 146.31 117.308 147.681L117.252 147.699L117.208 147.739C114.629 150.044 112.084 152.318 109.572 154.561L110.057 154.847C110.218 151.412 110.002 148.034 109.407 144.761C109.15 143.089 108.256 141.441 106.92 140.566C105.601 139.66 104.089 139.318 102.583 139.347L102.338 139.353L102.313 139.638C101.355 150.95 100.452 161.607 99.6161 171.463L99.6091 171.53L99.6326 171.592C103.043 181.507 106.136 190.499 108.88 198.471L108.895 198.512L108.921 198.545C117.104 208.443 123.689 216.41 128.245 221.92C130.513 224.643 132.275 226.758 133.487 228.211C134.078 228.913 134.533 229.45 134.856 229.832C135.167 230.195 135.336 230.368 135.336 230.368C135.336 230.368 135.198 230.165 134.901 229.786C134.588 229.394 134.148 228.842 133.575 228.122C132.383 226.649 130.648 224.507 128.415 221.747C123.893 216.203 117.357 208.189 109.233 198.229L109.274 198.304C106.556 190.32 103.492 181.318 100.113 171.388L100.129 171.517C100.982 161.665 101.906 151.009 102.886 139.698L102.618 139.988C103.979 139.959 105.436 140.293 106.608 141.113C107.809 141.913 108.583 143.326 108.831 144.893C109.412 148.093 109.621 151.454 109.461 154.796L109.426 155.545L109.946 155.08C112.461 152.839 115.007 150.565 117.587 148.265L117.486 148.324C121.529 146.956 125.634 145.566 129.79 144.16L129.441 144.011C129.918 144.971 130.244 146.108 130.26 147.217C130.308 148.334 129.919 149.418 129.24 150.225C129.032 150.534 128.713 150.728 128.457 150.987C128.147 151.18 127.862 151.391 127.535 151.571C126.879 151.931 126.224 152.284 125.567 152.608C124.276 153.235 122.889 153.899 121.689 154.104L121.497 154.136L121.425 154.274C119.951 157.136 118.49 159.975 117.134 162.609L117.075 162.722L117.101 162.85C117.718 165.919 118.332 168.959 118.896 171.765L119.003 172.304L119.382 171.948C122.885 168.651 126.328 165.411 129.691 162.248C130.491 161.581 131.623 161.473 132.504 161.971C133.379 162.546 134.31 163.27 135.201 163.905C136.999 165.216 138.774 166.51 140.52 167.782L140.668 167.891L140.819 167.789C142.392 166.752 143.951 165.726 145.355 164.8L145.03 164.767C150.057 169.703 154.955 174.332 159.359 178.897L159.306 178.554C158.643 179.784 157.675 180.883 156.533 181.504C155.399 182.175 154.08 182.275 152.869 181.974C151.664 181.671 150.517 180.997 149.364 180.466C148.217 179.911 147.091 179.365 145.988 178.832L145.863 178.772L145.759 178.861C143.494 180.723 141.309 182.519 139.291 184.179L139.115 184.321L139.247 184.513C146.791 195.749 152.87 204.79 156.737 211.248C157.716 212.842 158.164 214.523 158.556 215.933C158.92 217.365 159.115 218.606 159.247 219.612C159.378 220.617 159.44 221.39 159.475 221.908C159.51 222.429 159.53 222.695 159.53 222.695Z" fill="#EB996D"></path><path d="M127.89 190.072C128.012 190.05 127.56 188.062 127.374 184.835C127.314 183.235 127.396 181.269 128.18 179.36C128.959 177.447 130.498 175.783 132.252 174.278C135.791 171.243 139.204 168.799 141.715 167.117C142.889 166.349 143.889 165.694 144.712 165.157C145.421 164.697 145.81 164.429 145.79 164.386C145.772 164.346 145.347 164.532 144.6 164.922C143.855 165.311 142.79 165.909 141.5 166.701C138.918 168.286 135.447 170.68 131.876 173.743C130.098 175.269 128.478 177.028 127.667 179.102C126.855 181.17 126.827 183.231 126.942 184.865C127.066 186.514 127.333 187.815 127.519 188.705C127.715 189.597 127.85 190.081 127.89 190.072Z" fill="#EB996D"></path><path d="M109.998 178.252C110.091 178.226 109.843 176.937 109.564 174.844C109.284 172.751 109.017 169.839 109.038 166.615C109.067 163.39 109.378 160.484 109.69 158.397C110.001 156.309 110.267 155.027 110.176 154.999C110.105 154.976 109.689 156.217 109.266 158.307C108.841 160.392 108.456 163.337 108.427 166.611C108.406 169.884 108.746 172.834 109.139 174.927C109.531 177.024 109.927 178.273 109.998 178.252Z" fill="#EB996D"></path><path d="M-3.99834e-05 432.962C-3.99834e-05 433.15 119.302 433.303 266.433 433.303C413.616 433.303 532.893 433.15 532.893 432.962C532.893 432.775 413.616 432.622 266.433 432.622C119.302 432.622 -3.99834e-05 432.775 -3.99834e-05 432.962Z" fill="#253138"></path><path d="M150.789 433.28C150.789 433.28 142.83 418.177 125.688 417.53C108.547 416.882 99.9765 433.28 99.9765 433.28H150.789Z" fill="#455A63"></path><path d="M117.94 432.81C118.066 432.81 118.098 431.694 118.444 429.966C118.783 428.242 119.533 425.922 120.889 423.693C122.254 421.471 123.92 419.839 125.237 418.853C126.554 417.86 127.477 417.418 127.431 417.288C127.405 417.204 126.399 417.454 124.957 418.355C123.518 419.247 121.702 420.893 120.27 423.225C118.846 425.563 118.139 428.046 117.923 429.86C117.7 431.683 117.861 432.815 117.94 432.81Z" fill="#253138"></path><path d="M161.4 432.592L161.402 432.47C161.462 428.48 164.389 425.278 167.981 425.278H313.906C317.541 425.278 320.488 428.552 320.488 432.592H161.4Z" fill="#30657C"></path><path d="M440.749 148.54C440.749 151.952 438.45 355.607 438.45 355.607L302.335 392.001H291.077L298.242 107.681H308.476L440.749 148.54Z" fill="#253138"></path><path d="M411.963 347.082L454.149 433.005H415.592C422.488 432.239 354.534 433.005 354.534 433.005L415.592 415.013L396.499 366.824L398.128 347.082H411.963Z" fill="#253138"></path><path d="M411.022 362.94L415.593 202.804L374.144 198.387L369.034 369.373L383.839 370.208L411.022 362.94Z" fill="#253138"></path><path d="M363.241 375.715C363.241 375.715 363.258 375.464 363.266 374.972C363.272 374.459 363.281 373.73 363.292 372.775C363.302 370.822 363.319 367.967 363.34 364.267C363.36 356.825 363.388 346.006 363.424 332.416C363.451 305.196 363.489 266.892 363.534 222.473L363.241 222.797C378.581 222.803 395.082 222.807 412.148 222.812L411.842 222.473V229.862C411.86 273.177 411.876 313.493 411.892 347.08V347.155L411.922 347.216C424.616 373.081 435.147 394.536 442.513 409.544C446.203 417.02 449.098 422.887 451.08 426.904C452.068 428.887 452.826 430.411 453.347 431.458C453.865 432.485 454.149 433.004 454.149 433.004C454.149 433.004 453.913 432.457 453.419 431.416C452.912 430.36 452.174 428.823 451.215 426.82C449.261 422.788 446.409 416.895 442.774 409.387C435.453 394.352 424.987 372.858 412.373 346.945L412.403 347.08C412.417 313.493 412.434 273.177 412.453 229.862V222.473V222.132H412.148C395.082 222.138 378.581 222.143 363.241 222.147H362.948V222.473C362.993 266.892 363.03 305.196 363.057 332.416C363.093 346.006 363.123 356.825 363.143 364.267C363.164 367.967 363.179 370.822 363.191 372.775C363.201 373.73 363.21 374.459 363.216 374.972C363.224 375.464 363.241 375.715 363.241 375.715Z" fill="#455A63"></path><path d="M396.5 366.824C396.345 366.9 402.216 381.981 409.609 400.505C417.006 419.035 423.125 433.989 423.28 433.914C423.433 433.838 417.566 418.758 410.169 400.228C402.776 381.706 396.653 366.747 396.5 366.824Z" fill="#455A63"></path><path d="M302.336 392.001C302.336 392.001 302.358 391.753 302.37 391.268C302.379 390.758 302.393 390.043 302.41 389.119C302.431 387.202 302.459 384.421 302.498 380.854C302.546 373.677 302.692 363.292 302.92 350.461C303.36 324.8 304.401 289.362 305.68 250.224C306.959 211.075 307.934 175.624 308.262 149.955C308.435 137.122 308.514 126.735 308.49 119.557C308.478 115.991 308.47 113.21 308.464 111.292C308.455 110.369 308.446 109.654 308.442 109.144C308.432 108.659 308.413 108.411 308.413 108.411C308.413 108.411 308.391 108.659 308.378 109.144C308.37 109.654 308.357 110.369 308.341 111.292C308.321 113.209 308.29 115.989 308.252 119.556C308.203 126.733 308.058 137.116 307.83 149.947C307.391 175.608 306.349 211.05 305.07 250.201C303.791 289.337 302.817 324.784 302.488 350.454C302.316 363.287 302.236 373.674 302.261 380.852C302.271 384.421 302.279 387.202 302.285 389.119C302.295 390.043 302.303 390.758 302.309 391.268C302.317 391.753 302.336 392.001 302.336 392.001Z" fill="#455A63"></path><path d="M370.665 221.29C370.496 221.29 370.36 255.351 370.36 297.356C370.36 339.376 370.496 373.429 370.665 373.429C370.834 373.429 370.97 339.376 370.97 297.356C370.97 255.351 370.834 221.29 370.665 221.29Z" fill="#455A63"></path><path d="M444.008 419.592C444.025 419.606 444.227 419.293 444.595 418.686C444.786 418.365 445.009 417.989 445.267 417.555C445.545 417.115 445.832 416.585 446.112 415.963C447.383 413.562 448.826 409.807 449.833 404.943C450.837 400.077 451.176 394.069 450.561 387.508C449.886 380.96 448.304 373.844 445.475 366.898C444.049 363.42 442.208 360.267 440.154 357.492C439.659 356.78 439.149 356.094 438.599 355.456C438.06 354.809 437.542 354.15 436.999 353.534C435.868 352.347 434.808 351.129 433.644 350.1C431.411 347.919 429.049 346.184 426.825 344.608C425.669 343.903 424.58 343.165 423.479 342.567C422.363 342.005 421.333 341.364 420.274 340.941C416.116 339.063 412.539 338.149 410.041 337.912C408.802 337.681 407.818 337.766 407.163 337.717C406.504 337.703 406.159 337.707 406.159 337.73C406.159 337.754 406.505 337.794 407.16 337.853C407.812 337.947 408.785 337.904 410.01 338.174C412.482 338.491 416.011 339.467 420.106 341.385C421.15 341.815 422.164 342.466 423.263 343.033C424.347 343.637 425.421 344.38 426.562 345.089C428.752 346.67 431.078 348.406 433.277 350.576C434.424 351.6 435.469 352.81 436.583 353.986C437.116 354.6 437.625 355.252 438.157 355.893C438.699 356.525 439.201 357.205 439.688 357.909C441.71 360.653 443.518 363.763 444.919 367.182C447.714 374.043 449.304 381.102 450 387.577C450.641 394.071 450.348 400.013 449.411 404.84C448.466 409.668 447.1 413.416 445.902 415.836C445.639 416.466 445.371 417.003 445.111 417.451C444.874 417.895 444.667 418.281 444.491 418.611C444.158 419.24 443.99 419.579 444.008 419.592Z" fill="#455A63"></path><path fill-rule="evenodd" clip-rule="evenodd" d="M271.962 81.0727C271.328 83.1726 270.025 84.7946 268.431 85.9647C267.672 86.5226 266.701 87.0804 265.834 87.3696C265.428 87.508 265 87.2311 264.884 86.7533C264.857 86.6434 264.847 86.5266 264.857 86.4126C264.937 85.4882 264.937 84.553 264.833 83.6314C264.776 83.1169 264.686 82.6079 264.563 82.1098C261.085 81.56 257.897 79.5742 255.541 76.512C253.067 73.295 251.711 69.151 251.711 64.8142C251.711 60.1707 253.266 55.7552 256.059 52.4717C258.853 49.1882 262.608 47.3599 266.558 47.3599C270.508 47.3599 274.265 49.1882 277.058 52.4717C279.851 55.7552 281.408 60.1693 281.408 64.8142C281.408 68.4072 280.478 71.8847 278.722 74.8261C277.041 77.6399 274.685 79.8199 271.962 81.0727Z" fill="#24366F"></path><path fill-rule="evenodd" clip-rule="evenodd" d="M259.933 67.4871C260.732 67.4871 261.384 66.7202 261.384 65.7809C261.384 64.8416 260.732 64.0747 259.933 64.0747C259.133 64.0747 258.482 64.8416 258.482 65.7809C258.481 66.7202 259.133 67.4871 259.933 67.4871Z" fill="white"></path><path fill-rule="evenodd" clip-rule="evenodd" d="M265.812 67.4871C266.612 67.4871 267.264 66.7202 267.264 65.7809C267.264 64.8416 266.611 64.0747 265.812 64.0747C265.013 64.0747 264.361 64.8416 264.361 65.7809C264.361 66.7202 265.013 67.4871 265.812 67.4871Z" fill="white"></path><path fill-rule="evenodd" clip-rule="evenodd" d="M271.692 67.4871C272.491 67.4871 273.143 66.7202 273.143 65.7809C273.143 64.8416 272.491 64.0747 271.692 64.0747C270.893 64.0747 270.24 64.8416 270.24 65.7809C270.24 66.7202 270.893 67.4871 271.692 67.4871Z" fill="white"></path><path fill-rule="evenodd" clip-rule="evenodd" d="M245.345 122.62H279.205C281.665 122.62 283.677 125.619 283.677 129.286V156.771V158.805V176.301C283.677 176.609 283.559 176.871 283.369 176.988C283.178 177.106 282.97 177.045 282.825 176.827L275.205 165.471H245.345C242.885 165.471 240.872 162.471 240.872 158.805V129.286C240.872 125.619 242.885 122.62 245.345 122.62Z" fill="#FCC10F"></path><path fill-rule="evenodd" clip-rule="evenodd" d="M252.926 147.715C254.356 147.715 255.523 146.067 255.523 144.045C255.523 142.022 254.356 140.374 252.926 140.374C251.495 140.374 250.327 142.024 250.327 144.045C250.327 146.067 251.493 147.715 252.926 147.715Z" fill="white"></path><path fill-rule="evenodd" clip-rule="evenodd" d="M263.45 147.715C264.881 147.715 266.049 146.067 266.049 144.045C266.049 142.022 264.882 140.374 263.45 140.374C262.018 140.374 260.852 142.024 260.852 144.045C260.852 146.067 262.018 147.715 263.45 147.715Z" fill="white"></path><path fill-rule="evenodd" clip-rule="evenodd" d="M273.975 147.715C275.406 147.715 276.573 146.067 276.573 144.045C276.573 142.022 275.405 140.374 273.975 140.374C272.545 140.374 271.377 142.024 271.377 144.045C271.377 146.067 272.544 147.715 273.975 147.715Z" fill="white"></path><path fill-rule="evenodd" clip-rule="evenodd" d="M527.274 127.486H491.554C488.959 127.486 486.836 130.486 486.836 134.152V161.638V163.671V181.167C486.836 181.475 486.96 181.737 487.161 181.855C487.362 181.972 487.581 181.911 487.735 181.694L495.773 170.336H527.273C529.867 170.336 531.99 167.336 531.99 163.67V134.15C531.99 130.484 529.868 127.486 527.274 127.486Z" fill="#24366F"></path><path fill-rule="evenodd" clip-rule="evenodd" d="M519.938 152.58C521.369 152.58 522.536 150.932 522.536 148.91C522.536 146.888 521.369 145.239 519.938 145.239C518.507 145.239 517.34 146.888 517.34 148.91C517.34 150.932 518.507 152.58 519.938 152.58Z" fill="white"></path><path fill-rule="evenodd" clip-rule="evenodd" d="M509.413 152.58C510.843 152.58 512.01 150.932 512.01 148.91C512.01 146.888 510.843 145.239 509.413 145.239C507.981 145.239 506.815 146.888 506.815 148.91C506.816 150.932 507.982 152.58 509.413 152.58Z" fill="white"></path><path fill-rule="evenodd" clip-rule="evenodd" d="M498.889 152.58C500.319 152.58 501.486 150.932 501.486 148.91C501.486 146.888 500.319 145.239 498.889 145.239C497.457 145.239 496.29 146.888 496.29 148.91C496.29 150.932 497.457 152.58 498.889 152.58Z" fill="white"></path><path fill-rule="evenodd" clip-rule="evenodd" d="M462.584 77.8486H488.089C488.667 77.8486 489.201 78.0916 489.616 78.4974C489.731 78.5531 489.835 78.644 489.914 78.7676C489.96 78.8381 489.995 78.9155 490.019 78.9942C490.32 79.4653 490.497 80.0503 490.497 80.6814V98.3C490.497 99.0778 490.227 99.785 489.791 100.298V100.301C489.354 100.814 488.751 101.131 488.089 101.131H462.584C461.921 101.131 461.317 100.814 460.882 100.301C460.446 99.7877 460.174 99.0791 460.174 98.2987V80.6801C460.174 80.0462 460.353 79.4598 460.654 78.9861C460.679 78.9087 460.714 78.8341 460.757 78.7662C460.838 78.6427 460.94 78.5517 461.054 78.4961C461.472 78.0916 462.006 77.8486 462.584 77.8486Z" fill="#24366F"></path><path fill-rule="evenodd" clip-rule="evenodd" d="M474.432 89.4865L486.914 78.2788H461.95L474.432 89.4865ZM460.734 96.9845L470.555 88.1658L460.734 79.347L460.733 79.3904V96.9845H460.734ZM478.309 88.1658L488.13 96.9845V79.3904L488.129 79.347L478.309 88.1658ZM487.514 98.05L477.406 88.9747L474.884 91.2388L474.883 91.2402L474.875 91.247C474.855 91.266 474.835 91.2823 474.814 91.2972L474.81 91.2999L474.798 91.308L474.794 91.3108L474.782 91.3189L474.779 91.3203L474.765 91.3298L474.764 91.3311L474.75 91.3393L474.748 91.3406L474.733 91.3488L474.732 91.3501L474.717 91.3569L474.716 91.3583L474.701 91.3664H474.7C474.672 91.3786 474.644 91.3895 474.615 91.399L474.614 91.4003C474.585 91.4085 474.558 91.4153 474.529 91.4193L474.526 91.4207L474.51 91.4221L474.509 91.4234L474.493 91.4248H474.492L474.458 91.4275H474.457L474.441 91.4288H474.44H474.424H474.422L474.406 91.4275H474.404L474.37 91.4248H474.368L474.353 91.4234L474.351 91.4221L474.335 91.4207L474.334 91.4193C474.303 91.4166 474.276 91.4098 474.247 91.4003L474.246 91.399C474.217 91.3908 474.19 91.38 474.163 91.3664H474.165L474.15 91.3583L474.149 91.3569L474.134 91.3501L474.133 91.3488L474.118 91.3406L474.116 91.3393L474.103 91.3311L474.1 91.3298L474.088 91.3216L474.085 91.3203L474.073 91.3121L474.069 91.3094L474.058 91.3013L474.053 91.2985C474.032 91.2836 474.013 91.266 473.992 91.2483L473.984 91.2415L473.981 91.2402L471.459 88.9761L461.353 98.0514C461.456 98.0975 461.567 98.122 461.684 98.122H487.187C487.3 98.122 487.411 98.0975 487.514 98.05ZM461.681 76.5576H487.184C487.764 76.5576 488.296 76.8006 488.713 77.2064C488.826 77.2634 488.93 77.353 489.01 77.4766C489.055 77.5471 489.091 77.6231 489.116 77.7032C489.417 78.1742 489.594 78.7593 489.594 79.3904V97.0089C489.594 97.7867 489.324 98.4939 488.887 99.007V99.0097C488.45 99.5214 487.848 99.8404 487.184 99.8404H461.681C461.017 99.8404 460.416 99.5214 459.979 99.0097C459.543 98.4966 459.272 97.7881 459.272 97.0076V79.3904C459.272 78.7565 459.451 78.1702 459.752 77.6978C459.777 77.6204 459.812 77.5458 459.856 77.4766C459.935 77.353 460.038 77.2621 460.152 77.2064C460.568 76.8019 461.102 76.5576 461.681 76.5576Z" fill="white"></path><path fill-rule="evenodd" clip-rule="evenodd" d="M381.224 81.6462L393.707 70.4384H368.744L381.224 81.6462ZM367.527 89.1443L377.347 80.3255L367.527 71.508L367.526 71.5501V89.1443H367.527ZM385.102 80.3255L394.922 89.1443V71.5501L394.92 71.508L385.102 80.3255ZM394.306 90.2111L384.199 81.1358L381.677 83.3999L381.675 83.4013L381.667 83.408C381.647 83.4257 381.626 83.4433 381.605 83.4583L381.601 83.461L381.588 83.4691L381.586 83.4718L381.573 83.48L381.571 83.4813L381.557 83.4895L381.555 83.4908L381.541 83.5003H381.538L381.525 83.5085L381.522 83.5098L381.507 83.518H381.506L381.49 83.5261C381.462 83.5397 381.434 83.5492 381.406 83.5587H381.404C381.376 83.5669 381.347 83.5736 381.319 83.5777H381.318L381.302 83.5791L381.301 83.5804L381.284 83.5818H381.282L381.249 83.5845H381.247H381.231H381.23H381.215H381.213H381.197H381.194L381.161 83.5818H381.16L381.143 83.5804L381.142 83.5791L381.126 83.5777H381.125C381.096 83.5736 381.068 83.5669 381.04 83.5587H381.038C381.01 83.5492 380.982 83.5397 380.954 83.5261L380.938 83.518H380.937L380.922 83.5098L380.921 83.5085L380.906 83.5003H380.904L380.891 83.4908L380.888 83.4895L380.874 83.4813L380.872 83.48L380.859 83.4718L380.856 83.4691L380.844 83.461L380.84 83.4583C380.819 83.4433 380.798 83.4257 380.779 83.408L380.771 83.4013L380.768 83.3999L378.246 81.1358L368.14 90.2111C368.243 90.2573 368.354 90.2817 368.47 90.2817H393.975C394.091 90.2817 394.202 90.2573 394.306 90.2111ZM368.473 68.7173H393.977C394.556 68.7173 395.088 68.9616 395.505 69.3661C395.619 69.4218 395.722 69.5127 395.803 69.6362C395.848 69.7068 395.884 69.7828 395.908 69.8629C396.208 70.3353 396.386 70.9189 396.386 71.5487V89.1687C396.386 89.9465 396.114 90.655 395.679 91.1667V91.1695C395.243 91.6825 394.64 92.0015 393.977 92.0015H368.473C367.81 92.0015 367.206 91.6825 366.771 91.1695C366.334 90.6564 366.064 89.9478 366.064 89.1687V71.5487C366.064 70.9149 366.243 70.3285 366.543 69.8561C366.567 69.7787 366.602 69.7054 366.647 69.6362C366.728 69.5127 366.83 69.4218 366.945 69.3661C367.361 68.9616 367.894 68.7173 368.473 68.7173Z" fill="#24366F"></path><g opacity="0.72"><path fill-rule="evenodd" clip-rule="evenodd" d="M359.87 193.758C359.87 193.192 359.479 192.735 358.999 192.735C358.519 192.735 358.129 193.193 358.129 193.758V196.164H356.082C355.602 196.164 355.212 196.624 355.212 197.188C355.212 197.754 355.602 198.211 356.082 198.211H358.129V200.617C358.129 201.183 358.519 201.64 358.999 201.64C359.481 201.64 359.87 201.183 359.87 200.617V198.211H361.917C362.399 198.211 362.789 197.753 362.789 197.188C362.789 196.622 362.398 196.164 361.917 196.164H359.87V193.758Z" fill="#24366F"></path><path fill-rule="evenodd" clip-rule="evenodd" d="M263.257 208.823C263.257 208.257 262.867 207.801 262.387 207.801C261.905 207.801 261.517 208.257 261.517 208.823V211.23H259.47C258.988 211.23 258.6 211.686 258.6 212.252C258.6 212.818 258.989 213.276 259.47 213.276H261.517V215.683C261.517 216.249 261.907 216.707 262.387 216.707C262.868 216.707 263.257 216.247 263.257 215.683V213.276H265.304C265.785 213.276 266.174 212.817 266.174 212.252C266.174 211.686 265.784 211.23 265.304 211.23H263.257V208.823Z" fill="#24366F"></path><path fill-rule="evenodd" clip-rule="evenodd" d="M360.856 7.18167C360.856 6.61569 360.466 6.15771 359.986 6.15771C359.504 6.15771 359.116 6.61569 359.116 7.18167V9.58818H357.069C356.587 9.58818 356.199 10.0476 356.199 10.6121C356.199 11.1781 356.588 11.6347 357.069 11.6347H359.116V14.0426C359.116 14.6086 359.505 15.0651 359.986 15.0651C360.467 15.0651 360.856 14.6071 360.856 14.0426V11.6347H362.903C363.384 11.6347 363.774 11.1767 363.774 10.6121C363.774 10.0476 363.384 9.58818 362.903 9.58818H360.856V7.18167Z" fill="#24366F"></path><path fill-rule="evenodd" clip-rule="evenodd" d="M225.794 101.844C225.794 101.278 225.404 100.82 224.923 100.82C224.442 100.82 224.053 101.278 224.053 101.844V104.251H222.006C221.525 104.251 221.135 104.709 221.135 105.275C221.135 105.839 221.525 106.299 222.006 106.299H224.053V108.705C224.053 109.271 224.444 109.729 224.923 109.729C225.404 109.729 225.794 109.271 225.794 108.705V106.299H227.842C228.323 106.299 228.713 105.839 228.713 105.275C228.713 104.709 228.323 104.251 227.842 104.251H225.794V101.844Z" fill="#24366F"></path><path fill-rule="evenodd" clip-rule="evenodd" d="M211.993 1.02395C211.993 0.457973 211.603 0 211.123 0C210.641 0 210.253 0.457973 210.253 1.02395V3.43048H208.206C207.724 3.43048 207.336 3.88844 207.336 4.45443C207.336 5.02041 207.725 5.47838 208.206 5.47838H210.253V7.88489C210.253 8.44944 210.642 8.90741 211.123 8.90741C211.604 8.90741 211.993 8.44944 211.993 7.88489V5.47838H214.04C214.52 5.47838 214.91 5.02041 214.91 4.45443C214.91 3.88844 214.52 3.43048 214.04 3.43048H211.993V1.02395Z" fill="#24366F"></path><path fill-rule="evenodd" clip-rule="evenodd" d="M165.657 198.029C165.657 197.463 165.267 197.007 164.787 197.007C164.305 197.007 163.917 197.463 163.917 198.029V200.436H161.87C161.388 200.436 161 200.894 161 201.458C161 202.023 161.39 202.482 161.87 202.482H163.917V204.889C163.917 205.453 164.307 205.911 164.787 205.911C165.268 205.911 165.657 205.452 165.657 204.889V202.482H167.704C168.186 202.482 168.575 202.023 168.575 201.458C168.575 200.894 168.184 200.436 167.704 200.436H165.657V198.029Z" fill="#24366F"></path><path fill-rule="evenodd" clip-rule="evenodd" d="M382.505 156.627C382.505 156.061 382.114 155.604 381.635 155.604C381.154 155.604 380.764 156.061 380.764 156.627V159.034H378.717C378.236 159.034 377.846 159.492 377.846 160.058C377.846 160.624 378.236 161.08 378.717 161.08H380.764V163.487C380.764 164.053 381.154 164.511 381.635 164.511C382.116 164.511 382.505 164.053 382.505 163.487V161.08H384.552C385.033 161.08 385.422 160.622 385.422 160.058C385.422 159.493 385.031 159.034 384.552 159.034H382.505V156.627Z" fill="#FCC10F"></path><path fill-rule="evenodd" clip-rule="evenodd" d="M319.411 81.3033C319.411 80.7373 319.02 80.2793 318.541 80.2793C318.059 80.2793 317.671 80.7373 317.671 81.3033V83.7098H315.624C315.142 83.7098 314.752 84.1677 314.752 84.7337C314.752 85.2983 315.142 85.7563 315.624 85.7563H317.671V88.1642C317.671 88.7302 318.06 89.1867 318.541 89.1867C319.021 89.1867 319.411 88.7287 319.411 88.1642V85.7563H321.458C321.938 85.7563 322.328 85.2983 322.328 84.7337C322.328 84.1677 321.937 83.7098 321.458 83.7098H319.411V81.3033Z" fill="#FCC10F"></path><path fill-rule="evenodd" clip-rule="evenodd" d="M433.77 97.5264C433.77 96.9604 433.379 96.5024 432.9 96.5024C432.418 96.5024 432.029 96.9604 432.029 97.5264V99.9329H429.981C429.5 99.9329 429.11 100.391 429.11 100.957C429.11 101.521 429.5 101.979 429.981 101.979H432.029V104.386C432.029 104.95 432.418 105.408 432.9 105.408C433.38 105.408 433.77 104.95 433.77 104.386V101.979H435.817C436.297 101.979 436.687 101.521 436.687 100.957C436.687 100.391 436.297 99.9329 435.817 99.9329H433.77V97.5264Z" fill="#FCC10F"></path><path fill-rule="evenodd" clip-rule="evenodd" d="M489.963 306.121C489.963 305.555 489.573 305.097 489.093 305.097C488.611 305.097 488.223 305.557 488.223 306.121V308.528H486.176C485.694 308.528 485.306 308.986 485.306 309.55C485.306 310.115 485.694 310.573 486.176 310.573H488.223V312.979C488.223 313.545 488.611 314.002 489.093 314.002C489.574 314.002 489.963 313.544 489.963 312.979V310.573H492.011C492.491 310.573 492.881 310.115 492.881 309.55C492.881 308.986 492.491 308.528 492.011 308.528H489.963V306.121Z" fill="#FCC10F"></path></g></svg>
