<svg width="270" height="223" viewBox="0 0 270 223" fill="none" xmlns="http://www.w3.org/2000/svg">
<rect y="0.843262" width="269.074" height="221.838" rx="4" fill="#FFF5F6"/>
<path d="M218.202 104.958C218.376 104.958 218.551 104.958 218.65 104.774C218.675 104.695 218.7 104.617 218.7 104.538C218.7 104.381 218.626 104.25 218.501 104.171C218.376 104.119 218.252 104.119 217.977 104.119H217.853V104.931H218.202V104.958ZM217.977 103.673C218.351 103.673 218.526 103.673 218.675 103.751C219.174 103.909 219.224 104.381 219.224 104.538C219.224 104.564 219.224 104.669 219.199 104.774C219.174 104.879 219.124 105.089 218.85 105.272C218.8 105.299 218.8 105.299 218.725 105.325L219.348 106.531H218.75L218.202 105.43H217.853V106.531H217.304V103.673H217.977ZM218.202 107.711C219.548 107.711 220.62 106.557 220.62 105.167C220.62 103.751 219.548 102.624 218.202 102.624C216.881 102.624 215.809 103.751 215.809 105.167C215.809 106.557 216.881 107.711 218.202 107.711ZM216.307 105.167C216.307 104.066 217.155 103.148 218.202 103.148C219.274 103.148 220.121 104.066 220.121 105.167C220.121 106.243 219.249 107.16 218.202 107.16C217.18 107.16 216.307 106.243 216.307 105.167ZM199.506 121.347C196.315 121.347 193.648 119.092 192.825 116.024H210.474L212.917 112.038H192.801C193.598 108.97 196.315 106.688 199.481 106.688H211.646L214.064 102.703H199.207C193.249 102.703 188.438 107.763 188.438 114.004C188.438 120.245 193.249 125.306 199.207 125.306H211.97L214.388 121.32H199.481L199.506 121.347ZM148.928 125.332C142.995 125.332 138.184 120.272 138.184 114.031C138.184 107.79 142.995 102.729 148.928 102.729H163.785L161.342 106.715H149.177C145.338 106.715 142.222 109.992 142.222 114.031C142.222 118.069 145.338 121.347 149.177 121.347H164.084L161.641 125.332H148.878H148.928ZM70.4061 121.347C74.2449 121.347 77.3858 118.069 77.3858 114.031C77.3858 109.992 74.2699 106.715 70.4061 106.715H58.4658C54.6269 106.715 51.511 109.992 51.511 114.031C51.511 118.069 54.6269 121.347 58.4658 121.347H70.4061ZM58.1916 125.332C52.2339 125.332 47.4229 120.272 47.4229 114.031C47.4229 107.79 52.2339 102.729 58.1916 102.729H70.6803C76.6131 102.729 81.4241 107.79 81.4241 114.031C81.4241 120.272 76.6131 125.332 70.6803 125.332H58.1916ZM101.715 118.016C105.753 118.016 108.994 114.581 108.994 110.36C108.994 106.138 105.753 102.703 101.715 102.703H83.6177V125.332H87.7557V106.688H101.441C103.335 106.688 104.906 108.34 104.906 110.36C104.906 112.379 103.335 114.004 101.441 114.004H89.7748L102.089 125.332H108.097L99.7957 118.016H101.665H101.715ZM170.116 121.347V102.729H166.003V123.182C166.003 123.759 166.203 124.284 166.602 124.703C167.001 125.096 167.549 125.359 168.122 125.359H186.992L189.435 121.373H170.141L170.116 121.347ZM119.513 117.361H130.556L124.723 107.475L114.004 125.359H109.144L122.156 103.909C122.729 103.043 123.676 102.519 124.723 102.519C125.72 102.519 126.668 103.017 127.241 103.856L140.303 125.359H135.417L133.124 121.373H121.956L119.513 117.387V117.361Z" fill="#E32124"/>
</svg>
