<svg width="120" height="120" viewBox="0 0 120 120" fill="none" xmlns="http://www.w3.org/2000/svg">
<path d="M7.05107 59.7364C8.4269 58.0839 8.65641 56.8841 8.74999 53.75C8.84358 56.8841 9.07309 58.0839 10.4489 59.7364C10.8768 60.2503 10.8768 60.9997 10.4489 61.5136C9.07309 63.1661 8.84358 64.3659 8.74999 67.5C8.65641 64.3659 8.4269 63.1661 7.05107 61.5136C6.62319 60.9997 6.62319 60.2503 7.05107 59.7364Z" fill="#F4BE02"/>
<path d="M90.8011 108.486C92.1769 106.834 92.4064 105.634 92.5 102.5C92.5936 105.634 92.8231 106.834 94.1989 108.486C94.6268 109 94.6268 109.75 94.1989 110.264C92.8231 111.916 92.5936 113.116 92.5 116.25C92.4064 113.116 92.1769 111.916 90.8011 110.264C90.3732 109.75 90.3732 109 90.8011 108.486Z" fill="#F4BE02"/>
<path d="M65.625 96.25C90.823 96.25 111.25 75.823 111.25 50.625C111.25 25.427 90.823 5 65.625 5C40.427 5 20 25.427 20 50.625C20 51.4638 20.0226 52.2973 20.0673 53.125C22.5449 49.1667 28.125 40.375 30.625 36.875C33.125 33.375 39.1667 25 41.875 21.25C43.5417 19.5833 47 16.25 47.5 16.25C48.125 16.25 49.375 16.25 50 16.875C50.5 17.375 51.0417 19.1667 51.25 20C52.0833 20.4167 53.75 21.5 53.75 22.5C53.75 23.5 52.5 25.4167 51.875 26.25C51.6667 27.2917 51 29.75 50 31.25C49 32.75 45.8333 35.625 44.375 36.875C46.875 36.0417 52.125 34.5 53.125 35C54.375 35.625 54.375 38.125 53.75 40C53.25 41.5 50.625 43.5417 49.375 44.375V45C49.7917 45 50.75 45.25 51.25 46.25C51.75 47.25 51.4583 52.5 51.25 55L48.75 68.75C47.9167 72.0833 45.875 79.75 44.375 83.75C42.875 87.75 41.8523 89.1667 41.5285 89.375C48.5211 93.7325 56.779 96.25 65.625 96.25Z" fill="#F4BE02"/>
<path d="M36.875 62.5L38.125 65.625C39.1667 62.5 41.25 56.125 41.25 55.625C41.25 55.125 43.3333 49.1667 44.375 46.25L38.125 50L36.875 62.5Z" fill="#F4BE02"/>
<path d="M16.1487 65.153C23.712 52.0088 27.9308 48.2623 32.6699 44.5603C35.6122 42.2572 39.2979 39.9133 42.7814 38.1266M16.1487 65.153C13.734 79.0087 19.4793 89.582 11.501 97.8892C9.16014 100.322 6.42643 101.795 3.97114 102.712C2.27724 103.345 0.986643 104.887 1.29601 106.672C1.75695 109.333 3.02467 113.139 6.47591 115.988C8.68428 117.811 11.0259 118.613 12.7149 118.978C13.6524 119.181 14.6171 118.928 15.4025 118.37C22.9136 113.036 35.4121 102.546 43.0292 86.1862C50.9845 69.0977 51.8572 50.6604 51.795 47.675C51.7328 44.6895 48.1369 44.383 46.0203 45.1961C44.0904 45.9376 43.2585 47.9749 41.2609 55.0134C40.3876 58.0923 39.3101 61.8448 38.1714 66.4835M16.1487 65.153C16.4301 63.5385 16.8222 61.8794 17.3598 60.1741C23.2848 41.3044 41.0928 26.6131 48.4649 24.6798M42.7814 38.1266C47.7493 35.5786 52.3062 34.1635 53.7104 35.6151C54.6222 36.5569 54.2609 38.769 53.7231 40.0582C52.7429 42.4097 50.491 43.3599 49.8859 43.5946C45.4849 45.1852 41.4456 47.2377 38.0497 49.9936M42.7814 38.1266C42.7814 38.1266 52.7096 31.0031 51.9079 26.2732M38.0497 49.9936C34.6033 52.7905 31.8197 56.3119 29.9933 60.8102C27.5505 67.2125 30.0527 73.3778 33.5294 78.8364C33.6493 79.0246 33.7554 79.2205 33.839 79.4277C34.4193 80.8663 35.2762 83.621 34.7543 87.0192C33.8652 92.8871 29.5716 96.1312 28.6703 96.7818M38.0497 49.9936C37.1859 53.7462 36.7602 58.2165 36.6561 61.5988C36.6094 63.1147 37.284 64.8802 38.1714 66.4835M38.1714 66.4835C39.284 68.4936 40.7312 70.2487 41.5109 70.9374M48.4649 24.6798C49.6312 24.3739 50.5364 24.3874 51.0919 24.7542C51.5075 25.0331 51.674 25.4783 51.7753 25.7625C51.8346 25.9292 51.8785 26.0996 51.9079 26.2732M48.4649 24.6798C48.7169 24.4668 51.6654 21.9046 50.9941 18.914C50.9506 18.7132 50.4718 16.7165 49.0614 16.3198C47.9469 16.0007 46.646 16.7997 45.1926 18.2273C40.4922 22.8698 28.9003 39.4597 27.0323 42.1401M48.4649 24.6798C48.4606 24.6834 48.457 24.6864 48.4543 24.6886M51.9079 26.2732C53.3491 25.2439 53.9404 23.489 53.4123 22.0508C52.8652 20.5481 51.3406 20.0443 51.1367 19.9776M51.9079 26.2732C51.9051 26.2752 51.9022 26.2773 51.8994 26.2793M61.25 38.3828L67.1691 32.4637V47.6842M61.25 57.8313L67.1691 51.9122V67.1328M71.397 57.8313L77.3162 51.9122V67.1328M81.5441 57.8313L87.4632 51.9122V67.1328M91.6912 57.8313L97.6103 51.9122V67.1328M101.838 57.8313L107.757 51.9122V67.1328M111.985 57.8313L117.904 51.9122V67.1328M81.5441 18.9343L87.4632 13.0151V28.2357M81.5441 38.3828L87.4632 32.4637V47.6842M101.838 18.9343L107.757 13.0151V28.2357M15 7.5C14.8505 12.6592 14.4696 14.4267 12.0259 17.2608C11.5986 17.7564 11.5986 18.4936 12.0259 18.9892C14.4696 21.8233 14.8505 23.5908 15 28.75C15.1495 23.5908 15.5304 21.8233 17.9741 18.9892C18.4014 18.4936 18.4014 17.7564 17.9741 17.2608C15.5304 14.4267 15.1495 12.6592 15 7.5ZM73.9338 32.4637H76.4706C77.4046 32.4637 78.1618 33.2208 78.1618 34.1548V45.9931C78.1618 46.9271 77.4046 47.6842 76.4706 47.6842H73.9338C72.9998 47.6842 72.2426 46.9271 72.2426 45.9931V34.1548C72.2426 33.2208 72.9998 32.4637 73.9338 32.4637ZM94.2279 13.0151H96.7647C97.6987 13.0151 98.4559 13.7723 98.4559 14.7063V26.5445C98.4559 27.4786 97.6987 28.2357 96.7647 28.2357H94.2279C93.2939 28.2357 92.5368 27.4786 92.5368 26.5445V14.7063C92.5368 13.7723 93.2939 13.0151 94.2279 13.0151ZM94.2279 32.4637H96.7647C97.6987 32.4637 98.4559 33.2208 98.4559 34.1548V45.9931C98.4559 46.9271 97.6987 47.6842 96.7647 47.6842H94.2279C93.2939 47.6842 92.5368 46.9271 92.5368 45.9931V34.1548C92.5368 33.2208 93.2939 32.4637 94.2279 32.4637ZM114.522 13.0151H117.059C117.993 13.0151 118.75 13.7723 118.75 14.7063V26.5445C118.75 27.4786 117.993 28.2357 117.059 28.2357H114.522C113.588 28.2357 112.831 27.4786 112.831 26.5445V14.7063C112.831 13.7723 113.588 13.0151 114.522 13.0151ZM114.522 32.4637H117.059C117.993 32.4637 118.75 33.2208 118.75 34.1548V45.9931C118.75 46.9271 117.993 47.6842 117.059 47.6842H114.522C113.588 47.6842 112.831 46.9271 112.831 45.9931V34.1548C112.831 33.2208 113.588 32.4637 114.522 32.4637ZM105.221 32.4637H107.757C108.691 32.4637 109.449 33.2208 109.449 34.1548V45.9931C109.449 46.9271 108.691 47.6842 107.757 47.6842H105.221C104.287 47.6842 103.529 46.9271 103.529 45.9931V34.1548C103.529 33.2208 104.287 32.4637 105.221 32.4637ZM73.9338 13.8607H76.4706C77.4046 13.8607 78.1618 14.6179 78.1618 15.5519V27.3901C78.1618 28.3241 77.4046 29.0813 76.4706 29.0813H73.9338C72.9998 29.0813 72.2426 28.3241 72.2426 27.3901V15.5519C72.2426 14.6179 72.9998 13.8607 73.9338 13.8607ZM62.9412 13.8607H65.4779C66.4119 13.8607 67.1691 14.6179 67.1691 15.5519V27.3901C67.1691 28.3241 66.4119 29.0813 65.4779 29.0813H62.9412C62.0072 29.0813 61.25 28.3241 61.25 27.3901V15.5519C61.25 14.6179 62.0072 13.8607 62.9412 13.8607ZM66.3971 91.25C66.2915 94.8918 66.0227 96.1394 64.2977 98.14C63.9961 98.4898 63.9961 99.0102 64.2977 99.36C66.0227 101.361 66.2915 102.608 66.3971 106.25C66.5026 102.608 66.7714 101.361 68.4964 99.36C68.798 99.0102 68.798 98.4898 68.4964 98.14C66.7714 96.1394 66.5026 94.8918 66.3971 91.25ZM99.375 72.5C99.1935 78.816 98.7197 80.8112 95.5461 84.3957C95.2418 84.7395 95.2418 85.2605 95.5461 85.6042C98.7197 89.1888 99.1935 91.184 99.375 97.5C99.5565 91.184 100.03 89.1888 103.204 85.6042C103.508 85.2605 103.508 84.7395 103.204 84.3957C100.03 80.8112 99.5565 78.816 99.375 72.5Z" stroke="#000577" stroke-linecap="round" stroke-linejoin="round"/>
</svg>
