<svg width="34" height="34" viewBox="0 0 34 34" fill="none" xmlns="http://www.w3.org/2000/svg">
<path fill-rule="evenodd" clip-rule="evenodd" d="M0.333359 6.99992C0.333359 5.23181 1.03574 3.53612 2.28598 2.28587C3.53622 1.03563 5.23192 0.333252 7.00003 0.333252H27C28.7681 0.333252 30.4638 1.03563 31.7141 2.28587C32.9643 3.53612 33.6667 5.23181 33.6667 6.99992V26.9999C33.6667 28.768 32.9643 30.4637 31.7141 31.714C30.4638 32.9642 28.7681 33.6666 27 33.6666H7.00003C5.23192 33.6666 3.53622 32.9642 2.28598 31.714C1.03574 30.4637 0.333359 28.768 0.333359 26.9999V6.99992ZM7.00003 3.66659C6.11597 3.66659 5.26812 4.01777 4.643 4.6429C4.01788 5.26802 3.66669 6.11586 3.66669 6.99992V26.9999C3.66669 27.884 4.01788 28.7318 4.643 29.3569C5.26812 29.9821 6.11597 30.3333 7.00003 30.3333H17V18.6666H15.3334C14.8913 18.6666 14.4674 18.491 14.1548 18.1784C13.8423 17.8659 13.6667 17.4419 13.6667 16.9999C13.6667 16.5579 13.8423 16.134 14.1548 15.8214C14.4674 15.5088 14.8913 15.3333 15.3334 15.3333H17V12.8333C17 11.2862 17.6146 9.80243 18.7086 8.70846C19.8025 7.6145 21.2863 6.99992 22.8334 6.99992H23.8334C24.2754 6.99992 24.6993 7.17551 25.0119 7.48807C25.3244 7.80064 25.5 8.22456 25.5 8.66659C25.5 9.10861 25.3244 9.53254 25.0119 9.8451C24.6993 10.1577 24.2754 10.3333 23.8334 10.3333H22.8334C22.5051 10.3333 22.18 10.3979 21.8767 10.5236C21.5733 10.6492 21.2977 10.8333 21.0656 11.0655C20.8334 11.2976 20.6493 11.5732 20.5237 11.8765C20.398 12.1799 20.3334 12.5049 20.3334 12.8333V15.3333H23.8334C24.2754 15.3333 24.6993 15.5088 25.0119 15.8214C25.3244 16.134 25.5 16.5579 25.5 16.9999C25.5 17.4419 25.3244 17.8659 25.0119 18.1784C24.6993 18.491 24.2754 18.6666 23.8334 18.6666H20.3334V30.3333H27C27.8841 30.3333 28.7319 29.9821 29.357 29.3569C29.9822 28.7318 30.3334 27.884 30.3334 26.9999V6.99992C30.3334 6.11586 29.9822 5.26802 29.357 4.6429C28.7319 4.01777 27.8841 3.66659 27 3.66659H7.00003Z" fill="#000AF4"/>
</svg>
